<?xml version="1.0" encoding="UTF-8"?>
<svg width="1440px" height="48px" viewBox="0 0 1440 48" version="1.1" xmlns="http://www.w3.org/2000/svg" xmlns:xlink="http://www.w3.org/1999/xlink">
    <title>hills</title>
    <g id="Components" stroke="none" stroke-width="1" fill="none" fill-rule="evenodd">
        <g id="Organism/1.NavPanel/Footer/D" fill="#002868">
            <path d="M0,11 C30.1026472,14.0033804 57.3358724,13.2918853 81.6996756,8.86551474 C106.063479,4.4391442 120.603742,1.48397262 125.320467,0 C147.398812,2.60829324 165.429457,4.60039778 179.412403,5.97631361 C193.39535,7.35222944 213.928543,9.15478987 241.011983,11.3839949 C268.422158,12.6322729 289.368101,13.2564119 303.849812,13.2564119 C318.331523,13.2564119 328.292894,12.6322729 333.733926,11.3839949 L397.31031,0 C408.437149,2.21864743 420.570622,4.21075197 433.71073,5.97631361 C446.850838,7.74187525 462.958977,9.54443568 482.035146,11.3839949 L517.851184,5.97631361 C527.794872,8.39024436 536.609801,10.1928048 544.295971,11.3839949 C551.982142,12.575185 560.936098,13.9307614 571.157841,15.450724 L591.544822,16.5131645 C606.470239,18.5616396 616.542114,19.5858771 621.760448,19.5858771 C626.978781,19.5858771 634.888097,18.5616396 645.488396,16.5131645 L695.481763,11.3839949 L748.41058,0 C768.389057,2.46338148 785.030784,4.45548602 798.335759,5.97631361 C811.640734,7.4971412 831.936072,9.29970163 859.221771,11.3839949 L912.061259,15.450724 C919.825258,15.7182435 926.084068,15.7182435 930.83769,15.450724 C935.591313,15.1832045 942.329599,14.4517671 951.05255,13.2564119 C968.468862,9.29638617 979.210174,6.86968674 983.276485,5.97631361 C993.607735,3.70652675 995.582023,2.75063671 1002.09037,3.70340462 C1008.06338,4.5778043 1013.77245,7.29520495 1020.58367,8.86551474 C1023.91176,9.63279858 1029.35671,10.472292 1036.91854,11.3839949 L1059.57328,5.97631361 C1064.11254,8.01000584 1070.20165,9.81256627 1077.84062,11.3839949 C1085.47959,12.9554235 1094.7427,14.3109999 1105.62993,15.450724 C1110.45234,16.1590176 1114.28576,16.5131645 1117.1302,16.5131645 C1119.97463,16.5131645 1122.99754,16.1590176 1126.19892,15.450724 L1150.36107,11.3839949 L1215.28801,0 C1230.15768,1.97053059 1250.24484,3.96263513 1275.5495,5.97631361 C1300.85415,7.98999209 1328.4522,9.79255252 1358.34365,11.3839949 C1365.40982,11.4071383 1371.93773,10.9927423 1377.92739,10.140807 C1383.91705,9.2888716 1390.06231,7.90070714 1396.36317,5.97631361 L1440,11 L1440,47.0355731 L0,47.0355731 L0,11 Z" id="hills"></path>
        </g>
    </g>
</svg>