<?xml version="1.0" encoding="UTF-8"?>
<svg width="589px" height="292px" viewBox="0 0 589 292" version="1.1" xmlns="http://www.w3.org/2000/svg" xmlns:xlink="http://www.w3.org/1999/xlink">
    <title>Whit_Lines</title>
    <defs>
        <rect id="path-1" x="0" y="0" width="589" height="292"></rect>
    </defs>
    <g id="Symbols" stroke="none" stroke-width="1" fill="none" fill-rule="evenodd" opacity="0.211023966">
        <g id="Whit_Lines" transform="translate(294.500000, 146.000000) scale(-1, 1) translate(-294.500000, -146.000000) ">
            <mask id="mask-2" fill="white">
                <use xlink:href="#path-1"></use>
            </mask>
            <use id="Mask" fill="#6CB2E2" opacity="0" xlink:href="#path-1"></use>
            <g opacity="0.85" mask="url(#mask-2)" id="Group">
                <g transform="translate(543.974942, 69.445228) rotate(-6.000000) translate(-543.974942, -69.445228) translate(-393.867392, -549.282880)">
                    <g transform="translate(0.000000, 0.000000)">
                        <path d="M304.165081,803.423066 C434.521545,686.449593 516.356435,585.760058 760.412703,486.363389 C934.221321,415.563655 1198.55526,400.172408 1365.12185,258.572941" id="Path" stroke="#6CB2E2" stroke-width="0.8"></path>
                        <path d="M315.02812,812.657814 C445.384583,695.684341 527.219474,594.994806 771.275742,495.598136 C945.084359,424.798403 1209.4183,409.407156 1375.98489,267.807689" id="Path" stroke="#6CB2E2" stroke-width="0.8"></path>
                        <path d="M325.891158,821.892562 C456.247622,704.919088 538.082513,604.229554 782.13878,504.832884 C955.947398,434.03315 1220.28134,418.641904 1386.84793,277.042436" id="Path" stroke="#6CB2E2" stroke-width="0.8"></path>
                        <path d="M336.754197,831.127309 C467.11066,714.153836 548.945551,613.464302 793.001819,514.067632 C966.810437,443.267898 1231.14438,427.876652 1397.71097,286.277184" id="Path" stroke="#6CB2E2" stroke-width="0.8"></path>
                        <path d="M347.617236,840.362057 C477.973699,723.388584 559.80859,622.69905 803.864857,523.30238 C977.673475,452.502646 1242.00741,437.1114 1408.57401,295.511932" id="Path" stroke="#6CB2E2" stroke-width="0.8"></path>
                        <path d="M358.480274,849.596805 C488.836738,732.623332 570.671629,631.933798 814.727896,532.537128 C988.536514,461.737394 1252.87045,446.346148 1419.43705,304.74668" id="Path" stroke="#6CB2E2" stroke-width="0.8"></path>
                        <path d="M369.343313,858.831553 C499.699776,741.85808 581.534667,641.168546 825.590935,541.771876 C999.399552,470.972142 1263.73349,455.580896 1430.30008,313.981428" id="Path" stroke="#6CB2E2" stroke-width="0.8"></path>
                        <path d="M380.206351,868.066301 C510.562815,751.092828 592.397706,650.403293 836.453973,551.006624 C1010.26259,480.20689 1274.59653,464.815643 1441.16312,323.216176" id="Path" stroke="#6CB2E2" stroke-width="0.8"></path>
                        <path d="M391.06939,877.301049 C521.425853,760.327576 603.260744,659.638041 847.317012,560.241372 C1021.12563,489.441638 1285.45957,474.050391 1452.02616,332.450924" id="Path" stroke="#6CB2E2" stroke-width="0.8"></path>
                        <path d="M401.932429,886.535797 C532.288892,769.562324 614.123783,668.872789 858.18005,569.476119 C1031.98867,498.676386 1296.32261,483.285139 1462.8892,341.685672" id="Path" stroke="#6CB2E2" stroke-width="0.8"></path>
                        <path d="M412.795467,895.770545 C543.151931,778.797071 624.986822,678.107537 869.043089,578.710867 C1042.85171,507.911134 1307.18565,492.519887 1473.75224,350.92042" id="Path" stroke="#6CB2E2" stroke-width="0.8"></path>
                        <path d="M423.658506,905.005293 C554.014969,788.031819 635.84986,687.342285 879.906128,587.945615 C1053.71475,517.145881 1318.04869,501.754635 1484.61528,360.155167" id="Path" stroke="#6CB2E2" stroke-width="0.8"></path>
                        <path d="M434.521545,914.24004 C564.878008,797.266567 646.712899,696.577033 890.769166,597.180363 C1064.57778,526.380629 1328.91172,510.989383 1495.47832,369.389915" id="Path" stroke="#6CB2E2" stroke-width="0.8"></path>
                        <path d="M445.384583,923.474788 C575.741047,806.501315 657.575937,705.811781 901.632205,606.415111 C1075.44082,535.615377 1339.77476,520.224131 1506.34135,378.624663" id="Path" stroke="#6CB2E2" stroke-width="0.8"></path>
                        <path d="M456.247622,932.709536 C586.604085,815.736063 668.438976,715.046529 912.495244,615.649859 C1086.30386,544.850125 1350.6378,529.458879 1517.20439,387.859411" id="Path" stroke="#6CB2E2" stroke-width="0.8"></path>
                        <path d="M467.11066,941.944284 C597.467124,824.970811 679.302015,724.281276 923.358282,624.884607 C1097.1669,554.084873 1361.50084,538.693627 1528.06743,397.094159" id="Path" stroke="#6CB2E2" stroke-width="0.8"></path>
                        <path d="M477.973699,951.179032 C608.330162,834.205559 690.165053,733.516024 934.221321,634.119355 C1108.02994,563.319621 1372.36388,547.928374 1538.93047,406.328907" id="Path" stroke="#6CB2E2" stroke-width="0.8"></path>
                        <path d="M488.836738,960.41378 C619.193201,843.440307 701.028092,742.750772 945.084359,643.354103 C1118.89298,572.554369 1383.22692,557.163122 1549.79351,415.563655" id="Path" stroke="#6CB2E2" stroke-width="0.8"></path>
                        <path d="M499.699776,969.648528 C630.05624,852.675055 711.89113,751.98552 955.947398,652.58885 C1129.75602,581.789117 1394.08996,566.39787 1560.65655,424.798403" id="Path" stroke="#6CB2E2" stroke-width="0.8"></path>
                        <path d="M510.562815,978.883276 C640.919278,861.909802 722.754169,761.220268 966.810437,661.823598 C1140.61905,591.023865 1404.95299,575.632618 1571.51959,434.03315" id="Path" stroke="#6CB2E2" stroke-width="0.8"></path>
                        <path d="M521.425853,988.118023 C651.782317,871.14455 733.617208,770.455016 977.673475,671.058346 C1151.48209,600.258612 1415.81603,584.867366 1582.38262,443.267898" id="Path" stroke="#6CB2E2" stroke-width="0.8"></path>
                        <path d="M532.288892,997.352771 C662.645355,880.379298 744.480246,779.689764 988.536514,680.293094 C1162.34513,609.49336 1426.67907,594.102114 1593.24566,452.502646" id="Path" stroke="#6CB2E2" stroke-width="0.8"></path>
                        <path d="M543.151931,1006.58752 C673.508394,889.614046 755.343285,788.924512 999.399552,689.527842 C1173.20817,618.728108 1437.54211,603.336862 1604.1087,461.737394" id="Path" stroke="#6CB2E2" stroke-width="0.8"></path>
                        <path d="M554.014969,1015.82227 C684.371433,898.848794 766.206324,798.15926 1010.26259,698.76259 C1184.07121,627.962856 1448.40515,612.57161 1614.97174,470.972142" id="Path" stroke="#6CB2E2" stroke-width="0.8"></path>
                        <path d="M564.878008,1025.05702 C695.234471,908.083542 777.069362,807.394007 1021.12563,707.997338 C1194.93425,637.197604 1459.26819,621.806357 1625.83478,480.20689" id="Path" stroke="#6CB2E2" stroke-width="0.8"></path>
                        <path d="M575.741047,1034.29176 C706.09751,917.31829 787.932401,816.628755 1031.98867,717.232086 C1205.79729,646.432352 1470.13123,631.041105 1636.69782,489.441638" id="Path" stroke="#6CB2E2" stroke-width="0.8"></path>
                        <path d="M586.604085,1043.52651 C716.960549,926.553038 798.795439,825.863503 1042.85171,726.466833 C1216.66032,655.6671 1480.99426,640.275853 1647.56086,498.676386" id="Path" stroke="#6CB2E2" stroke-width="0.8"></path>
                        <path d="M597.467124,1052.76126 C727.823587,935.787785 809.658478,835.098251 1053.71475,735.701581 C1227.52336,664.901848 1491.8573,649.510601 1658.4239,507.911134" id="Path" stroke="#6CB2E2" stroke-width="0.8"></path>
                        <path d="M608.330162,1061.99601 C738.686626,945.022533 820.521517,844.332999 1064.57778,744.936329 C1238.3864,674.136595 1502.72034,658.745349 1669.28693,517.145881" id="Path" stroke="#6CB2E2" stroke-width="0.8"></path>
                        <path d="M619.193201,1071.23075 C749.549664,954.257281 831.384555,853.567747 1075.44082,754.171077 C1249.24944,683.371343 1513.58338,667.980097 1680.14997,526.380629" id="Path" stroke="#6CB2E2" stroke-width="0.8"></path>
                        <path d="M630.05624,1080.4655 C760.412703,963.492029 842.247594,862.802495 1086.30386,763.405825 C1260.11248,692.606091 1524.44642,677.214845 1691.01301,535.615377" id="Path" stroke="#6CB2E2" stroke-width="0.8"></path>
                        <path d="M640.919278,1089.70025 C771.275742,972.726777 853.110632,872.037243 1097.1669,772.640573 C1270.97552,701.840839 1535.30946,686.449593 1701.87605,544.850125" id="Path" stroke="#6CB2E2" stroke-width="0.8"></path>
                        <path d="M651.782317,1098.935 C782.13878,981.961525 863.973671,881.27199 1108.02994,781.875321 C1281.83856,711.075587 1546.1725,695.684341 1712.73909,554.084873" id="Path" stroke="#6CB2E2" stroke-width="0.8"></path>
                        <path d="M662.645355,1108.16975 C793.001819,991.196273 874.83671,890.506738 1118.89298,791.110069 C1292.7016,720.310335 1557.03553,704.919088 1723.60213,563.319621" id="Path" stroke="#6CB2E2" stroke-width="0.8"></path>
                        <path d="M673.508394,1117.40449 C803.864857,1000.43102 885.699748,899.741486 1129.75602,800.344817 C1303.56463,729.545083 1567.89857,714.153836 1734.46517,572.554369" id="Path" stroke="#6CB2E2" stroke-width="0.8"></path>
                        <path d="M684.371433,1126.63924 C814.727896,1009.66577 896.562787,908.976234 1140.61905,809.579564 C1314.42767,738.779831 1578.76161,723.388584 1745.3282,581.789117" id="Path" stroke="#6CB2E2" stroke-width="0.8"></path>
                        <path d="M695.234471,1135.87399 C825.590935,1018.90052 907.425826,918.210982 1151.48209,818.814312 C1325.29071,748.014579 1589.62465,732.623332 1756.19124,591.023865" id="Path" stroke="#6CB2E2" stroke-width="0.8"></path>
                        <path d="M706.09751,1145.10874 C836.453973,1028.13526 918.288864,927.44573 1162.34513,828.04906 C1336.15375,757.249326 1600.48769,741.85808 1767.05428,600.258612" id="Path" stroke="#6CB2E2" stroke-width="0.8"></path>
                        <path d="M716.960549,1154.34349 C847.317012,1037.37001 929.151903,936.680478 1173.20817,837.283808 C1347.01679,766.484074 1611.35073,751.092828 1777.91732,609.49336" id="Path" stroke="#6CB2E2" stroke-width="0.8"></path>
                        <path d="M727.823587,1163.57823 C858.18005,1046.60476 940.014941,945.915226 1184.07121,846.518556 C1357.87983,775.718822 1622.21377,760.327576 1788.78036,618.728108" id="Path" stroke="#6CB2E2" stroke-width="0.8"></path>
                        <path d="M738.686626,1172.81298 C869.043089,1055.83951 950.87798,955.149974 1194.93425,855.753304 C1368.74287,784.95357 1633.0768,769.562324 1799.6434,627.962856" id="Path" stroke="#6CB2E2" stroke-width="0.8"></path>
                        <path d="M749.549664,1182.04773 C879.906128,1065.07426 961.741019,964.384721 1205.79729,864.988052 C1379.6059,794.188318 1643.93984,778.797071 1810.50644,637.197604" id="Path" stroke="#6CB2E2" stroke-width="0.8"></path>
                        <path d="M760.412703,1191.28248 C890.769166,1074.309 972.604057,973.619469 1216.66032,874.2228 C1390.46894,803.423066 1654.80288,788.031819 1821.36947,646.432352" id="Path" stroke="#6CB2E2" stroke-width="0.8"></path>
                        <path d="M771.275742,1200.51722 C901.632205,1083.54375 983.467096,982.854217 1227.52336,883.457547 C1401.33198,812.657814 1665.66592,797.266567 1832.23251,655.6671" id="Path" stroke="#6CB2E2" stroke-width="0.8"></path>
                        <path d="M782.13878,1209.75197 C912.495244,1092.7785 994.330134,992.088965 1238.3864,892.692295 C1412.19502,821.892562 1676.52896,806.501315 1843.09555,664.901848" id="Path" stroke="#6CB2E2" stroke-width="0.8"></path>
                        <path d="M793.001819,1218.98672 C923.358282,1102.01325 1005.19317,1001.32371 1249.24944,901.927043 C1423.05806,831.127309 1687.392,815.736063 1853.95859,674.136595" id="Path" stroke="#6CB2E2" stroke-width="0.8"></path>
                        <path d="M803.864857,1228.22147 C934.221321,1111.248 1016.05621,1010.55846 1260.11248,911.161791 C1433.9211,840.362057 1698.25504,824.970811 1864.82163,683.371343" id="Path" stroke="#6CB2E2" stroke-width="0.8"></path>
                        <path d="M814.727896,1237.45622 C945.084359,1120.48274 1026.91925,1019.79321 1270.97552,920.396539 C1444.78414,849.596805 1709.11808,834.205559 1875.68467,692.606091" id="Path" stroke="#6CB2E2" stroke-width="0.8"></path>
                        <path d="M293.302043,794.188318 C423.658506,677.214845 505.493397,576.52531 749.549664,477.128641 C923.358282,406.328907 1187.69222,390.93766 1354.25881,249.338193" id="Path" stroke="#6CB2E2" stroke-width="0.8"></path>
                        <path d="M282.439004,784.95357 C412.795467,667.980097 494.630358,567.290562 738.686626,467.893893 C912.495244,397.094159 1176.82918,381.702912 1343.39578,240.103445" id="Path" stroke="#6CB2E2" stroke-width="0.8"></path>
                        <path d="M271.575965,775.718822 C401.932429,658.745349 483.76732,558.055815 727.823587,458.659145 C901.632205,387.859411 1165.96614,372.468165 1332.53274,230.868697" id="Path" stroke="#6CB2E2" stroke-width="0.8"></path>
                        <path d="M260.712927,766.484074 C391.06939,649.510601 472.904281,548.821067 716.960549,449.424397 C890.769166,378.624663 1155.10311,363.233417 1321.6697,221.633949" id="Path" stroke="#6CB2E2" stroke-width="0.8"></path>
                        <path d="M249.849888,757.249326 C380.206351,640.275853 462.041242,539.586319 706.09751,440.189649 C879.906128,369.389915 1144.24007,353.998669 1310.80666,212.399201" id="Path" stroke="#6CB2E2" stroke-width="0.8"></path>
                        <path d="M238.98685,748.014579 C369.343313,631.041105 451.178204,530.351571 695.234471,430.954901 C869.043089,360.155167 1133.37703,344.763921 1299.94362,203.164453" id="Path" stroke="#6CB2E2" stroke-width="0.8"></path>
                        <path d="M228.123811,738.779831 C358.480274,621.806357 440.315165,521.116823 684.371433,421.720153 C858.18005,350.92042 1122.51399,335.529173 1289.08058,193.929706" id="Path" stroke="#6CB2E2" stroke-width="0.8"></path>
                        <path d="M217.260772,729.545083 C347.617236,612.57161 429.452127,511.882075 673.508394,412.485405 C847.317012,341.685672 1111.65095,326.294425 1278.21754,184.694958" id="Path" stroke="#6CB2E2" stroke-width="0.8"></path>
                        <path d="M206.397734,720.310335 C336.754197,603.336862 418.589088,502.647327 662.645355,403.250658 C836.453973,332.450924 1100.78791,317.059677 1267.3545,175.46021" id="Path" stroke="#6CB2E2" stroke-width="0.8"></path>
                        <path d="M195.534695,711.075587 C325.891158,594.102114 407.726049,493.412579 651.782317,394.01591 C825.590935,323.216176 1089.92487,307.824929 1256.49147,166.225462" id="Path" stroke="#6CB2E2" stroke-width="0.8"></path>
                        <path d="M184.671656,701.840839 C315.02812,584.867366 396.863011,484.177832 640.919278,384.781162 C814.727896,313.981428 1079.06184,298.590182 1245.62843,156.990714" id="Path" stroke="#6CB2E2" stroke-width="0.8"></path>
                        <path d="M173.808618,692.606091 C304.165081,575.632618 385.999972,474.943084 630.05624,375.546414 C803.864857,304.74668 1068.1988,289.355434 1234.76539,147.755966" id="Path" stroke="#6CB2E2" stroke-width="0.8"></path>
                        <path d="M162.945579,683.371343 C293.302043,566.39787 375.136933,465.708336 619.193201,366.311666 C793.001819,295.511932 1057.33576,280.120686 1223.90235,138.521218" id="Path" stroke="#6CB2E2" stroke-width="0.8"></path>
                        <path d="M152.082541,674.136595 C282.439004,557.163122 364.273895,456.473588 608.330162,357.076918 C782.13878,286.277184 1046.47272,270.885938 1213.03931,129.28647" id="Path" stroke="#6CB2E2" stroke-width="0.8"></path>
                        <path d="M141.219502,664.901848 C271.575965,547.928374 353.410856,447.23884 597.467124,347.84217 C771.275742,277.042436 1035.60968,261.65119 1202.17627,120.051722" id="Path" stroke="#6CB2E2" stroke-width="0.8"></path>
                        <path d="M130.356463,655.6671 C260.712927,538.693627 342.547818,438.004092 586.604085,338.607422 C760.412703,267.807689 1024.74664,252.416442 1191.31323,110.816975" id="Path" stroke="#6CB2E2" stroke-width="0.8"></path>
                        <path d="M119.493425,646.432352 C249.849888,529.458879 331.684779,428.769344 575.741047,329.372674 C749.549664,258.572941 1013.8836,243.181694 1180.4502,101.582227" id="Path" stroke="#6CB2E2" stroke-width="0.8"></path>
                        <path d="M108.630386,637.197604 C238.98685,520.224131 320.82174,419.534596 564.878008,320.137927 C738.686626,249.338193 1003.02057,233.946946 1169.58716,92.3474788" id="Path" stroke="#6CB2E2" stroke-width="0.8"></path>
                        <path d="M97.7673475,627.962856 C228.123811,510.989383 309.958702,410.299848 554.014969,310.903179 C727.823587,240.103445 992.157527,224.712198 1158.72412,83.1127309" id="Path" stroke="#6CB2E2" stroke-width="0.8"></path>
                        <path d="M86.9043089,618.728108 C217.260772,501.754635 299.095663,401.065101 543.151931,301.668431 C716.960549,230.868697 981.294488,215.477451 1147.86108,73.8779831" id="Path" stroke="#6CB2E2" stroke-width="0.8"></path>
                        <path d="M76.0412703,609.49336 C206.397734,492.519887 288.232625,391.830353 532.288892,292.433683 C706.09751,221.633949 970.431449,206.242703 1136.99804,64.6432352" id="Path" stroke="#6CB2E2" stroke-width="0.8"></path>
                        <path d="M65.1782317,600.258612 C195.534695,483.285139 277.369586,382.595605 521.425853,283.198935 C695.234471,212.399201 959.568411,197.007955 1126.135,55.4084873" id="Path" stroke="#6CB2E2" stroke-width="0.8"></path>
                        <path d="M54.3151931,591.023865 C184.671656,474.050391 266.506547,373.360857 510.562815,273.964187 C684.371433,203.164453 948.705372,187.773207 1115.27196,46.1737394" id="Path" stroke="#6CB2E2" stroke-width="0.8"></path>
                        <path d="M43.4521545,581.789117 C173.808618,464.815643 255.643509,364.126109 499.699776,264.729439 C673.508394,193.929706 937.842334,178.538459 1104.40893,36.9389915" id="Path" stroke="#6CB2E2" stroke-width="0.8"></path>
                        <path d="M32.5891158,572.554369 C162.945579,455.580896 244.78047,354.891361 488.836738,255.494691 C662.645355,184.694958 926.979295,169.303711 1093.54589,27.7042436" id="Path" stroke="#6CB2E2" stroke-width="0.8"></path>
                        <path d="M21.7260772,563.319621 C152.082541,446.346148 233.917431,345.656613 477.973699,246.259944 C651.782317,175.46021 916.116256,160.068963 1082.68285,18.4694958" id="Path" stroke="#6CB2E2" stroke-width="0.8"></path>
                        <path d="M10.8630386,554.084873 C141.219502,437.1114 223.054393,336.421865 467.11066,237.025196 C640.919278,166.225462 905.253218,150.834215 1071.81981,9.23474788" id="Path" stroke="#6CB2E2" stroke-width="0.8"></path>
                        <path d="M1.13686838e-13,544.850125 C130.356463,427.876652 212.191354,327.187117 456.247622,227.790448 C630.05624,156.990714 894.390179,141.599468 1060.95677,4.54747351e-13" id="Path" stroke="#6CB2E2" stroke-width="0.8"></path>
                    </g>
                </g>
            </g>
        </g>
    </g>
</svg>