<?xml version="1.0" encoding="UTF-8"?>
<svg width="955px" height="714px" viewBox="0 0 955 714" version="1.1" xmlns="http://www.w3.org/2000/svg" xmlns:xlink="http://www.w3.org/1999/xlink">
    <title>Group 211</title>
    <defs>
        <polygon id="path-1" points="0 0 423.645 0 423.645 712.8139 0 712.8139"></polygon>
        <polygon id="path-3" points="5.68434189e-14 0 425.207 0 425.207 712.8138 5.68434189e-14 712.8138"></polygon>
        <polygon id="path-5" points="0 0 426.526 0 426.526 712.8136 0 712.8136"></polygon>
        <polygon id="path-7" points="0 0 426.894 0 426.894 712.8139 0 712.8139"></polygon>
        <polygon id="path-9" points="0 0 427.567 0 427.567 712.8138 0 712.8138"></polygon>
        <polygon id="path-11" points="0 0 414.1536 0 414.1536 674.387 0 674.387"></polygon>
        <polygon id="path-13" points="0 0 399.6358 0 399.6358 639.377 0 639.377"></polygon>
        <polygon id="path-15" points="0 0 384.8539 0 384.8539 608.3456 0 608.3456"></polygon>
        <polygon id="path-17" points="0 0 340.6706 0 340.6706 531.5805 0 531.5805"></polygon>
        <polygon id="path-19" points="0 -5.68434189e-14 310.941 -5.68434189e-14 310.941 486.6986 0 486.6986"></polygon>
        <polygon id="path-21" points="0 0 296.0535 0 296.0535 465.4559 0 465.4559"></polygon>
        <polygon id="path-23" points="0 0 281.4316 0 281.4316 445.775 0 445.775"></polygon>
        <polygon id="path-25" points="0 0 266.5047 0 266.5047 425.5275 0 425.5275"></polygon>
        <polygon id="path-27" points="0 0 252.1589 0 252.1589 407.5959 0 407.5959"></polygon>
        <polygon id="path-29" points="0 -5.68434189e-14 207.2225 -5.68434189e-14 207.2225 348.741 0 348.741"></polygon>
        <polygon id="path-31" points="0 0 191.8797 0 191.8797 328.1005 0 328.1005"></polygon>
        <polygon id="path-33" points="0 0 177.4878 0 177.4878 310.2609 0 310.2609"></polygon>
        <polygon id="path-35" points="0 0 147.3475 0 147.3475 269.457 0 269.457"></polygon>
        <polygon id="path-37" points="0 5.68434189e-14 72.6819 5.68434189e-14 72.6819 152.698 0 152.698"></polygon>
        <polygon id="path-39" points="0 0 420.647 0 420.647 712.8138 0 712.8138"></polygon>
        <polygon id="path-41" points="0 0 417.984 0 417.984 712.8139 0 712.8139"></polygon>
        <polygon id="path-43" points="0 0 416.642 0 416.642 712.8137 0 712.8137"></polygon>
        <polygon id="path-45" points="5.68434189e-14 0 414.042 0 414.042 712.8137 5.68434189e-14 712.8137"></polygon>
        <polygon id="path-47" points="0 0 412.489 0 412.489 712.8135 0 712.8135"></polygon>
        <polygon id="path-49" points="5.68434189e-14 0 410.191 0 410.191 712.8139 5.68434189e-14 712.8139"></polygon>
        <polygon id="path-51" points="0 0 409.171 0 409.171 712.8136 0 712.8136"></polygon>
        <polygon id="path-53" points="5.68434189e-14 0 405.19 0 405.19 712.8138 5.68434189e-14 712.8138"></polygon>
        <polygon id="path-55" points="2.84217094e-14 0 399.238 0 399.238 712.8136 2.84217094e-14 712.8136"></polygon>
        <polygon id="path-57" points="0 0 392.264 0 392.264 712.8139 0 712.8139"></polygon>
        <polygon id="path-59" points="0.07035 0.03155 0.92965 0.03155 0.92965 0.96845 0.07035 0.96845"></polygon>
    </defs>
    <g id="Symbols" stroke="none" stroke-width="1" fill="none" fill-rule="evenodd" opacity="0.211023966">
        <g id="Group-211">
            <path d="M468.18655,390.78245 C497.84955,344.09945 538.14155,298.44545 580.79755,250.11045 C621.76155,203.69445 664.11955,155.69945 700.07855,103.24945 C724.01155,68.34045 742.92155,34.44445 757.12455,0.90445 L756.25455,0.90445 C742.08655,34.29345 723.24655,68.04145 699.41755,102.79745 C663.48655,155.20645 621.14555,203.18345 580.19855,249.58145 C537.51955,297.94045 497.20755,343.61745 467.51055,390.35245 C420.63955,464.10345 387.98055,531.55645 364.73055,602.63245 C352.24555,640.79745 343.38155,677.22845 335.81955,713.71845 L336.63755,713.71845 C344.18655,677.30645 353.03655,640.95345 365.49155,602.88045 C388.71955,531.87145 421.35255,464.47545 468.18655,390.78245" id="Fill-1" fill="#6CB2E2"></path>
            <path d="M481.94245,394.75125 C511.60545,348.06825 551.89745,302.41425 594.55345,254.07925 C635.51745,207.66325 677.87545,159.66825 713.83445,107.21825 C738.71145,70.93225 758.15845,35.73925 772.53745,0.90525 L771.67145,0.90525 C757.32645,35.58825 737.94645,70.63225 713.17345,106.76625 C677.24245,159.17525 634.90145,207.15225 593.95445,253.55025 C551.27545,301.90925 510.96345,347.58625 481.26645,394.32125 C434.39645,468.07225 401.73745,535.52525 378.48645,606.60125 C366.45345,643.38325 357.78545,678.55325 350.40445,713.71825 L351.22245,713.71825 C358.59145,678.63125 367.24445,643.53825 379.24745,606.84925 C402.47645,535.83925 435.10845,468.44325 481.94245,394.75125" id="Fill-3" fill="#6CB2E2"></path>
            <path d="M495.69735,400.71505 C525.36035,354.03205 565.65235,308.37805 608.30935,260.04305 C649.27235,213.62805 691.63035,165.63205 727.58935,113.18205 C753.88635,74.82405 774.11935,37.68805 788.70635,0.90505 L787.84535,0.90505 C773.28835,37.53605 753.12235,74.52405 726.92835,112.73005 C690.99835,165.14005 648.65635,213.11605 607.70935,259.51405 C565.03135,307.87305 524.71835,353.55005 495.02135,400.28505 C448.15135,474.03505 415.49335,541.48705 392.24335,612.56205 C380.89035,647.26505 372.53235,680.53505 365.42435,713.71805 L366.24235,713.71805 C373.33835,680.61305 381.68035,647.42205 393.00335,612.81005 C416.23235,541.80205 448.86335,474.40605 495.69735,400.71505" id="Fill-5" fill="#6CB2E2"></path>
            <g id="Group-9" transform="translate(379.603150, 0.904650)">
                <mask id="mask-2" fill="white">
                    <use xlink:href="#path-1"></use>
                </mask>
                <g id="Clip-8"></g>
                <path d="M129.85,401.786 C159.513,355.103 199.805,309.449 242.461,261.114 C283.425,214.698 325.783,166.703 361.742,114.253 C388.51,75.208 409.002,37.429 423.645,0 L422.786,0 C408.173,37.277 387.746,74.908 361.081,113.801 C325.151,166.21 282.809,214.187 241.862,260.585 C199.183,308.944 158.871,354.621 129.174,401.356 C82.304,475.106 49.646,542.558 26.395,613.633 C15.267,647.648 7.017,680.285 0,712.814 L0.818,712.814 C7.823,680.363 16.058,647.805 27.156,613.882 C50.384,542.873 83.016,475.477 129.85,401.786" id="Fill-7" fill="#6CB2E2" mask="url(#mask-2)"></path>
            </g>
            <path d="M523.20905,407.65745 C552.87205,360.97345 593.16405,315.31945 635.82105,266.98345 C676.78405,220.56845 719.14205,172.57345 755.10105,120.12345 C783.05405,79.35145 804.16205,39.95945 818.91305,0.90445 L818.05605,0.90445 C803.33305,39.80645 782.29005,79.05145 754.44005,119.67145 C718.51005,172.08045 676.16905,220.05745 635.22205,266.45445 C592.54305,314.81445 552.23005,360.49245 522.53305,407.22745 C475.66205,480.97845 443.00305,548.43145 419.75305,619.50645 C409.19205,651.78945 401.22305,682.83145 394.44005,713.71845 L395.26005,713.71845 C402.03005,682.90945 409.98205,651.94645 420.51405,619.75445 C443.74205,548.74545 476.37405,481.34945 523.20905,407.65745" id="Fill-10" fill="#6CB2E2"></path>
            <path d="M536.96485,409.63105 C566.62785,362.94705 606.91985,317.29305 649.57685,268.95805 C690.53985,222.54205 732.89785,174.54705 768.85685,122.09705 C797.28085,80.63805 818.62085,40.60605 833.40185,0.90505 L832.54885,0.90505 C817.79485,40.45305 796.51585,80.33805 768.19585,121.64505 C732.26585,174.05505 689.92485,222.03105 648.97785,268.42905 C606.29885,316.78805 565.98585,362.46605 536.28885,409.20105 C489.41885,482.95205 456.75985,550.40405 433.50885,621.47905 C423.17285,653.07505 415.31785,683.48305 408.62985,713.71805 L409.44985,713.71805 C416.12485,683.56105 423.96285,653.23305 434.26985,621.72805 C457.49785,550.71905 490.13085,483.32305 536.96485,409.63105" id="Fill-12" fill="#6CB2E2"></path>
            <g id="Group-16" transform="translate(423.048750, 0.904750)">
                <mask id="mask-4" fill="white">
                    <use xlink:href="#path-3"></use>
                </mask>
                <g id="Clip-15"></g>
                <path d="M127.671,411.699 C157.334,365.015 197.626,319.361 240.283,271.025 C281.246,224.61 323.604,176.615 359.563,124.165 C388.696,81.671 410.392,40.676 425.207,0 L424.354,0 C409.565,40.523 387.932,81.37 358.902,123.713 C322.972,176.122 280.631,224.099 239.684,270.496 C197.005,318.856 156.692,364.534 126.995,411.269 C80.124,485.02 47.465,552.473 24.215,623.548 C14.217,654.109 6.544,683.557 5.68434189e-14,712.814 L0.819,712.814 C7.351,683.635 15.008,654.266 24.976,623.796 C48.204,552.787 80.836,485.391 127.671,411.699" id="Fill-14" fill="#6CB2E2" mask="url(#mask-4)"></path>
            </g>
            <path d="M564.47565,416.57245 C594.13865,369.88845 634.43065,324.23445 677.08765,275.89845 C718.05065,229.48345 760.40865,181.48845 796.36765,129.03845 C826.44865,85.16245 848.59665,42.88345 863.43065,0.90445 L862.58165,0.90445 C847.77065,42.73045 825.68465,84.86145 795.70665,128.58645 C759.77665,180.99545 717.43565,228.97245 676.48865,275.36945 C633.80965,323.72945 593.49665,369.40745 563.79965,416.14245 C516.92865,489.89345 484.26965,557.34645 461.01965,628.42145 C451.47465,657.60045 444.04665,685.76545 437.69865,713.71845 L438.51865,713.71845 C444.85465,685.84345 452.26465,657.75845 461.78065,628.66945 C485.00865,557.66045 517.64065,490.26445 564.47565,416.57245" id="Fill-17" fill="#6CB2E2"></path>
            <path d="M578.23055,418.54615 C607.89355,371.86315 648.18555,326.20915 690.84155,277.87415 C731.80455,231.45815 774.16355,183.46315 810.12255,131.01315 C840.67455,86.44915 863.05255,43.53315 877.88655,0.90515 L877.03755,0.90515 C862.22655,43.37915 839.91155,86.14715 809.46155,130.56115 C773.53055,182.97015 731.18955,230.94715 690.24255,277.34515 C647.56355,325.70415 607.25155,371.38115 577.55455,418.11615 C530.68455,491.86715 498.02555,559.32015 474.77455,630.39615 C465.45355,658.88815 458.15355,686.41315 451.90355,713.71815 L452.72455,713.71815 C458.96055,686.49115 466.24355,659.04615 475.53555,630.64415 C498.76355,559.63415 531.39655,492.23815 578.23055,418.54615" id="Fill-19" fill="#6CB2E2"></path>
            <g id="Group-23" transform="translate(466.809350, 0.904950)">
                <mask id="mask-6" fill="white">
                    <use xlink:href="#path-5"></use>
                </mask>
                <g id="Clip-22"></g>
                <path d="M125.177,422.608 C154.84,375.925 195.132,330.271 237.789,281.936 C278.752,235.52 321.11,187.525 357.069,135.075 C388.808,88.78 411.723,44.263 426.526,0 L425.68,0 C410.899,44.108 388.045,88.478 356.409,134.623 C320.478,187.032 278.136,235.009 237.19,281.407 C194.511,329.766 154.198,375.443 124.501,422.178 C77.631,495.928 44.973,563.38 21.723,634.455 C12.967,661.222 5.994,687.134 0,712.814 L0.821,712.814 C6.802,687.213 13.756,661.381 22.483,634.703 C45.712,563.695 78.343,496.299 125.177,422.608" id="Fill-21" fill="#6CB2E2" mask="url(#mask-6)"></path>
            </g>
            <g id="Group-26" transform="translate(481.496250, 0.904650)">
                <mask id="mask-8" fill="white">
                    <use xlink:href="#path-7"></use>
                </mask>
                <g id="Clip-25"></g>
                <path d="M124.245,426.579 C153.908,379.896 194.2,334.242 236.856,285.907 C277.82,239.492 320.178,191.496 356.137,139.046 C388.826,91.366 412.148,45.573 426.894,0 L426.053,0 C411.326,45.418 388.062,91.064 355.476,138.594 C319.546,191.003 277.204,238.98 236.257,285.378 C193.578,333.737 153.266,379.414 123.569,426.149 C76.699,499.899 44.041,567.351 20.79,638.426 C12.485,663.814 5.784,688.433 0,712.814 L0.823,712.814 C6.592,688.512 13.274,663.973 21.551,638.675 C44.779,567.666 77.411,500.27 124.245,426.579" id="Fill-24" fill="#6CB2E2" mask="url(#mask-8)"></path>
            </g>
            <path d="M619.49805,433.44745 C649.16105,386.76345 689.45305,341.10945 732.11005,292.77345 C773.07305,246.35845 815.43105,198.36345 851.39005,145.91345 C885.50505,96.15345 909.42105,48.44845 924.03005,0.90445 L923.19205,0.90445 C908.60105,48.29245 884.74205,95.85145 850.72905,145.46145 C814.79905,197.87045 772.45805,245.84745 731.51105,292.24445 C688.83205,340.60445 648.51905,386.28245 618.82205,433.01745 C571.95105,506.76845 539.29205,574.22145 516.04205,645.29645 C508.41405,668.61545 502.14005,691.28545 496.68505,713.71845 L497.50905,713.71845 C502.94905,691.36445 509.20305,668.77445 516.80305,645.54445 C540.03105,574.53545 572.66305,507.13945 619.49805,433.44745" id="Fill-27" fill="#6CB2E2"></path>
            <path d="M633.25295,435.42215 C662.91595,388.73815 703.20795,343.08415 745.86495,294.74815 C786.82795,248.33315 829.18595,200.33815 865.14495,147.88915 C899.73195,97.43915 923.83695,49.10215 938.38795,0.90515 L937.55295,0.90515 C923.01995,48.94715 898.96895,97.13615 864.48395,147.43615 C828.55395,199.84515 786.21295,247.82215 745.26595,294.21915 C702.58695,342.57915 662.27395,388.25715 632.57695,434.99215 C585.70595,508.74315 553.04795,576.19515 529.79695,647.27015 C522.39195,669.90515 516.26495,691.92915 510.92295,713.71815 L511.74795,713.71815 C517.07395,692.00815 523.18195,670.06615 530.55795,647.51915 C553.78595,576.51015 586.41895,509.11415 633.25295,435.42215" id="Fill-29" fill="#6CB2E2"></path>
            <g id="Group-33" transform="translate(525.162850, 0.904750)">
                <mask id="mask-10" fill="white">
                    <use xlink:href="#path-9"></use>
                </mask>
                <g id="Clip-32"></g>
                <path d="M121.846,436.492 C151.509,389.808 191.801,344.154 234.458,295.819 C275.421,249.403 317.779,201.408 353.738,148.958 C388.798,97.82 413.083,48.853 427.567,0 L426.733,0 C412.264,48.696 388.034,97.517 353.077,148.506 C317.147,200.915 274.806,248.892 233.859,295.29 C191.18,343.649 150.867,389.327 121.17,436.062 C74.299,509.813 41.64,577.266 18.39,648.341 C11.209,670.292 5.226,691.669 0,712.814 L0.824,712.814 C6.035,691.748 11.998,670.452 19.151,648.589 C42.379,577.58 75.011,510.184 121.846,436.492" id="Fill-31" fill="#6CB2E2" mask="url(#mask-10)"></path>
            </g>
            <g id="Group-36" transform="translate(540.409750, 39.331550)">
                <mask id="mask-12" fill="white">
                    <use xlink:href="#path-11"></use>
                </mask>
                <g id="Clip-35"></g>
                <path d="M120.354,404.029 C150.017,357.346 190.309,311.691 232.966,263.356 C273.929,216.94 316.287,168.945 352.246,116.496 C379.017,77.447 399.511,39.664 414.154,2.231 L414.154,0 C399.485,38.011 378.784,76.37 351.585,116.043 C315.655,168.452 273.314,216.429 232.367,262.827 C189.688,311.186 149.375,356.864 119.678,403.599 C72.807,477.35 40.148,544.803 16.898,615.878 C10.392,635.767 4.868,655.186 0,674.387 L0.825,674.387 C5.678,655.265 11.181,635.928 17.659,616.126 C40.887,545.117 73.519,477.721 120.354,404.029" id="Fill-34" fill="#6CB2E2" mask="url(#mask-12)"></path>
            </g>
            <g id="Group-39" transform="translate(554.927550, 74.341250)">
                <mask id="mask-14" fill="white">
                    <use xlink:href="#path-13"></use>
                </mask>
                <g id="Clip-38"></g>
                <path d="M119.591,371.991 C149.254,325.308 189.546,279.654 232.202,231.319 C273.166,184.903 315.524,136.908 351.483,84.458 C370.725,56.391 386.721,28.978 399.636,1.879 L399.636,0 C386.614,27.562 370.404,55.443 350.822,84.006 C314.891,136.415 272.55,184.392 231.603,230.79 C188.924,279.149 148.612,324.826 118.915,371.561 C72.045,445.312 39.386,512.765 16.135,583.841 C9.964,602.705 4.682,621.144 0,639.377 L0.826,639.377 C5.492,621.223 10.753,602.866 16.896,584.089 C40.125,513.079 72.757,445.683 119.591,371.991" id="Fill-37" fill="#6CB2E2" mask="url(#mask-14)"></path>
            </g>
            <g id="Group-42" transform="translate(569.709450, 105.372950)">
                <mask id="mask-16" fill="white">
                    <use xlink:href="#path-15"></use>
                </mask>
                <g id="Clip-41"></g>
                <path d="M118.565,344.929 C148.228,298.246 188.52,252.592 231.177,204.257 C272.14,157.842 314.498,109.846 350.457,57.397 C363.368,38.564 374.815,20.026 384.854,1.68 L384.854,0 C374.659,18.746 362.997,37.69 349.796,56.945 C313.866,109.354 271.524,157.33 230.577,203.728 C187.898,252.087 147.586,297.764 117.889,344.499 C71.019,418.25 38.36,485.703 15.109,556.779 C9.385,574.275 4.425,591.406 0,608.346 L0.828,608.346 C5.236,591.485 10.174,574.436 15.87,557.027 C39.099,486.017 71.731,418.621 118.565,344.929" id="Fill-40" fill="#6CB2E2" mask="url(#mask-16)"></path>
            </g>
            <path d="M702.02935,452.27655 C731.69235,405.59355 771.98335,359.93955 814.64035,311.60455 C855.60435,265.18955 897.96235,217.19355 933.92135,164.74355 C941.27535,154.01655 948.14835,143.38755 954.56335,132.83255 L954.56335,131.29855 C947.96335,142.20755 940.86535,153.19855 933.26035,164.29155 C897.33035,216.70055 854.98835,264.67755 814.04135,311.07555 C771.36235,359.43455 731.05035,405.11155 701.35335,451.84655 C654.48335,525.59655 621.82535,593.04855 598.57435,664.12355 C593.07235,680.94155 588.27935,697.42055 583.98435,713.71855 L584.81235,713.71855 C589.08935,697.50055 593.86135,681.10355 599.33535,664.37255 C622.56335,593.36355 655.19535,525.96755 702.02935,452.27655" id="Fill-43" fill="#6CB2E2"></path>
            <path d="M715.78515,456.24535 C745.44815,409.56235 785.74015,363.90835 828.39715,315.57335 C869.36015,269.15835 911.71815,221.16235 947.67715,168.71235 C950.02215,165.29135 952.31415,161.88035 954.56315,158.47835 L954.56315,157.03135 C952.10515,160.76335 949.59015,164.50535 947.01615,168.26035 C911.08615,220.66935 868.74415,268.64635 827.79715,315.04435 C785.11915,363.40335 744.80615,409.08035 715.10915,455.81535 C668.23915,529.56535 635.58115,597.01735 612.33115,668.09235 C607.27515,683.54635 602.81715,698.71435 598.79415,713.71835 L599.62215,713.71835 C603.62715,698.79435 608.06315,683.70835 613.09115,668.34035 C636.32015,597.33235 668.95115,529.93635 715.78515,456.24535" id="Fill-45" fill="#6CB2E2"></path>
            <g id="Group-49" transform="translate(613.892750, 182.138050)">
                <mask id="mask-18" fill="white">
                    <use xlink:href="#path-17"></use>
                </mask>
                <g id="Clip-48"></g>
                <path d="M227.661,137.871 C184.982,186.231 144.67,231.909 114.973,278.644 C68.102,352.395 35.443,419.848 12.192,490.922 C7.694,504.672 3.667,518.197 0,531.581 L0.831,531.581 C4.479,518.277 8.483,504.835 12.953,491.171 C36.182,420.162 68.814,352.767 115.648,279.074 C145.311,232.391 185.603,186.736 228.261,138.4 C266.643,94.909 306.25,50.029 340.671,1.399 L340.671,0 C306.122,48.955 266.275,94.118 227.661,137.871" id="Fill-47" fill="#6CB2E2" mask="url(#mask-18)"></path>
            </g>
            <path d="M742.62115,465.74925 C695.75115,539.50025 663.09215,606.95225 639.84115,678.02625 C635.89815,690.07825 632.31815,701.95625 629.02515,713.71825 L629.85515,713.71825 C633.12915,702.03725 636.68715,690.24125 640.60115,678.27525 C663.83015,607.26725 696.46315,539.87125 743.29715,466.17925 C772.96015,419.49525 813.25215,373.84125 855.90915,325.50625 C889.27315,287.70025 923.56015,248.84625 954.56315,207.39225 L954.56315,206.04625 C923.41015,247.80025 888.89415,286.92225 855.30915,324.97725 C812.63115,373.33625 772.31815,419.01425 742.62115,465.74925" id="Fill-50" fill="#6CB2E2"></path>
            <g id="Group-54" transform="translate(643.622050, 227.019950)">
                <mask id="mask-20" fill="white">
                    <use xlink:href="#path-19"></use>
                </mask>
                <g id="Clip-53"></g>
                <path d="M112.754,241.702 C65.883,315.453 33.224,382.906 9.974,453.98 C6.363,465.018 3.061,475.908 0,486.699 L0.832,486.699 C3.873,475.988 7.151,465.181 10.734,454.228 C33.963,383.22 66.595,315.824 113.43,242.132 C143.093,195.449 183.385,149.794 226.042,101.459 C254.544,69.163 283.714,36.098 310.941,1.305 L310.941,-5.68434189e-14 C283.547,35.073 254.156,68.393 225.442,100.93 C182.764,149.289 142.451,194.967 112.754,241.702" id="Fill-52" fill="#6CB2E2" mask="url(#mask-20)"></path>
            </g>
            <g id="Group-57" transform="translate(658.509850, 248.262650)">
                <mask id="mask-22" fill="white">
                    <use xlink:href="#path-21"></use>
                </mask>
                <g id="Clip-56"></g>
                <path d="M111.622,224.428 C64.751,298.179 32.093,365.631 8.842,436.705 C5.673,446.391 2.74,455.964 0,465.456 L0.834,465.456 C3.553,456.045 6.461,446.555 9.602,436.954 C32.831,365.946 65.464,298.55 112.298,224.858 C141.961,178.174 182.253,132.52 224.91,84.184 C248.664,57.267 272.881,29.812 296.054,1.272 L296.054,0 C272.702,28.804 248.272,56.504 224.31,83.655 C181.632,132.015 141.319,177.693 111.622,224.428" id="Fill-55" fill="#6CB2E2" mask="url(#mask-22)"></path>
            </g>
            <g id="Group-60" transform="translate(673.131750, 267.943350)">
                <mask id="mask-24" fill="white">
                    <use xlink:href="#path-23"></use>
                </mask>
                <g id="Clip-59"></g>
                <path d="M110.755,207.719 C63.885,281.47 31.226,348.923 7.975,419.998 C5.136,428.674 2.491,437.258 0,445.775 L0.834,445.775 C3.303,437.339 5.925,428.838 8.735,420.246 C31.964,349.237 64.597,281.841 111.431,208.149 C141.094,161.466 181.386,115.812 224.043,67.477 C243.135,45.844 262.523,23.859 281.432,1.248 L281.432,0 C262.335,22.863 242.737,45.085 223.443,66.948 C180.765,115.307 140.452,160.984 110.755,207.719" id="Fill-58" fill="#6CB2E2" mask="url(#mask-24)"></path>
            </g>
            <g id="Group-63" transform="translate(688.058650, 288.191050)">
                <mask id="mask-26" fill="white">
                    <use xlink:href="#path-25"></use>
                </mask>
                <g id="Clip-62"></g>
                <path d="M109.584,191.442 C62.714,265.193 30.055,332.646 6.804,403.721 C4.406,411.051 2.147,418.313 0,425.528 L0.835,425.528 C2.96,418.395 5.194,411.214 7.564,403.969 C30.793,332.961 63.426,265.564 110.26,191.872 C139.923,145.189 180.214,99.535 222.871,51.2 C237.357,34.786 252.014,18.167 266.505,1.23 L266.505,0 C251.82,17.18 236.958,34.03 222.272,50.671 C179.593,99.03 139.281,144.707 109.584,191.442" id="Fill-61" fill="#6CB2E2" mask="url(#mask-26)"></path>
            </g>
            <g id="Group-66" transform="translate(702.404450, 306.122650)">
                <mask id="mask-28" fill="white">
                    <use xlink:href="#path-27"></use>
                </mask>
                <g id="Clip-65"></g>
                <path d="M108.993,175.484 C62.123,249.234 29.465,316.686 6.215,387.76 C4.035,394.423 1.972,401.03 0,407.596 L0.835,407.596 C2.784,401.111 4.823,394.587 6.974,388.008 C30.203,317.001 62.835,249.605 109.669,175.914 C139.332,129.231 179.624,83.577 222.281,35.242 C232.196,24.008 242.191,12.678 252.159,1.218 L252.159,0 C241.993,11.695 231.794,23.253 221.681,34.713 C179.002,83.072 138.69,128.749 108.993,175.484" id="Fill-64" fill="#6CB2E2" mask="url(#mask-28)"></path>
            </g>
            <path d="M825.15335,487.57055 C778.28335,561.32055 745.62535,628.77255 722.37535,699.84655 C720.85435,704.49655 719.39235,709.11755 717.97535,713.71855 L718.81135,713.71855 C720.20535,709.19955 721.64135,704.66055 723.13435,700.09455 C746.36335,629.08755 778.99535,561.69155 825.82935,488.00055 C855.49235,441.31755 895.78435,395.66355 938.44135,347.32855 C943.79735,341.25955 949.17735,335.16155 954.56335,329.03255 L954.56335,327.81855 C948.97635,334.17755 943.39535,340.50455 937.84135,346.79955 C895.16235,395.15855 854.85035,440.83555 825.15335,487.57055" id="Fill-67" fill="#6CB2E2"></path>
            <path d="M838.90925,488.54805 C792.03825,562.29905 759.37925,629.75205 736.12925,700.82605 C734.71625,705.14605 733.35325,709.44105 732.02925,713.71805 L732.86725,713.71805 C734.16625,709.52305 735.50425,705.31005 736.88925,701.07405 C760.11825,630.06605 792.75025,562.67005 839.58525,488.97805 C869.24825,442.29505 909.54025,396.64005 952.19725,348.30505 C952.98425,347.41305 953.77525,346.51605 954.56325,345.62305 L954.56325,344.41405 C953.57525,345.53405 952.58425,346.65705 951.59725,347.77605 C908.91925,396.13505 868.60625,441.81305 838.90925,488.54805" id="Fill-69" fill="#6CB2E2"></path>
            <g id="Group-73" transform="translate(747.340850, 364.977150)">
                <mask id="mask-30" fill="white">
                    <use xlink:href="#path-29"></use>
                </mask>
                <g id="Clip-72"></g>
                <path d="M2.544,340.816 C1.677,343.467 0.833,346.107 0,348.741 L0.839,348.741 C1.647,346.189 2.464,343.632 3.305,341.064 C26.533,270.055 59.165,202.66 106,128.967 C133.008,86.463 168.829,44.809 207.223,1.21 L207.223,-5.68434189e-14 C168.581,43.871 132.505,85.762 105.324,128.538 C58.453,202.289 25.794,269.742 2.544,340.816" id="Fill-71" fill="#6CB2E2" mask="url(#mask-30)"></path>
            </g>
            <g id="Group-76" transform="translate(762.683650, 385.618050)">
                <mask id="mask-32" fill="white">
                    <use xlink:href="#path-31"></use>
                </mask>
                <g id="Clip-75"></g>
                <path d="M0.956,325.141 C0.632,326.13 0.319,327.114 0,328.101 L0.841,328.101 C1.133,327.197 1.42,326.296 1.717,325.39 C24.945,254.381 57.578,186.986 104.412,113.293 C128.165,75.91 158.738,39.185 191.88,1.216 L191.88,0 C158.484,38.238 127.664,75.208 103.736,112.864 C56.866,186.615 24.207,254.067 0.956,325.141" id="Fill-74" fill="#6CB2E2" mask="url(#mask-32)"></path>
            </g>
            <g id="Group-79" transform="translate(777.075550, 403.457650)">
                <mask id="mask-34" fill="white">
                    <use xlink:href="#path-33"></use>
                </mask>
                <g id="Clip-78"></g>
                <path d="M0.319,309.275 C0.211,309.604 0.108,309.932 0,310.261 L0.841,310.261 C0.922,310.015 0.999,309.77 1.08,309.524 C24.308,238.515 56.941,171.12 103.775,97.427 C124.204,65.276 149.675,33.613 177.488,1.226 L177.488,0 C149.419,32.656 123.703,64.573 103.099,96.998 C56.228,170.749 23.57,238.201 0.319,309.275" id="Fill-77" fill="#6CB2E2" mask="url(#mask-34)"></path>
            </g>
            <path d="M792.14115,713.71855 L792.98415,713.71855 C816.14215,643.89555 848.48415,577.42755 894.60615,504.85555 C911.61515,478.08755 932.12315,451.65655 954.56315,424.86455 L954.56315,423.61955 C931.86415,450.68355 911.11815,477.37855 893.93115,504.42555 C847.71715,577.14255 815.32615,643.73855 792.14115,713.71855" id="Fill-80" fill="#6CB2E2"></path>
            <g id="Group-84" transform="translate(807.215850, 444.261550)">
                <mask id="mask-36" fill="white">
                    <use xlink:href="#path-35"></use>
                </mask>
                <g id="Clip-83"></g>
                <path d="M0,269.457 L0.846,269.457 C23.908,201.078 55.897,135.759 101.146,64.563 C114.612,43.37 130.273,22.389 147.348,1.273 L147.348,0 C130.015,21.396 114.119,42.653 100.47,64.133 C55.13,135.474 23.091,200.923 0,269.457" id="Fill-82" fill="#6CB2E2" mask="url(#mask-36)"></path>
            </g>
            <path d="M822.32715,713.71855 L823.17215,713.71855 C846.12915,646.77855 877.74515,582.61055 922.11715,512.79455 C931.87815,497.43255 942.79515,482.18355 954.56315,466.91255 L954.56315,465.60055 C942.53915,481.16355 931.39215,496.70455 921.44115,512.36455 C876.97815,582.32655 845.31115,646.62355 822.32715,713.71855" id="Fill-85" fill="#6CB2E2"></path>
            <path d="M837.10115,713.71855 L837.94915,713.71855 C860.82015,647.84855 892.15815,584.54955 935.87315,515.76555 C941.71015,506.57855 947.96515,497.43155 954.56315,488.29555 L954.56315,486.93155 C947.71815,496.37755 941.23515,505.83455 935.19715,515.33655 C891.39015,584.26555 860.00015,647.69355 837.10115,713.71855" id="Fill-87" fill="#6CB2E2"></path>
            <path d="M852.59915,713.71855 L853.44715,713.71855 C876.16015,649.62655 907.01315,587.78555 949.62915,520.73255 C951.24115,518.19555 952.89015,515.66255 954.56315,513.13055 L954.56315,511.67355 C952.65415,514.54655 950.78315,517.42255 948.95315,520.30255 C906.24515,587.50155 875.34115,649.47355 852.59915,713.71855" id="Fill-89" fill="#6CB2E2"></path>
            <path d="M867.90625,713.71855 C888.94225,654.83655 916.89025,597.79155 954.56325,536.78555 L954.56325,535.26555 C916.45825,596.82755 888.24725,654.33355 867.05525,713.71855 L867.90625,713.71855 Z" id="Fill-91" fill="#6CB2E2"></path>
            <g id="Group-95" transform="translate(881.881450, 561.020550)">
                <mask id="mask-38" fill="white">
                    <use xlink:href="#path-37"></use>
                </mask>
                <g id="Clip-94"></g>
                <path d="M0.851,152.698 C19.086,102.267 42.442,53.111 72.682,1.583 L72.682,5.68434189e-14 C42.025,52.093 18.406,101.74 0,152.698 L0.851,152.698 Z" id="Fill-93" fill="#6CB2E2" mask="url(#mask-38)"></path>
            </g>
            <path d="M898.30225,713.71855 C913.34825,672.93055 931.78425,632.90255 954.56325,591.69355 L954.56325,590.04755 C931.39225,631.82855 912.68125,672.38155 897.44925,713.71855 L898.30225,713.71855 Z" id="Fill-96" fill="#6CB2E2"></path>
            <path d="M913.15725,713.71855 C924.81125,682.49655 938.47125,651.69155 954.56325,620.43355 L954.56325,618.69555 C938.10225,650.54555 924.16325,681.91455 912.30425,713.71855 L913.15725,713.71855 Z" id="Fill-98" fill="#6CB2E2"></path>
            <path d="M928.78815,713.71855 C936.48815,693.48955 945.03915,673.41555 954.56315,653.26155 L954.56315,651.38855 C944.69415,672.17055 935.86315,692.86155 927.93315,713.71855 L928.78815,713.71855 Z" id="Fill-100" fill="#6CB2E2"></path>
            <path d="M943.67535,713.71855 C947.13135,704.74455 950.75835,695.79955 954.56335,686.86255 L954.56335,684.83455 C950.44635,694.44655 946.53035,704.06555 942.81835,713.71855 L943.67535,713.71855 Z" id="Fill-102" fill="#6CB2E2"></path>
            <g id="Group-106" transform="translate(321.451650, 0.904750)">
                <mask id="mask-40" fill="white">
                    <use xlink:href="#path-39"></use>
                </mask>
                <g id="Clip-105"></g>
                <path d="M132.98,386.906 C162.643,340.222 202.935,294.568 245.592,246.232 C286.555,199.817 328.913,151.822 364.872,99.372 C388.098,65.494 406.592,32.57 420.647,0 L419.777,0 C405.759,32.419 387.333,65.195 364.211,98.92 C328.281,151.329 285.94,199.306 244.993,245.703 C202.314,294.063 162.001,339.741 132.304,386.476 C85.433,460.227 52.774,527.68 29.524,598.755 C16.7,637.957 7.696,675.329 0,712.814 L0.817,712.814 C8.501,675.407 17.491,638.112 30.285,599.003 C53.513,527.994 86.145,460.598 132.98,386.906" id="Fill-104" fill="#6CB2E2" mask="url(#mask-40)"></path>
            </g>
            <path d="M440.67675,384.83815 C470.33975,338.15415 510.63175,292.50015 553.28875,244.16515 C594.25175,197.74915 636.60975,149.75415 672.56875,97.30415 C695.08875,64.45715 713.15775,32.50615 727.04875,0.90515 L726.17375,0.90515 C712.32175,32.35515 694.32275,64.15815 671.90775,96.85215 C635.97775,149.26215 593.63675,197.23815 552.68975,243.63615 C510.01075,291.99515 469.69775,337.67315 440.00075,384.40815 C393.12975,458.15915 360.47175,525.61115 337.22075,596.68615 C324.05775,636.92415 314.91975,675.23515 307.08975,713.71815 L307.90575,713.71815 C315.72375,675.31315 324.84875,637.08015 337.98175,596.93515 C361.20975,525.92615 393.84275,458.53015 440.67675,384.83815" id="Fill-107" fill="#6CB2E2"></path>
            <path d="M426.92095,381.86645 C456.58395,335.18245 496.87595,289.52845 539.53295,241.19245 C580.49595,194.77745 622.85395,146.78245 658.81295,94.33245 C680.62695,62.51445 698.26895,31.53745 711.97795,0.90445 L711.10295,0.90445 C697.43495,31.38745 679.86095,62.21545 658.15195,93.88045 C622.22195,146.28945 579.88095,194.26645 538.93395,240.66345 C496.25495,289.02345 455.94195,334.70145 426.24495,381.43645 C379.37395,455.18745 346.71495,522.64045 323.46495,593.71545 C309.96295,634.98845 300.69495,674.23445 292.73095,713.71845 L293.54695,713.71845 C301.49995,674.31245 310.75395,635.14345 324.22595,593.96345 C347.45395,522.95445 380.08595,455.55845 426.92095,381.86645" id="Fill-109" fill="#6CB2E2"></path>
            <g id="Group-113" transform="translate(277.981050, 0.904650)">
                <mask id="mask-42" fill="white">
                    <use xlink:href="#path-41"></use>
                </mask>
                <g id="Clip-112"></g>
                <path d="M135.185,375.995 C164.848,329.312 205.14,283.657 247.797,235.322 C288.76,188.906 331.118,140.911 367.077,88.461 C387.712,58.362 404.612,29.015 417.984,0 L417.104,0 C403.776,28.865 386.947,58.063 366.416,88.009 C330.486,140.418 288.145,188.395 247.198,234.793 C204.519,283.152 164.206,328.83 134.509,375.565 C87.638,449.316 54.979,516.769 31.729,587.844 C17.661,630.847 8.19,671.65 0,712.814 L0.817,712.814 C8.994,671.727 18.453,631.002 32.49,588.092 C55.718,517.083 88.35,449.687 135.185,375.995" id="Fill-111" fill="#6CB2E2" mask="url(#mask-42)"></path>
            </g>
            <g id="Group-116" transform="translate(263.243250, 0.904850)">
                <mask id="mask-44" fill="white">
                    <use xlink:href="#path-43"></use>
                </mask>
                <g id="Clip-115"></g>
                <path d="M136.166,371.028 C165.829,324.344 206.121,278.69 248.778,230.354 C289.742,183.939 332.1,135.944 368.059,83.494 C387.517,55.111 403.652,27.397 416.642,0 L415.758,0 C402.814,27.247 386.752,54.812 367.398,83.042 C331.467,135.451 289.126,183.427 248.179,229.825 C205.5,278.185 165.188,323.862 135.49,370.598 C88.62,444.348 55.962,511.8 32.712,582.875 C18.078,627.608 8.417,669.959 0,712.814 L0.816,712.814 C9.221,670.037 18.869,627.762 33.472,583.123 C56.7,512.115 89.332,444.719 136.166,371.028" id="Fill-114" fill="#6CB2E2" mask="url(#mask-44)"></path>
            </g>
            <path d="M385.65435,367.96315 C415.31735,321.28015 455.60935,275.62615 498.26635,227.29115 C539.22935,180.87615 581.58735,132.88015 617.54635,80.43015 C636.06635,53.41715 651.57235,27.01015 664.22535,0.90515 L663.33635,0.90515 C650.73135,26.86015 635.30035,53.11815 616.88535,79.97815 C580.95535,132.38715 538.61335,180.36415 497.66635,226.76215 C454.98835,275.12115 414.67535,320.79815 384.97835,367.53315 C338.10835,441.28315 305.45035,508.73515 282.20035,579.81015 C267.11435,625.92315 257.31335,669.50615 248.71235,713.71815 L249.52735,713.71815 C258.11635,669.58515 267.90535,626.07715 282.96035,580.05815 C306.18935,509.05015 338.82035,441.65415 385.65435,367.96315" id="Fill-117" fill="#6CB2E2"></path>
            <path d="M371.89845,365.98855 C401.56145,319.30555 441.85345,273.65155 484.50945,225.31655 C525.47245,178.90055 567.83145,130.90555 603.79045,78.45555 C621.84345,52.12355 637.03645,26.36655 649.51145,0.90455 L648.62145,0.90455 C636.19645,26.21755 621.07745,51.82455 603.12945,78.00355 C567.19845,130.41255 524.85745,178.38955 483.91045,224.78755 C441.23145,273.14655 400.91945,318.82355 371.22245,365.55855 C324.35245,439.30955 291.69345,506.76255 268.44245,577.83855 C253.13345,624.63755 243.26645,668.82955 234.57345,713.71855 L235.38845,713.71855 C244.06945,668.90755 253.92445,624.79055 269.20345,578.08655 C292.43145,507.07755 325.06445,439.68155 371.89845,365.98855" id="Fill-119" fill="#6CB2E2"></path>
            <g id="Group-123" transform="translate(220.243550, 0.904850)">
                <mask id="mask-46" fill="white">
                    <use xlink:href="#path-45"></use>
                </mask>
                <g id="Clip-122"></g>
                <path d="M137.9,362.113 C167.564,315.429 207.855,269.775 250.512,221.439 C291.475,175.024 333.833,127.029 369.792,74.579 C387.143,49.27 401.848,24.494 414.042,0 L413.148,0 C401.005,24.345 386.378,48.972 369.132,74.127 C333.201,126.536 290.86,174.512 249.913,220.91 C207.234,269.27 166.922,314.947 137.224,361.683 C90.354,435.434 57.695,502.887 34.444,573.962 C18.797,621.794 8.835,666.902 5.68434189e-14,712.814 L0.815,712.814 C9.637,666.98 19.589,621.947 35.205,574.211 C58.433,503.202 91.066,435.805 137.9,362.113" id="Fill-121" fill="#6CB2E2" mask="url(#mask-46)"></path>
            </g>
            <g id="Group-126" transform="translate(205.536750, 0.905050)">
                <mask id="mask-48" fill="white">
                    <use xlink:href="#path-47"></use>
                </mask>
                <g id="Clip-125"></g>
                <path d="M138.851,357.145 C168.514,310.461 208.806,264.807 251.463,216.471 C292.426,170.056 334.784,122.061 370.743,69.611 C386.922,46.012 400.8,22.876 412.489,0 L411.589,0 C399.955,22.727 386.157,45.713 370.082,69.159 C334.152,121.568 291.811,169.545 250.864,215.942 C208.185,264.302 167.872,309.98 138.175,356.715 C91.304,430.466 58.646,497.918 35.395,568.993 C19.184,618.55 9.074,665.181 0,712.814 L0.814,712.814 C9.877,665.259 19.976,618.702 36.156,569.242 C59.384,498.233 92.017,430.837 138.851,357.145" id="Fill-124" fill="#6CB2E2" mask="url(#mask-48)"></path>
            </g>
            <path d="M330.63285,355.07835 C360.29585,308.39435 400.58785,262.74035 443.24485,214.40435 C484.20785,167.98935 526.56585,119.99435 562.52485,67.54435 C578.00385,44.96735 591.37885,22.81335 602.74285,0.90435 L601.84385,0.90435 C590.53485,22.66435 577.23785,44.66835 561.86385,67.09235 C525.93385,119.50135 483.59285,167.47835 442.64585,213.87535 C399.96685,262.23535 359.65385,307.91335 329.95685,354.64835 C283.08685,428.39935 250.42785,495.85135 227.17685,566.92635 C210.62885,617.51235 200.43985,665.05235 191.21785,713.71835 L192.03185,713.71835 C201.24185,665.13035 211.42085,617.66435 227.93785,567.17535 C251.16585,496.16635 283.79885,428.77035 330.63285,355.07835" id="Fill-127" fill="#6CB2E2"></path>
            <g id="Group-131" transform="translate(176.711950, 0.904650)">
                <mask id="mask-50" fill="white">
                    <use xlink:href="#path-49"></use>
                </mask>
                <g id="Clip-130"></g>
                <path d="M140.165,350.204 C169.828,303.521 210.12,257.866 252.777,209.531 C293.74,163.115 336.098,115.12 372.057,62.67 C386.602,41.455 399.284,20.615 410.191,0 L409.286,0 C398.437,20.466 385.836,41.157 371.396,62.218 C335.466,114.627 293.125,162.604 252.178,209.002 C209.499,257.361 169.186,303.039 139.489,349.774 C92.618,423.525 59.959,490.978 36.709,562.053 C19.711,614.013 9.422,662.759 5.68434189e-14,712.814 L0.814,712.814 C10.224,662.838 20.503,614.165 37.47,562.301 C60.698,491.292 93.33,423.896 140.165,350.204" id="Fill-129" fill="#6CB2E2" mask="url(#mask-50)"></path>
            </g>
            <g id="Group-134" transform="translate(162.399150, 0.904950)">
                <mask id="mask-52" fill="white">
                    <use xlink:href="#path-51"></use>
                </mask>
                <g id="Clip-133"></g>
                <path d="M140.723,347.232 C170.386,300.548 210.678,254.894 253.335,206.558 C294.298,160.143 336.656,112.148 372.615,59.698 C386.461,39.502 398.623,19.645 409.171,0 L408.261,0 C397.774,19.497 385.695,39.203 371.954,59.246 C336.024,111.655 293.683,159.632 252.736,206.029 C210.057,254.389 169.744,300.067 140.047,346.802 C93.176,420.553 60.518,488.005 37.267,559.08 C19.933,612.069 9.576,661.715 0,712.814 L0.814,712.814 C10.377,661.793 20.725,612.22 38.028,559.329 C61.256,488.32 93.889,420.924 140.723,347.232" id="Fill-132" fill="#6CB2E2" mask="url(#mask-52)"></path>
            </g>
            <path d="M289.36525,346.16235 C319.02825,299.47935 359.32025,253.82535 401.97725,205.49035 C442.94025,159.07535 485.29825,111.07935 521.25725,58.62935 C534.63925,39.10935 546.44425,19.90635 556.74225,0.90435 L555.83225,0.90435 C545.59525,19.75835 533.87425,38.81035 520.59625,58.17735 C484.66625,110.58635 442.32425,158.56335 401.37725,204.96135 C358.69925,253.32035 318.38625,298.99735 288.68925,345.73235 C241.81925,419.48235 209.16125,486.93435 185.91125,558.00935 C168.35325,611.68035 157.95225,661.92135 148.27325,713.71835 L149.08625,713.71835 C158.75325,662.00035 169.14525,611.83135 186.67125,558.25735 C209.90025,487.24935 242.53125,419.85335 289.36525,346.16235" id="Fill-135" fill="#6CB2E2"></path>
            <path d="M275.61035,339.20045 C305.27335,292.51745 345.56535,246.86345 388.22135,198.52845 C429.18535,152.11245 471.54335,104.11745 507.50235,51.66745 C519.25235,34.52845 529.78635,17.63345 539.15435,0.90445 L538.23835,0.90445 C528.93735,17.48445 518.48635,34.22945 506.84135,51.21545 C470.91035,103.62445 428.56935,151.60145 387.62235,197.99945 C344.94335,246.35845 304.63135,292.03545 274.93435,338.77045 C228.06335,412.52145 195.40435,479.97445 172.15435,551.05045 C153.81235,607.12045 143.28135,659.44945 133.22235,713.71845 L134.03635,713.71845 C144.08235,659.52845 154.60435,607.27145 172.91535,551.29845 C196.14335,480.28945 228.77635,412.89345 275.61035,339.20045" id="Fill-137" fill="#6CB2E2"></path>
            <g id="Group-141" transform="translate(119.100550, 0.904750)">
                <mask id="mask-54" fill="white">
                    <use xlink:href="#path-53"></use>
                </mask>
                <g id="Clip-140"></g>
                <path d="M142.754,336.322 C172.418,289.638 212.709,243.984 255.366,195.648 C296.329,149.233 338.687,101.238 374.646,48.788 C385.934,32.323 396.101,16.083 405.19,0 L404.269,0 C395.249,15.935 385.169,32.024 373.986,48.336 C338.055,100.745 295.714,148.721 254.767,195.119 C212.088,243.479 171.776,289.156 142.078,335.892 C95.208,409.643 62.549,477.096 39.298,548.171 C20.733,604.922 10.171,657.839 5.68434189e-14,712.814 L0.814,712.814 C10.971,657.918 21.526,605.072 40.059,548.42 C63.287,477.411 95.92,410.014 142.754,336.322" id="Fill-139" fill="#6CB2E2" mask="url(#mask-54)"></path>
            </g>
            <path d="M248.09965,333.25705 C277.76265,286.57305 318.05465,240.91905 360.71165,192.58405 C401.67465,146.16905 444.03265,98.17305 479.99165,45.72305 C490.35165,30.61205 499.76665,15.69005 508.27165,0.90505 L507.35065,0.90505 C498.91665,15.54105 489.58665,30.31305 479.33065,45.27105 C443.40065,97.68005 401.05965,145.65705 360.11265,192.05505 C317.43365,240.41405 277.12065,286.09205 247.42365,332.82705 C200.55365,406.57805 167.89465,474.03005 144.64365,545.10505 C125.63265,603.22105 115.01265,657.31705 104.61265,713.71805 L105.42565,713.71805 C115.81265,657.39605 126.42565,603.37105 145.40465,545.35405 C168.63265,474.34505 201.26565,406.94905 248.09965,333.25705" id="Fill-142" fill="#6CB2E2"></path>
            <path d="M234.34475,329.28735 C264.00775,282.60335 304.29975,236.94935 346.95675,188.61335 C387.91975,142.19835 430.27775,94.20335 466.23675,41.75335 C475.67075,27.99335 484.31475,14.39135 492.20875,0.90435 L491.28175,0.90435 C483.46175,14.24235 474.90575,27.69435 465.57575,41.30135 C429.64575,93.71035 387.30475,141.68735 346.35775,188.08435 C303.67875,236.44435 263.36575,282.12235 233.66875,328.85735 C186.79775,402.60835 154.13975,470.06035 130.88875,541.13535 C111.43175,600.61435 100.76375,655.88035 90.12675,713.71835 L90.93975,713.71835 C101.56375,655.95935 112.22475,600.76335 131.64975,541.38435 C154.87775,470.37535 187.51075,402.97935 234.34475,329.28735" id="Fill-144" fill="#6CB2E2"></path>
            <path d="M220.58895,324.32055 C250.25195,277.63655 290.54395,231.98255 333.20095,183.64755 C374.16395,137.23255 416.52195,89.23655 452.48095,36.78655 C460.75795,24.71355 468.42395,12.76355 475.51395,0.90455 L474.58195,0.90455 C467.56895,12.61455 459.99295,24.41455 451.81995,36.33455 C415.88995,88.74355 373.54895,136.72055 332.60195,183.11855 C289.92295,231.47755 249.60995,277.15555 219.91295,323.89055 C173.04195,397.64155 140.38295,465.09455 117.13295,536.16955 C97.11995,597.34755 86.40595,654.06955 75.45795,713.71855 L76.27195,713.71855 C87.20495,654.15055 97.91295,597.49655 117.89395,536.41755 C141.12195,465.40855 173.75395,398.01255 220.58895,324.32055" id="Fill-146" fill="#6CB2E2"></path>
            <g id="Group-150" transform="translate(61.341050, 0.904950)">
                <mask id="mask-56" fill="white">
                    <use xlink:href="#path-55"></use>
                </mask>
                <g id="Clip-149"></g>
                <path d="M145.493,321.441 C175.156,274.757 215.448,229.103 258.105,180.767 C299.068,134.352 341.426,86.357 377.385,33.907 C385.202,22.504 392.48,11.21 399.238,0 L398.305,0 C391.626,11.061 384.437,22.205 376.724,33.455 C340.794,85.864 298.453,133.841 257.506,180.238 C214.827,228.598 174.514,274.276 144.817,321.011 C97.947,394.762 65.288,462.214 42.037,533.289 C21.803,595.142 11.075,652.441 2.84217094e-14,712.814 L0.813,712.814 C11.874,652.521 22.597,595.291 42.798,533.538 C66.026,462.529 98.659,395.133 145.493,321.441" id="Fill-148" fill="#6CB2E2" mask="url(#mask-56)"></path>
            </g>
            <path d="M193.07715,319.37425 C222.74015,272.69125 263.03215,227.03725 305.68915,178.70225 C346.65215,132.28725 389.01015,84.29125 424.96915,31.84125 C432.09715,21.44525 438.76915,11.13925 445.01515,0.90525 L444.07715,0.90525 C437.91215,10.99025 431.33215,21.14525 424.30915,31.38925 C388.37815,83.79825 346.03615,131.77525 305.08915,178.17325 C262.41015,226.53225 222.09815,272.20925 192.40115,318.94425 C145.53115,392.69425 112.87315,460.14625 89.62315,531.22125 C69.05715,594.08725 58.30915,652.25125 47.04015,713.71825 L47.85215,713.71825 C59.10915,652.33225 69.84915,594.23725 90.38315,531.46925 C113.61115,460.46125 146.24315,393.06525 193.07715,319.37425" id="Fill-151" fill="#6CB2E2"></path>
            <path d="M76.62795,528.49825 C99.85695,457.48925 132.48795,390.09425 179.32195,316.40225 C208.98495,269.72025 249.27595,224.06525 291.93395,175.73025 C332.89795,129.31525 375.25495,81.31925 411.21395,28.87025 C417.65195,19.47925 423.72495,10.16225 429.44295,0.90425 L428.50295,0.90425 C422.86795,10.01225 416.88695,19.17925 410.55395,28.41725 C374.62295,80.82725 332.28095,128.80425 291.33395,175.20125 C248.65495,223.56125 208.34395,269.23725 178.64695,315.97325 C131.77595,389.72325 99.11795,457.17525 75.86695,528.24925 C55.11095,591.69825 44.35695,650.35225 32.97195,712.45125 C32.89495,712.87225 32.81595,713.29725 32.73895,713.71825 L33.55295,713.71825 C33.62095,713.34525 33.68995,712.96825 33.75895,712.59625 C45.13995,650.52425 55.88895,591.89525 76.62795,528.49825" id="Fill-153" fill="#6CB2E2"></path>
            <path d="M62.87115,524.53145 C86.10015,453.52245 118.73215,386.12645 165.56615,312.43345 C195.22915,265.75045 235.52115,220.09545 278.17915,171.76045 C319.14215,125.34445 361.49915,77.34945 397.45815,24.89945 C402.97715,16.84945 408.22015,8.85545 413.20915,0.90445 L412.26515,0.90445 C407.36115,8.70545 402.21215,16.55045 396.79815,24.44745 C360.86715,76.85645 318.52615,124.83345 277.57915,171.23045 C234.90015,219.59145 194.58915,265.26745 164.89115,312.00445 C118.02015,385.75545 85.36115,453.20845 62.11015,524.28245 C41.35415,587.73245 30.60015,646.38745 19.21515,708.48645 C18.89615,710.22345 18.57515,711.97345 18.25515,713.71845 L19.06815,713.71845 C19.38015,712.02145 19.69215,710.31945 20.00215,708.63145 C31.38315,646.55845 42.13215,587.92945 62.87115,524.53145" id="Fill-155" fill="#6CB2E2"></path>
            <g id="Group-159" transform="translate(3.404250, 0.904650)">
                <mask id="mask-58" fill="white">
                    <use xlink:href="#path-57"></use>
                </mask>
                <g id="Clip-158"></g>
                <path d="M45.712,517.661 C68.941,446.651 101.573,379.256 148.407,305.563 C178.07,258.881 218.362,213.226 261.02,164.891 C301.983,118.476 344.34,70.48 380.299,18.031 C384.44,11.991 388.422,5.983 392.264,0 L391.315,0 C387.563,5.833 383.675,11.691 379.639,17.578 C343.708,69.988 301.366,117.965 260.419,164.362 C217.74,212.722 177.429,258.398 147.732,305.134 C100.861,378.885 68.202,446.338 44.951,517.413 C24.195,580.862 13.441,639.517 2.056,701.617 C1.376,705.327 0.69,709.064 0,712.814 L0.814,712.814 C1.494,709.113 2.171,705.424 2.843,701.762 C14.224,639.689 24.973,581.059 45.712,517.661" id="Fill-157" fill="#6CB2E2" mask="url(#mask-58)"></path>
            </g>
            <path d="M250.06835,163.29125 C207.38935,211.65125 167.07735,257.32925 137.38035,304.06425 C90.50835,377.81525 57.85035,445.26825 34.59935,516.34225 C19.32435,563.03825 9.46735,607.13825 0.78835,651.92425 L0.78835,656.14425 C9.65635,609.98225 19.63635,564.65725 35.36035,516.59125 C58.58935,445.58225 91.22135,378.18725 138.05535,304.49425 C167.71835,257.81125 208.01035,212.15625 250.66835,163.82025 C291.63135,117.40525 333.98835,69.41025 369.94735,16.96025 C373.63235,11.58525 377.19435,6.23425 380.64335,0.90525 L379.68835,0.90525 C376.33035,6.08525 372.86835,11.28525 369.28735,16.50825 C333.35635,68.91725 291.01535,116.89425 250.06835,163.29125" id="Fill-160" fill="#6CB2E2"></path>
            <path d="M236.31355,159.32345 C193.63455,207.68245 153.32255,253.36045 123.62555,300.09545 C76.75355,373.84645 44.09455,441.30045 20.84455,512.37445 C12.88855,536.69645 6.40455,560.31345 0.78855,583.69145 L0.78855,587.13645 C6.57855,562.71145 13.28755,538.05145 21.60555,512.62245 C44.83455,441.61345 77.46555,374.21845 124.30055,300.52545 C153.96355,253.84245 194.25555,208.18745 236.91355,159.85245 C277.87655,113.43745 320.23355,65.44145 356.19255,12.99145 C358.96355,8.94945 361.66255,4.92145 364.29955,0.90445 L363.34455,0.90445 C360.80055,4.77145 358.19955,8.64845 355.53255,12.53945 C319.60155,64.94845 277.26055,112.92645 236.31355,159.32345" id="Fill-162" fill="#6CB2E2"></path>
            <path d="M222.55765,156.34985 C179.87865,204.70985 139.56665,250.38785 109.86965,297.12285 C62.99865,370.87385 30.33965,438.32685 7.08865,509.40085 C4.87765,516.16085 2.78565,522.86385 0.78865,529.52485 L0.78865,532.31785 C3.01165,524.82085 5.35665,517.26985 7.84965,509.64985 C31.07865,438.64085 63.71065,371.24585 110.54465,297.55285 C140.20765,250.86985 180.49965,205.21485 223.15765,156.87885 C264.12065,110.46385 306.47765,62.46885 342.43665,10.01885 C344.52465,6.97285 346.56565,3.93585 348.57765,0.90485 L347.61665,0.90485 C345.70065,3.78585 343.76165,6.67185 341.77665,9.56685 C305.84565,61.97585 263.50465,109.95285 222.55765,156.34985" id="Fill-164" fill="#6CB2E2"></path>
            <path d="M208.80275,151.38305 C166.12375,199.74305 125.81175,245.42105 96.11475,292.15605 C54.04575,358.35005 23.43275,419.47205 0.78875,482.69005 L0.78875,485.05805 C23.48475,421.14905 54.28875,359.46005 96.78975,292.58605 C126.45275,245.90305 166.74475,200.24805 209.40275,151.91205 C250.36575,105.49705 292.72275,57.50205 328.68175,5.05205 C329.63075,3.66805 330.56375,2.28605 331.49775,0.90505 L330.53075,0.90505 C329.69775,2.13605 328.86675,3.36705 328.02175,4.60005 C292.09075,57.00905 249.74975,104.98605 208.80275,151.38305" id="Fill-166" fill="#6CB2E2"></path>
            <path d="M195.04495,148.41335 C152.36695,196.77235 112.05495,242.44935 82.35695,289.18435 C48.26095,342.83435 21.69195,393.15235 0.78895,443.95535 L0.78895,446.06735 C21.78695,394.69335 48.55795,343.85935 83.03295,289.61435 C112.69595,242.93235 152.98795,197.27735 195.64595,148.94235 C236.60795,102.52735 278.96595,54.53135 314.92495,2.08135 C315.19395,1.68935 315.45595,1.29735 315.72395,0.90435 L314.75595,0.90435 C314.59095,1.14635 314.42995,1.38735 314.26495,1.62935 C278.33395,54.03835 235.99195,102.01635 195.04495,148.41335" id="Fill-168" fill="#6CB2E2"></path>
            <path d="M68.60255,285.21605 C41.57755,327.74005 19.28555,368.17005 0.78855,408.40905 L0.78855,410.32605 C19.41155,369.59705 41.91755,328.69605 69.27855,285.64605 C98.94155,238.96305 139.23355,193.30905 181.88955,144.97405 C222.12255,99.38605 263.68555,52.26405 299.22455,0.90505 L298.24955,0.90505 C262.80655,52.04805 221.38755,99.00905 181.29055,144.44505 C138.61155,192.80405 98.29955,238.48105 68.60255,285.21605" id="Fill-170" fill="#6CB2E2"></path>
            <path d="M0.78865,0.90475 L0.78865,1.29175 C0.89465,1.16275 1.00065,1.03375 1.10665,0.90475 L0.78865,0.90475 Z" id="Fill-172" fill="#6CB2E2"></path>
            <path d="M18.69485,0.90475 C12.78485,8.18675 6.81185,15.40275 0.78885,22.55175 L0.78885,23.78975 C7.15985,16.23575 13.47785,8.60775 19.72385,0.90475 L18.69485,0.90475 Z" id="Fill-174" fill="#6CB2E2"></path>
            <path d="M34.04595,0.90475 C23.14695,14.38475 12.01295,27.62575 0.78895,40.67375 L0.78895,41.90375 C12.36295,28.45875 23.84495,14.80875 35.07495,0.90475 L34.04595,0.90475 Z" id="Fill-176" fill="#6CB2E2"></path>
            <path d="M51.81155,0.90475 C35.22755,21.62675 18.02955,41.75475 0.78855,61.50475 L0.78855,62.72275 C18.37555,42.58575 35.92355,22.05475 52.83255,0.90475 L51.81155,0.90475 Z" id="Fill-178" fill="#6CB2E2"></path>
            <path d="M67.92385,0.90475 C46.21585,28.20075 23.41385,54.46575 0.78885,80.16375 L0.78885,81.37375 C23.75485,55.29375 46.91585,28.63475 68.94485,0.90475 L67.92385,0.90475 Z" id="Fill-180" fill="#6CB2E2"></path>
            <path d="M84.26615,0.90475 L83.24515,0.90475 C57.21115,33.78375 29.54115,65.15875 2.47115,95.83275 C1.90915,96.46875 1.34915,97.10275 0.78815,97.73875 L0.78815,98.94775 C1.54915,98.08575 2.30815,97.22575 3.07015,96.36175 C30.28515,65.52475 58.10515,33.97975 84.26615,0.90475" id="Fill-182" fill="#6CB2E2"></path>
            <path d="M101.16065,0.90475 L100.14765,0.90475 C73.20665,35.23675 44.38665,67.89375 16.22565,99.80275 C11.03965,105.67875 5.88965,111.51475 0.78865,117.31775 L0.78865,118.52975 C6.08565,112.50075 11.43565,106.43775 16.82565,100.33175 C45.12865,68.26075 74.09565,35.43275 101.16065,0.90475" id="Fill-184" fill="#6CB2E2"></path>
            <path d="M116.44825,0.90475 L115.43525,0.90475 C88.05425,35.95675 58.67925,69.25775 29.98125,101.77575 C20.08825,112.98675 10.32425,124.05075 0.78825,135.01975 L0.78825,136.23975 C10.51525,125.04475 20.48025,113.75075 30.58225,102.30575 C59.42225,69.62575 88.94525,36.15475 116.44825,0.90475" id="Fill-186" fill="#6CB2E2"></path>
            <path d="M44.33595,110.26685 C75.33995,75.13485 107.13895,39.09385 136.36195,0.90485 L135.35795,0.90485 C106.25295,38.89285 74.59995,74.76585 43.73595,109.73785 C29.02595,126.40485 14.59795,142.75385 0.78895,158.93785 L0.78895,160.17185 C14.77995,143.75885 29.41195,127.17685 44.33595,110.26685" id="Fill-188" fill="#6CB2E2"></path>
            <path d="M0.78865,177.24685 L0.78865,178.49885 C18.81665,156.74485 38.19565,134.78485 58.09065,112.24185 C89.62865,76.50585 121.98065,39.82485 151.61465,0.90485 L150.61065,0.90485 C121.09265,39.62385 88.88765,76.13685 57.49165,111.71185 C37.81665,134.00485 18.64865,155.72785 0.78865,177.24685" id="Fill-190" fill="#6CB2E2"></path>
            <path d="M0.78865,198.09835 L0.78865,199.38035 C22.54165,172.08035 46.78465,144.60835 71.84665,116.21035 C104.45365,79.26235 137.93465,41.30435 168.37765,0.90435 L167.37365,0.90435 C137.04465,41.10135 103.71265,78.89235 71.24665,115.68135 C46.41665,143.81635 22.39265,171.04235 0.78865,198.09835" id="Fill-192" fill="#6CB2E2"></path>
            <path d="M0.78865,217.73825 L0.78865,219.06125 C25.84165,185.90225 55.11665,152.72725 85.60265,118.18425 C118.74165,80.63325 152.79065,42.04525 183.62965,0.90525 L182.62665,0.90525 C151.90165,41.84125 118.00165,80.26325 85.00265,117.65425 C54.76365,151.91825 25.71865,184.83625 0.78865,217.73825" id="Fill-194" fill="#6CB2E2"></path>
            <path d="M0.78865,238.48335 L0.78865,239.87935 C28.55465,200.39135 63.09965,161.24335 99.35765,120.15935 C133.02565,82.00935 167.62865,42.78535 198.85365,0.90435 L197.85965,0.90435 C166.74565,42.58235 132.28665,81.63735 98.75665,119.63035 C62.76865,160.40735 28.46565,199.27735 0.78865,238.48335" id="Fill-196" fill="#6CB2E2"></path>
            <path d="M0.78865,266.86325 L0.78865,268.34425 C30.42465,221.81625 70.59265,176.29825 113.11465,128.11725 C148.90765,87.55825 185.76565,45.79325 218.48965,0.90525 L217.49465,0.90525 C184.87865,45.58425 148.16965,87.18625 112.51465,127.58725 C70.29165,175.43025 30.39265,220.64925 0.78865,266.86325" id="Fill-198" fill="#6CB2E2"></path>
            <path d="M13.58105,270.33615 C9.19305,277.23915 4.93105,284.08815 0.78905,290.88915 L0.78905,292.43615 C5.14405,285.26715 9.62805,278.04815 14.25705,270.76615 C43.92005,224.08215 84.21205,178.42715 126.87005,130.09115 C163.18605,88.94115 200.58905,46.54215 233.66605,0.90515 L232.68205,0.90515 C199.70805,46.33415 162.44905,88.56715 126.26905,129.56215 C83.59105,177.92215 43.27805,223.60015 13.58105,270.33615" id="Fill-200" fill="#6CB2E2"></path>
            <path d="M27.33695,274.30495 C17.92395,289.11595 9.09395,303.66995 0.78895,318.05295 L0.78895,319.65495 C9.28895,304.89095 18.34295,289.94795 28.01295,274.73495 C57.67595,228.05095 97.96795,182.39595 140.62595,134.05995 C177.99095,91.72095 216.50095,48.05495 250.27295,0.90495 L249.28795,0.90495 C215.61895,47.84495 177.25395,91.34695 140.02495,133.53195 C97.34695,181.89095 57.03395,227.56895 27.33695,274.30495" id="Fill-202" fill="#6CB2E2"></path>
            <path d="M41.09185,277.27655 C26.28885,300.56855 12.90785,323.23155 0.78885,345.57955 L0.78885,347.26755 C13.08485,324.51155 26.68585,301.43655 41.76785,277.70655 C71.43085,231.02355 111.72285,185.36955 154.37885,137.03455 C192.53085,93.80355 231.88685,49.19855 266.16285,0.90455 L265.17685,0.90455 C231.00285,48.98655 191.79485,93.42955 153.77985,136.50555 C111.10085,184.86455 70.78885,230.54155 41.09185,277.27655" id="Fill-204" fill="#6CB2E2"></path>
            <path d="M54.84675,282.24335 C34.20775,314.71935 16.32675,345.97435 0.78875,376.85435 L0.78875,378.64635 C16.48175,347.32335 34.57775,315.62835 55.52275,282.67335 C85.18575,235.99035 125.47775,190.33635 168.13375,142.00135 C207.58775,97.29535 248.31975,51.11035 283.39775,0.90435 L282.42275,0.90435 C247.44175,50.89735 206.85375,96.91835 167.53475,141.47235 C124.85575,189.83135 84.54375,235.50835 54.84675,282.24335" id="Fill-206" fill="#6CB2E2"></path>
            <g id="Group-210">
                <mask id="mask-60" fill="white">
                    <use xlink:href="#path-59"></use>
                </mask>
                <g id="Clip-209"></g>
                <path d="M0.78865,0.03195 C0.54965,0.32395 0.30965,0.61395 0.07065,0.90495 L0.78865,0.90495 L0.78865,0.03195 Z" id="Fill-208" fill="#6CB2E2" mask="url(#mask-60)"></path>
            </g>
        </g>
    </g>
</svg>