<?xml version="1.0" encoding="UTF-8"?>
<svg width="264px" height="564px" viewBox="0 0 264 564" version="1.1" xmlns="http://www.w3.org/2000/svg" xmlns:xlink="http://www.w3.org/1999/xlink">
    <title>Atoms/3.Graphics/Pattern/M Copy</title>
    <defs>
        <polygon id="path-1" points="0 0 336.423971 0 336.423971 566.058097 0 566.058097"></polygon>
        <polygon id="path-3" points="4.5140362e-14 0 337.664382 0 337.664382 566.058018 4.5140362e-14 566.058018"></polygon>
        <polygon id="path-5" points="0 0 338.711824 0 338.711824 566.057859 0 566.057859"></polygon>
        <polygon id="path-7" points="0 0 339.004059 0 339.004059 566.058097 0 566.058097"></polygon>
        <polygon id="path-9" points="0 0 339.5385 0 339.5385 566.058018 0 566.058018"></polygon>
        <polygon id="path-11" points="0 0 328.886682 0 328.886682 535.542618 0 535.542618"></polygon>
        <polygon id="path-13" points="0 0 317.357841 0 317.357841 507.740559 0 507.740559"></polygon>
        <polygon id="path-15" points="0 0 305.619274 0 305.619274 483.097976 0 483.097976"></polygon>
        <polygon id="path-17" points="0 0 270.532535 0 270.532535 422.137456 0 422.137456"></polygon>
        <polygon id="path-19" points="0 -4.5140362e-14 246.923735 -4.5140362e-14 246.923735 386.495947 0 386.495947"></polygon>
        <polygon id="path-21" points="0 0 235.101309 0 235.101309 369.626744 0 369.626744"></polygon>
        <polygon id="path-23" points="0 0 223.4898 0 223.4898 353.997794 0 353.997794"></polygon>
        <polygon id="path-25" points="0 0 211.636085 0 211.636085 337.918897 0 337.918897"></polygon>
        <polygon id="path-27" points="0 0 200.243832 0 200.243832 323.679097 0 323.679097"></polygon>
        <polygon id="path-29" points="0 -4.5140362e-14 164.559044 -4.5140362e-14 164.559044 276.941382 0 276.941382"></polygon>
        <polygon id="path-31" points="0 0 152.375056 0 152.375056 260.550397 0 260.550397"></polygon>
        <polygon id="path-33" points="0 0 140.946194 0 140.946194 246.383656 0 246.383656"></polygon>
        <polygon id="path-35" points="0 0 117.01125 0 117.01125 213.980559 0 213.980559"></polygon>
        <polygon id="path-37" points="0 4.5140362e-14 57.7179794 4.5140362e-14 57.7179794 121.260176 0 121.260176"></polygon>
        <polygon id="path-39" points="0 0 334.043206 0 334.043206 566.058018 0 566.058018"></polygon>
        <polygon id="path-41" points="0 0 331.928471 0 331.928471 566.058097 0 566.058097"></polygon>
        <polygon id="path-43" points="0 0 330.862765 0 330.862765 566.057938 0 566.057938"></polygon>
        <polygon id="path-45" points="4.5140362e-14 0 328.798059 0 328.798059 566.057938 4.5140362e-14 566.057938"></polygon>
        <polygon id="path-47" points="0 0 327.564794 0 327.564794 566.057779 0 566.057779"></polygon>
        <polygon id="path-49" points="4.5140362e-14 0 325.739912 0 325.739912 566.058097 4.5140362e-14 566.058097"></polygon>
        <polygon id="path-51" points="0 0 324.929912 0 324.929912 566.057859 0 566.057859"></polygon>
        <polygon id="path-53" points="4.5140362e-14 0 321.768529 0 321.768529 566.058018 4.5140362e-14 566.058018"></polygon>
        <polygon id="path-55" points="2.2570181e-14 0 317.041941 0 317.041941 566.057859 2.2570181e-14 566.057859"></polygon>
        <polygon id="path-57" points="0 0 311.503765 0 311.503765 566.058097 0 566.058097"></polygon>
        <polygon id="path-59" points="0.0558661765 0.0250544118 0.738251471 0.0250544118 0.738251471 0.769063235 0.0558661765 0.769063235"></polygon>
    </defs>
    <g id="Components" stroke="none" stroke-width="1" fill="none" fill-rule="evenodd" opacity="0.7">
        <g id="Organism/4.FeaturedImage/1/Background/C/CTAButton/D" transform="translate(-41.000000, -41.000000)">
            <g id="Group-211" transform="translate(-453.871148, 38.000000)">
                <path d="M371.795201,310.32724 C395.351113,273.255446 427.347701,237.000799 461.221584,198.617122 C493.751819,161.757357 527.389054,123.643681 555.944731,81.9922103 C574.950349,54.2703574 589.967113,27.3529456 601.245966,0.718239706 L600.555084,0.718239706 C589.304025,27.2330338 574.342849,54.0329162 555.419819,81.6332691 C526.886378,123.252181 493.262643,161.351563 460.745907,198.197034 C426.85376,236.599769 394.84129,272.872681 371.258378,309.985769 C334.03729,368.55274 308.102201,422.118357 289.638966,478.561063 C279.724407,508.868563 272.685349,537.799063 266.680231,566.776416 L267.329819,566.776416 C273.324613,537.861004 280.352554,508.992446 290.24329,478.758004 C308.689054,422.368504 334.603496,368.848151 371.795201,310.32724" id="Fill-1" fill="#FFFFFF"></path>
                <path d="M382.719004,313.478934 C406.274916,276.40714 438.271504,240.152493 472.145387,201.768816 C504.675622,164.909051 538.312857,126.795375 566.868534,85.1439044 C586.623799,56.3285515 602.067004,28.3811691 613.485622,0.718875 L612.797916,0.718875 C601.406299,28.2612574 586.016299,56.0903162 566.343622,84.7849632 C537.810181,126.403875 504.186446,164.503257 471.66971,201.348728 C437.777563,239.751463 405.765093,276.024375 382.182181,313.137463 C344.961887,371.704434 319.026799,425.270051 300.562769,481.712757 C291.007151,510.921993 284.12374,538.85111 278.262357,566.776257 L278.911946,566.776257 C284.763799,538.913051 291.635299,511.045081 301.167093,481.909699 C319.613651,425.519404 345.527299,371.999051 382.719004,313.478934" id="Fill-3" fill="#FFFFFF"></path>
                <path d="M393.642013,318.214893 C417.197925,281.143099 449.194513,244.888451 483.06919,206.504775 C515.598631,169.645804 549.235866,131.531334 577.791543,89.8798632 C598.674454,59.4190985 614.741837,29.9287456 626.325631,0.718716176 L625.641896,0.718716176 C614.081925,29.8080397 598.067749,59.1808632 577.266631,89.5209221 C548.733984,131.140628 515.109454,169.239216 482.592719,206.084687 C448.701366,244.487422 416.688101,280.760334 393.10519,317.873422 C355.884896,376.439599 329.950601,430.004422 311.487366,486.446334 C302.471749,514.004599 295.834513,540.424893 290.189925,566.776099 L290.839513,566.776099 C296.474572,540.486834 303.099101,514.129275 312.090896,486.643275 C330.537454,430.254569 356.450307,376.734216 393.642013,318.214893" id="Fill-5" fill="#FFFFFF"></path>
                <g id="Group-9" transform="translate(301.449560, 0.718399)">
                    <mask id="mask-2" fill="white">
                        <use xlink:href="#path-1"></use>
                    </mask>
                    <g id="Clip-8"></g>
                    <path d="M103.116176,319.065353 C126.672088,281.993559 158.668676,245.738912 192.542559,207.355235 C225.072794,170.495471 258.710029,132.381794 287.265706,90.7303235 C308.522647,59.724 324.795706,29.7230294 336.423971,0 L335.741824,0 C324.137382,29.6023235 307.915941,59.4857647 286.740794,90.3713824 C258.208147,131.990294 224.583618,170.089676 192.066882,206.935147 C158.174735,245.337882 126.162265,281.610794 102.579353,318.723882 C65.3590588,377.290059 39.4247647,430.854882 20.9607353,487.296794 C12.1237941,514.308706 5.57232353,540.226324 0,566.058176 L0.649588235,566.058176 C6.21238235,540.288265 12.7519412,514.433382 21.5650588,487.494529 C40.0108235,431.105029 65.9244706,377.584676 103.116176,319.065353" id="Fill-7" fill="#FFFFFF" mask="url(#mask-2)"></path>
                </g>
                <path d="M415.48954,323.727975 C439.045451,286.655387 471.04204,250.40074 504.916716,212.016269 C537.446157,175.157299 571.083393,137.043622 599.639069,95.3921515 C621.83704,63.0143868 638.599275,31.7325044 650.313304,0.718239706 L649.632746,0.718239706 C637.940951,31.6110044 621.230334,62.7761515 599.114157,95.0332103 C570.58151,136.652122 536.957775,174.751504 504.44104,211.596181 C470.548893,249.99971 438.535628,286.273416 414.952716,323.386504 C377.731628,381.953475 351.79654,435.519093 333.333304,491.961004 C324.946628,517.597504 318.618304,542.248504 313.231804,566.776416 L313.882981,566.776416 C319.259157,542.310446 325.573981,517.722181 333.937628,492.157946 C352.383393,435.768446 378.29704,382.248093 415.48954,323.727975" id="Fill-10" fill="#FFFFFF"></path>
                <path d="M426.413263,325.295246 C449.969175,288.222657 481.965763,251.96801 515.84044,213.584334 C548.369881,176.724569 582.007116,138.610893 610.562793,96.9594221 C633.134793,64.0360985 650.081263,32.2459809 661.819116,0.718716176 L661.141734,0.718716176 C649.425322,32.1244809 632.527293,63.7978632 610.037881,96.6004809 C581.505234,138.220187 547.881499,176.318775 515.364763,213.164246 C481.472616,251.566981 449.459351,287.840687 425.87644,324.953775 C388.656146,383.520746 362.721057,437.085569 344.257028,493.527481 C336.049028,518.618422 329.811234,542.765951 324.500175,566.776099 L325.151351,566.776099 C330.452087,542.827893 336.676381,518.743893 344.861351,493.725216 C363.307116,437.335716 389.221557,383.815363 426.413263,325.295246" id="Fill-12" fill="#FFFFFF"></path>
                <g id="Group-16" transform="translate(335.950478, 0.718478)">
                    <mask id="mask-4" fill="white">
                        <use xlink:href="#path-3"></use>
                    </mask>
                    <g id="Clip-15"></g>
                    <path d="M101.385794,326.937441 C124.941706,289.864853 156.938294,253.610206 190.812971,215.225735 C223.342412,178.366765 256.979647,140.253088 285.535324,98.6016176 C308.670353,64.8563824 325.899529,32.3015294 337.664382,0 L336.987,0 C325.242794,32.1800294 308.063647,64.6173529 285.010412,98.2426765 C256.477765,139.861588 222.854029,177.960971 190.337294,214.805647 C156.445147,253.209176 124.431882,289.482882 100.848971,326.595971 C63.6278824,385.162941 37.6927941,438.728559 19.2295588,495.170471 C11.2899706,519.4395 5.19670588,542.824676 4.5140362e-14,566.058176 L0.650382353,566.058176 C5.83755882,542.886618 11.9181176,519.564176 19.8338824,495.367412 C38.2796471,438.977912 64.1932941,385.457559 101.385794,326.937441" id="Fill-14" fill="#FFFFFF" mask="url(#mask-4)"></path>
                </g>
                <path d="M448.260075,330.807534 C471.815987,293.734946 503.812575,257.480299 537.687251,219.095828 C570.216693,182.236857 603.853928,144.123181 632.409604,102.47171 C656.297457,67.6290044 673.885575,34.0545044 685.665516,0.718239706 L684.99131,0.718239706 C673.229634,33.9330044 655.690751,67.389975 631.884693,102.112769 C603.352046,143.731681 569.72831,181.831063 537.211575,218.67574 C503.319428,257.079269 471.306163,293.352975 447.723251,330.466063 C410.502163,389.033034 384.567075,442.598651 366.10384,499.040563 C358.523987,522.212122 352.625281,544.578446 347.584222,566.776416 L348.235399,566.776416 C353.266928,544.640387 359.15134,522.337593 366.708163,499.237504 C385.153928,442.848004 411.067575,389.327651 448.260075,330.807534" id="Fill-17" fill="#FFFFFF"></path>
                <path d="M459.183084,332.374884 C482.738996,295.30309 514.735584,259.048443 548.609466,220.664766 C581.138907,183.805001 614.776937,145.691325 643.332613,104.039854 C667.594496,68.6507956 685.36526,34.5704426 697.145201,0.718795588 L696.470996,0.718795588 C684.709319,34.4481485 666.988584,68.4109721 642.807701,103.680913 C614.27426,145.299825 580.650525,183.399207 548.13379,220.244678 C514.241643,258.647413 482.229172,294.920325 458.64626,332.033413 C421.425966,390.600384 395.490878,444.166001 377.026849,500.608707 C369.624878,523.234707 363.827819,545.092796 358.864584,566.776178 L359.516554,566.776178 C364.468672,545.154737 370.252231,523.360178 377.631172,500.805649 C396.076937,444.415354 421.991378,390.895001 459.183084,332.374884" id="Fill-19" fill="#FFFFFF"></path>
                <g id="Group-23" transform="translate(370.701543, 0.718637)">
                    <mask id="mask-6" fill="white">
                        <use xlink:href="#path-5"></use>
                    </mask>
                    <g id="Clip-22"></g>
                    <path d="M99.4052647,335.600471 C122.961176,298.528676 154.957765,262.274029 188.832441,223.890353 C221.361882,187.030588 254.999118,148.916912 283.554794,107.265441 C308.759294,70.5017647 326.9565,35.1500294 338.711824,0 L338.04,0 C326.302147,35.0269412 308.153382,70.2619412 283.030676,106.9065 C254.497235,148.525412 220.872706,186.624794 188.356765,223.470265 C154.464618,261.873 122.451353,298.145912 98.8684412,335.259 C61.6481471,393.825176 35.7138529,447.39 17.2506176,503.831912 C10.2973235,525.088059 4.75994118,545.665235 0,566.058176 L0.651970588,566.058176 C5.40158824,545.727971 10.9238824,525.214324 17.8541471,504.028853 C36.3007059,447.640147 62.2135588,394.119794 99.4052647,335.600471" id="Fill-21" fill="#FFFFFF" mask="url(#mask-6)"></path>
                </g>
                <g id="Group-26" transform="translate(382.364669, 0.718399)">
                    <mask id="mask-8" fill="white">
                        <use xlink:href="#path-7"></use>
                    </mask>
                    <g id="Clip-25"></g>
                    <path d="M98.6651471,338.753912 C122.221059,301.682118 154.217647,265.427471 188.091529,227.043794 C220.621765,190.184824 254.259,152.070353 282.814676,110.418882 C308.773588,72.5553529 327.294,36.1903235 339.004059,0 L338.336206,0 C326.641235,36.0672353 308.166882,72.3155294 282.289765,110.059941 C253.757118,151.678853 220.132588,189.778235 187.615853,226.623706 C153.723706,265.026441 121.711235,301.299353 98.1283235,338.412441 C60.9080294,396.978618 34.9737353,450.543441 16.5097059,506.985353 C9.91455882,527.146412 4.59317647,546.696794 0,566.058176 L0.653558824,566.058176 C5.23482353,546.759529 10.5411176,527.272676 17.1140294,507.183088 C35.5597941,450.793588 61.4734412,397.273235 98.6651471,338.753912" id="Fill-24" fill="#FFFFFF" mask="url(#mask-8)"></path>
                </g>
                <path d="M491.954334,344.208269 C515.510246,307.135681 547.506834,270.881034 581.38151,232.496563 C613.910951,195.637593 647.548187,157.523916 676.103863,115.872446 C703.195187,76.3571515 722.187304,38.4737691 733.788569,0.718239706 L733.123099,0.718239706 C721.536128,38.3498868 702.589275,76.1173279 675.578951,115.513504 C647.046304,157.132416 613.422569,195.231799 580.905834,232.076475 C547.013687,270.480004 515.000422,306.75371 491.41751,343.866799 C454.196422,402.433769 428.261334,455.999387 409.798099,512.441299 C403.740569,530.959328 398.758275,548.961975 394.426363,566.776416 L395.080716,566.776416 C399.400716,549.02471 404.367128,531.085593 410.402422,512.63824 C428.848187,456.24874 454.761834,402.728387 491.954334,344.208269" id="Fill-27" fill="#FFFFFF"></path>
                <path d="M502.877343,345.776413 C526.433254,308.703825 558.429843,272.449178 592.304519,234.064707 C624.83396,197.205737 658.471196,159.09206 687.026872,117.441384 C714.493019,77.3781485 733.635225,38.9928838 745.190431,0.718795588 L744.527343,0.718795588 C732.986431,38.8697956 713.887107,77.1375309 686.50196,117.081649 C657.969313,158.70056 624.345578,196.799943 591.828843,233.644619 C557.936696,272.048149 525.923431,308.321854 502.340519,345.434943 C465.119431,404.001913 439.185137,457.566737 420.721107,514.008649 C414.840666,531.983501 409.975107,549.473149 405.732931,566.776178 L406.388078,566.776178 C410.617549,549.535884 415.468019,532.111354 421.325431,514.206384 C439.771196,457.816884 465.685637,404.296531 502.877343,345.776413" id="Fill-29" fill="#FFFFFF"></path>
                <g id="Group-33" transform="translate(417.041087, 0.718478)">
                    <mask id="mask-10" fill="white">
                        <use xlink:href="#path-9"></use>
                    </mask>
                    <g id="Clip-32"></g>
                    <path d="M96.7600588,346.626 C120.315971,309.553412 152.312559,273.298765 186.187235,234.915088 C218.716676,198.055324 252.353912,159.941647 280.909588,118.290176 C308.751353,77.6805882 328.0365,38.7950294 339.5385,0 L338.876206,0 C327.386118,38.6703529 308.144647,77.4399706 280.384676,117.931235 C251.852029,159.550147 218.228294,197.649529 185.711559,234.495 C151.819412,272.897735 119.806147,309.171441 96.2232353,346.284529 C59.0021471,404.8515 33.0670588,458.417118 14.6038235,514.859029 C8.90126471,532.290706 4.15005882,549.266559 0,566.058176 L0.654352941,566.058176 C4.7925,549.329294 9.52782353,532.417765 15.2081471,515.055971 C33.6539118,458.666471 59.5675588,405.146118 96.7600588,346.626" id="Fill-31" fill="#FFFFFF" mask="url(#mask-10)"></path>
                </g>
                <g id="Group-36" transform="translate(429.148919, 31.233878)">
                    <mask id="mask-12" fill="white">
                        <use xlink:href="#path-11"></use>
                    </mask>
                    <g id="Clip-35"></g>
                    <path d="M95.5752353,320.846559 C119.131147,283.774765 151.127735,247.519324 185.002412,209.135647 C217.531853,172.275882 251.169088,134.162206 279.724765,92.5115294 C300.984088,61.5020294 317.258735,31.4978824 328.887,1.77167647 L328.887,0 C317.238088,30.1852059 300.799059,60.6467647 279.199853,92.1517941 C250.667206,133.770706 217.043471,171.870088 184.526735,208.715559 C150.634588,247.118294 118.621324,283.392 95.0384118,320.505088 C57.8173235,379.072059 31.8822353,432.637676 13.419,489.079588 C8.25247059,504.873794 3.86576471,520.294765 0,535.542618 L0.655147059,535.542618 C4.509,520.3575 8.87902941,505.001647 14.0233235,489.276529 C32.4690882,432.887029 58.3827353,379.366676 95.5752353,320.846559" id="Fill-34" fill="#FFFFFF" mask="url(#mask-12)"></path>
                </g>
                <g id="Group-39" transform="translate(440.677760, 59.035699)">
                    <mask id="mask-14" fill="white">
                        <use xlink:href="#path-13"></use>
                    </mask>
                    <g id="Clip-38"></g>
                    <path d="M94.9693235,295.404618 C118.525235,258.332824 150.521824,222.078176 184.395706,183.6945 C216.925941,146.834735 250.563176,108.721059 279.118853,67.0695882 C294.399265,44.7810882 307.101971,23.0119412 317.358,1.49214706 L317.358,0 C307.017,21.8874706 294.144353,44.0282647 278.593941,66.7106471 C250.0605,108.329559 216.436765,146.428941 183.920029,183.274412 C150.027882,221.677147 118.015412,257.950059 94.4325,295.063147 C57.2122059,353.630118 31.2771176,407.195735 12.8130882,463.638441 C7.91258824,478.618676 3.71805882,493.261412 0,507.740559 L0.655941176,507.740559 C4.36129412,493.324147 8.53914706,478.746529 13.4174118,463.835382 C31.8639706,407.445088 57.7776176,353.924735 94.9693235,295.404618" id="Fill-37" fill="#FFFFFF" mask="url(#mask-14)"></path>
                </g>
                <g id="Group-42" transform="translate(452.416328, 83.678519)">
                    <mask id="mask-16" fill="white">
                        <use xlink:href="#path-15"></use>
                    </mask>
                    <g id="Clip-41"></g>
                    <path d="M94.1545588,273.914206 C117.710471,236.842412 149.707059,200.587765 183.581735,162.204088 C216.111176,125.345118 249.748412,87.2306471 278.304088,45.5799706 C288.556941,30.6243529 297.647206,15.903 305.619353,1.33411765 L305.619353,0 C297.523324,14.8865294 288.262324,29.9302941 277.779176,45.2210294 C249.246529,86.8399412 215.622,124.938529 183.105265,161.784 C149.213118,200.186735 117.200647,236.459647 93.6177353,273.572735 C56.3974412,332.139706 30.4623529,385.705324 11.9983235,442.148029 C7.45279412,456.041912 3.51397059,469.645941 0,483.098294 L0.657529412,483.098294 C4.158,469.708676 8.07935294,456.169765 12.6026471,442.344971 C31.0492059,385.954676 56.9628529,332.434324 94.1545588,273.914206" id="Fill-40" fill="#FFFFFF" mask="url(#mask-16)"></path>
                </g>
                <path d="M557.493896,359.16079 C581.049807,322.088996 613.045601,285.834349 646.920278,247.450672 C679.450513,210.591701 713.087749,172.477231 741.643425,130.82576 C747.483366,122.30726 752.941337,113.866584 758.035601,105.484672 L758.035601,104.266496 C752.794425,112.929525 747.157778,121.657672 741.118513,130.466819 C712.585866,172.085731 678.961337,210.185113 646.444601,247.030584 C612.552454,285.433319 580.539984,321.706231 556.957072,358.819319 C519.736778,417.385496 493.802484,470.950319 475.338454,527.392231 C470.969219,540.747701 467.163013,553.833966 463.752278,566.776496 L464.409807,566.776496 C467.806249,553.897496 471.595778,540.876349 475.942778,527.589966 C494.388543,471.200466 520.30219,417.680113 557.493896,359.16079" id="Fill-43" fill="#FFFFFF"></path>
                <path d="M568.417619,362.312484 C591.973531,325.24069 623.970119,288.986043 657.844796,250.602366 C690.374237,213.743396 724.011472,175.628925 752.567149,133.977454 C754.429354,131.260778 756.249472,128.552043 758.035443,125.850454 L758.035443,124.701366 C756.083501,127.665013 754.086296,130.636601 752.042237,133.618513 C723.50959,175.237425 689.88506,213.336807 657.368325,250.182278 C623.476972,288.585013 591.463707,324.857925 567.880796,361.971013 C530.660501,420.53719 504.726207,474.102013 486.262972,530.543925 C482.247913,542.816219 478.707737,554.861396 475.513001,566.776337 L476.170531,566.776337 C479.350972,554.924925 482.873678,542.944866 486.866501,530.740866 C505.31306,474.35216 531.225913,420.831807 568.417619,362.312484" id="Fill-45" fill="#FFFFFF"></path>
                <g id="Group-49" transform="translate(487.503066, 144.639040)">
                    <mask id="mask-18" fill="white">
                        <use xlink:href="#path-17"></use>
                    </mask>
                    <g id="Clip-48"></g>
                    <path d="M180.789618,109.485794 C146.897471,147.889324 114.885,184.163029 91.3020882,221.276118 C54.081,279.843088 28.1459118,333.408706 9.68188235,389.849824 C6.10994118,400.768941 2.91202941,411.509382 0,422.137853 L0.659911765,422.137853 C3.55685294,411.572912 6.7365,400.898382 10.2862059,390.047559 C28.7327647,333.658059 54.6464118,280.1385 91.8381176,221.617588 C115.394029,184.545794 147.390618,148.290353 181.266088,109.905882 C211.745912,75.3689118 243.198529,39.7289118 270.532853,1.11097059 L270.532853,0 C243.096882,38.8760294 211.453676,74.7407647 180.789618,109.485794" id="Fill-47" fill="#FFFFFF" mask="url(#mask-18)"></path>
                </g>
                <path d="M589.72856,369.859699 C552.508266,428.426669 526.573178,481.991493 508.109149,538.43261 C504.977943,548.003316 502.135001,557.435846 499.519972,566.776257 L500.17909,566.776257 C502.779031,557.500169 505.604501,548.132757 508.712678,538.630346 C527.159237,482.24164 553.073678,428.721287 590.265384,370.201169 C613.821296,333.128581 645.817884,296.873934 679.69256,258.490257 C706.187501,228.467846 733.415413,197.613199 758.035443,164.693846 L758.035443,163.624963 C733.296296,196.782551 705.886531,227.850022 679.21609,258.070169 C645.324737,296.472904 613.311472,332.74661 589.72856,369.859699" id="Fill-50" fill="#FFFFFF"></path>
                <g id="Group-54" transform="translate(511.111628, 180.280549)">
                    <mask id="mask-20" fill="white">
                        <use xlink:href="#path-19"></use>
                    </mask>
                    <g id="Clip-53"></g>
                    <path d="M89.5399412,191.939824 C52.3188529,250.506794 26.3837647,304.072412 7.92052941,360.513529 C5.05297059,369.279 2.43079412,377.926941 0,386.496265 L0.660705882,386.496265 C3.07561765,377.990471 5.67873529,369.408441 8.52405882,360.710471 C26.9706176,304.321765 52.8842647,250.801412 90.0767647,192.281294 C113.632676,155.2095 145.629265,118.954059 179.503941,80.5703824 C202.137882,54.9235588 225.302294,28.6660588 246.923735,1.03632353 L246.923735,-4.5140362e-14 C225.169676,27.8520882 201.829765,54.3120882 179.027471,80.1502941 C145.136118,118.553029 113.122853,154.826735 89.5399412,191.939824" id="Fill-52" fill="#FFFFFF" mask="url(#mask-20)"></path>
                </g>
                <g id="Group-57" transform="translate(522.934293, 197.149751)">
                    <mask id="mask-22" fill="white">
                        <use xlink:href="#path-21"></use>
                    </mask>
                    <g id="Clip-56"></g>
                    <path d="M88.641,178.222235 C51.4199118,236.789206 25.4856176,290.354029 7.02158824,346.795147 C4.50502941,354.486971 2.17588235,362.089059 0,369.626824 L0.662294118,369.626824 C2.8215,362.153382 5.13079412,354.617206 7.62511765,346.992882 C26.0716765,290.604176 51.9861176,237.083824 89.1778235,178.563706 C112.733735,141.491118 144.730324,105.236471 178.605,66.852 C197.468471,45.4767353 216.699618,23.6742353 235.101706,1.01011765 L235.101706,0 C216.557471,22.8737647 197.157176,44.8708235 178.128529,66.4319118 C144.237176,104.835441 112.223912,141.109147 88.641,178.222235" id="Fill-55" fill="#FFFFFF" mask="url(#mask-22)"></path>
                </g>
                <g id="Group-60" transform="translate(534.545801, 212.778543)">
                    <mask id="mask-24" fill="white">
                        <use xlink:href="#path-23"></use>
                    </mask>
                    <g id="Clip-59"></g>
                    <path d="M87.9525,164.953324 C50.7322059,223.520294 24.7971176,277.085912 6.33308824,333.527824 C4.07858824,340.417588 1.97814706,347.234294 0,353.997794 L0.662294118,353.997794 C2.62297059,347.298618 4.70514706,340.547824 6.93661765,333.724765 C25.3831765,277.335265 51.2976176,223.814912 88.4893235,165.294794 C112.045235,128.223 144.041824,91.9683529 177.9165,53.5846765 C193.077794,36.4055294 208.474147,18.9468529 223.490118,0.991058824 L223.490118,0 C208.324853,18.1559118 192.761735,35.8027941 177.440029,53.1645882 C143.548676,91.5673235 111.535412,127.840235 87.9525,164.953324" id="Fill-58" fill="#FFFFFF" mask="url(#mask-24)"></path>
                </g>
                <g id="Group-63" transform="translate(546.399516, 228.857599)">
                    <mask id="mask-26" fill="white">
                        <use xlink:href="#path-25"></use>
                    </mask>
                    <g id="Clip-62"></g>
                    <path d="M87.0225882,152.027471 C49.8022941,210.594441 23.8672059,264.160059 5.40317647,320.601971 C3.49888235,326.422853 1.70497059,332.189735 0,337.919294 L0.663088235,337.919294 C2.35058824,332.254853 4.12464706,326.552294 6.00670588,320.798912 C24.4532647,264.410206 50.3677059,210.889059 87.5594118,152.368941 C111.115324,115.297147 143.111118,79.0425 176.985794,40.6588235 C188.489382,27.6241765 200.128765,14.4267353 211.636324,0.976764706 L211.636324,0 C199.974706,13.6429412 188.172529,27.0238235 176.510118,40.2387353 C142.617971,78.6414706 110.6055,114.914382 87.0225882,152.027471" id="Fill-61" fill="#FFFFFF" mask="url(#mask-26)"></path>
                </g>
                <g id="Group-66" transform="translate(557.791769, 243.097399)">
                    <mask id="mask-28" fill="white">
                        <use xlink:href="#path-27"></use>
                    </mask>
                    <g id="Clip-65"></g>
                    <path d="M86.5532647,139.354941 C49.3329706,197.921118 23.3986765,251.485941 4.93544118,307.927059 C3.20426471,313.218265 1.566,318.465 0,323.679176 L0.663088235,323.679176 C2.21082353,318.529324 3.83002941,313.3485 5.53817647,308.124 C23.9847353,251.736088 49.8983824,198.215735 87.0900882,139.696412 C110.646,102.624618 142.642588,66.3699706 176.517265,27.9862941 C184.390941,19.0651765 192.328147,10.0678235 200.243912,0.967235294 L200.243912,0 C192.170912,9.28720588 184.071706,18.4656176 176.040794,27.5662059 C142.148647,65.9689412 110.136176,102.241853 86.5532647,139.354941" id="Fill-64" fill="#FFFFFF" mask="url(#mask-28)"></path>
                </g>
                <path d="M655.268837,387.188378 C618.048543,445.754554 592.114249,499.319378 573.651013,555.760496 C572.44316,559.453143 571.28216,563.12276 570.156896,566.776496 L570.820778,566.776496 C571.927778,563.187878 573.068131,559.583378 574.253749,555.957437 C592.700307,499.569525 618.613954,446.049172 655.80566,387.529849 C679.361572,350.458054 711.35816,314.203407 745.232837,275.819731 C749.486131,271.000231 753.758484,266.157701 758.035601,261.290554 L758.035601,260.326496 C753.598866,265.37629 749.166896,270.400672 744.756366,275.399643 C710.864219,313.802378 678.851749,350.07529 655.268837,387.188378" id="Fill-67" fill="#FFFFFF"></path>
                <path d="M666.19264,387.964628 C628.971551,446.531599 603.036463,500.097216 584.573228,556.538334 C583.45114,559.968922 582.368757,563.379657 581.317346,566.776099 L581.982816,566.776099 C583.014375,563.444775 584.076904,560.099157 585.176757,556.735275 C603.623316,500.346569 629.536963,446.826216 666.729463,388.306099 C690.285375,351.234304 722.281963,314.978863 756.15664,276.595187 C756.78161,275.886834 757.409757,275.17451 758.035522,274.465363 L758.035522,273.505275 C757.250934,274.394687 756.463963,275.286481 755.680169,276.175099 C721.788816,314.577834 689.775551,350.85154 666.19264,387.964628" id="Fill-69" fill="#FFFFFF"></path>
                <g id="Group-73" transform="translate(593.476557, 289.834796)">
                    <mask id="mask-30" fill="white">
                        <use xlink:href="#path-29"></use>
                    </mask>
                    <g id="Clip-72"></g>
                    <path d="M2.02023529,270.648 C1.33173529,272.753206 0.6615,274.849676 0,276.941382 L0.666264706,276.941382 C1.30791176,274.914794 1.95670588,272.884235 2.62455882,270.844941 C21.0703235,214.455441 46.9839706,160.935882 84.1764706,102.414971 C105.624,68.6617941 134.070088,35.5836176 164.559441,0.960882353 L164.559441,-4.5140362e-14 C133.873147,34.8387353 105.224559,68.1051176 83.6396471,102.074294 C46.4185588,160.641265 20.4834706,214.206882 2.02023529,270.648" id="Fill-71" fill="#FFFFFF" mask="url(#mask-30)"></path>
                </g>
                <g id="Group-76" transform="translate(605.660546, 306.226099)">
                    <mask id="mask-32" fill="white">
                        <use xlink:href="#path-31"></use>
                    </mask>
                    <g id="Clip-75"></g>
                    <path d="M0.759176471,258.200206 C0.501882353,258.985588 0.253323529,259.767 0,260.550794 L0.667852941,260.550794 C0.899735294,259.832912 1.12764706,259.117412 1.3635,258.397941 C19.8092647,202.008441 45.7237059,148.488882 82.9154118,89.9679706 C101.778088,60.2814706 126.056647,31.1175 152.375294,0.965647059 L152.375294,0 C125.854941,30.3654706 101.380235,59.724 82.3785882,89.6272941 C45.1582941,148.194265 19.2232059,201.759088 0.759176471,258.200206" id="Fill-74" fill="#FFFFFF" mask="url(#mask-32)"></path>
                </g>
                <g id="Group-79" transform="translate(617.089407, 320.392840)">
                    <mask id="mask-34" fill="white">
                        <use xlink:href="#path-33"></use>
                    </mask>
                    <g id="Clip-78"></g>
                    <path d="M0.253323529,245.600735 C0.167558824,245.862 0.0857647059,246.122471 0,246.383735 L0.667852941,246.383735 C0.732176471,246.188382 0.793323529,245.993824 0.857647059,245.798471 C19.3034118,189.408971 45.2178529,135.889412 82.4095588,77.3685 C98.6325882,51.8368235 118.859559,26.6926765 140.946353,0.973588235 L140.946353,0 C118.656265,25.9327059 98.2347353,51.2785588 81.8727353,77.0278235 C44.6516471,135.594794 18.7173529,189.159618 0.253323529,245.600735" id="Fill-77" fill="#FFFFFF" mask="url(#mask-34)"></path>
                </g>
                <path d="M629.053266,566.776496 L629.722707,566.776496 C648.112884,511.328819 673.796237,458.545407 710.422531,400.914701 C723.929678,379.65776 740.215443,358.668437 758.035443,337.392437 L758.035443,336.40376 C740.009766,357.89576 723.535001,379.094731 709.886501,400.573231 C673.187149,458.319084 647.464884,511.204143 629.053266,566.776496" id="Fill-80" fill="#FFFFFF"></path>
                <g id="Group-84" transform="translate(641.024351, 352.795937)">
                    <mask id="mask-36" fill="white">
                        <use xlink:href="#path-35"></use>
                    </mask>
                    <g id="Clip-83"></g>
                    <path d="M0,213.980559 L0.671823529,213.980559 C18.9857647,159.679588 44.3887941,107.808618 80.3218235,51.2706176 C91.0154118,34.4408824 103.452088,17.7795 117.011647,1.01091176 L117.011647,0 C103.247206,16.9909412 90.6239118,33.8715 79.785,50.9291471 C43.7797059,107.582294 18.3369706,159.5565 0,213.980559" id="Fill-82" fill="#FFFFFF" mask="url(#mask-36)"></path>
                </g>
                <path d="M653.024501,566.776496 L653.695531,566.776496 C671.92609,513.61826 697.032913,462.661319 732.269501,407.219201 C740.020884,395.019966 748.690266,382.910466 758.035443,370.783496 L758.035443,369.741613 C748.486972,382.100466 739.634943,394.441849 731.732678,406.877731 C696.423825,462.43579 671.276501,513.495172 653.024501,566.776496" id="Fill-85" fill="#FFFFFF"></path>
                <path d="M664.756796,566.776496 L665.430207,566.776496 C683.592472,514.467966 708.478531,464.201113 743.193384,409.578525 C747.828649,402.282966 752.795854,395.019172 758.035443,387.764113 L758.035443,386.680937 C752.599707,394.182172 747.451443,401.692143 742.65656,409.237849 C707.868649,463.975584 682.941296,514.344878 664.756796,566.776496" id="Fill-87" fill="#FFFFFF"></path>
                <path d="M677.064031,566.776496 L677.737443,566.776496 C695.774237,515.879907 720.275149,466.770878 754.117266,413.522907 C755.397384,411.508231 756.706884,409.496731 758.035443,407.486025 L758.035443,406.328996 C756.519472,408.610496 755.033678,410.894378 753.580443,413.181437 C719.665266,466.545349 695.123854,515.758407 677.064031,566.776496" id="Fill-89" fill="#FFFFFF"></path>
                <path d="M689.219669,566.776496 C705.924728,520.01726 728.118728,474.716819 758.035522,426.270878 L758.035522,425.063819 C727.775669,473.95129 705.372816,519.617819 688.543875,566.776496 L689.219669,566.776496 Z" id="Fill-91" fill="#FFFFFF"></path>
                <g id="Group-95" transform="translate(700.317622, 445.516319)">
                    <mask id="mask-38" fill="white">
                        <use xlink:href="#path-37"></use>
                    </mask>
                    <g id="Clip-94"></g>
                    <path d="M0.675794118,121.260176 C15.1565294,81.2120294 33.7039412,42.1763824 57.7180588,1.25708824 L57.7180588,4.5140362e-14 C33.3727941,41.3679706 14.6165294,80.7935294 0,121.260176 L0.675794118,121.260176 Z" id="Fill-93" fill="#FFFFFF" mask="url(#mask-38)"></path>
                </g>
                <path d="M713.357669,566.776496 C725.305963,534.386025 739.946316,502.599084 758.035522,469.87429 L758.035522,468.567172 C739.635022,501.746201 724.776287,533.950054 712.680287,566.776496 L713.357669,566.776496 Z" id="Fill-96" fill="#FFFFFF"></path>
                <path d="M725.154287,566.776496 C734.408934,541.982554 745.256581,517.51976 758.035522,492.697231 L758.035522,491.317054 C744.963551,516.609701 733.894346,541.520378 724.476904,566.776496 L725.154287,566.776496 Z" id="Fill-98" fill="#FFFFFF"></path>
                <path d="M737.56706,566.776496 C743.681766,550.71229 750.472266,534.771172 758.035443,518.766525 L758.035443,517.279143 C750.198296,533.782496 743.185443,550.213584 736.88809,566.776496 L737.56706,566.776496 Z" id="Fill-100" fill="#FFFFFF"></path>
                <path d="M749.389249,566.776496 C752.133719,559.650084 755.013984,552.546701 758.035601,545.449672 L758.035601,543.839201 C754.766219,551.47226 751.656454,559.110878 748.70869,566.776496 L749.389249,566.776496 Z" id="Fill-102" fill="#FFFFFF"></path>
                <g id="Group-106" transform="translate(255.270428, 0.718478)">
                    <mask id="mask-40" fill="white">
                        <use xlink:href="#path-39"></use>
                    </mask>
                    <g id="Clip-105"></g>
                    <path d="M105.601765,307.248882 C129.157676,270.176294 161.154265,233.921647 195.028941,195.537176 C227.558382,158.678206 261.195618,120.564529 289.751294,78.9130588 C308.195471,52.0099412 322.881882,25.8644118 334.043206,0 L333.352324,0 C322.220382,25.7445 307.587971,51.7725 289.226382,78.5541176 C260.693735,120.173029 227.07,158.272412 194.553265,195.117088 C160.661118,233.520618 128.647853,269.794324 105.064941,306.907412 C67.8438529,365.474382 41.9087647,419.04 23.4455294,475.481912 C13.2617647,506.612912 6.11152941,536.290676 0,566.058176 L0.648794118,566.058176 C6.75079412,536.352618 13.8899118,506.736 24.0498529,475.678853 C42.4956176,419.289353 68.4092647,365.769 105.601765,307.248882" id="Fill-104" fill="#FFFFFF" mask="url(#mask-40)"></path>
                </g>
                <path d="M349.949184,305.606766 C373.505096,268.534178 405.501684,232.279531 439.37636,193.895854 C471.905801,157.03609 505.543037,118.922413 534.098713,77.2709426 C551.982243,51.1865603 566.331154,25.8137074 577.362243,0.718795588 L576.66739,0.718795588 C565.667272,25.6937956 551.373949,50.9491191 533.573801,76.9120015 C505.041154,118.531707 471.417419,156.630296 438.900684,193.475766 C405.008537,231.878501 372.995272,268.152207 349.41236,305.265296 C312.191272,363.832266 286.256978,417.39709 267.792949,473.839001 C257.339978,505.792707 250.083331,536.216149 243.86539,566.776178 L244.51339,566.776178 C250.721801,536.27809 257.968125,505.91659 268.397272,474.036737 C286.843037,417.647237 312.757478,364.126884 349.949184,305.606766" id="Fill-107" fill="#FFFFFF"></path>
                <path d="M339.02546,303.246887 C362.581372,266.174299 394.57796,229.919651 428.452637,191.535181 C460.982078,154.67621 494.619313,116.562534 523.17499,74.9110632 C540.497872,49.6438279 554.507696,25.0444456 565.394254,0.718239706 L564.699401,0.718239706 C553.845401,24.9253279 539.889578,49.4063868 522.650078,74.5521221 C494.117431,116.171034 460.493696,154.270416 427.97696,191.115093 C394.084813,229.518622 362.071549,265.792328 338.488637,302.905416 C301.267549,361.472387 275.33246,415.038004 256.869225,471.479916 C246.147049,504.255534 238.787166,535.421475 232.462813,566.776416 L233.110813,566.776416 C239.426431,535.483416 246.775196,504.378622 257.473549,471.676857 C275.919313,415.287357 301.83296,361.767004 339.02546,303.246887" id="Fill-109" fill="#FFFFFF"></path>
                <g id="Group-113" transform="translate(220.749657, 0.718399)">
                    <mask id="mask-42" fill="white">
                        <use xlink:href="#path-41"></use>
                    </mask>
                    <g id="Clip-112"></g>
                    <path d="M107.352794,298.584265 C130.908706,261.512471 162.905294,225.257029 196.779971,186.873353 C229.309412,150.013588 262.946647,111.899912 291.502324,70.2484412 C307.888941,46.3462941 321.309529,23.0413235 331.928471,0 L331.229647,0 C320.645647,22.9222059 307.281441,46.1088529 290.977412,69.8895 C262.444765,111.508412 228.821029,149.607794 196.304294,186.453265 C162.412147,224.856 130.398882,261.129706 106.815971,298.242794 C69.5948824,356.809765 43.6597941,410.375382 25.1965588,466.817294 C14.0249118,500.966735 6.50382353,533.369118 0,566.058176 L0.648794118,566.058176 C7.14229412,533.430265 14.6538529,501.089824 25.8008824,467.014235 C44.2466471,410.624735 70.1602941,357.104382 107.352794,298.584265" id="Fill-111" fill="#FFFFFF" mask="url(#mask-42)"></path>
                </g>
                <g id="Group-116" transform="translate(209.046110, 0.718557)">
                    <mask id="mask-44" fill="white">
                        <use xlink:href="#path-43"></use>
                    </mask>
                    <g id="Clip-115"></g>
                    <path d="M108.131824,294.639882 C131.687735,257.567294 163.684324,221.312647 197.559,182.928176 C230.089235,146.069206 263.726471,107.955529 292.282147,66.3040588 C307.734088,43.7646176 320.547176,21.7564412 330.862765,0 L330.160765,0 C319.881706,21.6373235 307.126588,43.5271765 291.757235,65.9451176 C263.223794,107.564029 229.600059,145.662618 197.083324,182.508088 C163.191176,220.911618 131.178706,257.184529 107.595,294.298412 C70.3747059,352.864588 44.4404118,406.429412 25.9771765,462.871324 C14.3560588,498.394588 6.68408824,532.026265 0,566.058176 L0.648,566.058176 C7.32255882,532.088206 14.9842059,498.516882 26.5807059,463.068265 C45.0264706,406.679559 70.9401176,353.159206 108.131824,294.639882" id="Fill-114" fill="#FFFFFF" mask="url(#mask-44)"></path>
                </g>
                <path d="M306.254925,292.206031 C329.810837,255.134237 361.807425,218.87959 395.682101,180.495913 C428.211543,143.636943 461.848778,105.522472 490.404454,63.8710015 C505.111513,42.4195015 517.425101,21.4492368 527.473072,0.718795588 L526.767101,0.718795588 C516.757249,21.3301191 504.503219,42.1820603 489.879543,63.5120603 C461.346896,105.130972 427.722366,143.230354 395.205631,180.075825 C361.314278,218.47856 329.301013,254.751472 305.718101,291.86456 C268.497807,350.430737 242.563513,403.99556 224.100278,460.437472 C212.120219,497.056619 204.337072,531.666649 197.506866,566.776178 L198.154072,566.776178 C204.974749,531.729384 212.748366,497.178913 224.703807,460.634413 C243.150366,404.245707 269.063219,350.725354 306.254925,292.206031" id="Fill-117" fill="#FFFFFF"></path>
                <path d="M295.331122,290.637966 C318.887034,253.566172 350.883622,217.311525 384.757504,178.927849 C417.286946,142.068084 450.924975,103.954407 479.480651,62.3029368 C493.816857,41.3922309 505.881887,20.9381426 515.788504,0.718319118 L515.08174,0.718319118 C505.214828,20.8198191 493.208563,41.1547897 478.95574,61.9439956 C450.422299,103.562907 416.798563,141.66229 384.281828,178.50776 C350.389681,216.910496 318.37721,253.183407 294.794299,290.296496 C257.574004,348.863466 231.638916,402.429084 213.174887,458.87179 C201.01774,496.035701 193.182181,531.129349 186.278916,566.776496 L186.926122,566.776496 C193.819857,531.19129 201.645887,496.157201 213.77921,459.068731 C232.224975,402.679231 258.139416,349.158878 295.331122,290.637966" id="Fill-119" fill="#FFFFFF"></path>
                <g id="Group-123" transform="translate(174.899290, 0.718557)">
                    <mask id="mask-46" fill="white">
                        <use xlink:href="#path-45"></use>
                    </mask>
                    <g id="Clip-122"></g>
                    <path d="M109.508824,287.560324 C133.065529,250.487735 165.061324,214.233088 198.936,175.848618 C231.465441,138.989647 265.102676,100.875971 293.658353,59.2245 C307.437088,39.1261765 319.114588,19.4511176 328.798059,0 L328.088118,0 C318.445147,19.3327941 306.829588,38.8895294 293.134235,58.8655588 C264.600794,100.484471 230.977059,138.583059 198.460324,175.428529 C164.568176,213.832059 132.555706,250.104971 108.972,287.218853 C71.7517059,345.785824 45.8166176,399.351441 27.3525882,455.793353 C14.9270294,493.777588 7.01602941,529.598647 4.5140362e-14,566.058176 L0.647205882,566.058176 C7.65291176,529.660588 15.5559706,493.899088 27.9569118,455.991088 C46.4026765,399.601588 72.3171176,346.080441 109.508824,287.560324" id="Fill-121" fill="#FFFFFF" mask="url(#mask-46)"></path>
                </g>
                <g id="Group-126" transform="translate(163.220360, 0.718716)">
                    <mask id="mask-48" fill="white">
                        <use xlink:href="#path-47"></use>
                    </mask>
                    <g id="Clip-125"></g>
                    <path d="M110.264029,283.615147 C133.819941,246.542559 165.816529,210.287912 199.691206,171.903441 C232.220647,135.044471 265.857882,96.9307941 294.413559,55.2793235 C307.261588,36.5389412 318.282353,18.1662353 327.564794,0 L326.850088,0 C317.611324,18.0479118 306.654088,36.3015 293.888647,54.9203824 C265.356,96.5392941 231.732265,134.638676 199.215529,171.483353 C165.323382,209.886882 133.310118,246.160588 109.727206,283.273676 C72.5061176,341.840647 46.5718235,395.405471 28.1077941,451.847382 C15.2343529,491.201471 7.20582353,528.231971 0,566.058176 L0.646411765,566.058176 C7.8435,528.293912 15.8632941,491.322176 28.7121176,452.045118 C47.1578824,395.655618 73.0723235,342.135265 110.264029,283.615147" id="Fill-124" fill="#FFFFFF" mask="url(#mask-48)"></path>
                </g>
                <path d="M262.561381,281.973984 C286.117293,244.901396 318.113881,208.646749 351.988557,170.262278 C384.517999,133.403307 418.155234,95.2896309 446.71091,53.6381603 C459.003057,35.7093662 469.624381,18.1164838 478.648734,0.718160294 L477.934822,0.718160294 C468.954146,17.9981603 458.394763,35.471925 446.185999,53.2792191 C417.653351,94.8981309 384.029616,132.997513 351.512881,169.84219 C317.620734,208.245719 285.607469,244.519425 262.024557,281.632513 C224.804263,340.199484 198.869175,393.764307 180.405146,450.206219 C167.264087,490.377454 159.172822,528.129807 151.849469,566.776337 L152.495881,566.776337 C159.809704,528.191749 167.893028,490.49816 181.009469,450.403954 C199.455234,394.014454 225.369675,340.494101 262.561381,281.973984" id="Fill-127" fill="#FFFFFF"></path>
                <g id="Group-131" transform="translate(140.330078, 0.718399)">
                    <mask id="mask-50" fill="white">
                        <use xlink:href="#path-49"></use>
                    </mask>
                    <g id="Clip-130"></g>
                    <path d="M111.3075,278.103176 C134.863412,241.031382 166.86,204.775941 200.734676,166.392265 C233.264118,129.5325 266.901353,91.4188235 295.457029,49.7673529 C307.007471,32.9201471 317.078471,16.3707353 325.739912,0 L325.021235,0 C316.405853,16.2524118 306.399176,32.6835 294.932118,49.4084118 C266.399471,91.0273235 232.775735,129.126706 200.259,165.972176 C166.366853,204.374912 134.353588,240.648618 110.770676,277.761706 C73.5495882,336.328676 47.6145,389.894294 29.1512647,446.336206 C15.6528529,487.598559 7.48217647,526.308618 4.5140362e-14,566.058176 L0.646411765,566.058176 C8.11905882,526.371353 16.2817941,487.719265 29.7555882,446.533147 C48.2013529,390.143647 74.115,336.623294 111.3075,278.103176" id="Fill-129" fill="#FFFFFF" mask="url(#mask-50)"></path>
                </g>
                <g id="Group-134" transform="translate(128.964031, 0.718637)">
                    <mask id="mask-52" fill="white">
                        <use xlink:href="#path-51"></use>
                    </mask>
                    <g id="Clip-133"></g>
                    <path d="M111.750618,275.743059 C135.306529,238.670471 167.303118,202.415824 201.177794,164.031353 C233.707235,127.172382 267.344471,89.0587059 295.900147,47.4072353 C306.8955,31.3692353 316.553559,15.6004412 324.929912,0 L324.207265,0 C315.879353,15.4829118 306.287206,31.1317941 295.375235,47.0482941 C266.842588,88.6672059 233.218853,126.766588 200.702118,163.611265 C166.809971,202.014794 134.796706,238.2885 111.213794,275.401588 C73.9927059,333.968559 48.0584118,387.533382 29.5943824,443.975294 C15.8291471,486.054794 7.60447059,525.479559 0,566.058176 L0.646411765,566.058176 C8.24055882,525.5415 16.4580882,486.174706 30.1987059,444.173029 C48.6444706,387.783529 74.5589118,334.263176 111.750618,275.743059" id="Fill-132" fill="#FFFFFF" mask="url(#mask-52)"></path>
                </g>
                <path d="M229.790051,274.893631 C253.345963,237.821837 285.342551,201.56719 319.217228,163.183513 C351.746669,126.324543 385.383904,88.2100721 413.939581,46.5586015 C424.566463,31.057425 433.941022,15.8079838 442.118846,0.718160294 L441.396199,0.718160294 C433.266816,15.6904544 423.958963,30.8199838 413.414669,46.1996603 C384.882022,87.8185721 351.257493,125.917954 318.740757,162.763425 C284.849404,201.16616 252.83614,237.439072 229.253228,274.55216 C192.032934,333.118337 166.09864,386.68316 147.635404,443.125072 C133.692287,485.74616 125.432669,525.643425 117.746404,566.776337 L118.392022,566.776337 C126.068757,525.70616 134.321228,485.866072 148.238934,443.322013 C166.685493,386.933307 192.598346,333.412954 229.790051,274.893631" id="Fill-135" fill="#FFFFFF"></path>
                <path d="M218.867043,269.365063 C242.422954,232.293269 274.419543,196.038622 308.293425,157.654946 C340.82366,120.795181 374.460896,82.6815044 403.016572,41.0300338 C412.347454,27.4196515 420.71269,14.0030338 428.151984,0.718239706 L427.424572,0.718239706 C420.038484,13.8847103 411.73916,27.1822103 402.49166,40.6710926 C373.958219,82.2900044 340.334484,120.389387 307.817749,157.234857 C273.925601,195.637593 241.913131,231.910504 218.330219,269.023593 C181.109131,327.590563 155.174043,381.156181 136.710807,437.598887 C122.145101,482.125063 113.782249,523.680446 105.794219,566.776416 L106.440631,566.776416 C114.418337,523.743181 122.774043,482.244975 137.315131,437.795828 C155.760896,381.406328 181.675337,327.885975 218.867043,269.365063" id="Fill-137" fill="#FFFFFF"></path>
                <g id="Group-141" transform="translate(94.579849, 0.718478)">
                    <mask id="mask-54" fill="white">
                        <use xlink:href="#path-53"></use>
                    </mask>
                    <g id="Clip-140"></g>
                    <path d="M113.363471,267.079235 C136.920176,230.006647 168.915971,193.752 202.790647,155.367529 C235.320088,118.508559 268.957324,80.3948824 297.513,38.7434118 C306.477,25.6682647 314.550794,12.7717941 321.768529,0 L321.037147,0 C313.874206,12.6542647 305.8695,25.4308235 296.988882,38.3844706 C268.455441,80.0033824 234.831706,118.101971 202.314971,154.947441 C168.422824,193.350971 136.410353,229.623882 112.826647,266.737765 C75.6063529,325.304735 49.6712647,378.870353 31.2072353,435.312265 C16.4644412,480.379235 8.07697059,522.401559 4.5140362e-14,566.058176 L0.646411765,566.058176 C8.71226471,522.464294 17.0941765,480.498353 31.8115588,435.51 C50.2573235,379.1205 76.1717647,325.599353 113.363471,267.079235" id="Fill-139" fill="#FFFFFF" mask="url(#mask-54)"></path>
                </g>
                <path d="M197.02031,264.645304 C220.576222,227.572716 252.57281,191.318069 286.447487,152.934393 C318.976928,116.075422 352.614163,77.9609515 381.16984,36.3094809 C389.396899,24.3095691 396.873516,12.4597456 403.627487,0.718716176 L402.896104,0.718716176 C396.198516,12.3414221 388.789399,24.0721279 380.644928,35.9505397 C352.112281,77.5694515 318.488546,115.668834 285.97181,152.514304 C252.079663,190.91704 220.066399,227.190746 196.483487,264.303834 C159.263193,322.870804 133.328104,376.435628 114.864075,432.87754 C99.7671044,479.028481 91.333575,521.987069 83.0747515,566.776099 L83.7203691,566.776099 C91.9688691,522.049804 100.39684,479.147599 115.468399,433.075275 C133.914163,376.685775 159.828604,323.165422 197.02031,264.645304" id="Fill-142" fill="#FFFFFF"></path>
                <path d="M186.097301,261.492896 C209.653213,224.420307 241.649801,188.16566 275.524478,149.78119 C308.053919,112.922219 341.691154,74.8085426 370.246831,33.1570721 C377.738537,22.2300132 384.60289,11.428425 390.871654,0.718160294 L390.135507,0.718160294 C383.925507,11.3101015 377.131037,21.9925721 369.721919,32.7981309 C341.189272,74.4170426 307.565537,112.516425 275.048801,149.361101 C241.156654,187.764631 209.14339,224.038337 185.560478,261.151425 C148.33939,319.718396 122.405096,373.283219 103.941066,429.725131 C88.4899191,476.958454 80.0182721,520.84616 71.5712426,566.776337 L72.2168603,566.776337 C80.6535662,520.908896 89.1196544,477.076778 104.54539,429.922866 C122.991154,373.533366 148.905596,320.013013 186.097301,261.492896" id="Fill-144" fill="#FFFFFF"></path>
                <path d="M175.173578,257.548672 C198.72949,220.476084 230.726078,184.221437 264.600754,145.83776 C297.130196,108.97879 330.767431,70.8643191 359.323107,29.2128485 C365.896019,19.6254662 371.983725,10.1357603 377.614019,0.718319118 L376.873901,0.718319118 C371.304754,10.0174368 365.288519,19.388025 358.798196,28.8539074 C330.265549,70.4728191 296.641813,108.572201 264.125078,145.417672 C230.232931,183.820407 198.219666,220.094113 174.636754,257.207201 C137.415666,315.774172 111.480578,369.33979 93.0173426,425.781701 C77.1246662,474.364231 68.6164897,519.408172 59.9224897,566.776496 L60.5689015,566.776496 C69.2509897,519.472496 77.7544015,474.482554 93.6216662,425.978643 C112.067431,369.589143 137.981078,316.06879 175.173578,257.548672" id="Fill-146" fill="#FFFFFF"></path>
                <g id="Group-150" transform="translate(48.712010, 0.718637)">
                    <mask id="mask-56" fill="white">
                        <use xlink:href="#path-55"></use>
                    </mask>
                    <g id="Clip-149"></g>
                    <path d="M115.538559,255.261971 C139.094471,218.189382 171.091059,181.934735 204.965735,143.550265 C237.495176,106.691294 271.132412,68.5776176 299.688088,26.9261471 C305.895706,17.8708235 311.675294,8.90205882 317.041941,0 L316.301029,0 C310.997118,8.78373529 305.288206,17.6333824 299.163176,26.5672059 C270.630529,68.1861176 237.006794,106.2855 204.490059,143.130176 C170.597912,181.533706 138.584647,217.807412 115.001735,254.9205 C77.7814412,313.487471 51.8463529,367.052294 33.3823235,423.494206 C17.3141471,472.612765 8.79485294,518.114912 2.2570181e-14,566.058176 L0.645617647,566.058176 C9.42935294,518.178441 17.9446765,472.731088 33.9866471,423.691941 C52.4324118,367.302441 78.3468529,313.782088 115.538559,255.261971" id="Fill-148" fill="#FFFFFF" mask="url(#mask-56)"></path>
                </g>
                <path d="M153.325972,253.620728 C176.881884,216.548934 208.878472,180.294287 242.753149,141.91061 C275.28259,105.05164 308.919825,66.9371691 337.475501,25.2856985 C343.135972,17.0300515 348.434325,8.845875 353.394384,0.718875 L352.649501,0.718875 C347.753766,8.72755147 342.528472,16.7918162 336.951384,24.9267574 C308.417943,66.5456691 274.793413,104.645051 242.276678,141.490522 C208.384531,179.893257 176.37206,216.166169 152.789149,253.279257 C115.568854,311.845434 89.6345603,365.410257 71.171325,421.852169 C54.8395015,471.775169 46.304325,517.964228 37.3554132,566.776257 L38.0002368,566.776257 C46.9396191,518.028551 55.4684426,471.894287 71.7748544,422.04911 C90.2206191,365.660404 116.134266,312.140051 153.325972,253.620728" id="Fill-151" fill="#FFFFFF"></path>
                <path d="M60.8516074,419.689787 C79.2981662,363.300287 105.211019,309.780728 142.402725,251.26061 C165.958637,214.18961 197.954431,177.934169 231.829901,139.550493 C264.360137,102.691522 297.996578,64.5770515 326.552254,22.926375 C331.664784,15.4688162 336.48746,8.07002206 341.028225,0.718080882 L340.281754,0.718080882 C335.806901,7.95090441 331.057284,15.2305809 326.028137,22.5666397 C297.494696,64.1863456 263.870166,102.285728 231.353431,139.130404 C197.461284,177.533934 165.449607,213.806051 141.866696,250.919934 C104.645607,309.48611 78.7113132,363.050934 60.2472838,419.492051 C43.7645779,469.878022 35.2246368,516.456199 26.1836074,565.77011 C26.1224603,566.104434 26.059725,566.441934 25.9985779,566.776257 L26.6449897,566.776257 C26.6989897,566.480051 26.7537838,566.180669 26.8085779,565.885257 C35.8464309,516.592787 44.3824015,470.034463 60.8516074,419.689787" id="Fill-153" fill="#FFFFFF"></path>
                <path d="M49.9270897,416.539681 C68.3736485,360.150181 94.2872956,306.629828 131.479001,248.108916 C155.034913,211.037122 187.031501,174.781681 220.906972,136.398004 C253.436413,99.5382397 287.072854,61.4245632 315.628531,19.7730926 C320.011266,13.3804456 324.174825,7.03226912 328.136678,0.718239706 L327.387031,0.718239706 C323.492678,6.91315147 319.403766,13.1430044 315.104413,19.4141515 C286.570972,61.0330632 252.947237,99.1324456 220.430501,135.977122 C186.538354,174.381446 154.526678,210.653563 130.942972,247.76824 C93.7218838,306.33521 67.7867956,359.900828 49.3227662,416.341946 C32.8400603,466.72871 24.3001191,513.307681 15.2590897,562.621593 C15.0057662,564.000975 14.7508544,565.390681 14.4967368,566.776416 L15.1423544,566.776416 C15.3901191,565.428799 15.6378838,564.07721 15.8840603,562.73674 C24.9219132,513.443475 33.4578838,466.885151 49.9270897,416.539681" id="Fill-155" fill="#FFFFFF"></path>
                <g id="Group-159" transform="translate(2.703375, 0.718399)">
                    <mask id="mask-58" fill="white">
                        <use xlink:href="#path-57"></use>
                    </mask>
                    <g id="Clip-158"></g>
                    <path d="M36.3007059,411.083735 C54.7472647,354.693441 80.6609118,301.173882 117.852618,242.652971 C141.408529,205.581971 173.405118,169.326529 207.280588,130.942853 C239.810029,94.0838824 273.446471,55.9694118 302.002147,14.3187353 C305.290588,9.52226471 308.452765,4.75120588 311.503765,0 L310.750147,0 C307.770618,4.63208824 304.683088,9.28402941 301.478029,13.959 C272.944588,55.5787059 239.320059,93.6780882 206.803324,130.522765 C172.911176,168.926294 140.8995,205.198412 117.316588,242.312294 C80.0955,300.879265 54.1604118,354.444882 35.6963824,410.886794 C19.2136765,461.272765 10.6737353,507.851735 1.63270588,557.166441 C1.09270588,560.112618 0.547941176,563.080235 0,566.058176 L0.646411765,566.058176 C1.18641176,563.119147 1.72402941,560.189647 2.25767647,557.281588 C11.2955294,507.988324 19.8315,461.429206 36.3007059,411.083735" id="Fill-157" fill="#FFFFFF" mask="url(#mask-58)"></path>
                </g>
                <path d="M198.58369,129.672463 C164.691543,168.075993 132.679072,204.349699 109.09616,241.462787 C71.8742779,300.029757 45.9399838,353.595375 27.4759544,410.036493 C15.3458074,447.11861 7.51818971,482.139199 0.626042647,517.704551 L0.626042647,521.055728 C7.66827794,484.397669 15.5935721,448.404287 28.0802779,410.234228 C46.5268368,353.844728 72.4404838,300.325169 109.63219,241.804257 C133.188101,204.732463 165.18469,168.477022 199.06016,130.092551 C231.589601,93.2335809 265.226043,55.1199044 293.781719,13.4684338 C296.708043,9.20005147 299.53669,4.95072794 302.275601,0.718875 L301.517219,0.718875 C298.850572,4.83240441 296.101337,8.96181618 293.257601,13.1094926 C264.72416,54.7284044 231.100425,92.8277868 198.58369,129.672463" id="Fill-160" fill="#FFFFFF"></path>
                <path d="M187.66076,126.521563 C153.768613,164.924299 121.756143,201.198004 98.1732309,238.311093 C60.9513485,296.878063 35.0162603,350.444475 16.553025,406.885593 C10.235025,426.200122 5.08596618,444.954799 0.626201471,463.519681 L0.626201471,466.255416 C5.22414265,446.859093 10.5518779,427.276151 17.1573485,407.082534 C35.6039074,350.693034 61.5167603,297.173475 98.7092603,238.652563 C122.265172,201.580769 154.26176,165.325328 188.137231,126.941651 C220.666672,90.0826809 254.303113,51.9682103 282.85879,10.3167397 C285.05929,7.10691618 287.202613,3.90821029 289.296701,0.718239706 L288.538319,0.718239706 C286.518084,3.78909265 284.452584,6.86788676 282.334672,9.95779853 C253.801231,51.5767103 220.177496,89.6768868 187.66076,126.521563" id="Fill-162" fill="#FFFFFF"></path>
                <path d="M176.736957,124.160175 C142.84481,162.563704 110.83234,198.83741 87.2494279,235.950499 C50.0283397,294.517469 24.0932515,348.083087 5.62922206,404.524204 C3.87342794,409.89244 2.21213382,415.21541 0.626280882,420.505028 L0.626280882,422.722999 C2.39160441,416.769499 4.25381029,410.773116 6.23354559,404.72194 C24.6801044,348.33244 50.5937515,294.812881 87.7854574,236.291969 C111.341369,199.220175 143.337957,162.964734 177.213428,124.580263 C209.742869,87.7212926 243.37931,49.6076162 271.934987,7.95614559 C273.593104,5.53726324 275.213899,3.12552794 276.811663,0.718557353 L276.048516,0.718557353 C274.526987,3.00641029 272.987193,5.29823382 271.410869,7.59720441 C242.877428,49.2161162 209.253693,87.3154985 176.736957,124.160175" id="Fill-164" fill="#FFFFFF"></path>
                <path d="M165.813949,120.215951 C131.921801,158.619481 99.9093309,194.893187 76.3264191,232.006275 C42.9186838,284.572099 18.6083603,333.110157 0.626360294,383.312687 L0.626360294,385.193157 C18.6496544,334.441893 43.1116544,285.453569 76.8624485,232.347746 C100.41836,195.275951 132.414949,159.02051 166.290419,120.63604 C198.81986,83.7770691 232.456301,45.6633926 261.011978,4.01192206 C261.765596,2.91286324 262.506507,1.81539265 263.248213,0.718716176 L262.480301,0.718716176 C261.818801,1.696275 261.15889,2.67383382 260.48786,3.65298088 C231.954419,45.2718926 198.330684,83.371275 165.813949,120.215951" id="Fill-166" fill="#FFFFFF"></path>
                <path d="M154.888637,117.85766 C120.997284,156.260396 88.9848132,192.533307 65.4011074,229.646396 C38.3248721,272.250807 17.2259603,312.209219 0.626519118,352.552778 L0.626519118,354.229954 C17.3014015,313.432954 38.560725,273.064778 65.9379309,229.987866 C89.4938426,192.916866 121.490431,156.661425 155.365901,118.277749 C187.894549,81.4187779 221.531784,43.3043074 250.08746,1.65283676 C250.301078,1.34154265 250.509137,1.03024853 250.72196,0.718160294 L249.953254,0.718160294 C249.822225,0.910336765 249.694372,1.10171912 249.563343,1.29389559 C221.029901,42.9128074 187.405372,81.0129838 154.888637,117.85766" id="Fill-168" fill="#FFFFFF"></path>
                <path d="M54.4784956,226.495099 C33.0174662,260.264157 15.3149956,292.370334 0.626201471,324.324834 L0.626201471,325.847157 C15.4150544,293.50354 33.2874662,261.023334 55.0153191,226.836569 C78.5712309,189.764775 110.567819,153.510128 144.441701,115.126451 C176.391437,78.9242162 209.397349,41.5038044 237.619496,0.718716176 L236.845231,0.718716176 C208.699319,41.332275 175.80776,78.6248338 143.966025,114.706363 C110.073878,153.109099 78.0614074,189.38201 54.4784956,226.495099" id="Fill-170" fill="#FFFFFF"></path>
                <path d="M0.626280882,0.718477941 L0.626280882,1.02580147 C0.710457353,0.923360294 0.794633824,0.820919118 0.878810294,0.718477941 L0.626280882,0.718477941 Z" id="Fill-172" fill="#FFFFFF"></path>
                <path d="M14.8459103,0.718477941 C10.152675,6.50124265 5.40941029,12.2315956 0.626439706,17.9087426 L0.626439706,18.8918603 C5.68576324,12.8930956 10.7029985,6.83556618 15.6630574,0.718477941 L14.8459103,0.718477941 Z" id="Fill-174" fill="#FFFFFF"></path>
                <path d="M27.0364897,0.718477941 C18.3814015,11.4231838 9.53969559,21.9380956 0.626519118,32.2997426 L0.626519118,33.2765074 C9.81763676,22.5995956 18.9356956,11.7598897 27.8536368,0.718477941 L27.0364897,0.718477941 Z" id="Fill-176" fill="#FFFFFF"></path>
                <path d="M41.1444662,0.718477941 C27.9748191,17.1741838 14.3175838,33.1581838 0.626201471,48.8420074 L0.626201471,49.8092426 C14.5923485,33.8180956 28.527525,17.5140662 41.9552603,0.718477941 L41.1444662,0.718477941 Z" id="Fill-178" fill="#FFFFFF"></path>
                <path d="M53.9395279,0.718477941 C36.7008221,22.3947132 18.5933515,43.2522132 0.626439706,63.6594485 L0.626439706,64.6203309 C18.8641456,43.9097426 37.2567044,22.7393603 54.7503221,0.718477941 L53.9395279,0.718477941 Z" id="Fill-180" fill="#FFFFFF"></path>
                <path d="M66.9172368,0.718477941 L66.1064426,0.718477941 C45.4323838,26.8282721 23.4591485,51.7437132 1.96238382,76.1024779 C1.51608971,76.6075368 1.07138382,77.1110074 0.625883824,77.6160662 L0.625883824,78.5761544 C1.23020735,77.891625 1.83294265,77.2086838 2.43806029,76.5225662 C24.0499721,52.0343603 46.142325,26.9839191 66.9172368,0.718477941" id="Fill-182" fill="#FFFFFF"></path>
                <path d="M80.3334574,0.718477941 L79.5290162,0.718477941 C58.1346926,27.982125 35.2482221,53.915625 12.885075,79.255125 C8.76678088,83.9213603 4.677075,88.5558309 0.626280882,93.1640956 L0.626280882,94.1265662 C4.83272206,89.3388309 9.08125147,84.5240956 13.3615456,79.6752132 C35.8374574,54.2070662 58.8406632,28.1377721 80.3334574,0.718477941" id="Fill-184" fill="#FFFFFF"></path>
                <path d="M92.4736103,0.718477941 L91.6691691,0.718477941 C69.9254338,28.5538897 46.5982279,54.9988015 23.8086397,80.8219191 C15.9524338,89.7247721 8.19866912,98.5108897 0.625963235,107.221566 L0.625963235,108.19039 C8.35034559,99.3002426 16.2637279,90.3314779 24.2859044,81.2428015 C47.1882574,55.2910368 70.6329926,28.711125 92.4736103,0.718477941" id="Fill-186" fill="#FFFFFF"></path>
                <path d="M35.2079603,87.5648515 C59.8287838,59.6659103 85.0809309,31.0451162 108.287431,0.718557353 L107.490137,0.718557353 C84.3773426,30.8854985 59.2411368,59.3728809 34.7314897,87.1447632 C23.0500191,100.380322 11.5924897,113.363351 0.626519118,126.215351 L0.626519118,127.195293 C11.7370191,114.16144 23.3565485,100.993381 35.2079603,87.5648515" id="Fill-188" fill="#FFFFFF"></path>
                <path d="M0.626280882,140.754851 L0.626280882,141.749087 C14.9426338,124.473851 30.3318397,107.035028 46.1308103,89.1332338 C71.1756926,60.7546456 96.8669868,31.6256162 120.399869,0.718557353 L119.602575,0.718557353 C96.1618103,31.4659985 70.5872515,60.4616162 45.6551338,88.7123515 C30.0308691,106.415616 14.8092221,123.666234 0.626280882,140.754851" id="Fill-190" fill="#FFFFFF"></path>
                <path d="M0.626280882,157.313396 L0.626280882,158.331454 C17.9007221,136.652043 37.1525162,114.836043 57.0546926,92.2846897 C82.9484868,62.9436309 109.53634,32.8005132 133.711663,0.718160294 L132.914369,0.718160294 C108.829575,32.6393074 82.3600456,62.6498074 56.5782221,91.8646015 C36.8602809,114.207101 17.7823985,135.827749 0.626280882,157.313396" id="Fill-192" fill="#FFFFFF"></path>
                <path d="M0.626280882,172.909787 L0.626280882,173.960404 C20.5213103,147.628257 43.7691044,121.283404 67.978575,93.8521985 C94.2948397,64.0322868 121.333751,33.388875 145.823546,0.718875 L145.027046,0.718875 C120.627781,33.226875 93.7071926,63.7384632 67.5021044,93.4313162 C43.4887809,120.640963 20.4236338,146.781728 0.626280882,172.909787" id="Fill-194" fill="#FFFFFF"></path>
                <path d="M0.626280882,189.383837 L0.626280882,190.492425 C22.6757515,159.134307 50.1085456,128.04619 78.9016632,95.4206603 C105.638016,65.1250721 133.116869,33.9766015 157.913193,0.718160294 L157.12384,0.718160294 C132.415663,33.8153956 105.051163,64.8296603 78.4243985,95.0005721 C49.8456926,127.382307 22.605075,158.24966 0.626280882,189.383837" id="Fill-196" fill="#FFFFFF"></path>
                <path d="M0.626280882,211.920816 L0.626280882,213.096904 C24.1607515,176.148199 56.0588691,140.001551 89.8263397,101.740169 C118.250193,69.5315515 147.519781,36.3652279 173.506487,0.718875 L172.71634,0.718875 C146.815399,36.1992574 117.664134,69.2361397 89.3498691,101.319287 C55.8198397,139.312257 24.1353397,175.221463 0.626280882,211.920816" id="Fill-198" fill="#FFFFFF"></path>
                <path d="M10.7849515,214.678707 C7.30036324,220.160501 3.91583382,225.599413 0.626598529,231.000207 L0.626598529,232.228707 C4.08498088,226.535678 7.64580441,220.802943 11.321775,215.020178 C34.8776868,177.94759 66.874275,141.692149 100.749746,103.307678 C129.588922,70.6297368 159.291304,36.9599426 185.558334,0.718795588 L184.776922,0.718795588 C158.591687,36.7947662 129.003657,70.3327368 100.272481,102.88759 C66.3811279,141.291119 34.3678632,177.564825 10.7849515,214.678707" id="Fill-200" fill="#FFFFFF"></path>
                <path d="M21.7087544,217.830401 C14.233725,229.592078 7.22166618,241.149666 0.626519118,252.57146 L0.626519118,253.843637 C7.37651912,242.119284 14.5664603,230.252784 22.2455779,218.171872 C45.8014897,181.099284 77.7980779,144.843843 111.673549,106.459372 C141.345754,72.837225 171.927225,38.1612838 198.746166,0.718636765 L197.96396,0.718636765 C171.226813,37.9945191 140.76049,72.540225 111.196284,106.040078 C77.3049309,144.442813 45.2916662,180.716519 21.7087544,217.830401" id="Fill-202" fill="#FFFFFF"></path>
                <path d="M32.6317632,220.190201 C20.8764397,238.68679 10.2503515,256.683878 0.626439706,274.430819 L0.626439706,275.77129 C10.3909103,257.700349 21.1917044,239.376084 33.1685868,220.531672 C56.7244985,183.459878 88.7210868,147.205231 122.594969,108.821554 C152.892146,74.4910544 184.14544,39.0694368 211.364616,0.718319118 L210.581616,0.718319118 C183.44344,38.9010838 152.307675,74.1940544 122.119293,108.401466 C88.2271456,146.804201 56.214675,183.077113 32.6317632,220.190201" id="Fill-204" fill="#FFFFFF"></path>
                <path d="M43.5547721,224.134425 C27.1649779,249.92419 12.9653603,274.744337 0.626360294,299.26669 L0.626360294,300.689749 C13.0884485,275.815601 27.4588015,250.646043 44.0915956,224.475896 C67.6475074,187.404101 99.6440956,151.149454 133.517978,112.765778 C164.849096,77.2639544 197.195096,40.5876309 225.051154,0.718160294 L224.27689,0.718160294 C196.49786,40.4184838 164.266213,76.9645721 133.042301,112.34569 C99.1501544,150.748425 67.1376838,187.021337 43.5547721,224.134425" id="Fill-206" fill="#FFFFFF"></path>
                <g id="Group-210">
                    <mask id="mask-60" fill="white">
                        <use xlink:href="#path-59"></use>
                    </mask>
                    <g id="Clip-209"></g>
                    <path d="M0.626280882,0.0253720588 C0.436486765,0.257254412 0.245898529,0.487548529 0.0561044118,0.718636765 L0.626280882,0.718636765 L0.626280882,0.0253720588 Z" id="Fill-208" fill="#FFFFFF" mask="url(#mask-60)"></path>
                </g>
            </g>
        </g>
    </g>
</svg>