<?xml version="1.0" encoding="UTF-8"?>
<svg width="1440px" height="506px" viewBox="0 0 1440 506" version="1.1" xmlns="http://www.w3.org/2000/svg" xmlns:xlink="http://www.w3.org/1999/xlink">
    <title>Atoms/3.Graphics/Pattern/L</title>
    <defs>
        <polygon id="path-1" points="0 0 348.172 0 348.172 509.4696 0 509.4696"></polygon>
        <polygon id="path-3" points="0 0 346.826 0 346.826 509.47 0 509.47"></polygon>
        <polygon id="path-5" points="0 0 344.78 0 344.78 509.4697 0 509.4697"></polygon>
        <polygon id="path-7" points="0 0 336.5397 0 336.5397 486.769 0 486.769"></polygon>
        <polygon id="path-9" points="0 0 321.0984 0 321.0984 444.989 0 444.989"></polygon>
        <polygon id="path-11" points="0 5.68434189e-14 305.647 5.68434189e-14 305.647 411.3946 0 411.3946"></polygon>
        <polygon id="path-13" points="0 -5.68434189e-14 273.5352 -5.68434189e-14 273.5352 353.8607 0 353.8607"></polygon>
        <polygon id="path-15" points="0 0 258.0374 0 258.0374 329.5465 0 329.5465"></polygon>
        <polygon id="path-17" points="0 -5.68434189e-14 241.3375 -5.68434189e-14 241.3375 304.7647 0 304.7647"></polygon>
        <polygon id="path-19" points="0 0 226.4066 0 226.4066 284.079 0 284.079"></polygon>
        <polygon id="path-21" points="0 0 209.0578 0 209.0578 260.2838 0 260.2838"></polygon>
        <polygon id="path-23" points="0 2.84217094e-14 193.4969 2.84217094e-14 193.4969 240.169 0 240.169"></polygon>
        <polygon id="path-25" points="0 0 162.34 0 162.34 201.4537 0 201.4537"></polygon>
        <polygon id="path-27" points="0 0 145.4933 0 145.4933 180.5909 0 180.5909"></polygon>
        <polygon id="path-29" points="0 0 130.5074 0 130.5074 162.919 0 162.919"></polygon>
        <polygon id="path-31" points="0 0 114.8777 0 114.8777 144.3396 0 144.3396"></polygon>
        <polygon id="path-33" points="0 2.84217094e-14 97.9737 2.84217094e-14 97.9737 123.7679 0 123.7679"></polygon>
        <polygon id="path-35" points="0 0 82.3057 0 82.3057 105.086 0 105.086"></polygon>
        <polygon id="path-37" points="0 0 64.6137 0 64.6137 83.184 0 83.184"></polygon>
        <polygon id="path-39" points="0 2.84217094e-14 48.8617 2.84217094e-14 48.8617 63.934 0 63.934"></polygon>
        <polygon id="path-41" points="0 -2.84217094e-14 33.7527 -2.84217094e-14 33.7527 45.132 0 45.132"></polygon>
        <polygon id="path-43" points="0 -2.84217094e-14 17.2547 -2.84217094e-14 17.2547 23.5889 0 23.5889"></polygon>
        <polygon id="path-45" points="0 0 349.169 0 349.169 509.47 0 509.47"></polygon>
        <polygon id="path-47" points="0 0 350.108 0 350.108 509.4696 0 509.4696"></polygon>
        <polygon id="path-49" points="2.27373675e-13 0 350.755 0 350.755 509.47 2.27373675e-13 509.47"></polygon>
        <polygon id="path-51" points="0 0 351.378 0 351.378 509.4698 0 509.4698"></polygon>
        <polygon id="path-53" points="0 0 353.172 0 353.172 509.4699 0 509.4699"></polygon>
        <polygon id="path-55" points="0 0 353.477 0 353.477 509.4695 0 509.4695"></polygon>
        <polygon id="path-57" points="-2.27373675e-13 0 353.905 0 353.905 509.47 -2.27373675e-13 509.47"></polygon>
        <polygon id="path-59" points="2.27373675e-13 0 354.421 0 354.421 509.4699 2.27373675e-13 509.4699"></polygon>
        <polygon id="path-61" points="0 0 354.656 0 354.656 509.4695 0 509.4695"></polygon>
        <polygon id="path-63" points="0 0 355.073 0 355.073 509.4698 0 509.4698"></polygon>
        <polygon id="path-65" points="0 0 355.411 0 355.411 509.4695 0 509.4695"></polygon>
        <polygon id="path-67" points="0 0 355.867 0 355.867 509.4699 0 509.4699"></polygon>
        <polygon id="path-69" points="-2.27373675e-13 0 355.963 0 355.963 509.4695 -2.27373675e-13 509.4695"></polygon>
        <polygon id="path-71" points="0 0 356.061 0 356.061 509.47 0 509.47"></polygon>
        <polygon id="path-73" points="2.27373675e-13 0 356.149 0 356.149 509.4696 2.27373675e-13 509.4696"></polygon>
        <polygon id="path-75" points="0 0 356.117 0 356.117 509.4696 0 509.4696"></polygon>
        <polygon id="path-77" points="0 0 356.026 0 356.026 509.47 0 509.47"></polygon>
        <polygon id="path-79" points="-2.27373675e-13 0 355.918 0 355.918 509.4698 -2.27373675e-13 509.4698"></polygon>
        <polygon id="path-81" points="0 0 355.752 0 355.752 509.4699 0 509.4699"></polygon>
        <polygon id="path-83" points="0 0 355.57 0 355.57 509.47 0 509.47"></polygon>
        <polygon id="path-85" points="2.27373675e-13 0 354.97 0 354.97 509.4695 2.27373675e-13 509.4695"></polygon>
        <polygon id="path-87" points="2.27373675e-13 0 354.541 0 354.541 509.4698 2.27373675e-13 509.4698"></polygon>
        <polygon id="path-89" points="-1.13686838e-13 0 354.178 0 354.178 509.4699 -1.13686838e-13 509.4699"></polygon>
        <polygon id="path-91" points="1.13686838e-13 0 353.773 0 353.773 509.47 1.13686838e-13 509.47"></polygon>
        <polygon id="path-93" points="2.27373675e-13 0 353.492 0 353.492 509.47 2.27373675e-13 509.47"></polygon>
        <polygon id="path-95" points="0 0 352.185 0 352.185 509.47 0 509.47"></polygon>
        <polygon id="path-97" points="0 0 266.563 0 266.563 509.4697 0 509.4697"></polygon>
        <polygon id="path-99" points="0 0 269.275 0 269.275 509.4699 0 509.4699"></polygon>
        <polygon id="path-101" points="5.68434189e-14 0 270.624 0 270.624 509.4699 5.68434189e-14 509.4699"></polygon>
        <polygon id="path-103" points="2.84217094e-14 0 274.664 0 274.664 509.4699 2.84217094e-14 509.4699"></polygon>
        <polygon id="path-105" points="5.68434189e-14 0 279.315 0 279.315 509.4698 5.68434189e-14 509.4698"></polygon>
        <polygon id="path-107" points="0 0 280.623 0 280.623 509.4699 0 509.4699"></polygon>
        <polygon id="path-109" points="-5.68434189e-14 0 282.591 0 282.591 509.4699 -5.68434189e-14 509.4699"></polygon>
        <polygon id="path-111" points="-5.68434189e-14 0 288.407 0 288.407 509.4697 -5.68434189e-14 509.4697"></polygon>
        <polygon id="path-113" points="5.68434189e-14 0 290.948 0 290.948 509.4699 5.68434189e-14 509.4699"></polygon>
        <polygon id="path-115" points="0 0 293.458 0 293.458 509.4699 0 509.4699"></polygon>
        <polygon id="path-117" points="-1.13686838e-13 0 295.944 0 295.944 509.4698 -1.13686838e-13 509.4698"></polygon>
        <polygon id="path-119" points="1.13686838e-13 0 298.369 0 298.369 509.4699 1.13686838e-13 509.4699"></polygon>
        <polygon id="path-121" points="0 0 301.987 0 301.987 509.4699 0 509.4699"></polygon>
        <polygon id="path-123" points="0 0 303.161 0 303.161 509.4699 0 509.4699"></polygon>
        <polygon id="path-125" points="0 0 306.094 0 306.094 509.4698 0 509.4698"></polygon>
        <polygon id="path-127" points="0 0 308.372 0 308.372 509.4699 0 509.4699"></polygon>
        <polygon id="path-129" points="0 0 310.631 0 310.631 509.4698 0 509.4698"></polygon>
        <polygon id="path-131" points="0 0 312.837 0 312.837 509.4699 0 509.4699"></polygon>
        <polygon id="path-133" points="-5.68434189e-14 0 314.456 0 314.456 509.4697 -5.68434189e-14 509.4697"></polygon>
        <polygon id="path-135" points="0 0 316.068 0 316.068 509.4699 0 509.4699"></polygon>
        <polygon id="path-137" points="-1.13686838e-13 0 317.64 0 317.64 509.4699 -1.13686838e-13 509.4699"></polygon>
        <polygon id="path-139" points="0 0 321.741 0 321.741 509.4699 0 509.4699"></polygon>
        <polygon id="path-141" points="0 0 322.715 0 322.715 509.4697 0 509.4697"></polygon>
        <polygon id="path-143" points="0 0 324.165 0 324.165 509.4699 0 509.4699"></polygon>
        <polygon id="path-145" points="0 0 327.47 0 327.47 509.4697 0 509.4697"></polygon>
        <polygon id="path-147" points="0 0 331.061 0 331.061 509.4697 0 509.4697"></polygon>
        <polygon id="path-149" points="-1.13686838e-13 0 331.904 0 331.904 509.4698 -1.13686838e-13 509.4698"></polygon>
        <polygon id="path-151" points="0 0 333.591 0 333.591 509.4699 0 509.4699"></polygon>
        <polygon id="path-153" points="1.13686838e-13 0 334.831 0 334.831 509.4698 1.13686838e-13 509.4698"></polygon>
        <polygon id="path-155" points="0 0 338.321 0 338.321 509.4698 0 509.4698"></polygon>
        <polygon id="path-157" points="0 0 340.488 0 340.488 509.4699 0 509.4699"></polygon>
        <polygon id="path-159" points="-1.13686838e-13 0 343.156 0 343.156 509.4697 -1.13686838e-13 509.4697"></polygon>
        <polygon id="path-161" points="0 0 344.109 0 344.109 509.47 0 509.47"></polygon>
        <polygon id="path-163" points="0 0 345.302 0 345.302 509.4696 0 509.4696"></polygon>
        <polygon id="path-165" points="1.13686838e-13 0 346.996 0 346.996 509.47 1.13686838e-13 509.47"></polygon>
        <polygon id="path-167" points="1.13686838e-13 0 347.532 0 347.532 509.4696 1.13686838e-13 509.4696"></polygon>
        <polygon id="path-169" points="0 0 348.548 0 348.548 509.47 0 509.47"></polygon>
        <polygon id="path-171" points="1.13686838e-13 0 350.61 0 350.61 509.47 1.13686838e-13 509.47"></polygon>
        <polygon id="path-173" points="0 0 351.033 0 351.033 509.47 0 509.47"></polygon>
        <polygon id="path-175" points="0 0 263.144 0 263.144 509.4699 0 509.4699"></polygon>
        <polygon id="path-177" points="-5.68434189e-14 0 261.78 0 261.78 509.4698 -5.68434189e-14 509.4698"></polygon>
        <polygon id="path-179" points="0 0 256.97 0 256.97 509.4699 0 509.4699"></polygon>
        <polygon id="path-181" points="5.68434189e-14 0 253.517 0 253.517 509.4699 5.68434189e-14 509.4699"></polygon>
        <polygon id="path-183" points="2.84217094e-14 0 248.683 0 248.683 509.4697 2.84217094e-14 509.4697"></polygon>
        <polygon id="path-185" points="2.84217094e-14 0 245.917 0 245.917 509.4699 2.84217094e-14 509.4699"></polygon>
        <polygon id="path-187" points="2.84217094e-14 0 244.542 0 244.542 509.4698 2.84217094e-14 509.4698"></polygon>
        <polygon id="path-189" points="0 0 237.641 0 237.641 509.4698 0 509.4698"></polygon>
        <polygon id="path-191" points="-2.84217094e-14 0 236.275 0 236.275 509.4699 -2.84217094e-14 509.4699"></polygon>
        <polygon id="path-193" points="0 0 229.03 0 229.03 504.2183 0 504.2183"></polygon>
        <polygon id="path-195" points="0 0 196.368 0 196.368 366.5004 0 366.5004"></polygon>
        <polygon id="path-197" points="6.66133815e-15 0 178.332 0 178.332 313.8907 6.66133815e-15 313.8907"></polygon>
        <polygon id="path-199" points="-8.8817842e-16 0 162.884 0 162.884 272.3543 -8.8817842e-16 272.3543"></polygon>
        <polygon id="path-201" points="-8.8817842e-16 0 110.665 0 110.665 167.0677 -8.8817842e-16 167.0677"></polygon>
        <polygon id="path-203" points="-8.8817842e-16 0 94.417 0 94.417 138.4016 -8.8817842e-16 138.4016"></polygon>
        <polygon id="path-205" points="-8.8817842e-16 0 77.359 0 77.359 110.3844 -8.8817842e-16 110.3844"></polygon>
        <polygon id="path-207" points="-8.8817842e-16 0 43.324 0 43.324 58.0244 -8.8817842e-16 58.0244"></polygon>
        <polygon id="path-209" points="-8.8817842e-16 0 27.96 0 27.96 36.3004 -8.8817842e-16 36.3004"></polygon>
        <polygon id="path-211" points="0 0 10.201 0 10.201 12.9556 0 12.9556"></polygon>
    </defs>
    <g id="Section-Containers" stroke="none" stroke-width="1" fill="none" fill-rule="evenodd" opacity="0.211023966">
        <g id="Group-369">
            <g id="Group-3" transform="translate(1358.247400, 0.000000)">
                <mask id="mask-2" fill="white">
                    <use xlink:href="#path-1"></use>
                </mask>
                <g id="Clip-2"></g>
                <path d="M153.579,300.9466 C194.542,254.5316 236.899,206.5356 272.858,154.0866 C309.145,101.1586 333.891,50.5566 348.172,-0.0004 L347.341,-0.0004 C333.074,50.3996 308.383,100.8546 272.198,153.6336 C236.267,206.0436 193.926,254.0206 152.979,300.4176 C110.3,348.7766 69.989,394.4546 40.291,441.1896 C25.494,464.4736 12.116,487.1296 0,509.4696 L0.909,509.4696 C12.961,487.2696 26.263,464.7546 40.966,441.6186 C70.63,394.9366 110.922,349.2816 153.579,300.9466" id="Fill-1" fill="#6CB2E2" mask="url(#mask-2)"></path>
            </g>
            <g id="Group-6" transform="translate(1374.718300, 0.000000)">
                <mask id="mask-4" fill="white">
                    <use xlink:href="#path-3"></use>
                </mask>
                <g id="Clip-5"></g>
                <path d="M150.863,305.9134 C191.826,259.4984 234.183,211.5024 270.142,159.0534 C307.617,104.3924 332.784,52.2114 346.826,-0.0006 L345.998,-0.0006 C331.969,52.0534 306.855,104.0884 269.482,158.6004 C233.551,211.0104 191.21,258.9874 150.263,305.3844 C107.584,353.7434 67.273,399.4214 37.575,446.1564 C23.873,467.7174 11.394,488.7374 0,509.4704 L0.913,509.4704 C12.24,488.8774 24.642,467.9984 38.25,446.5854 C67.914,399.9034 108.206,354.2484 150.863,305.9134" id="Fill-4" fill="#6CB2E2" mask="url(#mask-4)"></path>
            </g>
            <path d="M1539.3371,308.886 C1580.3001,262.47 1622.6571,214.475 1658.6161,162.025 C1696.8031,106.327 1722.2181,53.204 1736.0961,0 L1735.2681,0 C1721.4021,53.046 1696.0421,106.023 1657.9571,161.573 C1622.0251,213.982 1579.6851,261.959 1538.7371,308.357 C1496.0591,356.716 1455.7471,402.393 1426.0501,449.129 C1413.0021,469.66 1401.0581,489.701 1390.1101,509.47 L1391.0261,509.47 C1401.9081,489.841 1413.7711,469.941 1426.7251,449.558 C1456.3881,402.875 1496.6801,357.221 1539.3371,308.886" id="Fill-7" fill="#6CB2E2"></path>
            <g id="Group-11" transform="translate(1406.078000, 0.000300)">
                <mask id="mask-6" fill="white">
                    <use xlink:href="#path-5"></use>
                </mask>
                <g id="Clip-10"></g>
                <path d="M147.014,312.855 C187.977,266.439 230.334,218.444 266.293,165.994 C305.429,108.911 331.144,54.533 344.78,0 L343.955,0 C330.33,54.374 304.669,108.606 265.634,165.542 C229.702,217.951 187.362,265.928 146.414,312.326 C103.736,360.685 63.424,406.362 33.727,453.098 C21.551,472.256 10.342,490.987 0,509.47 L0.916,509.47 C11.19,491.127 22.32,472.538 34.402,453.527 C64.065,406.844 104.357,361.19 147.014,312.855" id="Fill-9" fill="#6CB2E2" mask="url(#mask-6)"></path>
            </g>
            <g id="Group-14" transform="translate(1422.065900, 22.701000)">
                <mask id="mask-8" fill="white">
                    <use xlink:href="#path-7"></use>
                </mask>
                <g id="Clip-13"></g>
                <path d="M144.781,294.124 C185.744,247.708 228.101,199.713 264.06,147.263 C298.056,97.677 321.919,50.132 336.54,2.753 L336.54,0 C322.017,48.135 297.953,96.414 263.401,146.811 C227.469,199.22 185.129,247.197 144.181,293.595 C101.503,341.954 61.191,387.631 31.494,434.367 C20.189,452.155 9.719,469.574 0,486.769 L0.919,486.769 C10.569,469.714 20.958,452.437 32.169,434.796 C61.832,388.113 102.124,342.459 144.781,294.124" id="Fill-12" fill="#6CB2E2" mask="url(#mask-8)"></path>
            </g>
            <g id="Group-17" transform="translate(1437.507200, 64.480700)">
                <mask id="mask-10" fill="white">
                    <use xlink:href="#path-9"></use>
                </mask>
                <g id="Clip-16"></g>
                <path d="M143.096,255.316 C184.059,208.9 226.417,160.905 262.376,108.456 C287.264,72.153 306.719,36.945 321.099,2.095 L321.099,0 C306.67,35.383 286.998,71.126 261.716,108.003 C225.785,160.413 183.443,208.389 142.496,254.787 C99.817,303.146 59.506,348.824 29.808,395.56 C19.154,412.324 9.242,428.76 0,444.989 L0.92,444.989 C10.091,428.899 19.923,412.605 30.483,395.988 C60.147,349.306 100.439,303.651 143.096,255.316" id="Fill-15" fill="#6CB2E2" mask="url(#mask-10)"></path>
            </g>
            <g id="Group-20" transform="translate(1452.958600, 98.075400)">
                <mask id="mask-12" fill="white">
                    <use xlink:href="#path-11"></use>
                </mask>
                <g id="Clip-19"></g>
                <path d="M141.4,224.692 C182.363,178.277 224.72,130.281 260.679,77.832 C278.37,52.028 293.316,26.778 305.647,1.816 L305.647,5.68434189e-14 C293.196,25.404 278.034,51.103 260.019,77.379 C224.088,129.789 181.747,177.766 140.8,224.163 C98.121,272.522 57.81,318.2 28.112,364.935 C18.108,380.677 8.756,396.13 0,411.395 L0.924,411.395 C9.608,396.27 18.876,380.959 28.787,365.364 C58.451,318.682 98.743,273.027 141.4,224.692" id="Fill-18" fill="#6CB2E2" mask="url(#mask-12)"></path>
            </g>
            <path d="M1608.1145,326.7376 C1649.0775,280.3226 1691.4345,232.3266 1727.3935,179.8776 C1738.9585,163.0086 1749.3495,146.3766 1758.6055,129.9066 L1758.6055,128.2596 C1749.1855,145.1196 1738.5795,162.1466 1726.7335,179.4246 C1690.8025,231.8346 1648.4615,279.8116 1607.5145,326.2086 C1564.8355,374.5676 1524.5245,420.2456 1494.8265,466.9806 C1485.6885,481.3596 1477.0975,495.4966 1469.0045,509.4696 L1469.9275,509.4696 C1477.9475,495.6366 1486.4575,481.6416 1495.5015,467.4096 C1525.1655,420.7276 1565.4575,375.0726 1608.1145,326.7376" id="Fill-21" fill="#6CB2E2"></path>
            <g id="Group-25" transform="translate(1485.070400, 155.609300)">
                <mask id="mask-14" fill="white">
                    <use xlink:href="#path-13"></use>
                </mask>
                <g id="Clip-24"></g>
                <path d="M136.799,175.097 C177.762,128.682 220.119,80.686 256.078,28.237 C262.229,19.265 268.042,10.362 273.536,1.513 L273.536,-5.68434189e-14 C267.851,9.197 261.815,18.454 255.418,27.784 C219.487,80.194 177.146,128.171 136.199,174.568 C93.52,222.927 53.209,268.605 23.511,315.34 C15.237,328.359 7.415,341.179 0,353.861 L0.927,353.861 C8.267,341.319 16.005,328.642 24.186,315.769 C53.85,269.087 94.142,223.432 136.799,175.097" id="Fill-23" fill="#6CB2E2" mask="url(#mask-14)"></path>
            </g>
            <g id="Group-28" transform="translate(1500.568200, 179.923500)">
                <mask id="mask-16" fill="white">
                    <use xlink:href="#path-15"></use>
                </mask>
                <g id="Clip-27"></g>
                <path d="M135.056,153.756 C176.019,107.34 218.377,59.345 254.336,6.895 C255.585,5.074 256.816,3.257 258.038,1.441 L258.038,0 C256.6,2.144 255.151,4.291 253.676,6.443 C217.744,58.852 175.404,106.829 134.456,153.227 C91.778,201.586 51.467,247.263 21.769,293.998 C14.141,306.001 6.896,317.835 0,329.547 L0.927,329.547 C7.747,317.975 14.909,306.284 22.444,294.427 C52.108,247.745 92.399,202.091 135.056,153.756" id="Fill-26" fill="#6CB2E2" mask="url(#mask-16)"></path>
            </g>
            <g id="Group-31" transform="translate(1517.268100, 204.705300)">
                <mask id="mask-18" fill="white">
                    <use xlink:href="#path-17"></use>
                </mask>
                <g id="Clip-30"></g>
                <path d="M132.113,133.94 C169.323,91.777 207.668,48.298 241.338,1.372 L241.338,-5.68434189e-14 C207.535,47.241 168.949,90.991 131.512,133.411 C88.834,181.771 48.522,227.448 18.825,274.184 C12.273,284.492 6.009,294.675 0,304.765 L0.931,304.765 C6.862,294.815 13.041,284.776 19.5,274.613 C49.164,227.93 89.455,182.275 132.113,133.94" id="Fill-29" fill="#6CB2E2" mask="url(#mask-18)"></path>
            </g>
            <g id="Group-34" transform="translate(1532.199000, 225.390900)">
                <mask id="mask-20" fill="white">
                    <use xlink:href="#path-19"></use>
                </mask>
                <g id="Clip-33"></g>
                <path d="M130.937,115.229 C163.167,78.709 196.246,41.2 226.407,1.324 L226.407,0 C196.093,40.168 162.784,77.935 130.337,114.7 C87.659,163.059 47.347,208.736 17.65,255.472 C11.526,265.108 5.65,274.635 0,284.079 L0.931,284.079 C6.501,274.776 12.293,265.392 18.325,255.901 C47.988,209.218 88.28,163.564 130.937,115.229" id="Fill-32" fill="#6CB2E2" mask="url(#mask-20)"></path>
            </g>
            <g id="Group-37" transform="translate(1549.547800, 249.186200)">
                <mask id="mask-22" fill="white">
                    <use xlink:href="#path-21"></use>
                </mask>
                <g id="Clip-36"></g>
                <path d="M127.343,97.399 C154.738,66.358 182.747,34.602 209.058,1.287 L209.058,0 C182.577,33.588 154.347,65.591 126.743,96.87 C84.065,145.229 43.753,190.906 14.056,237.641 C9.218,245.253 4.54,252.795 0,260.284 L0.935,260.284 C5.394,252.936 9.986,245.537 14.731,238.071 C44.394,191.388 84.686,145.734 127.343,97.399" id="Fill-35" fill="#6CB2E2" mask="url(#mask-22)"></path>
            </g>
            <g id="Group-40" transform="translate(1565.108700, 269.300900)">
                <mask id="mask-24" fill="white">
                    <use xlink:href="#path-23"></use>
                </mask>
                <g id="Clip-39"></g>
                <path d="M125.539,80.255 C148.206,54.571 171.296,28.398 193.497,1.259 L193.497,2.84217094e-14 C171.116,27.399 147.811,53.81 124.939,79.726 C82.26,128.086 41.948,173.763 12.251,220.499 C8.053,227.105 3.974,233.658 0,240.169 L0.939,240.169 C4.83,233.799 8.82,227.389 12.926,220.929 C42.59,174.245 82.882,128.59 125.539,80.255" id="Fill-38" fill="#6CB2E2" mask="url(#mask-24)"></path>
            </g>
            <path d="M1704.4026,353.5257 C1722.4216,333.1077 1740.7106,312.3827 1758.6056,291.1087 L1758.6056,289.8607 C1740.5196,311.3847 1722.0246,332.3487 1703.8016,352.9967 C1661.1236,401.3557 1620.8116,447.0337 1591.1146,493.7687 C1587.7676,499.0347 1584.5026,504.2647 1581.2986,509.4697 L1582.2376,509.4697 C1585.3566,504.4067 1588.5346,499.3197 1591.7896,494.1987 C1621.4536,447.5157 1661.7446,401.8607 1704.4026,353.5257" id="Fill-41" fill="#6CB2E2"></path>
            <g id="Group-45" transform="translate(1596.265400, 308.016300)">
                <mask id="mask-26" fill="white">
                    <use xlink:href="#path-25"></use>
                </mask>
                <g id="Clip-44"></g>
                <path d="M121.892,47.484 C135.318,32.271 148.89,16.883 162.34,1.229 L162.34,0 C148.694,15.895 134.918,31.515 121.292,46.955 C78.614,95.314 38.302,140.991 8.605,187.726 C5.682,192.326 2.814,196.901 0,201.454 L0.944,201.454 C3.672,197.042 6.449,192.611 9.281,188.156 C38.944,141.473 79.236,95.819 121.892,47.484" id="Fill-43" fill="#6CB2E2" mask="url(#mask-26)"></path>
            </g>
            <g id="Group-48" transform="translate(1613.112300, 328.879100)">
                <mask id="mask-28" fill="white">
                    <use xlink:href="#path-27"></use>
                </mask>
                <g id="Clip-47"></g>
                <path d="M118.801,31.588 C127.66,21.55 136.583,11.435 145.494,1.22 L145.494,0 C136.384,10.45 127.259,20.795 118.201,31.059 C75.523,79.418 35.211,125.096 5.513,171.831 C3.65,174.762 1.818,177.679 0,180.591 L0.944,180.591 C2.674,177.822 4.418,175.047 6.189,172.261 C35.852,125.578 76.144,79.923 118.801,31.588" id="Fill-46" fill="#6CB2E2" mask="url(#mask-28)"></path>
            </g>
            <g id="Group-51" transform="translate(1628.098200, 346.550700)">
                <mask id="mask-30" fill="white">
                    <use xlink:href="#path-29"></use>
                </mask>
                <g id="Clip-50"></g>
                <path d="M117.571,15.891 C121.87,11.019 126.187,6.123 130.508,1.213 L130.508,0 C125.986,5.139 121.469,10.264 116.97,15.362 C74.293,63.721 33.98,109.398 4.283,156.133 C2.842,158.401 1.414,160.663 0,162.919 L0.946,162.919 C2.273,160.805 3.609,158.687 4.959,156.563 C34.622,109.88 74.914,64.226 117.571,15.891" id="Fill-49" fill="#6CB2E2" mask="url(#mask-30)"></path>
            </g>
            <g id="Group-54" transform="translate(1643.727900, 365.130400)">
                <mask id="mask-32" fill="white">
                    <use xlink:href="#path-31"></use>
                </mask>
                <g id="Clip-53"></g>
                <path d="M114.878,1.21 L114.878,0 C72.281,48.268 32.055,93.869 2.408,140.525 C1.598,141.8 0.802,143.069 0,144.34 L0.947,144.34 C1.66,143.211 2.365,142.086 3.084,140.955 C32.557,94.571 72.524,49.201 114.878,1.21" id="Fill-52" fill="#6CB2E2" mask="url(#mask-32)"></path>
            </g>
            <g id="Group-57" transform="translate(1660.631900, 385.702100)">
                <mask id="mask-34" fill="white">
                    <use xlink:href="#path-33"></use>
                </mask>
                <g id="Clip-56"></g>
                <path d="M97.974,2.84217094e-14 C60.885,42.166 26.342,82.569 0,123.768 L0.952,123.768 C27.086,82.988 61.263,42.96 97.974,1.211 L97.974,2.84217094e-14 Z" id="Fill-55" fill="#6CB2E2" mask="url(#mask-34)"></path>
            </g>
            <g id="Group-60" transform="translate(1676.299900, 404.383900)">
                <mask id="mask-36" fill="white">
                    <use xlink:href="#path-35"></use>
                </mask>
                <g id="Clip-59"></g>
                <path d="M82.306,0 C51.353,35.549 22.754,70.051 0,105.086 L0.954,105.086 C23.487,70.47 51.733,36.353 82.306,1.219 L82.306,0 Z" id="Fill-58" fill="#6CB2E2" mask="url(#mask-36)"></path>
            </g>
            <g id="Group-63" transform="translate(1693.991900, 426.285800)">
                <mask id="mask-38" fill="white">
                    <use xlink:href="#path-37"></use>
                </mask>
                <g id="Clip-62"></g>
                <path d="M64.614,0 C40.689,27.974 18.565,55.441 0,83.184 L0.965,83.184 C19.29,55.858 41.066,28.789 64.614,1.229 L64.614,0 Z" id="Fill-61" fill="#6CB2E2" mask="url(#mask-38)"></path>
            </g>
            <g id="Group-66" transform="translate(1709.743900, 445.535700)">
                <mask id="mask-40" fill="white">
                    <use xlink:href="#path-39"></use>
                </mask>
                <g id="Clip-65"></g>
                <path d="M48.862,2.84217094e-14 C31.038,21.402 14.483,42.594 0,63.934 L0.97,63.934 C15.196,43.016 31.412,22.234 48.862,1.25 L48.862,2.84217094e-14 Z" id="Fill-64" fill="#6CB2E2" mask="url(#mask-40)"></path>
            </g>
            <g id="Group-69" transform="translate(1724.852900, 464.337800)">
                <mask id="mask-42" fill="white">
                    <use xlink:href="#path-41"></use>
                </mask>
                <g id="Clip-68"></g>
                <path d="M33.753,-2.84217094e-14 C21.673,15.06 10.322,30.062 0,45.132 L0.971,45.132 C11.017,30.494 22.04,15.916 33.753,1.285 L33.753,-2.84217094e-14 Z" id="Fill-67" fill="#6CB2E2" mask="url(#mask-42)"></path>
            </g>
            <g id="Group-72" transform="translate(1741.350900, 485.881100)">
                <mask id="mask-44" fill="white">
                    <use xlink:href="#path-43"></use>
                </mask>
                <g id="Clip-71"></g>
                <path d="M17.255,-2.84217094e-14 C11.263,7.859 5.488,15.716 0,23.589 L0.977,23.589 C6.168,16.158 11.613,8.74 17.255,1.319 L17.255,-2.84217094e-14 Z" id="Fill-70" fill="#6CB2E2" mask="url(#mask-44)"></path>
            </g>
            <g id="Group-75" transform="translate(1342.354500, 0.000000)">
                <mask id="mask-46" fill="white">
                    <use xlink:href="#path-45"></use>
                </mask>
                <g id="Clip-74"></g>
                <path d="M155.716,296.9773 C196.679,250.5623 239.036,202.5663 274.995,150.1173 C310.332,98.5743 334.726,49.2373 349.169,-0.0007 L348.335,-0.0007 C333.908,49.0803 309.57,98.2713 274.335,149.6643 C238.404,202.0743 196.063,250.0513 155.116,296.4483 C112.437,344.8073 72.126,390.4853 42.428,437.2203 C26.753,461.8853 12.676,485.8433 0,509.4703 L0.908,509.4703 C13.522,485.9833 27.523,462.1653 43.103,437.6493 C72.767,390.9673 113.059,345.3123 155.716,296.9773" id="Fill-73" fill="#6CB2E2" mask="url(#mask-46)"></path>
            </g>
            <g id="Group-78" transform="translate(1326.481600, 0.000000)">
                <mask id="mask-48" fill="white">
                    <use xlink:href="#path-47"></use>
                </mask>
                <g id="Clip-77"></g>
                <path d="M157.834,293.0076 C198.797,246.5926 241.154,198.5966 277.113,146.1476 C311.501,95.9896 335.532,47.9206 350.108,-0.0004 L349.271,-0.0004 C334.712,47.7646 310.738,95.6866 276.453,145.6946 C240.522,198.1046 198.181,246.0816 157.234,292.4786 C114.555,340.8376 74.244,386.5156 44.546,433.2516 C27.993,459.2976 13.219,484.5576 0,509.4696 L0.905,509.4696 C14.064,484.6966 28.762,459.5786 45.221,433.6796 C74.885,386.9976 115.177,341.3426 157.834,293.0076" id="Fill-76" fill="#6CB2E2" mask="url(#mask-48)"></path>
            </g>
            <g id="Group-81" transform="translate(1311.153300, 0.000000)">
                <mask id="mask-50" fill="white">
                    <use xlink:href="#path-49"></use>
                </mask>
                <g id="Clip-80"></g>
                <path d="M159.406,290.0354 C200.369,243.6194 242.727,195.6244 278.686,143.1744 C312.363,94.0544 336.097,46.9364 350.755,-0.0006 L349.917,-0.0006 C335.277,46.7814 311.599,93.7524 278.026,142.7224 C242.094,195.1314 199.753,243.1084 158.806,289.5064 C116.127,337.8654 75.816,383.5434 46.118,430.2784 C28.906,457.3614 13.617,483.5944 2.27373675e-13,509.4704 L0.905,509.4704 C14.463,483.7344 29.676,457.6424 46.793,430.7074 C76.457,384.0254 116.749,338.3704 159.406,290.0354" id="Fill-79" fill="#6CB2E2" mask="url(#mask-50)"></path>
            </g>
            <g id="Group-84" transform="translate(1295.840900, 0.000200)">
                <mask id="mask-52" fill="white">
                    <use xlink:href="#path-51"></use>
                </mask>
                <g id="Clip-83"></g>
                <path d="M160.963,287.065 C201.926,240.649 244.284,192.654 280.243,140.204 C313.209,92.12 336.653,45.955 351.378,0 L350.536,0 C335.831,45.8 312.446,91.818 279.583,139.752 C243.651,192.161 201.311,240.138 160.363,286.536 C117.685,334.895 77.373,380.572 47.676,427.308 C29.805,455.428 14.005,482.631 0,509.47 L0.902,509.47 C14.848,482.771 30.574,455.708 48.351,427.737 C78.014,381.054 118.306,335.4 160.963,287.065" id="Fill-82" fill="#6CB2E2" mask="url(#mask-52)"></path>
            </g>
            <path d="M1443.0481,283.095 C1484.0111,236.679 1526.3691,188.684 1562.3271,136.234 C1594.3441,89.534 1617.3791,44.645 1632.1681,0 L1631.3271,0 C1616.5581,44.49 1593.5811,89.232 1561.6681,135.782 C1525.7361,188.191 1483.3951,236.168 1442.4481,282.566 C1399.7701,330.925 1359.4581,376.602 1329.7611,423.338 C1311.0081,452.845 1294.5361,481.344 1280.0251,509.47 L1280.9271,509.47 C1295.3801,481.484 1311.7771,453.126 1330.4361,423.767 C1360.0991,377.084 1400.3911,331.43 1443.0481,283.095" id="Fill-85" fill="#6CB2E2"></path>
            <g id="Group-89" transform="translate(1263.221200, 0.000100)">
                <mask id="mask-54" fill="white">
                    <use xlink:href="#path-53"></use>
                </mask>
                <g id="Clip-88"></g>
                <path d="M166.072,277.131 C207.035,230.715 249.393,182.72 285.351,130.27 C315.943,85.649 338.338,42.681 353.172,0 L352.325,0 C337.514,42.527 315.18,85.348 284.692,129.818 C248.76,182.227 206.419,230.204 165.472,276.602 C122.794,324.961 82.482,370.638 52.785,417.374 C32.705,448.969 15.241,479.407 0,509.47 L0.898,509.47 C16.084,479.547 33.475,449.249 53.46,417.803 C83.123,371.12 123.415,325.466 166.072,277.131" id="Fill-87" fill="#6CB2E2" mask="url(#mask-54)"></path>
            </g>
            <g id="Group-92" transform="translate(1248.460300, 0.000000)">
                <mask id="mask-56" fill="white">
                    <use xlink:href="#path-55"></use>
                </mask>
                <g id="Clip-91"></g>
                <path d="M167.077,275.1555 C208.04,228.7405 250.397,180.7445 286.356,128.2955 C316.476,84.3625 338.642,42.0315 353.477,-0.0005 L352.628,-0.0005 C337.817,41.8785 315.712,84.0615 285.696,127.8425 C249.765,180.2525 207.424,228.2295 166.477,274.6265 C123.798,322.9855 83.487,368.6635 53.789,415.3985 C33.27,447.6855 15.475,478.7655 0,509.4695 L0.898,509.4695 C16.318,478.9055 34.04,447.9655 54.464,415.8275 C84.128,369.1455 124.42,323.4905 167.077,275.1555" id="Fill-90" fill="#6CB2E2" mask="url(#mask-56)"></path>
            </g>
            <g id="Group-95" transform="translate(1233.222400, 0.000000)">
                <mask id="mask-58" fill="white">
                    <use xlink:href="#path-57"></use>
                </mask>
                <g id="Clip-94"></g>
                <path d="M168.56,272.1844 C209.523,225.7694 251.88,177.7734 287.839,125.3244 C317.249,82.4264 339.081,41.0564 353.905,-0.0006 L353.056,-0.0006 C338.257,40.9034 316.486,82.1254 287.179,124.8714 C251.248,177.2814 208.907,225.2584 167.96,271.6554 C125.281,320.0144 84.97,365.6924 55.272,412.4274 C34.091,445.7564 15.82,477.7984 -2.27373675e-13,509.4704 L0.894,509.4704 C16.661,477.9384 34.861,446.0364 55.947,412.8564 C85.611,366.1744 125.903,320.5194 168.56,272.1844" id="Fill-93" fill="#6CB2E2" mask="url(#mask-58)"></path>
            </g>
            <g id="Group-98" transform="translate(1217.490100, 0.000100)">
                <mask id="mask-60" fill="white">
                    <use xlink:href="#path-59"></use>
                </mask>
                <g id="Clip-97"></g>
                <path d="M170.536,268.215 C211.499,221.799 253.857,173.804 289.815,121.354 C318.278,79.839 339.637,39.754 354.421,0 L353.568,0 C338.811,39.601 317.514,79.538 289.156,120.902 C253.224,173.311 210.883,221.288 169.936,267.686 C127.258,316.045 86.946,361.722 57.249,408.458 C35.182,443.18 16.267,476.505 2.27373675e-13,509.47 L0.89,509.47 C17.106,476.646 35.952,443.459 57.924,408.887 C87.587,362.204 127.879,316.55 170.536,268.215" id="Fill-96" fill="#6CB2E2" mask="url(#mask-60)"></path>
            </g>
            <g id="Group-101" transform="translate(1202.769200, 0.000000)">
                <mask id="mask-62" fill="white">
                    <use xlink:href="#path-61"></use>
                </mask>
                <g id="Clip-100"></g>
                <path d="M171.502,266.2405 C212.465,219.8255 254.822,171.8295 290.781,119.3805 C318.773,78.5515 339.902,39.1075 354.656,-0.0005 L353.798,-0.0005 C339.073,38.9545 318.009,78.2505 290.122,118.9275 C254.19,171.3375 211.849,219.3145 170.902,265.7115 C128.223,314.0705 87.912,359.7485 58.214,406.4835 C35.707,441.8995 16.485,475.8605 0,509.4695 L0.89,509.4695 C17.324,476.0015 36.477,442.1795 58.889,406.9125 C88.553,360.2305 128.845,314.5755 171.502,266.2405" id="Fill-99" fill="#6CB2E2" mask="url(#mask-62)"></path>
            </g>
            <g id="Group-104" transform="translate(1187.071300, 0.000000)">
                <mask id="mask-64" fill="white">
                    <use xlink:href="#path-63"></use>
                </mask>
                <g id="Clip-103"></g>
                <path d="M173.444,262.2718 C214.407,215.8568 256.764,167.8608 292.723,115.4118 C319.768,75.9638 340.401,37.8078 355.073,-0.0002 L354.215,-0.0002 C339.573,37.6558 319.004,75.6628 292.064,114.9588 C256.132,167.3688 213.791,215.3458 172.844,261.7428 C130.165,310.1018 89.854,355.7798 60.156,402.5148 C36.763,439.3248 16.91,474.5648 0,509.4698 L0.891,509.4698 C17.751,474.7068 37.533,439.6048 60.831,402.9438 C90.495,356.2618 130.787,310.6068 173.444,262.2718" id="Fill-102" fill="#6CB2E2" mask="url(#mask-64)"></path>
            </g>
            <g id="Group-107" transform="translate(1171.412500, 0.000000)">
                <mask id="mask-66" fill="white">
                    <use xlink:href="#path-65"></use>
                </mask>
                <g id="Clip-106"></g>
                <path d="M175.348,258.3015 C216.311,211.8865 258.668,163.8905 294.627,111.4415 C320.726,73.3735 340.849,36.5095 355.411,-0.0005 L354.55,-0.0005 C340.019,36.3575 319.961,73.0735 293.967,110.9885 C258.036,163.3985 215.695,211.3755 174.748,257.7725 C132.069,306.1315 91.758,351.8095 62.06,398.5455 C37.779,436.7505 17.321,473.2655 0,509.4695 L0.887,509.4695 C18.159,473.4075 38.549,437.0305 62.735,398.9735 C92.399,352.2915 132.691,306.6365 175.348,258.3015" id="Fill-105" fill="#6CB2E2" mask="url(#mask-66)"></path>
            </g>
            <g id="Group-110" transform="translate(1154.363100, 0.000100)">
                <mask id="mask-68" fill="white">
                    <use xlink:href="#path-67"></use>
                </mask>
                <g id="Clip-109"></g>
                <path d="M178.642,251.34 C219.605,204.924 261.963,156.929 297.921,104.479 C322.362,68.83 341.566,34.236 355.867,0 L355.001,0 C340.735,34.084 321.598,68.53 297.262,104.027 C261.33,156.436 218.989,204.413 178.042,250.811 C135.364,299.17 95.052,344.847 65.355,391.583 C39.517,432.239 18.005,470.98 0,509.47 L0.884,509.47 C18.842,471.122 40.287,432.519 66.03,392.012 C95.693,345.329 135.985,299.675 178.642,251.34" id="Fill-108" fill="#6CB2E2" mask="url(#mask-68)"></path>
            </g>
            <g id="Group-113" transform="translate(1139.681200, 0.000000)">
                <mask id="mask-70" fill="white">
                    <use xlink:href="#path-69"></use>
                </mask>
                <g id="Clip-112"></g>
                <path d="M179.568,249.3655 C220.531,202.9505 262.888,154.9545 298.847,102.5055 C322.819,67.5405 341.752,33.5915 355.963,-0.0005 L355.093,-0.0005 C340.917,33.4405 322.054,67.2405 298.188,102.0525 C262.256,154.4625 219.915,202.4395 178.968,248.8365 C136.289,297.1955 95.978,342.8735 66.28,389.6085 C40.001,430.9595 18.19,470.3305 -2.27373675e-13,509.4695 L0.883,509.4695 C19.028,470.4725 40.77,431.2405 66.955,390.0375 C96.619,343.3555 136.911,297.7005 179.568,249.3655" id="Fill-111" fill="#6CB2E2" mask="url(#mask-70)"></path>
            </g>
            <g id="Group-116" transform="translate(1124.557400, 0.000000)">
                <mask id="mask-72" fill="white">
                    <use xlink:href="#path-71"></use>
                </mask>
                <g id="Clip-115"></g>
                <path d="M180.937,246.3933 C221.9,199.9783 264.257,151.9823 300.216,99.5333 C323.481,65.5993 341.998,32.6223 356.061,-0.0007 L355.191,-0.0007 C341.165,32.4713 322.716,65.2993 299.557,99.0803 C263.625,151.4903 221.284,199.4673 180.337,245.8643 C137.658,294.2233 97.347,339.9013 67.649,386.6363 C40.704,429.0343 18.464,469.3503 0,509.4703 L0.881,509.4703 C19.299,469.4933 41.474,429.3143 68.324,387.0653 C97.988,340.3833 138.28,294.7283 180.937,246.3933" id="Fill-114" fill="#6CB2E2" mask="url(#mask-72)"></path>
            </g>
            <g id="Group-119" transform="translate(1108.979500, 0.000000)">
                <mask id="mask-74" fill="white">
                    <use xlink:href="#path-73"></use>
                </mask>
                <g id="Clip-118"></g>
                <path d="M182.759,242.4246 C223.722,196.0096 266.079,148.0136 302.038,95.5646 C324.36,63.0066 342.308,31.3286 356.149,-0.0004 L355.274,-0.0004 C341.472,31.1786 323.595,62.7066 301.378,95.1116 C265.447,147.5216 223.106,195.4986 182.159,241.8956 C139.48,290.2546 99.169,335.9326 69.471,382.6686 C41.638,426.4636 18.816,468.0386 2.27373675e-13,509.4696 L0.88,509.4696 C19.652,468.1816 42.407,426.7446 70.146,383.0966 C99.81,336.4146 140.102,290.7596 182.759,242.4246" id="Fill-117" fill="#6CB2E2" mask="url(#mask-74)"></path>
            </g>
            <path d="M1277.9831,240.45 C1318.9461,194.034 1361.3041,146.039 1397.2621,93.589 C1419.1151,61.715 1436.7801,30.685 1450.5001,0 L1449.6251,0 C1435.9461,30.535 1418.3501,61.416 1396.6031,93.137 C1360.6711,145.546 1318.3301,193.523 1277.3831,239.921 C1234.7051,288.28 1194.3931,333.957 1164.6961,380.693 C1136.4201,425.185 1113.3231,467.384 1094.3371,509.47 L1095.2141,509.47 C1114.1571,467.528 1137.1901,425.465 1165.3711,381.122 C1195.0341,334.439 1235.3261,288.785 1277.9831,240.45" id="Fill-120" fill="#6CB2E2"></path>
            <g id="Group-124" transform="translate(1077.916300, 0.000000)">
                <mask id="mask-76" fill="white">
                    <use xlink:href="#path-75"></use>
                </mask>
                <g id="Clip-123"></g>
                <path d="M186.311,234.4856 C227.274,188.0706 269.631,140.0746 305.59,87.6256 C326.028,57.8146 342.806,28.7426 356.117,-0.0004 L355.236,-0.0004 C341.969,28.5916 325.263,57.5156 304.931,87.1726 C268.999,139.5826 226.658,187.5596 185.711,233.9566 C143.032,282.3156 102.721,327.9936 73.023,374.7286 C43.412,421.3226 19.478,465.4026 0,509.4696 L0.874,509.4696 C20.31,465.5466 44.181,421.6026 73.698,375.1576 C103.362,328.4756 143.654,282.8206 186.311,234.4856" id="Fill-122" fill="#6CB2E2" mask="url(#mask-76)"></path>
            </g>
            <g id="Group-127" transform="translate(1062.856400, 0.000000)">
                <mask id="mask-78" fill="white">
                    <use xlink:href="#path-77"></use>
                </mask>
                <g id="Clip-126"></g>
                <path d="M187.616,231.5135 C228.579,185.0985 270.936,137.1025 306.895,84.6535 C326.629,55.8695 342.942,27.7745 356.026,-0.0005 L355.141,-0.0005 C342.104,27.6245 325.864,55.5705 306.236,84.2005 C270.304,136.6105 227.963,184.5875 187.016,230.9845 C144.337,279.3435 104.026,325.0215 74.328,371.7565 C44.051,419.3985 19.711,464.4115 0,509.4705 L0.874,509.4705 C20.544,464.5555 44.82,419.6785 75.003,372.1855 C104.667,325.5035 144.959,279.8485 187.616,231.5135" id="Fill-125" fill="#6CB2E2" mask="url(#mask-78)"></path>
            </g>
            <g id="Group-130" transform="translate(1047.803500, 0.000000)">
                <mask id="mask-80" fill="white">
                    <use xlink:href="#path-79"></use>
                </mask>
                <g id="Clip-129"></g>
                <path d="M188.913,228.5418 C229.876,182.1268 272.233,134.1308 308.192,81.6818 C327.222,53.9238 343.079,26.8068 355.918,-0.0002 L355.029,-0.0002 C342.236,26.6568 326.457,53.6248 307.532,81.2288 C271.601,133.6388 229.26,181.6158 188.313,228.0128 C145.634,276.3718 105.323,322.0498 75.625,368.7858 C44.682,417.4738 19.937,463.4168 -2.27373675e-13,509.4698 L0.87,509.4698 C20.767,463.5618 45.452,417.7538 76.3,369.2138 C105.964,322.5318 146.256,276.8768 188.913,228.5418" id="Fill-128" fill="#6CB2E2" mask="url(#mask-80)"></path>
            </g>
            <g id="Group-133" transform="translate(1032.772100, 0.000100)">
                <mask id="mask-82" fill="white">
                    <use xlink:href="#path-81"></use>
                </mask>
                <g id="Clip-132"></g>
                <path d="M190.189,225.57 C231.152,179.154 273.51,131.159 309.468,78.709 C327.796,51.977 343.172,25.839 355.752,0 L354.863,0 C342.331,25.69 327.031,51.678 308.809,78.257 C272.877,130.666 230.536,178.643 189.589,225.041 C146.911,273.4 106.599,319.077 76.902,365.813 C45.293,415.549 20.155,462.42 0,509.47 L0.871,509.47 C20.987,462.566 46.062,415.829 77.577,366.242 C107.24,319.559 147.532,273.905 190.189,225.57" id="Fill-131" fill="#6CB2E2" mask="url(#mask-82)"></path>
            </g>
            <g id="Group-136" transform="translate(1017.743300, 0.000000)">
                <mask id="mask-84" fill="white">
                    <use xlink:href="#path-83"></use>
                </mask>
                <g id="Clip-135"></g>
                <path d="M191.462,222.5974 C232.425,176.1824 274.782,128.1864 310.741,75.7374 C328.366,50.0294 343.265,24.8714 355.57,-0.0006 L354.676,-0.0006 C342.422,24.7224 327.601,49.7304 310.082,75.2844 C274.15,127.6944 231.809,175.6714 190.862,222.0684 C148.183,270.4274 107.872,316.1054 78.174,362.8404 C45.9,413.6234 20.366,461.4204 0,509.4704 L0.869,509.4704 C21.195,461.5664 46.67,413.9044 78.849,363.2694 C108.513,316.5874 148.805,270.9324 191.462,222.5974" id="Fill-134" fill="#6CB2E2" mask="url(#mask-84)"></path>
            </g>
            <g id="Group-139" transform="translate(1001.076400, 0.000000)">
                <mask id="mask-86" fill="white">
                    <use xlink:href="#path-85"></use>
                </mask>
                <g id="Clip-138"></g>
                <path d="M194.374,215.6355 C235.337,169.2205 277.694,121.2245 313.653,68.7755 C329.636,45.4635 343.371,22.6045 354.97,-0.0005 L354.07,-0.0005 C342.526,22.4545 328.871,45.1645 312.994,68.3225 C277.062,120.7325 234.721,168.7095 193.774,215.1065 C151.095,263.4655 110.784,309.1435 81.086,355.8785 C47.254,409.1135 20.829,459.0675 2.27373675e-13,509.4695 L0.864,509.4695 C21.656,459.2135 48.023,409.3955 81.761,356.3075 C111.425,309.6255 151.717,263.9705 194.374,215.6355" id="Fill-137" fill="#6CB2E2" mask="url(#mask-86)"></path>
            </g>
            <g id="Group-142" transform="translate(985.695500, 0.000000)">
                <mask id="mask-88" fill="white">
                    <use xlink:href="#path-87"></use>
                </mask>
                <g id="Clip-141"></g>
                <path d="M195.999,211.6668 C236.962,165.2518 279.319,117.2558 315.278,64.8068 C330.326,42.8578 343.384,21.3108 354.541,-0.0002 L353.636,-0.0002 C342.537,21.1618 329.56,42.5588 314.618,64.3538 C278.687,116.7638 236.346,164.7408 195.399,211.1378 C152.72,259.4968 112.409,305.1748 82.711,351.9108 C47.991,406.5418 21.076,457.7178 2.27373675e-13,509.4698 L0.865,509.4698 C21.904,457.8648 48.76,406.8228 83.386,352.3388 C113.05,305.6568 153.342,260.0018 195.999,211.6668" id="Fill-140" fill="#6CB2E2" mask="url(#mask-88)"></path>
            </g>
            <g id="Group-145" transform="translate(970.734200, 0.000100)">
                <mask id="mask-90" fill="white">
                    <use xlink:href="#path-89"></use>
                </mask>
                <g id="Clip-144"></g>
                <path d="M197.205,208.695 C238.168,162.279 280.526,114.284 316.484,61.834 C330.833,40.906 343.37,20.342 354.178,0 L353.273,0 C342.525,20.193 330.068,40.607 315.825,61.382 C279.893,113.791 237.552,161.768 196.605,208.166 C153.927,256.525 113.615,302.202 83.918,348.938 C48.533,404.615 21.252,456.704 -1.13686838e-13,509.47 L0.862,509.47 C22.078,456.851 49.302,404.897 84.593,349.367 C114.256,302.684 154.548,257.03 197.205,208.695" id="Fill-143" fill="#6CB2E2" mask="url(#mask-90)"></path>
            </g>
            <g id="Group-148" transform="translate(955.792300, 0.000000)">
                <mask id="mask-92" fill="white">
                    <use xlink:href="#path-91"></use>
                </mask>
                <g id="Clip-147"></g>
                <path d="M198.391,205.7224 C239.354,159.3074 281.711,111.3114 317.67,58.8624 C331.32,38.9524 343.33,19.3724 353.773,-0.0006 L352.863,-0.0006 C342.481,19.2234 330.555,38.6534 317.011,58.4094 C281.079,110.8194 238.738,158.7964 197.791,205.1934 C155.112,253.5524 114.801,299.2304 85.103,345.9654 C49.054,402.6884 21.42,455.6854 1.13686838e-13,509.4704 L0.861,509.4704 C22.246,455.8334 49.823,402.9694 85.778,346.3944 C115.442,299.7124 155.734,254.0574 198.391,205.7224" id="Fill-146" fill="#6CB2E2" mask="url(#mask-92)"></path>
            </g>
            <g id="Group-151" transform="translate(941.248400, 0.000000)">
                <mask id="mask-94" fill="white">
                    <use xlink:href="#path-93"></use>
                </mask>
                <g id="Clip-150"></g>
                <path d="M199.18,203.7483 C240.143,157.3333 282.5,109.3373 318.459,56.8883 C331.646,37.6543 343.3,18.7283 353.492,-0.0007 L352.581,-0.0007 C342.452,18.5803 330.88,37.3553 317.799,56.4353 C281.868,108.8453 239.527,156.8223 198.58,203.2193 C155.901,251.5783 115.59,297.2563 85.892,343.9913 C49.402,401.4083 21.529,455.0073 2.27373675e-13,509.4703 L0.861,509.4703 C22.356,455.1553 50.171,401.6893 86.567,344.4203 C116.231,297.7383 156.523,252.0833 199.18,203.7483" id="Fill-149" fill="#6CB2E2" mask="url(#mask-94)"></path>
            </g>
            <path d="M1126.6731,198.782 C1167.6361,152.366 1209.9941,104.371 1245.9521,51.921 C1257.9741,34.386 1268.7201,17.107 1278.2491,0 L1277.3341,0 C1267.8711,16.959 1257.2091,34.087 1245.2931,51.469 C1209.3611,103.878 1167.0201,151.855 1126.0731,198.253 C1083.3951,246.612 1043.0831,292.289 1013.3861,339.025 C975.7871,398.185 947.3411,453.294 925.5531,509.47 L926.4121,509.47 C948.1661,453.444 976.5561,398.467 1014.0611,339.454 C1043.7241,292.771 1084.0161,247.117 1126.6731,198.782" id="Fill-152" fill="#6CB2E2"></path>
            <g id="Group-156" transform="translate(910.647200, 0.000000)">
                <mask id="mask-96" fill="white">
                    <use xlink:href="#path-95"></use>
                </mask>
                <g id="Clip-155"></g>
                <path d="M202.27,195.8094 C243.233,149.3944 285.59,101.3984 321.549,48.9494 C332.875,32.4294 343.074,16.1364 352.185,-0.0006 L351.264,-0.0006 C342.221,15.9874 332.11,32.1294 320.89,48.4964 C284.958,100.9064 242.617,148.8834 201.67,195.2804 C158.991,243.6394 118.68,289.3174 88.982,336.0524 C50.721,396.2564 21.933,452.2644 0,509.4704 L0.856,509.4704 C22.757,452.4134 51.49,396.5384 89.657,336.4814 C119.321,289.7994 159.613,244.1444 202.27,195.8094" id="Fill-154" fill="#6CB2E2" mask="url(#mask-96)"></path>
            </g>
            <g id="Group-159" transform="translate(202.172200, 0.000000)">
                <mask id="mask-98" fill="white">
                    <use xlink:href="#path-97"></use>
                </mask>
                <g id="Clip-158"></g>
                <path d="M137.87,158.9197 C167.534,112.2367 207.826,66.5827 250.483,18.2477 C255.825,12.1947 261.191,6.1127 266.563,-0.0003 L265.498,-0.0003 C260.281,5.9347 255.071,11.8397 249.883,17.7177 C207.204,66.0777 166.892,111.7547 137.195,158.4907 C90.325,232.2407 57.665,299.6937 34.415,370.7677 C18.785,418.5477 8.827,463.6087 0,509.4697 L0.815,509.4697 C9.63,463.6877 19.577,418.7007 35.176,371.0167 C58.405,300.0067 91.037,232.6117 137.87,158.9197" id="Fill-157" fill="#6CB2E2" mask="url(#mask-98)"></path>
            </g>
            <g id="Group-162" transform="translate(216.696600, 0.000000)">
                <mask id="mask-100" fill="white">
                    <use xlink:href="#path-99"></use>
                </mask>
                <g id="Clip-161"></g>
                <path d="M137.101,162.8889 C166.765,116.2069 207.056,70.5529 249.713,22.2179 C256.209,14.8569 262.74,7.4509 269.275,-0.0001 L268.211,-0.0001 C261.831,7.2719 255.456,14.5019 249.114,21.6879 C206.435,70.0469 166.123,115.7239 136.426,162.4599 C89.556,236.2099 56.896,303.6629 33.646,374.7369 C18.468,421.1379 8.639,464.9749 0,509.4699 L0.815,509.4699 C9.442,465.0529 19.259,421.2909 34.407,374.9859 C57.636,303.9769 90.268,236.5819 137.101,162.8889" id="Fill-160" fill="#6CB2E2" mask="url(#mask-100)"></path>
            </g>
            <g id="Group-165" transform="translate(230.834400, 0.000100)">
                <mask id="mask-102" fill="white">
                    <use xlink:href="#path-101"></use>
                </mask>
                <g id="Clip-164"></g>
                <path d="M136.719,164.863 C166.383,118.18 206.674,72.526 249.331,24.191 C256.401,16.181 263.512,8.119 270.624,0 L269.56,0 C262.603,7.94 255.647,15.826 248.732,23.662 C206.053,72.021 165.741,117.698 136.044,164.434 C89.173,238.185 56.514,305.637 33.264,376.712 C18.31,422.426 8.547,465.652 5.68434189e-14,509.47 L0.815,509.47 C9.35,465.729 19.101,422.579 34.024,376.96 C57.253,305.951 89.885,238.556 136.719,164.863" id="Fill-163" fill="#6CB2E2" mask="url(#mask-102)"></path>
            </g>
            <g id="Group-168" transform="translate(245.761800, 0.000000)">
                <mask id="mask-104" fill="white">
                    <use xlink:href="#path-103"></use>
                </mask>
                <g id="Clip-167"></g>
                <path d="M135.547,170.8279 C165.211,124.1449 205.503,78.4909 248.16,30.1559 C256.956,20.1879 265.816,10.1409 274.664,-0.0001 L273.603,-0.0001 C264.908,9.9619 256.203,19.8319 247.56,29.6259 C204.881,77.9859 164.569,123.6629 134.872,170.3989 C88.001,244.1499 55.342,311.6029 32.091,382.6769 C17.816,426.3159 8.272,467.6869 2.84217094e-14,509.4699 L0.816,509.4699 C9.076,467.7649 18.608,426.4699 32.852,382.9259 C56.081,311.9169 88.713,244.5209 135.547,170.8279" id="Fill-166" fill="#6CB2E2" mask="url(#mask-104)"></path>
            </g>
            <path d="M395.0642,172.802 C424.7282,126.119 465.0202,80.465 507.6772,32.13 C517.0442,21.516 526.4832,10.813 535.9032,0 L534.8412,0 C525.5752,10.633 516.2912,21.16 507.0772,31.6 C464.3982,79.96 424.0862,125.637 394.3892,172.373 C347.5192,246.123 314.8592,313.575 291.6092,384.65 C277.5592,427.602 268.0932,468.356 259.9112,509.47 L260.7272,509.47 C268.8972,468.434 278.3502,427.756 292.3702,384.898 C315.5992,313.889 348.2312,246.494 395.0642,172.802" id="Fill-169" fill="#6CB2E2"></path>
            <g id="Group-173" transform="translate(274.661500, 0.000000)">
                <mask id="mask-106" fill="white">
                    <use xlink:href="#path-105"></use>
                </mask>
                <g id="Clip-172"></g>
                <path d="M134.158,177.7688 C163.822,131.0858 204.114,85.4318 246.771,37.0968 C257.57,24.8598 268.465,12.5088 279.315,-0.0002 L278.257,-0.0002 C267.558,12.3278 256.818,24.5028 246.171,36.5668 C203.492,84.9268 163.18,130.6038 133.483,177.3398 C86.613,251.0898 53.953,318.5428 30.703,389.6168 C17.219,430.8388 7.957,470.0368 5.68434189e-14,509.4698 L0.816,509.4698 C8.762,470.1138 18.01,430.9928 31.464,389.8658 C54.693,318.8568 87.325,251.4608 134.158,177.7688" id="Fill-171" fill="#6CB2E2" mask="url(#mask-106)"></path>
            </g>
            <g id="Group-176" transform="translate(288.816900, 0.000000)">
                <mask id="mask-108" fill="white">
                    <use xlink:href="#path-107"></use>
                </mask>
                <g id="Clip-175"></g>
                <path d="M133.758,179.7429 C163.422,133.0609 203.713,87.4069 246.37,39.0719 C257.737,26.1919 269.208,13.1839 280.623,-0.0001 L279.565,-0.0001 C268.302,13.0029 256.985,25.8349 245.771,38.5419 C203.092,86.9009 162.78,132.5779 133.083,179.3139 C86.213,253.0649 53.553,320.5169 30.303,391.5919 C17.044,432.1249 7.868,470.7019 0,509.4699 L0.816,509.4699 C8.673,470.7799 17.835,432.2799 31.064,391.8399 C54.293,320.8309 86.925,253.4359 133.758,179.7429" id="Fill-174" fill="#6CB2E2" mask="url(#mask-108)"></path>
            </g>
            <g id="Group-179" transform="translate(303.176800, 0.000100)">
                <mask id="mask-110" fill="white">
                    <use xlink:href="#path-109"></use>
                </mask>
                <g id="Clip-178"></g>
                <path d="M133.154,182.715 C162.818,136.032 203.11,90.378 245.767,42.043 C257.987,28.196 270.329,14.204 282.591,0 L281.533,0 C269.422,14.022 257.235,27.839 245.167,41.513 C202.488,89.873 162.176,135.55 132.479,182.286 C85.608,256.037 52.949,323.489 29.699,394.564 C16.778,434.061 7.734,471.701 -5.68434189e-14,509.47 L0.817,509.47 C8.539,471.779 17.569,434.217 30.459,394.813 C53.688,323.803 86.32,256.408 133.154,182.715" id="Fill-177" fill="#6CB2E2" mask="url(#mask-110)"></path>
            </g>
            <path d="M450.0861,188.68 C479.7501,141.997 520.0421,96.343 562.6991,48.008 C576.6251,32.228 590.7091,16.258 604.6511,0 L603.5971,0 C589.8041,16.075 575.8741,31.87 562.0991,47.478 C519.4201,95.838 479.1081,141.515 449.4111,188.251 C402.5401,262.002 369.8811,329.454 346.6311,400.529 C334.3901,437.947 325.6301,473.697 318.1651,509.47 L318.9831,509.47 C326.4351,473.775 335.1811,438.103 347.3911,400.778 C370.6201,329.768 403.2521,262.373 450.0861,188.68" id="Fill-180" fill="#6CB2E2"></path>
            <g id="Group-184" transform="translate(332.545500, 0.000000)">
                <mask id="mask-112" fill="white">
                    <use xlink:href="#path-111"></use>
                </mask>
                <g id="Clip-183"></g>
                <path d="M131.296,191.6507 C160.96,144.9677 201.252,99.3137 243.909,50.9787 C258.683,34.2377 273.636,17.2867 288.407,-0.0003 L287.353,-0.0003 C272.73,17.1027 257.932,33.8797 243.309,50.4487 C200.63,98.8087 160.318,144.4857 130.621,191.2217 C83.75,264.9727 51.091,332.4257 27.841,403.5007 C15.939,439.8817 7.329,474.6877 -5.68434189e-14,509.4697 L0.817,509.4697 C8.134,474.7657 16.73,440.0377 28.601,403.7487 C51.83,332.7397 84.462,265.3437 131.296,191.6507" id="Fill-182" fill="#6CB2E2" mask="url(#mask-112)"></path>
            </g>
            <g id="Group-187" transform="translate(347.142900, 0.000000)">
                <mask id="mask-114" fill="white">
                    <use xlink:href="#path-113"></use>
                </mask>
                <g id="Clip-186"></g>
                <path d="M130.454,195.6209 C160.118,148.9379 200.41,103.2839 243.067,54.9489 C258.97,36.9279 275.08,18.6649 290.948,-0.0001 L289.9,-0.0001 C274.178,18.4799 258.22,36.5689 242.467,54.4189 C199.788,102.7789 159.476,148.4559 129.779,195.1919 C82.909,268.9419 50.249,336.3939 26.999,407.4689 C15.551,442.4669 7.148,476.0069 5.68434189e-14,509.4699 L0.819,509.4699 C7.954,476.0839 16.341,442.6239 27.76,407.7179 C50.989,336.7079 83.621,269.3129 130.454,195.6209" id="Fill-185" fill="#6CB2E2" mask="url(#mask-114)"></path>
            </g>
            <g id="Group-190" transform="translate(361.750300, 0.000100)">
                <mask id="mask-116" fill="white">
                    <use xlink:href="#path-115"></use>
                </mask>
                <g id="Clip-189"></g>
                <path d="M129.602,199.59 C159.266,152.907 199.558,107.253 242.215,58.918 C259.243,39.623 276.508,20.047 293.458,0 L292.41,0 C275.604,19.862 258.494,39.263 241.615,58.388 C198.936,106.748 158.624,152.425 128.927,199.161 C82.057,272.911 49.397,340.364 26.147,411.438 C15.151,445.053 6.963,477.321 0,509.47 L0.819,509.47 C7.769,477.4 15.941,445.21 26.908,411.687 C50.137,340.678 82.769,273.283 129.602,199.59" id="Fill-188" fill="#6CB2E2" mask="url(#mask-116)"></path>
            </g>
            <g id="Group-193" transform="translate(376.373100, 0.000000)">
                <mask id="mask-118" fill="white">
                    <use xlink:href="#path-117"></use>
                </mask>
                <g id="Clip-192"></g>
                <path d="M128.735,203.5598 C158.399,156.8768 198.69,111.2228 241.347,62.8878 C259.499,42.3198 277.923,21.4388 295.944,-0.0002 L294.902,-0.0002 C277.023,21.2528 258.751,41.9588 240.748,62.3588 C198.069,110.7178 157.757,156.3948 128.06,203.1308 C81.189,276.8818 48.53,344.3338 25.28,415.4088 C14.736,447.6398 6.776,478.6328 -1.13686838e-13,509.4698 L0.819,509.4698 C7.582,478.7108 15.526,447.7968 26.04,415.6568 C49.269,344.6478 81.901,277.2528 128.735,203.5598" id="Fill-191" fill="#6CB2E2" mask="url(#mask-118)"></path>
            </g>
            <path d="M518.8635,205.534 C548.5275,158.851 588.8195,113.197 631.4765,64.862 C650.1835,43.664 669.1765,22.13 687.7235,0 L686.6805,0 C668.2755,21.943 649.4355,43.303 630.8765,64.332 C588.1975,112.692 547.8855,158.369 518.1885,205.105 C471.3175,278.856 438.6585,346.309 415.4075,417.383 C405.0895,448.926 397.2445,479.284 390.5625,509.47 L391.3825,509.47 C398.0515,479.363 405.8795,449.084 416.1685,417.632 C439.3975,346.623 472.0295,279.227 518.8635,205.534" id="Fill-194" fill="#6CB2E2"></path>
            <g id="Group-198" transform="translate(404.758900, 0.000100)">
                <mask id="mask-120" fill="white">
                    <use xlink:href="#path-119"></use>
                </mask>
                <g id="Clip-197"></g>
                <path d="M127.86,207.508 C157.524,160.825 197.816,115.171 240.473,66.836 C259.736,45.009 279.3,22.824 298.369,0 L297.327,0 C278.399,22.637 258.987,44.648 239.873,66.306 C197.194,114.666 156.882,160.343 127.185,207.079 C80.314,280.83 47.655,348.282 24.405,419.357 C14.311,450.213 6.586,479.934 1.13686838e-13,509.47 L0.82,509.47 C7.393,480.012 15.101,450.371 25.165,419.606 C48.394,348.596 81.026,281.201 127.86,207.508" id="Fill-196" fill="#6CB2E2" mask="url(#mask-120)"></path>
            </g>
            <g id="Group-201" transform="translate(419.860200, 0.000000)">
                <mask id="mask-122" fill="white">
                    <use xlink:href="#path-121"></use>
                </mask>
                <g id="Clip-200"></g>
                <path d="M126.514,213.4729 C156.178,166.7899 196.47,121.1359 239.127,72.8009 C260.064,49.0759 281.362,24.9339 301.987,-0.0001 L300.951,-0.0001 C280.463,24.7449 259.317,48.7139 238.527,72.2709 C195.848,120.6309 155.536,166.3079 125.839,213.0439 C78.969,286.7939 46.309,354.2459 23.059,425.3209 C13.645,454.1009 6.291,481.8939 0,509.4699 L0.821,509.4699 C7.099,481.9719 14.434,454.2589 23.82,425.5689 C47.049,354.5599 79.681,287.1649 126.514,213.4729" id="Fill-199" fill="#6CB2E2" mask="url(#mask-122)"></path>
            </g>
            <g id="Group-204" transform="translate(434.066600, 0.000100)">
                <mask id="mask-124" fill="white">
                    <use xlink:href="#path-123"></use>
                </mask>
                <g id="Clip-203"></g>
                <path d="M126.063,215.447 C155.727,168.765 196.018,123.111 238.675,74.776 C260.164,50.426 282.029,25.634 303.161,0 L302.125,0 C281.13,25.444 259.417,50.064 238.076,74.246 C195.397,122.605 155.085,168.282 125.388,215.018 C78.518,288.769 45.858,356.221 22.608,427.296 C13.418,455.389 6.191,482.541 0,509.47 L0.82,509.47 C6.998,482.62 14.208,455.548 23.369,427.544 C46.598,356.535 79.23,289.14 126.063,215.447" id="Fill-202" fill="#6CB2E2" mask="url(#mask-124)"></path>
            </g>
            <g id="Group-207" transform="translate(448.976000, 0.000000)">
                <mask id="mask-126" fill="white">
                    <use xlink:href="#path-125"></use>
                </mask>
                <g id="Clip-206"></g>
                <path d="M124.909,220.4138 C154.573,173.7318 194.864,128.0778 237.521,79.7428 C260.397,53.8218 283.705,27.4068 306.094,-0.0002 L305.058,-0.0002 C282.805,27.2148 259.65,53.4588 236.922,79.2128 C194.243,127.5718 153.931,173.2488 124.234,219.9848 C77.364,293.7348 44.704,361.1878 21.454,432.2618 C12.829,458.6288 5.934,484.1678 0,509.4698 L0.822,509.4698 C6.742,484.2458 13.619,458.7888 22.215,432.5108 C45.444,361.5018 78.076,294.1068 124.909,220.4138" id="Fill-205" fill="#6CB2E2" mask="url(#mask-126)"></path>
            </g>
            <g id="Group-210" transform="translate(463.670800, 0.000100)">
                <mask id="mask-128" fill="white">
                    <use xlink:href="#path-127"></use>
                </mask>
                <g id="Clip-209"></g>
                <path d="M123.97,224.383 C153.634,177.7 193.926,132.046 236.583,83.711 C260.559,56.544 285.004,28.826 308.372,0 L307.343,0 C284.107,28.634 259.813,56.179 235.983,83.181 C193.304,131.541 152.992,177.218 123.295,223.954 C76.424,297.705 43.765,365.157 20.515,436.232 C12.34,461.221 5.721,485.465 0,509.47 L0.823,509.47 C6.53,485.544 13.13,461.381 21.275,436.481 C44.504,365.471 77.136,298.076 123.97,224.383" id="Fill-208" fill="#6CB2E2" mask="url(#mask-128)"></path>
            </g>
            <g id="Group-213" transform="translate(478.377200, 0.000000)">
                <mask id="mask-130" fill="white">
                    <use xlink:href="#path-129"></use>
                </mask>
                <g id="Clip-212"></g>
                <path d="M123.019,228.3528 C152.683,181.6698 192.975,136.0158 235.632,87.6808 C260.707,59.2678 286.299,30.2558 310.631,-0.0002 L309.602,-0.0002 C285.4,30.0628 259.962,58.9038 235.032,87.1508 C192.353,135.5108 152.041,181.1878 122.344,227.9238 C75.473,301.6748 42.814,369.1278 19.564,440.2028 C11.84,463.8138 5.502,486.7618 0,509.4698 L0.824,509.4698 C6.311,486.8408 12.629,463.9738 20.324,440.4508 C43.553,369.4418 76.185,302.0458 123.019,228.3528" id="Fill-211" fill="#6CB2E2" mask="url(#mask-130)"></path>
            </g>
            <g id="Group-216" transform="translate(493.104600, 0.000100)">
                <mask id="mask-132" fill="white">
                    <use xlink:href="#path-131"></use>
                </mask>
                <g id="Clip-215"></g>
                <path d="M122.047,232.322 C151.711,185.639 192.003,139.985 234.66,91.65 C260.829,61.997 287.561,31.692 312.837,0 L311.816,0 C286.668,31.498 260.085,61.631 234.06,91.12 C191.381,139.48 151.069,185.157 121.372,231.893 C74.501,305.643 41.842,373.096 18.592,444.17 C11.318,466.408 5.275,488.056 0,509.47 L0.824,509.47 C6.083,488.134 12.107,466.568 19.353,444.419 C42.582,373.41 75.214,306.015 122.047,232.322" id="Fill-214" fill="#6CB2E2" mask="url(#mask-132)"></path>
            </g>
            <g id="Group-219" transform="translate(507.596900, 0.000000)">
                <mask id="mask-134" fill="white">
                    <use xlink:href="#path-133"></use>
                </mask>
                <g id="Clip-218"></g>
                <path d="M121.31,235.2937 C150.974,188.6107 191.266,142.9567 233.923,94.6217 C260.908,64.0437 288.488,32.7707 314.456,-0.0003 L313.435,-0.0003 C287.594,32.5747 260.164,63.6777 233.323,94.0917 C190.644,142.4517 150.332,188.1287 120.635,234.8647 C73.765,308.6147 41.105,376.0677 17.855,447.1417 C10.917,468.3517 5.101,489.0237 -5.68434189e-14,509.4697 L0.826,509.4697 C5.91,489.1037 11.706,468.5127 18.616,447.3907 C41.845,376.3817 74.477,308.9867 121.31,235.2937" id="Fill-217" fill="#6CB2E2" mask="url(#mask-134)"></path>
            </g>
            <g id="Group-222" transform="translate(522.097800, 0.000000)">
                <mask id="mask-136" fill="white">
                    <use xlink:href="#path-135"></use>
                </mask>
                <g id="Clip-221"></g>
                <path d="M120.565,238.2659 C150.229,191.5829 190.52,145.9289 233.177,97.5939 C260.979,66.0919 289.418,33.8569 316.068,-0.0001 L315.047,-0.0001 C288.522,33.6589 260.235,65.7259 232.578,97.0649 C189.899,145.4239 149.587,191.1009 119.89,237.8369 C73.019,311.5869 40.36,379.0399 17.11,450.1139 C10.508,470.2969 4.92,489.9929 0,509.4699 L0.825,509.4699 C5.729,490.0719 11.297,470.4579 17.87,450.3629 C41.099,379.3539 73.732,311.9589 120.565,238.2659" id="Fill-220" fill="#6CB2E2" mask="url(#mask-136)"></path>
            </g>
            <g id="Group-225" transform="translate(536.610200, 0.000100)">
                <mask id="mask-138" fill="white">
                    <use xlink:href="#path-137"></use>
                </mask>
                <g id="Clip-224"></g>
                <path d="M119.808,241.238 C149.472,194.555 189.764,148.901 232.421,100.566 C261.035,68.143 290.322,34.944 317.64,0 L316.627,0 C289.432,34.747 260.292,67.776 231.821,100.036 C189.142,148.396 148.83,194.073 119.133,240.809 C72.262,314.56 39.603,382.013 16.352,453.087 C10.086,472.243 4.736,490.961 -1.13686838e-13,509.47 L0.826,509.47 C5.546,491.041 10.875,472.405 17.113,453.336 C40.342,382.327 72.974,314.931 119.808,241.238" id="Fill-223" fill="#6CB2E2" mask="url(#mask-138)"></path>
            </g>
            <g id="Group-228" transform="translate(552.437600, 0.000100)">
                <mask id="mask-140" fill="white">
                    <use xlink:href="#path-139"></use>
                </mask>
                <g id="Clip-227"></g>
                <path d="M117.736,249.197 C147.4,202.514 187.692,156.86 230.349,108.525 C261.128,73.649 292.694,37.879 321.741,0 L320.732,0 C291.803,37.679 260.386,73.28 229.749,107.995 C187.07,156.355 146.758,202.032 117.061,248.768 C70.19,322.519 37.531,389.972 14.28,461.046 C8.911,477.461 4.215,493.554 0,509.47 L0.827,509.47 C5.025,493.634 9.699,477.624 15.041,461.295 C38.27,390.286 70.902,322.89 117.736,249.197" id="Fill-226" fill="#6CB2E2" mask="url(#mask-140)"></path>
            </g>
            <g id="Group-231" transform="translate(566.715900, 0.000000)">
                <mask id="mask-142" fill="white">
                    <use xlink:href="#path-141"></use>
                </mask>
                <g id="Clip-230"></g>
                <path d="M117.213,251.1717 C146.877,204.4887 187.169,158.8347 229.826,110.4997 C261.137,75.0197 293.254,38.6097 322.715,-0.0003 L321.711,-0.0003 C292.367,38.4087 260.397,74.6507 229.226,109.9697 C186.547,158.3297 146.235,204.0067 116.538,250.7427 C69.668,324.4927 37.008,391.9447 13.758,463.0197 C8.61,478.7557 4.079,494.1977 0,509.4697 L0.828,509.4697 C4.89,494.2777 9.399,478.9187 14.519,463.2687 C37.748,392.2587 70.38,324.8637 117.213,251.1717" id="Fill-229" fill="#6CB2E2" mask="url(#mask-142)"></path>
            </g>
            <g id="Group-234" transform="translate(581.273300, 0.000000)">
                <mask id="mask-144" fill="white">
                    <use xlink:href="#path-143"></use>
                </mask>
                <g id="Clip-233"></g>
                <path d="M116.411,254.1429 C146.075,207.4599 186.367,161.8059 229.024,113.4709 C261.137,77.0839 294.093,39.7139 324.165,-0.0001 L323.161,-0.0001 C293.204,39.5119 260.396,76.7139 228.424,112.9409 C185.745,161.3009 145.433,206.9779 115.736,253.7139 C68.866,327.4639 36.206,394.9169 12.956,465.9909 C8.142,480.7079 3.871,495.1659 0,509.4699 L0.829,509.4699 C4.682,495.2459 8.93,480.8709 13.717,466.2399 C36.946,395.2309 69.578,327.8349 116.411,254.1429" id="Fill-232" fill="#6CB2E2" mask="url(#mask-144)"></path>
            </g>
            <path d="M711.4397,257.115 C741.1037,210.433 781.3947,164.779 824.0517,116.444 C856.9667,79.148 890.7747,40.827 921.4467,0 L920.4427,0 C889.8847,40.623 856.2257,78.778 823.4527,115.914 C780.7737,164.273 740.4617,209.95 710.7647,256.686 C663.8947,330.437 631.2347,397.889 607.9847,468.964 C603.5037,482.662 599.4907,496.136 595.8357,509.47 L596.6657,509.47 C600.3027,496.216 604.2927,482.824 608.7457,469.212 C631.9747,398.203 664.6067,330.808 711.4397,257.115" id="Fill-235" fill="#6CB2E2"></path>
            <g id="Group-239" transform="translate(610.690500, 0.000000)">
                <mask id="mask-146" fill="white">
                    <use xlink:href="#path-145"></use>
                </mask>
                <g id="Clip-238"></g>
                <path d="M114.505,261.0847 C144.169,214.4017 184.461,168.7477 227.118,120.4127 C261.096,81.9117 296.021,42.3147 327.47,-0.0003 L326.475,-0.0003 C295.137,42.1107 260.357,81.5407 226.518,119.8827 C183.839,168.2427 143.527,213.9197 113.83,260.6557 C66.959,334.4067 34.3,401.8587 11.05,472.9337 C7.013,485.2737 3.358,497.4317 0,509.4697 L0.83,509.4697 C4.169,497.5117 7.801,485.4367 11.81,473.1827 C35.039,402.1727 67.671,334.7777 114.505,261.0847" id="Fill-237" fill="#6CB2E2" mask="url(#mask-146)"></path>
            </g>
            <path d="M738.9509,265.054 C768.6149,218.371 808.9069,172.717 851.5639,124.382 C886.6019,84.68 922.6469,43.812 954.8479,0 L953.8529,0 C921.7599,43.606 885.8629,84.308 850.9639,123.852 C808.2849,172.212 767.9729,217.889 738.2759,264.625 C691.4049,338.376 658.7459,405.828 635.4959,476.903 C631.9019,487.889 628.6139,498.729 625.5649,509.47 L626.3969,509.47 C629.4259,498.81 632.6899,488.052 636.2559,477.152 C659.4849,406.142 692.1169,338.747 738.9509,265.054" id="Fill-240" fill="#6CB2E2"></path>
            <g id="Group-244" transform="translate(640.454300, 0.000000)">
                <mask id="mask-148" fill="white">
                    <use xlink:href="#path-147"></use>
                </mask>
                <g id="Clip-243"></g>
                <path d="M112.252,269.0227 C141.916,222.3397 182.208,176.6857 224.865,128.3507 C260.96,87.4507 298.132,45.3197 331.061,-0.0003 L330.076,-0.0003 C297.253,45.1127 260.223,87.0767 224.265,127.8207 C181.586,176.1807 141.274,221.8577 111.577,268.5937 C64.707,342.3437 32.047,409.7967 8.797,480.8707 C5.646,490.5047 2.728,500.0277 0,509.4697 L0.833,509.4697 C3.54,500.1087 6.434,490.6687 9.558,481.1197 C32.787,410.1107 65.419,342.7147 112.252,269.0227" id="Fill-242" fill="#6CB2E2" mask="url(#mask-148)"></path>
            </g>
            <g id="Group-247" transform="translate(654.785600, 0.000000)">
                <mask id="mask-150" fill="white">
                    <use xlink:href="#path-149"></use>
                </mask>
                <g id="Clip-246"></g>
                <path d="M111.676,270.9978 C141.34,224.3148 181.632,178.6608 224.289,130.3258 C260.906,88.8338 298.624,46.0698 331.904,-0.0002 L330.919,-0.0002 C297.744,45.8608 260.169,88.4608 223.689,129.7958 C181.01,178.1558 140.698,223.8328 111.001,270.5688 C64.131,344.3188 31.471,411.7718 8.221,482.8458 C5.289,491.8098 2.563,500.6748 -1.13686838e-13,509.4698 L0.833,509.4698 C3.375,500.7558 6.077,491.9738 8.982,483.0948 C32.211,412.0858 64.843,344.6908 111.676,270.9978" id="Fill-245" fill="#6CB2E2" mask="url(#mask-150)"></path>
            </g>
            <g id="Group-250" transform="translate(669.705000, 0.000100)">
                <mask id="mask-152" fill="white">
                    <use xlink:href="#path-151"></use>
                </mask>
                <g id="Clip-249"></g>
                <path d="M110.512,274.967 C140.176,228.285 180.467,182.631 223.124,134.296 C260.791,91.615 299.624,47.587 333.591,0 L332.606,0 C298.741,47.376 260.055,91.24 222.525,133.766 C179.846,182.125 139.534,227.802 109.837,274.538 C62.967,348.288 30.307,415.741 7.057,486.816 C4.566,494.432 2.222,501.977 0,509.47 L0.835,509.47 C3.035,502.059 5.354,494.596 7.818,487.064 C31.047,416.055 63.679,348.66 110.512,274.967" id="Fill-248" fill="#6CB2E2" mask="url(#mask-152)"></path>
            </g>
            <g id="Group-253" transform="translate(684.349900, 0.000000)">
                <mask id="mask-154" fill="white">
                    <use xlink:href="#path-153"></use>
                </mask>
                <g id="Clip-252"></g>
                <path d="M109.623,277.9388 C139.287,231.2558 179.579,185.6018 222.236,137.2668 C260.688,93.6958 300.368,48.7328 334.831,-0.0002 L333.85,-0.0002 C299.487,48.5208 259.952,93.3208 221.636,136.7368 C178.957,185.0968 138.645,230.7738 108.948,277.5098 C62.077,351.2608 29.418,418.7138 6.168,489.7888 C4.005,496.3988 1.957,502.9548 1.13686838e-13,509.4698 L0.835,509.4698 C2.77,503.0358 4.793,496.5628 6.928,490.0368 C30.157,419.0278 62.789,351.6318 109.623,277.9388" id="Fill-251" fill="#6CB2E2" mask="url(#mask-154)"></path>
            </g>
            <path d="M807.7282,282.906 C837.3922,236.223 877.6842,190.569 920.3412,142.234 C960.0932,97.19 1001.1402,50.646 1036.3972,0 L1035.4212,0 C1000.2622,50.432 959.3582,96.814 919.7412,141.704 C877.0622,190.064 836.7502,235.741 807.0532,282.477 C760.1822,356.228 727.5232,423.681 704.2722,494.755 C702.6592,499.689 701.1122,504.59 699.6142,509.47 L700.4512,509.47 C701.9252,504.672 703.4462,499.854 705.0332,495.004 C728.2622,423.995 760.8942,356.599 807.7282,282.906" id="Fill-254" fill="#6CB2E2"></path>
            <g id="Group-258" transform="translate(714.596600, 0.000000)">
                <mask id="mask-156" fill="white">
                    <use xlink:href="#path-155"></use>
                </mask>
                <g id="Clip-257"></g>
                <path d="M106.887,286.8748 C136.551,240.1918 176.843,194.5378 219.5,146.2028 C260.291,99.9828 302.46,52.1918 338.321,-0.0002 L337.345,-0.0002 C301.579,51.9748 259.556,99.6058 218.9,145.6728 C176.221,194.0328 135.909,239.7098 106.212,286.4458 C59.341,360.1968 26.682,427.6488 3.432,498.7238 C2.255,502.3218 1.115,505.9018 0,509.4698 L0.839,509.4698 C1.929,505.9838 3.043,502.4868 4.192,498.9728 C27.421,427.9628 60.053,360.5678 106.887,286.8748" id="Fill-256" fill="#6CB2E2" mask="url(#mask-156)"></path>
            </g>
            <path d="M835.239,290.845 C864.903,244.162 905.195,198.508 947.852,150.173 C988.815,103.758 1031.172,55.762 1067.131,3.312 C1067.889,2.206 1068.632,1.104 1069.38,0 L1068.414,0 C1067.766,0.953 1067.126,1.905 1066.471,2.86 C1030.54,55.269 988.199,103.246 947.252,149.643 C904.573,198.003 864.261,243.68 834.564,290.416 C787.694,364.166 755.034,431.618 731.784,502.693 C731.043,504.958 730.318,507.216 729.602,509.47 L730.441,509.47 C731.131,507.299 731.831,505.123 732.545,502.941 C755.774,431.932 788.406,364.537 835.239,290.845" id="Fill-259" fill="#6CB2E2"></path>
            <g id="Group-263" transform="translate(743.988400, 0.000100)">
                <mask id="mask-158" fill="white">
                    <use xlink:href="#path-157"></use>
                </mask>
                <g id="Clip-262"></g>
                <path d="M105.006,292.819 C134.67,246.136 174.962,200.482 217.619,152.147 C258.582,105.732 300.939,57.736 336.898,5.286 C338.108,3.521 339.303,1.759 340.488,0 L339.521,0 C338.436,1.609 337.345,3.22 336.238,4.834 C300.307,57.243 257.966,105.22 217.019,151.617 C174.34,199.977 134.028,245.654 104.331,292.39 C57.461,366.141 24.801,433.593 1.551,504.667 C1.027,506.272 0.512,507.871 0,509.47 L0.841,509.47 C1.327,507.954 1.814,506.438 2.312,504.916 C25.541,433.907 58.173,366.512 105.006,292.819" id="Fill-261" fill="#6CB2E2" mask="url(#mask-158)"></path>
            </g>
            <path d="M975.3625,157.114 C1016.3255,110.698 1058.6835,62.703 1094.6415,10.253 C1096.9915,6.825 1099.2875,3.409 1101.5415,0 L1100.5805,0 C1098.4225,3.259 1096.2285,6.525 1093.9825,9.801 C1058.0505,62.21 1015.7095,110.187 974.7625,156.585 C932.0845,204.944 891.7725,250.621 862.0755,297.357 C815.2405,371.051 782.5965,438.457 759.3495,509.47 L760.1925,509.47 C783.4125,438.613 816.0075,371.336 862.7505,297.786 C892.4135,251.103 932.7055,205.449 975.3625,157.114" id="Fill-264" fill="#6CB2E2"></path>
            <g id="Group-268" transform="translate(774.091400, 0.000000)">
                <mask id="mask-160" fill="white">
                    <use xlink:href="#path-159"></use>
                </mask>
                <g id="Clip-267"></g>
                <path d="M215.027,160.0857 C255.99,113.6707 298.347,65.6747 334.306,13.2257 C337.34,8.8007 340.283,4.3937 343.156,-0.0003 L342.201,-0.0003 C339.421,4.2437 336.576,8.4997 333.646,12.7727 C297.715,65.1827 255.374,113.1597 214.427,159.5567 C171.748,207.9157 131.437,253.5937 101.739,300.3297 C55.559,372.9927 23.182,439.5457 -1.13686838e-13,509.4697 L0.843,509.4697 C23.998,439.7017 56.326,373.2777 102.414,300.7577 C132.078,254.0757 172.37,208.4207 215.027,160.0857" id="Fill-266" fill="#6CB2E2" mask="url(#mask-160)"></path>
            </g>
            <g id="Group-271" transform="translate(788.832700, 0.000000)">
                <mask id="mask-162" fill="white">
                    <use xlink:href="#path-161"></use>
                </mask>
                <g id="Clip-270"></g>
                <path d="M214.041,163.0574 C255.004,116.6424 297.361,68.6464 333.32,16.1974 C337.038,10.7744 340.632,5.3764 344.109,-0.0006 L343.153,-0.0006 C339.767,5.2264 336.274,10.4734 332.66,15.7444 C296.729,68.1544 254.388,116.1314 213.441,162.5284 C170.762,210.8874 130.451,256.5654 100.753,303.3004 C55.227,374.9354 23.111,440.6294 0,509.4704 L0.843,509.4704 C23.927,440.7844 55.994,375.2204 101.428,303.7294 C131.092,257.0474 171.384,211.3924 214.041,163.0574" id="Fill-269" fill="#6CB2E2" mask="url(#mask-162)"></path>
            </g>
            <g id="Group-274" transform="translate(803.937100, 0.000000)">
                <mask id="mask-164" fill="white">
                    <use xlink:href="#path-163"></use>
                </mask>
                <g id="Clip-273"></g>
                <path d="M212.692,167.0266 C253.655,120.6116 296.012,72.6156 331.971,20.1666 C336.605,13.4076 341.041,6.6876 345.302,-0.0004 L344.352,-0.0004 C340.181,6.5386 335.841,13.1066 331.312,19.7136 C295.38,72.1236 253.039,120.1006 212.092,166.4976 C169.413,214.8566 129.102,260.5346 99.404,307.2696 C54.754,377.5256 23.008,442.0686 0,509.4696 L0.846,509.4696 C23.826,442.2236 55.522,377.8106 100.079,307.6986 C129.743,261.0166 170.035,215.3616 212.692,167.0266" id="Fill-272" fill="#6CB2E2" mask="url(#mask-164)"></path>
            </g>
            <g id="Group-277" transform="translate(819.754000, 0.000000)">
                <mask id="mask-166" fill="white">
                    <use xlink:href="#path-165"></use>
                </mask>
                <g id="Clip-276"></g>
                <path d="M210.63,172.9915 C251.593,126.5755 293.951,78.5805 329.91,26.1305 C335.923,17.3595 341.611,8.6535 346.996,-0.0005 L346.053,-0.0005 C340.752,8.5045 335.159,17.0595 329.25,25.6785 C293.318,78.0875 250.977,126.0645 210.03,172.4625 C167.352,220.8215 127.04,266.4985 97.343,313.2335 C54.012,381.4155 22.833,444.2165 1.13686838e-13,509.4705 L0.848,509.4705 C23.653,444.3695 54.779,381.6995 98.018,313.6625 C127.682,266.9805 167.973,221.3265 210.63,172.9915" id="Fill-275" fill="#6CB2E2" mask="url(#mask-166)"></path>
            </g>
            <g id="Group-280" transform="translate(834.202400, 0.000000)">
                <mask id="mask-168" fill="white">
                    <use xlink:href="#path-167"></use>
                </mask>
                <g id="Clip-279"></g>
                <path d="M209.937,174.9666 C250.9,128.5506 293.258,80.5556 329.217,28.1056 C335.688,18.6676 341.789,9.3036 347.532,-0.0004 L346.594,-0.0004 C340.933,9.1536 334.923,18.3676 328.557,27.6536 C292.625,80.0626 250.284,128.0396 209.337,174.4376 C166.659,222.7966 126.347,268.4736 96.65,315.2096 C53.756,382.7026 22.77,444.9236 1.13686838e-13,509.4696 L0.847,509.4696 C23.589,445.0756 54.523,382.9856 97.325,315.6376 C126.989,268.9556 167.28,223.3016 209.937,174.9666" id="Fill-278" fill="#6CB2E2" mask="url(#mask-168)"></path>
            </g>
            <g id="Group-283" transform="translate(849.369200, 0.000000)">
                <mask id="mask-170" fill="white">
                    <use xlink:href="#path-169"></use>
                </mask>
                <g id="Clip-282"></g>
                <path d="M208.526,178.9344 C249.489,132.5194 291.846,84.5234 327.805,32.0744 C335.197,21.2924 342.104,10.6084 348.548,-0.0006 L347.61,-0.0006 C341.246,10.4594 334.433,20.9924 327.146,31.6214 C291.214,84.0314 248.873,132.0084 207.926,178.4054 C165.247,226.7644 124.936,272.4424 95.238,319.1774 C53.224,385.2874 22.635,446.3374 0,509.4704 L0.851,509.4704 C23.456,446.4894 53.992,385.5704 95.913,319.6064 C125.577,272.9244 165.869,227.2694 208.526,178.9344" id="Fill-281" fill="#6CB2E2" mask="url(#mask-170)"></path>
            </g>
            <path d="M1071.6511,180.909 C1112.6141,134.493 1154.9721,86.498 1190.9301,34.048 C1198.7811,22.597 1206.0861,11.256 1212.8681,0 L1211.9361,0 C1205.2321,11.107 1198.0161,22.298 1190.2711,33.596 C1154.3391,86.005 1111.9981,133.982 1071.0511,180.38 C1028.3731,228.739 988.0611,274.416 958.3641,321.152 C916.7871,386.571 886.4001,447.038 863.8371,509.47 L864.6871,509.47 C887.2211,447.19 917.5561,386.855 959.0391,321.581 C988.7021,274.898 1028.9941,229.244 1071.6511,180.909" id="Fill-284" fill="#6CB2E2"></path>
            <g id="Group-288" transform="translate(880.142500, 0.000000)">
                <mask id="mask-172" fill="white">
                    <use xlink:href="#path-171"></use>
                </mask>
                <g id="Clip-287"></g>
                <path d="M205.264,187.8704 C246.227,141.4554 288.584,93.4594 324.543,41.0104 C334.015,27.1944 342.691,13.5394 350.61,-0.0006 L349.683,-0.0006 C341.837,13.3904 333.25,26.8954 323.883,40.5574 C287.952,92.9674 245.611,140.9444 204.664,187.3414 C161.985,235.7004 121.674,281.3784 91.976,328.1134 C51.947,391.0994 22.29,449.4924 1.13686838e-13,509.4704 L0.853,509.4704 C23.112,449.6434 52.715,391.3814 92.651,328.5424 C122.315,281.8604 162.607,236.2054 205.264,187.8704" id="Fill-286" fill="#6CB2E2" mask="url(#mask-172)"></path>
            </g>
            <g id="Group-291" transform="translate(894.629300, 0.000000)">
                <mask id="mask-174" fill="white">
                    <use xlink:href="#path-173"></use>
                </mask>
                <g id="Clip-290"></g>
                <path d="M204.533,189.8455 C245.496,143.4305 287.853,95.4345 323.812,42.9855 C333.745,28.4975 342.807,14.1855 351.033,-0.0005 L350.106,-0.0005 C341.952,14.0365 332.98,28.1985 323.153,42.5325 C287.221,94.9425 244.88,142.9195 203.933,189.3165 C161.254,237.6755 120.943,283.3535 91.245,330.0885 C51.655,392.3835 22.206,450.1845 0,509.4705 L0.854,509.4705 C23.028,450.3355 52.424,392.6665 91.92,330.5175 C121.584,283.8355 161.876,238.1805 204.533,189.8455" id="Fill-289" fill="#6CB2E2" mask="url(#mask-174)"></path>
            </g>
            <g id="Group-294" transform="translate(187.464800, 0.000000)">
                <mask id="mask-176" fill="white">
                    <use xlink:href="#path-175"></use>
                </mask>
                <g id="Clip-293"></g>
                <path d="M138.822,153.9529 C168.486,107.2699 208.778,61.6159 251.435,13.2809 C255.327,8.8709 259.233,4.4409 263.144,-0.0001 L262.078,-0.0001 C258.323,4.2629 254.572,8.5159 250.835,12.7509 C208.156,61.1109 167.844,106.7879 138.147,153.5239 C91.276,227.2749 58.617,294.7279 35.367,365.8019 C19.173,415.3059 9.067,461.8909 0,509.4699 L0.815,509.4699 C9.87,461.9689 19.965,415.4579 36.127,366.0509 C59.356,295.0409 91.988,227.6459 138.822,153.9529" id="Fill-292" fill="#6CB2E2" mask="url(#mask-176)"></path>
            </g>
            <g id="Group-297" transform="translate(173.334500, 0.000000)">
                <mask id="mask-178" fill="white">
                    <use xlink:href="#path-177"></use>
                </mask>
                <g id="Clip-296"></g>
                <path d="M139.197,151.9778 C168.861,105.2948 209.153,59.6408 251.81,11.3058 C255.125,7.5488 258.451,3.7778 261.78,-0.0002 L260.714,-0.0002 C257.54,3.6008 254.37,7.1948 251.21,10.7758 C208.531,59.1358 168.219,104.8128 138.522,151.5488 C91.651,225.2998 58.992,292.7528 35.742,363.8278 C19.324,414.0148 9.165,461.2038 -5.68434189e-14,509.4698 L0.815,509.4698 C9.967,461.2828 20.116,414.1668 36.502,364.0758 C59.731,293.0668 92.363,225.6708 139.197,151.9778" id="Fill-295" fill="#6CB2E2" mask="url(#mask-178)"></path>
            </g>
            <path d="M298.7761,147.011 C328.4401,100.328 368.7321,54.674 411.3891,6.339 C413.2491,4.23 415.1161,2.115 416.9811,0 L415.9141,0 C414.2051,1.938 412.4941,3.877 410.7891,5.809 C368.1101,54.169 327.7981,99.846 298.1011,146.582 C251.2301,220.333 218.5711,287.785 195.3211,358.86 C178.3401,410.768 168.0541,459.469 158.6401,509.47 L159.4541,509.47 C168.8561,459.547 179.1321,410.92 196.0811,359.109 C219.3101,288.099 251.9421,220.704 298.7761,147.011" id="Fill-298" fill="#6CB2E2"></path>
            <g id="Group-302" transform="translate(144.514200, 0.000000)">
                <mask id="mask-180" fill="white">
                    <use xlink:href="#path-179"></use>
                </mask>
                <g id="Clip-301"></g>
                <path d="M140.506,145.0369 C170.17,98.3549 210.461,52.7009 253.118,4.3659 C254.4,2.9139 255.686,1.4549 256.97,-0.0001 L255.903,-0.0001 C254.775,1.2779 253.645,2.5599 252.519,3.8359 C209.84,52.1949 169.528,97.8719 139.831,144.6079 C92.961,218.3579 60.301,285.8109 37.051,356.8849 C19.848,409.4759 9.516,458.7749 0,509.4699 L0.814,509.4699 C10.317,458.8539 20.639,409.6279 37.812,357.1339 C61.041,286.1249 93.673,218.7299 140.506,145.0369" id="Fill-300" fill="#6CB2E2" mask="url(#mask-180)"></path>
            </g>
            <g id="Group-305" transform="translate(129.829900, 0.000100)">
                <mask id="mask-182" fill="white">
                    <use xlink:href="#path-181"></use>
                </mask>
                <g id="Clip-304"></g>
                <path d="M141.435,140.07 C170.976,93.582 211.057,48.112 253.517,0 L252.45,0 C210.142,47.94 170.226,93.27 140.76,139.641 C93.89,213.391 61.23,280.844 37.98,351.918 C20.215,406.225 9.778,457.021 5.68434189e-14,509.47 L0.813,509.47 C10.579,457.101 21.007,406.376 38.741,352.167 C61.97,281.158 94.602,213.763 141.435,140.07" id="Fill-303" fill="#6CB2E2" mask="url(#mask-182)"></path>
            </g>
            <path d="M257.5095,138.096 C286.6455,92.244 326.0365,47.382 367.8485,0 L366.7815,0 C325.1215,47.211 285.8955,91.934 256.8345,137.667 C209.9645,211.417 177.3045,278.869 154.0545,349.944 C136.0665,404.932 125.5915,456.321 115.7065,509.47 L116.5195,509.47 C126.3925,456.4 136.8585,405.083 154.8155,350.192 C178.0445,279.183 210.6765,211.788 257.5095,138.096" id="Fill-306" fill="#6CB2E2"></path>
            <g id="Group-310" transform="translate(101.029100, 0.000000)">
                <mask id="mask-184" fill="white">
                    <use xlink:href="#path-183"></use>
                </mask>
                <g id="Clip-309"></g>
                <path d="M142.725,133.1287 C170.841,88.8817 208.506,45.5577 248.683,-0.0003 L247.616,-0.0003 C207.593,45.3877 170.09,88.5727 142.05,132.6997 C95.179,206.4507 62.52,273.9037 39.27,344.9777 C20.722,401.6767 10.162,454.5497 2.84217094e-14,509.4697 L0.814,509.4697 C10.962,454.6287 21.515,401.8267 40.03,345.2267 C63.259,274.2167 95.891,206.8217 142.725,133.1287" id="Fill-308" fill="#6CB2E2" mask="url(#mask-184)"></path>
            </g>
            <g id="Group-313" transform="translate(86.540700, 0.000000)">
                <mask id="mask-186" fill="white">
                    <use xlink:href="#path-185"></use>
                </mask>
                <g id="Clip-312"></g>
                <path d="M143.458,129.1599 C170.756,86.1999 207.057,44.1089 245.917,-0.0001 L244.851,-0.0001 C206.145,43.9409 170.004,85.8919 142.783,128.7309 C95.912,202.4819 63.253,269.9349 40.003,341.0089 C21.009,399.0729 10.391,453.1229 2.84217094e-14,509.4699 L0.813,509.4699 C11.191,453.2019 21.801,399.2219 40.763,341.2579 C63.992,270.2479 96.624,202.8529 143.458,129.1599" id="Fill-311" fill="#6CB2E2" mask="url(#mask-186)"></path>
            </g>
            <g id="Group-316" transform="translate(72.420900, 0.000000)">
                <mask id="mask-188" fill="white">
                    <use xlink:href="#path-187"></use>
                </mask>
                <g id="Clip-315"></g>
                <path d="M143.822,127.1848 C170.713,84.8658 206.338,43.3918 244.542,-0.0002 L243.476,-0.0002 C205.427,43.2238 169.96,84.5588 143.147,126.7558 C96.277,200.5068 63.617,267.9588 40.367,339.0338 C21.152,397.7748 10.508,452.4088 2.84217094e-14,509.4698 L0.813,509.4698 C11.308,452.4898 21.944,397.9248 41.128,339.2818 C64.357,268.2728 96.989,200.8778 143.822,127.1848" id="Fill-314" fill="#6CB2E2" mask="url(#mask-188)"></path>
            </g>
            <path d="M202.4875,121.221 C228.1445,80.845 261.7525,41.237 297.9635,0 L296.8995,0 C260.8435,41.071 227.3905,80.54 201.8125,120.792 C154.9425,194.542 122.2825,261.995 99.0325,333.069 C79.1485,393.854 68.4435,450.242 57.5685,509.47 L58.3815,509.47 C69.2425,450.322 79.9415,394.003 99.7935,333.318 C123.0225,262.309 155.6545,194.914 202.4875,121.221" id="Fill-317" fill="#6CB2E2"></path>
            <g id="Group-321" transform="translate(43.085100, 0.000000)">
                <mask id="mask-190" fill="white">
                    <use xlink:href="#path-189"></use>
                </mask>
                <g id="Clip-320"></g>
                <path d="M145.647,117.2508 C170.479,78.1718 202.76,39.8128 237.641,-0.0002 L236.577,-0.0002 C201.853,39.6488 169.724,77.8688 144.972,116.8218 C98.102,190.5718 65.442,258.0248 42.192,329.0988 C21.864,391.2408 11.129,448.7858 0,509.4698 L0.813,509.4698 C11.928,448.8668 22.657,391.3898 42.953,329.3478 C66.182,258.3378 98.814,190.9428 145.647,117.2508" id="Fill-319" fill="#6CB2E2" mask="url(#mask-190)"></path>
            </g>
            <g id="Group-324" transform="translate(28.967800, 0.000100)">
                <mask id="mask-192" fill="white">
                    <use xlink:href="#path-191"></use>
                </mask>
                <g id="Clip-323"></g>
                <path d="M146.009,115.277 C170.43,76.845 202.057,39.108 236.275,0 L235.212,0 C201.15,38.944 169.676,76.541 145.334,114.848 C98.463,188.599 65.804,256.052 42.554,327.126 C22.005,389.941 11.259,448.059 -2.84217094e-14,509.47 L0.813,509.47 C12.058,448.14 22.799,390.089 43.314,327.375 C66.543,256.365 99.175,188.97 146.009,115.277" id="Fill-322" fill="#6CB2E2" mask="url(#mask-192)"></path>
            </g>
            <path d="M58.5266,323.406 C81.7556,252.397 114.3876,185.001 161.2216,111.308 C184.8156,74.177 215.1366,37.696 248.0196,0 L246.9576,0 C214.2296,37.533 184.0596,73.875 160.5466,110.879 C113.6756,184.63 81.0166,252.083 57.7666,323.157 C37.0096,386.607 26.2556,445.262 14.8706,507.362 C14.7416,508.061 14.6126,508.769 14.4836,509.47 L15.2976,509.47 C15.4166,508.817 15.5376,508.158 15.6576,507.506 C27.0376,445.434 37.7876,386.804 58.5266,323.406" id="Fill-325" fill="#6CB2E2"></path>
            <g id="Group-329" transform="translate(1.777000, 0.000000)">
                <mask id="mask-194" fill="white">
                    <use xlink:href="#path-193"></use>
                </mask>
                <g id="Clip-328"></g>
                <path d="M42.234,319.1863 C21.881,381.4053 11.144,439.0163 0,499.7823 L0,504.2183 C0.041,503.9913 0.083,503.7613 0.125,503.5343 C11.506,441.4623 22.255,382.8323 42.994,319.4353 C66.223,248.4253 98.855,181.0303 145.689,107.3373 C168.454,71.5123 197.481,36.2903 229.03,-0.0007 L227.97,-0.0007 C196.577,36.1293 167.698,71.2113 145.014,106.9083 C98.143,180.6593 65.484,248.1123 42.234,319.1863" id="Fill-327" fill="#6CB2E2" mask="url(#mask-194)"></path>
            </g>
            <path d="M30.2556,316.2141 C18.0076,353.6551 9.2436,389.4261 1.7766,425.2201 L1.7766,429.1681 C9.4106,392.1311 18.3486,355.1871 31.0156,316.4631 C54.2446,245.4541 86.8766,178.0591 133.7106,104.3661 C155.8536,69.5191 183.9206,35.2441 214.4706,0.0001 L213.4126,0.0001 C183.0176,35.0831 155.0966,69.2181 133.0356,103.9371 C86.1646,177.6871 53.5056,245.1401 30.2556,316.2141" id="Fill-330" fill="#6CB2E2"></path>
            <g id="Group-334" transform="translate(1.776200, 0.000000)">
                <mask id="mask-196" fill="white">
                    <use xlink:href="#path-195"></use>
                </mask>
                <g id="Clip-333"></g>
                <path d="M14.724,313.2434 C9.159,330.2544 4.332,346.9144 0,363.3954 L0,366.5004 C4.519,349.0894 9.599,331.4834 15.484,313.4924 C38.713,242.4824 71.345,175.0874 118.179,101.3944 C139.699,67.5274 166.815,34.2004 196.368,-0.0006 L195.31,-0.0006 C165.912,34.0414 138.942,67.2284 117.504,100.9654 C70.633,174.7164 37.974,242.1694 14.724,313.2434" id="Fill-332" fill="#6CB2E2" mask="url(#mask-196)"></path>
            </g>
            <g id="Group-337" transform="translate(1.776800, 0.000000)">
                <mask id="mask-198" fill="white">
                    <use xlink:href="#path-197"></use>
                </mask>
                <g id="Clip-336"></g>
                <path d="M0.968,308.2757 C0.64,309.2797 0.323,310.2777 6.66133815e-15,311.2797 L6.66133815e-15,313.8907 C0.571,312.1037 1.141,310.3177 1.728,308.5247 C24.957,237.5157 57.589,170.1207 104.423,96.4277 C124.9,64.2027 150.443,32.4657 178.332,-0.0003 L177.277,-0.0003 C149.542,32.3077 124.142,63.9047 103.748,95.9997 C56.877,169.7497 24.218,237.2017 0.968,308.2757" id="Fill-335" fill="#6CB2E2" mask="url(#mask-198)"></path>
            </g>
            <g id="Group-340" transform="translate(1.776600, 0.000000)">
                <mask id="mask-200" fill="white">
                    <use xlink:href="#path-199"></use>
                </mask>
                <g id="Clip-339"></g>
                <path d="M-8.8817842e-16,270.1013 L-8.8817842e-16,272.3543 C22.128,213.5873 51.405,156.2323 90.667,94.4533 C110.729,62.8813 135.656,31.7783 162.884,-0.0007 L161.831,-0.0007 C134.756,31.6213 109.971,62.5833 89.993,94.0233 C51.139,155.1603 22.058,211.9703 -8.8817842e-16,270.1013" id="Fill-338" fill="#6CB2E2" mask="url(#mask-200)"></path>
            </g>
            <path d="M1.7766,230.1702 L1.7766,232.1992 C21.9266,185.1322 47.0666,138.2462 78.6886,88.4892 C97.4936,58.8942 120.5736,29.7122 145.8166,0.0002 L144.7656,0.0002 C119.6756,29.5572 96.7346,58.5982 78.0136,88.0602 C46.7516,137.2502 21.8186,183.6392 1.7766,230.1702" id="Fill-341" fill="#6CB2E2"></path>
            <path d="M1.7766,195.8992 L1.7766,197.7592 C19.3226,160.7972 40.1336,123.5412 64.9326,84.5192 C82.9006,56.2432 104.7706,28.3452 128.6996,0.0002 L127.6516,0.0002 C103.8736,28.1902 82.1396,55.9482 64.2576,84.0892 C39.7796,122.6062 19.1846,159.4052 1.7766,195.8992" id="Fill-343" fill="#6CB2E2"></path>
            <g id="Group-347" transform="translate(1.776600, 0.000000)">
                <mask id="mask-202" fill="white">
                    <use xlink:href="#path-201"></use>
                </mask>
                <g id="Clip-346"></g>
                <path d="M-8.8817842e-16,165.3247 L-8.8817842e-16,167.0677 C14.428,139.1407 30.783,110.8437 49.401,81.5477 C66.74,54.2607 87.714,27.3247 110.665,-0.0003 L109.621,-0.0003 C86.819,27.1707 65.979,53.9667 48.726,81.1197 C30.401,109.9537 14.266,137.8227 -8.8817842e-16,165.3247" id="Fill-345" fill="#6CB2E2" mask="url(#mask-202)"></path>
            </g>
            <g id="Group-350" transform="translate(1.776600, 0.000000)">
                <mask id="mask-204" fill="white">
                    <use xlink:href="#path-203"></use>
                </mask>
                <g id="Clip-349"></g>
                <path d="M-8.8817842e-16,136.7566 L-8.8817842e-16,138.4016 C10.869,118.7996 22.71,98.9296 35.646,78.5756 C52.356,52.2786 72.439,26.3076 94.417,-0.0004 L93.376,-0.0004 C71.546,26.1546 51.595,51.9856 34.971,78.1466 C22.303,98.0796 10.684,117.5486 -8.8817842e-16,136.7566" id="Fill-348" fill="#6CB2E2" mask="url(#mask-204)"></path>
            </g>
            <g id="Group-353" transform="translate(1.776600, 0.000000)">
                <mask id="mask-206" fill="white">
                    <use xlink:href="#path-205"></use>
                </mask>
                <g id="Clip-352"></g>
                <path d="M-8.8817842e-16,108.8054 L-8.8817842e-16,110.3844 C6.935,98.5964 14.211,86.6894 21.89,74.6054 C37.759,49.6324 56.672,24.9524 77.359,-0.0006 L76.318,-0.0006 C55.778,24.8004 36.998,49.3394 21.215,74.1764 C13.786,85.8674 6.733,97.3924 -8.8817842e-16,108.8054" id="Fill-351" fill="#6CB2E2" mask="url(#mask-206)"></path>
            </g>
            <path d="M1.7766,84.097 L1.7766,85.613 C4.4426,81.305 7.1466,76.982 9.9116,72.632 C25.3616,48.317 43.6996,24.281 63.7496,0 L62.7126,0 C42.8086,24.129 24.5996,48.025 9.2366,72.203 C6.7046,76.187 4.2256,80.148 1.7766,84.097" id="Fill-354" fill="#6CB2E2"></path>
            <g id="Group-358" transform="translate(1.776600, 0.000000)">
                <mask id="mask-208" fill="white">
                    <use xlink:href="#path-207"></use>
                </mask>
                <g id="Clip-357"></g>
                <path d="M-8.8817842e-16,58.0244 C12.886,38.6334 27.527,19.3814 43.324,-0.0006 L42.291,-0.0006 C26.903,18.9014 12.63,37.6854 -8.8817842e-16,56.6014 L-8.8817842e-16,58.0244 Z" id="Fill-356" fill="#6CB2E2" mask="url(#mask-208)"></path>
            </g>
            <g id="Group-361" transform="translate(1.776600, 0.000000)">
                <mask id="mask-210" fill="white">
                    <use xlink:href="#path-209"></use>
                </mask>
                <g id="Clip-360"></g>
                <path d="M-8.8817842e-16,36.3004 C8.769,24.2034 18.123,12.1244 27.96,-0.0006 L26.932,-0.0006 C17.477,11.6674 8.47,23.2934 -8.8817842e-16,34.9364 L-8.8817842e-16,36.3004 Z" id="Fill-359" fill="#6CB2E2" mask="url(#mask-210)"></path>
            </g>
            <g id="Group-364" transform="translate(1.776600, 0.000000)">
                <mask id="mask-212" fill="white">
                    <use xlink:href="#path-211"></use>
                </mask>
                <g id="Clip-363"></g>
                <path d="M0,12.9556 C3.335,8.6396 6.737,4.3226 10.201,-0.0004 L9.177,-0.0004 C6.065,3.8876 3.008,7.7716 0,11.6536 L0,12.9556 Z" id="Fill-362" fill="#6CB2E2" mask="url(#mask-212)"></path>
            </g>
            <path d="M0.8131,509.47 L1.7761,509.47 L1.7761,504.219 C1.4561,505.964 1.1351,507.717 0.8131,509.47" id="Fill-365" fill="#6CB2E2"></path>
            <path d="M1.115,503.3899 C0.745,505.4079 0.372,507.4399 0,509.4699 L0.813,509.4699 C1.135,507.7169 1.456,505.9639 1.777,504.2189 L1.777,499.7829 C1.556,500.9839 1.336,502.1849 1.115,503.3899" id="Fill-367" fill="#6CB2E2"></path>
        </g>
    </g>
</svg>