<?xml version="1.0" encoding="UTF-8"?>
<svg width="30px" height="30px" viewBox="0 0 30 30" version="1.1" xmlns="http://www.w3.org/2000/svg" xmlns:xlink="http://www.w3.org/1999/xlink">
    <title>Atoms/2.Icons/General/24px/Link</title>
    <g id="Right-Column-Components" stroke="none" stroke-width="1" fill="none" fill-rule="evenodd">
        <g id="Right-Column-Components-Update" transform="translate(-936.000000, -3150.000000)" fill="#333333" fill-rule="nonzero">
            <g id="Group" transform="translate(935.000000, 3149.000000)">
                <g id="link" transform="translate(1.333333, 1.333333)">
                    <path d="M17.656,11.6773333 C17.0026667,11.024 16.2533333,10.5066667 15.444,10.1186667 C14.944,10.6213333 14.6666667,11.2906667 14.6666667,12 C14.6666667,12.284 14.72,12.5533333 14.8026667,12.8106667 C15.148,13.0253333 15.476,13.268 15.7706667,13.5626667 C16.7773333,14.5706667 17.3333333,15.9093333 17.3333333,17.3333333 C17.3333333,18.7573333 16.7786667,20.0973333 15.772,21.1053333 L11.772,25.104 C9.756,27.12 6.244,27.12 4.22933333,25.104 C3.22133333,24.096 2.66666667,22.7573333 2.66666667,21.3333333 C2.66666667,19.9093333 3.22133333,18.5706667 4.228,17.5626667 L7.03333333,14.7573333 C6.79733333,13.868 6.66666667,12.9453333 6.66666667,12 C6.66666667,11.784 6.684,11.5693333 6.69733333,11.356 C6.57866667,11.4613333 6.45733333,11.564 6.34266667,11.6773333 L2.34266667,15.6773333 C0.832,17.188 0,19.196 0,21.3333333 C0,23.4706667 0.832,25.4786667 2.34266667,26.9893333 C3.85466667,28.5013333 5.86266667,29.3333333 8,29.3333333 C10.1373333,29.3333333 12.1453333,28.5013333 13.6573333,26.9893333 L17.6573333,22.9906667 C19.1666667,21.4786667 20,19.4706667 20,17.3333333 C20,15.196 19.1666667,13.188 17.656,11.6773333 Z" id="Path"></path>
                    <path d="M26.9906667,2.344 C25.4786667,0.832 23.4706667,0 21.3333333,0 C19.196,0 17.188,0.832 15.676,2.344 L11.676,6.34266667 C10.1666667,7.85466667 9.33333333,9.86266667 9.33333333,12 C9.33333333,14.1373333 10.1653333,16.1453333 11.676,17.656 C12.3293333,18.3093333 13.0786667,18.8266667 13.888,19.2146667 C14.3893333,18.712 14.6666667,18.0426667 14.6666667,17.3333333 C14.6666667,17.0426667 14.612,16.7666667 14.5253333,16.504 C14.1813333,16.2973333 13.8546667,16.0613333 13.564,15.7706667 C12.556,14.7626667 12,13.424 12,12 C12,10.576 12.5546667,9.236 13.5613333,8.228 L17.5613333,4.22933333 C18.5693333,3.22133333 19.9093333,2.66666667 21.3333333,2.66666667 C22.7573333,2.66666667 24.0973333,3.22133333 25.1053333,4.22933333 C26.112,5.23733333 26.6666667,6.576 26.6666667,8 C26.6666667,9.424 26.112,10.7626667 25.1053333,11.7706667 L22.296,14.58 C22.5333333,15.468 22.6666667,16.3893333 22.6666667,17.3333333 C22.6666667,17.5493333 22.6506667,17.7626667 22.6386667,17.976 C22.7573333,17.8706667 22.8786667,17.7693333 22.992,17.656 L26.992,13.656 C28.5013333,12.1453333 29.3333333,10.1373333 29.3333333,8 C29.3333333,5.86266667 28.5013333,3.85466667 26.9906667,2.344 Z" id="Path"></path>
                </g>
            </g>
        </g>
    </g>
</svg>