<?xml version="1.0" encoding="UTF-8"?>
<svg width="24px" height="32px" viewBox="0 0 24 32" version="1.1" xmlns="http://www.w3.org/2000/svg" xmlns:xlink="http://www.w3.org/1999/xlink">
    <title>Atoms/2.Icons/General/24px/Location</title>
    <g id="Right-Column-Components" stroke="none" stroke-width="1" fill="none" fill-rule="evenodd">
        <g id="Right-Column-Components-Update" transform="translate(-939.000000, -2875.000000)" fill="#333333">
            <g id="Atoms/2.Icons/General/24px/Location" transform="translate(935.000000, 2875.000000)">
                <path d="M15.9999999,-9.59232693e-14 C22.627417,-9.59232693e-14 27.9999999,5.37258292 27.9999999,12 C27.9999999,19.5114352 18.9049134,29.1026137 16.5508911,31.4592393 L16.3751093,31.6342795 C16.1345328,31.8725077 15.9999999,32 15.9999999,32 C15.9999999,32 15.8654671,31.8725077 15.6248906,31.6342795 L15.4491088,31.4592393 C13.0950865,29.1026137 3.99999995,19.5114352 3.99999995,12 C3.99999995,5.37258292 9.37258304,-9.59232693e-14 15.9999999,-9.59232693e-14 Z M16,1.99999983 C10.4771525,1.99999983 5.99999996,6.47715235 5.99999996,11.9999998 C5.99999996,13.7239999 6.60799996,15.7339999 7.66799997,17.8799999 C8.71599997,20.0039999 10.136,22.1199999 11.588,24.0199999 C12.9653685,25.8112614 14.4381661,27.5270773 16,29.1599999 C17.5617995,27.5270461 19.0345955,25.8112321 20.412,24.0199999 C21.864,22.1199999 23.284,20.0039999 24.332,17.8799999 C25.39,15.7339999 26,13.7239999 26,11.9999998 C26,6.47715235 21.5228475,1.99999983 16,1.99999983 Z M16,5.99999985 C19.3137085,5.99999985 22,8.68629136 22,11.9999998 C22,15.3137084 19.3137085,17.9999998 16,17.9999998 C12.6862915,17.9999998 9.99999997,15.3137084 9.99999997,11.9999998 C9.99999997,8.68629136 12.6862915,5.99999985 16,5.99999985 Z M16,7.99999985 C13.790861,7.99999985 12,9.79086086 12,11.9999999 C12,14.2091389 13.790861,15.9999999 16,15.9999999 C18.209139,15.9999999 20,14.2091389 20,11.9999999 C20,9.79086086 18.209139,7.99999985 16,7.99999985 Z" id="Combined-Shape"></path>
            </g>
        </g>
    </g>
</svg>