<?xml version="1.0" standalone="no"?>
<!DOCTYPE svg PUBLIC "-//W3C//DTD SVG 20010904//EN"
 "http://www.w3.org/TR/2001/REC-SVG-20010904/DTD/svg10.dtd">
<svg version="1.0" xmlns="http://www.w3.org/2000/svg"
 width="844.000000pt" height="844.000000pt" viewBox="0 0 844.000000 844.000000"
 preserveAspectRatio="xMidYMid meet">
<metadata>
Created by potrace 1.14, written by Peter Selinger 2001-2017
</metadata>
<g transform="translate(0.000000,844.000000) scale(0.100000,-0.100000)"
fill="#000000" stroke="none">
<path d="M4069 8425 c-25 -14 -26 -16 -27 -122 l0 -107 -39 -36 c-21 -19 -112
-127 -203 -240 -90 -113 -167 -207 -171 -210 -3 -3 -18 -22 -32 -43 -26 -39
-26 -62 0 -82 13 -10 -9 -42 -95 -140 -15 -16 -49 -57 -77 -90 -27 -33 -59
-69 -71 -81 -15 -15 -19 -25 -13 -37 7 -11 -3 -30 -39 -72 l-47 -57 -165 -54
c-91 -30 -184 -64 -207 -75 -24 -10 -45 -19 -48 -19 -11 0 -306 -140 -315
-150 -3 -3 -34 -20 -70 -39 -93 -49 -360 -227 -461 -307 -250 -200 -484 -437
-649 -659 -25 -33 -48 -61 -52 -63 -5 -2 -8 -10 -8 -17 0 -7 -3 -15 -7 -17
-21 -9 -232 -347 -247 -396 -4 -12 -12 -22 -17 -22 -5 0 -9 -5 -9 -10 0 -6
-22 -57 -49 -113 -52 -107 -149 -343 -154 -374 -1 -10 -6 -24 -10 -30 -5 -7
-10 -21 -12 -30 -2 -10 -13 -46 -24 -80 -11 -34 -23 -79 -27 -100 -4 -21 -9
-42 -13 -48 -3 -5 -6 -12 -6 -15 -1 -6 -18 -92 -20 -100 -1 -3 -5 -21 -10 -40
-5 -19 -9 -42 -10 -50 -1 -8 -4 -28 -8 -45 -13 -61 -29 -181 -44 -325 -15
-147 -8 -649 11 -746 2 -11 7 -46 10 -77 4 -31 15 -101 25 -154 11 -54 22
-109 24 -123 3 -14 10 -45 17 -70 7 -25 13 -52 15 -60 14 -72 88 -299 145
-440 39 -100 186 -409 199 -420 3 -3 17 -25 30 -50 48 -91 267 -412 301 -440
3 -3 21 -25 40 -50 77 -99 296 -324 410 -420 35 -30 71 -61 78 -68 31 -28 183
-142 257 -193 44 -30 82 -57 83 -61 2 -5 7 -8 11 -8 5 0 50 -25 102 -57 269
-162 577 -294 884 -378 130 -36 304 -75 360 -81 17 -1 42 -5 56 -8 97 -21 201
-25 589 -22 239 2 449 6 465 9 429 68 771 176 1125 353 294 148 464 261 749
499 112 93 305 288 401 405 25 30 47 57 51 60 14 11 165 220 215 297 231 355
403 759 498 1173 19 85 38 178 41 205 4 28 8 57 10 65 29 117 29 965 -1 1085
-2 11 -7 36 -9 55 -16 124 -71 348 -127 517 -23 70 -43 133 -44 138 -21 83
-202 458 -292 605 -12 19 -25 42 -29 50 -3 8 -9 17 -12 20 -3 3 -32 43 -63 90
-81 121 -118 174 -126 180 -4 3 -26 30 -48 60 -108 145 -388 425 -569 569 -71
56 -138 109 -147 116 -9 8 -30 21 -47 29 -16 9 -35 21 -43 28 -14 14 -59 45
-93 64 -11 6 -51 31 -90 54 -72 45 -319 172 -390 202 -166 69 -375 145 -420
154 -5 1 -37 10 -69 19 -51 15 -70 28 -142 102 -46 46 -84 91 -84 99 0 9 -48
64 -106 123 -58 60 -112 121 -120 137 -8 16 -19 31 -23 34 -5 3 -36 29 -69 59
-50 45 -59 57 -51 72 7 14 2 26 -23 56 -30 34 -205 218 -270 285 -23 22 -27
34 -23 60 7 48 -6 61 -67 67 -5 1 -8 50 -8 109 0 107 0 109 -25 120 -34 16
-84 14 -116 -3z m88 -125 c-1 -62 -5 -90 -13 -90 -15 0 -16 149 -2 168 6 6 12
12 13 12 2 0 3 -40 2 -90z m57 -143 c36 -4 30 -27 -7 -27 -56 0 -97 11 -97 27
0 12 9 13 43 8 23 -4 51 -7 61 -8z m-27 -92 c24 -4 60 -36 165 -146 73 -77
135 -144 136 -150 3 -8 -66 27 -78 41 -3 3 -19 14 -35 26 l-30 21 -18 -23
c-31 -41 -100 -24 -185 46 l-33 27 -29 -28 c-28 -28 -82 -40 -94 -21 -2 4 18
56 47 115 l51 106 35 -5 c20 -2 50 -7 68 -9z m-207 -105 c-49 -98 -65 -115
-76 -85 -4 11 -20 -3 -54 -47 -75 -99 -150 -178 -171 -178 -10 0 -19 3 -19 6
0 6 64 90 80 104 3 3 27 32 55 65 27 33 54 65 60 71 5 6 28 32 50 59 33 40
108 105 122 105 2 0 -19 -45 -47 -100z m174 -176 l66 -36 76 -236 c41 -130 79
-246 84 -257 9 -20 22 -60 26 -80 1 -5 16 -50 32 -100 17 -49 76 -232 132
-405 56 -173 115 -355 132 -405 16 -49 31 -94 32 -100 2 -5 6 -17 9 -25 3 -8
14 -43 24 -77 l20 -61 -21 5 c-12 3 -54 6 -95 7 l-74 1 -34 100 c-18 55 -35
109 -38 120 -2 11 -16 52 -30 90 -13 39 -25 71 -25 72 -1 4 -6 19 -40 125 -17
54 -31 99 -30 100 1 2 -10 35 -23 73 -14 39 -71 212 -127 385 -56 173 -126
389 -155 478 -30 90 -51 171 -48 180 9 30 34 82 38 82 2 0 34 -16 69 -36z
m-144 -1 c-5 -10 -26 -58 -46 -108 -44 -110 -122 -301 -137 -335 -6 -14 -11
-27 -12 -30 -4 -12 -18 -48 -30 -75 -60 -142 -210 -507 -237 -575 -5 -14 -8
-25 -6 -26 2 0 -2 -7 -8 -15 -7 -8 -30 -61 -53 -119 -23 -58 -48 -118 -55
-135 -7 -16 -24 -56 -36 -87 -13 -32 -30 -58 -37 -58 -7 0 -13 2 -13 5 0 7 60
158 68 170 4 5 7 15 8 20 2 9 52 131 74 180 5 11 21 49 36 85 14 36 34 83 43
105 10 22 24 56 31 75 7 19 17 39 22 45 4 5 8 15 8 22 0 7 12 38 26 70 14 32
30 67 34 78 9 24 20 50 54 128 14 32 26 60 26 62 0 7 197 483 212 513 6 12 17
22 25 22 10 0 11 -5 3 -17z m-152 -50 c-108 -150 -143 -199 -148 -203 -3 -3
-17 -21 -30 -40 -14 -19 -28 -39 -33 -45 -4 -5 -105 -143 -223 -305 -118 -162
-220 -302 -227 -310 -7 -8 -73 -98 -147 -200 -74 -102 -138 -186 -142 -188 -4
-2 -8 -8 -8 -13 0 -5 -7 -17 -15 -26 -16 -19 -111 -148 -135 -183 -15 -22 -49
-67 -93 -124 -12 -16 -35 -49 -52 -72 -16 -24 -122 -169 -235 -323 l-205 -280
-27 26 -27 26 19 26 c11 14 51 64 90 111 38 47 70 90 70 97 0 9 82 118 100
133 18 15 110 143 110 154 0 7 8 21 18 32 9 10 39 46 65 79 26 33 62 78 80 99
53 65 56 70 57 89 0 9 4 17 9 17 5 0 12 8 15 18 3 9 16 28 28 42 40 44 124
154 152 199 15 23 70 97 122 164 52 66 94 125 94 131 0 6 12 25 28 41 48 52
172 212 172 222 0 5 8 18 18 29 9 10 55 66 102 124 46 58 90 109 97 113 8 5
11 12 8 18 -4 5 2 20 13 34 26 32 111 133 142 166 14 15 32 36 40 46 78 95
105 123 118 123 9 0 3 -15 -20 -47z m601 -18 c42 -15 44 -15 61 -15 13 0 140
-131 140 -144 0 -11 36 -53 149 -172 32 -34 62 -70 65 -81 3 -10 51 -66 106
-123 55 -57 100 -109 100 -115 0 -7 49 -63 110 -126 60 -63 112 -122 115 -131
3 -9 51 -63 106 -120 55 -57 111 -119 124 -138 12 -19 66 -80 118 -135 53 -55
96 -106 97 -112 0 -7 29 -43 64 -80 121 -129 156 -168 156 -178 0 -5 26 -38
58 -71 123 -132 142 -153 142 -159 0 -3 -12 -10 -27 -16 -24 -9 -30 -7 -46 13
-11 13 -47 54 -81 92 -33 38 -68 77 -77 88 -9 10 -45 50 -79 88 -34 38 -71 80
-82 92 -11 13 -34 39 -51 58 -18 19 -61 69 -97 110 -36 41 -67 77 -70 80 -3 3
-36 41 -75 85 -38 43 -77 87 -85 95 -8 9 -44 50 -80 90 -64 73 -132 150 -194
220 -17 19 -51 57 -75 85 -24 27 -73 82 -108 121 -35 40 -73 83 -84 95 -10 13
-32 38 -47 54 -15 17 -54 61 -87 99 -33 38 -71 81 -85 96 -14 15 -48 54 -77
87 -48 55 -71 81 -139 156 -29 31 -23 33 35 12z m1 -185 c41 -46 86 -96 101
-112 29 -32 23 -15 129 -348 45 -140 90 -280 100 -310 10 -30 58 -176 105
-325 48 -148 96 -297 107 -330 11 -33 21 -68 23 -77 2 -9 8 -26 14 -37 17 -31
14 -33 -31 -25 -48 8 -101 7 -128 -1 -21 -7 -17 -17 -155 410 -59 182 -122
375 -140 430 -43 129 -156 477 -159 490 -2 6 -6 17 -9 25 -4 12 -72 219 -123
377 -6 19 48 -35 166 -167z m-611 84 c-7 -16 -18 -42 -25 -59 -7 -16 -33 -82
-59 -145 -26 -63 -53 -128 -61 -145 -7 -16 -22 -55 -34 -85 -11 -30 -27 -68
-35 -85 -15 -34 -180 -439 -191 -470 -4 -11 -15 -38 -24 -60 -10 -22 -43 -103
-75 -179 -72 -177 -69 -172 -110 -186 -38 -13 -75 -51 -94 -99 -8 -19 -21 -31
-32 -31 -11 0 -22 -1 -26 -2 -5 -1 -23 -5 -40 -9 -18 -4 -33 -5 -33 -3 0 2 58
119 129 261 70 142 182 366 247 498 65 132 123 243 129 247 5 4 7 8 3 8 -7 0
178 371 190 380 4 3 25 30 47 60 22 30 45 61 52 68 7 7 20 26 30 42 21 36 28
33 12 -6z m205 -107 c22 -67 59 -180 82 -252 156 -481 236 -729 254 -790 12
-38 25 -79 30 -90 7 -16 21 -60 45 -140 1 -5 4 -14 6 -20 20 -55 56 -171 54
-173 -2 -2 -14 2 -27 9 -13 8 -57 13 -103 14 l-79 0 -12 35 c-6 19 -21 64 -34
100 -12 36 -23 72 -25 80 -4 17 -98 311 -120 375 -7 22 -50 155 -95 295 -45
140 -94 290 -107 333 l-26 78 53 134 c29 74 56 135 59 135 3 0 24 -55 45 -123z
m-138 -372 c20 -66 50 -160 66 -210 16 -49 31 -97 33 -105 2 -8 18 -59 35
-112 17 -54 33 -106 35 -115 2 -10 15 -49 28 -88 13 -38 25 -73 26 -77 1 -4 3
-13 6 -20 11 -36 87 -285 91 -300 6 -21 1 -22 -49 -4 -36 12 -83 13 -134 1
-16 -4 -23 1 -28 17 -4 13 -52 163 -108 333 -55 171 -102 315 -103 320 -1 6
-16 52 -34 104 -17 52 -32 102 -33 111 -1 15 58 172 73 195 4 6 15 32 25 60
21 58 17 64 71 -110z m914 -24 c30 -35 73 -84 95 -109 22 -25 45 -52 51 -61
10 -14 94 -268 98 -296 1 -5 4 -14 7 -20 4 -5 21 -57 38 -115 18 -58 36 -116
41 -130 5 -14 39 -119 75 -235 37 -115 68 -216 70 -223 3 -9 -3 -10 -23 -5
-28 8 -117 9 -141 2 -15 -4 -18 6 -166 466 -48 149 -95 295 -105 325 -10 30
-53 163 -95 295 -43 132 -79 245 -82 250 -6 13 68 -65 137 -144z m-1520 -338
c-103 -208 -243 -490 -310 -628 -68 -137 -125 -252 -127 -254 -1 -2 -17 -5
-35 -6 -18 -2 -51 -10 -72 -19 -22 -9 -41 -15 -43 -12 -2 2 75 158 171 347 97
189 184 362 194 384 15 33 133 200 264 375 28 37 100 134 122 164 10 14 20 26
21 26 2 0 -81 -170 -185 -377z m439 30 c18 -60 47 -155 66 -213 36 -115 98
-312 100 -320 1 -3 5 -18 9 -35 4 -16 11 -38 17 -47 15 -30 11 -51 -8 -43 -49
20 -89 26 -138 21 l-53 -6 -15 47 c-8 27 -36 116 -62 198 -25 83 -49 157 -52
165 -3 8 -5 20 -4 27 1 6 -3 14 -8 18 -10 6 -8 15 21 83 6 15 12 32 14 39 1 7
13 36 27 65 14 30 29 66 32 81 4 15 10 27 14 27 4 0 22 -48 40 -107z m1642 82
c24 -8 53 -19 64 -24 11 -5 63 -26 115 -47 267 -108 567 -285 825 -488 230
-181 485 -449 647 -679 32 -45 67 -93 78 -107 11 -14 20 -30 20 -37 0 -6 4
-13 8 -15 26 -11 208 -350 280 -523 44 -104 116 -300 127 -345 3 -8 14 -51 26
-95 11 -44 22 -87 24 -95 2 -8 8 -33 14 -55 18 -70 55 -296 67 -415 24 -243
20 -574 -10 -780 -4 -25 -11 -79 -17 -120 -6 -41 -13 -84 -16 -95 -2 -11 -6
-33 -9 -50 -21 -123 -126 -477 -170 -572 -7 -17 -14 -34 -14 -37 0 -4 -13 -35
-29 -69 -36 -78 -58 -129 -59 -141 0 -5 -4 -12 -9 -15 -4 -3 -21 -32 -37 -64
-63 -126 -265 -453 -295 -477 -3 -3 -19 -23 -36 -45 -16 -22 -32 -42 -35 -45
-3 -3 -21 -25 -40 -50 -67 -86 -271 -298 -375 -390 -118 -104 -448 -350 -470
-350 -3 0 -26 -14 -50 -30 -173 -119 -667 -329 -880 -376 -5 -1 -30 -7 -55
-14 -25 -7 -56 -14 -70 -17 -14 -2 -41 -8 -60 -13 -34 -9 -55 -13 -135 -26
-22 -3 -47 -8 -55 -9 -8 -2 -40 -6 -70 -10 -30 -3 -68 -8 -85 -10 -170 -23
-643 -23 -763 0 -9 1 -39 6 -67 9 -61 8 -161 24 -195 31 -14 3 -38 8 -55 11
-45 7 -278 66 -305 77 -8 3 -64 22 -125 42 -60 20 -123 42 -140 49 -16 8 -59
26 -95 41 -223 95 -491 246 -670 379 -55 41 -191 146 -200 156 -3 3 -25 22
-50 44 -131 113 -308 299 -435 456 -75 93 -265 370 -265 385 0 5 -6 16 -14 24
-57 64 -290 592 -321 728 -2 10 -16 59 -30 108 -23 80 -66 279 -79 360 -2 17
-7 49 -11 72 -19 122 -29 283 -29 483 0 223 14 432 38 542 3 13 8 40 11 61 3
21 14 79 26 130 11 51 22 100 24 109 60 270 225 670 392 946 63 103 196 297
239 349 11 12 41 50 69 85 53 68 328 346 410 417 94 80 310 238 420 306 194
121 537 287 684 330 23 7 9 -15 -84 -130 -6 -7 -64 -37 -130 -66 -113 -50
-338 -169 -397 -210 -14 -11 -31 -19 -36 -19 -6 0 -12 -3 -14 -7 -1 -5 -30
-26 -63 -47 -251 -164 -507 -398 -742 -678 -37 -45 -176 -239 -220 -308 -88
-137 -201 -350 -253 -475 -4 -11 -17 -40 -28 -65 -19 -43 -120 -338 -127 -370
-2 -8 -15 -64 -29 -124 -14 -59 -28 -122 -31 -140 -3 -17 -10 -56 -15 -86 -5
-30 -12 -77 -15 -105 -4 -27 -8 -61 -11 -75 -23 -133 -22 -570 2 -748 3 -20 7
-54 9 -75 6 -50 22 -146 41 -232 8 -38 16 -79 18 -90 6 -30 26 -106 35 -135
11 -30 44 -141 47 -155 6 -24 66 -178 107 -275 126 -293 290 -558 512 -829 93
-113 271 -291 421 -421 47 -41 254 -192 329 -241 373 -242 828 -420 1260 -493
17 -3 44 -7 60 -10 55 -10 179 -23 295 -31 95 -7 357 -8 430 -1 30 3 84 8 120
11 108 9 180 19 295 42 110 21 110 21 110 23 0 1 9 3 20 4 86 11 400 112 560
181 121 51 328 156 333 168 2 4 9 7 15 7 13 0 194 114 292 184 266 190 611
531 765 756 13 19 27 37 30 40 6 6 101 148 116 175 6 11 35 61 64 110 58 100
157 302 185 380 10 28 21 55 25 60 15 23 106 304 125 390 2 6 8 28 13 50 6 22
14 56 17 75 9 45 13 65 15 65 1 0 3 14 5 30 2 17 9 59 14 95 30 190 36 274 36
525 -1 237 -13 403 -40 545 -3 13 -7 40 -10 60 -9 62 -53 245 -76 321 -13 41
-23 76 -24 79 -3 14 -19 62 -42 125 -137 382 -352 752 -612 1055 -82 96 -275
289 -371 371 -92 79 -305 239 -319 239 -5 0 -11 3 -13 8 -3 7 -123 84 -193
124 -64 36 -333 166 -390 188 -67 26 -117 66 -113 91 2 9 -12 30 -31 48 -37
35 -33 38 30 16z m-272 -106 c14 -17 36 -43 50 -59 14 -15 46 -51 71 -80 25
-29 62 -71 83 -94 33 -36 67 -87 67 -101 1 -3 2 -10 5 -17 2 -7 20 -65 40
-128 20 -63 39 -122 42 -130 3 -8 7 -19 8 -25 2 -5 17 -54 35 -109 18 -54 33
-104 34 -112 1 -7 5 -17 9 -20 4 -4 7 -16 7 -26 0 -15 -4 -17 -18 -9 -10 5
-51 9 -90 8 -85 -3 -72 -20 -140 193 -139 436 -215 669 -228 703 -17 45 -7 47
25 6z m-2240 -181 c-10 -19 -90 -121 -109 -138 -28 -26 -101 -122 -97 -127 6
-5 -26 -50 -70 -98 -10 -11 -34 -40 -54 -65 -20 -25 -51 -61 -68 -80 -21 -24
-30 -42 -26 -57 3 -12 2 -23 -3 -25 -4 -2 -28 -28 -52 -58 -25 -30 -52 -62
-60 -70 -36 -35 -115 -141 -115 -154 0 -11 -49 -78 -90 -122 -33 -36 -112
-130 -125 -147 -39 -57 5 -148 80 -162 45 -9 60 -17 61 -33 1 -9 3 -30 4 -47
1 -16 3 -35 4 -42 0 -7 21 -13 49 -15 39 -2 47 -6 48 -23 3 -52 2 -52 57 -51
l52 1 3 -1053 c2 -1000 1 -1053 -15 -1048 -19 6 -131 35 -160 41 -10 2 -49 11
-88 19 -38 9 -97 23 -130 32 -33 9 -64 17 -70 18 -5 2 -30 8 -55 15 -25 7 -52
14 -60 16 -8 2 -35 8 -60 15 -150 41 -240 31 -411 -44 -56 -25 -105 -44 -108
-42 -3 2 -33 7 -66 10 -33 4 -71 9 -85 11 -14 3 -38 7 -54 9 -16 3 -30 6 -31
8 -5 5 -16 92 -31 233 -15 151 -9 549 11 677 2 13 6 44 9 69 4 25 9 57 11 70
2 13 6 41 9 63 4 21 8 42 11 46 3 4 7 23 9 42 14 110 111 425 177 575 11 24
19 46 19 49 0 9 142 290 168 334 12 19 29 49 38 65 29 52 137 210 146 213 4 2
8 10 8 17 0 7 3 15 8 17 4 2 27 30 52 63 25 33 50 65 55 71 6 6 37 42 70 80
137 157 335 342 485 454 18 14 39 31 46 38 7 6 15 12 18 12 3 0 36 22 73 48
57 40 122 82 215 137 37 22 294 154 301 154 4 1 2 -9 -4 -21z m2796 -28 c17
-9 68 -36 115 -60 47 -24 87 -47 90 -50 3 -3 21 -14 40 -24 19 -11 61 -37 93
-58 32 -21 60 -38 63 -38 2 0 12 -6 21 -14 10 -8 59 -45 108 -82 222 -166 451
-387 595 -574 19 -25 37 -47 40 -50 3 -3 37 -50 76 -105 390 -549 605 -1218
607 -1885 0 -90 -11 -332 -18 -371 -2 -13 -6 -46 -10 -74 -10 -82 -17 -120
-22 -125 -2 -2 -54 -5 -116 -6 -62 0 -137 -4 -167 -7 -30 -4 -80 -9 -110 -13
-73 -7 -127 -19 -230 -51 -47 -15 -91 -28 -99 -29 -8 -2 -76 21 -150 50 -242
95 -369 129 -476 130 -46 0 -136 -12 -178 -25 -22 -6 -41 -8 -44 -5 -5 4 -8
2117 -4 2258 1 20 5 26 16 22 13 -5 21 15 17 47 -1 4 8 15 18 24 13 12 20 31
20 55 0 23 5 40 14 43 7 3 16 18 19 34 7 31 84 87 109 78 8 -3 30 1 50 10 61
25 111 86 104 128 -1 9 -48 63 -104 122 -56 58 -102 114 -102 123 0 10 -51 69
-114 131 -66 65 -112 120 -109 127 3 8 -43 62 -106 126 -61 62 -111 119 -111
127 0 8 -8 23 -17 34 -17 18 -17 18 12 6 17 -8 44 -21 60 -29z m-2061 -209
c31 -90 56 -167 56 -172 0 -5 -12 -2 -26 8 -19 12 -48 17 -107 17 -108 1 -112
12 -56 144 22 53 41 103 41 110 1 6 5 12 10 12 4 0 8 8 8 18 0 17 10 36 15 30
2 -2 28 -77 59 -167z m-844 -293 c-82 -161 -161 -319 -176 -350 -24 -52 -30
-58 -58 -59 -52 -1 -81 -6 -121 -23 -21 -9 -39 -15 -41 -13 -2 2 21 35 74 102
4 6 32 44 61 85 30 41 58 77 63 78 4 2 8 10 8 18 0 8 5 14 10 14 6 0 10 6 10
14 0 8 4 16 8 18 5 2 46 55 92 118 46 63 90 121 97 128 7 7 13 17 13 21 0 4 8
16 18 27 10 10 32 40 50 67 18 26 35 47 37 47 2 0 -63 -132 -145 -292z m2815
167 c28 -33 59 -70 70 -82 11 -12 25 -28 31 -36 7 -8 26 -30 44 -50 28 -33 84
-167 96 -233 4 -21 2 -21 -33 -9 -35 12 -56 12 -110 0 -32 -7 -30 -12 -123
285 -28 91 -58 183 -66 205 l-15 40 28 -30 c16 -16 51 -57 78 -90z m-2195 -83
c15 -19 17 -28 9 -38 -18 -22 -75 -17 -99 8 -25 27 -25 33 0 51 27 19 66 10
90 -21z m285 -66 c27 -3 53 -12 57 -19 13 -18 1 -80 -19 -94 -20 -15 -20 -16
40 -38 44 -17 79 -44 115 -89 7 -9 26 -17 42 -17 17 -1 33 -2 38 -3 41 -10 73
-17 102 -21 31 -4 316 -53 410 -70 19 -4 46 -8 60 -10 14 -3 77 -14 140 -25
63 -12 129 -23 145 -26 59 -11 481 -83 520 -89 22 -4 47 -8 55 -9 8 -2 33 3
57 10 27 8 87 12 164 11 143 -3 162 5 164 69 0 21 5 39 10 39 33 -1 115 -17
116 -23 5 -47 2 -68 -13 -88 -18 -22 -18 -23 9 -26 25 -3 28 -7 29 -44 1 -41
1 -42 -33 -39 -18 2 -46 6 -61 9 -104 21 -299 28 -363 14 -65 -15 -116 -13
-209 7 -14 3 -40 8 -59 11 -18 3 -43 8 -55 10 -11 3 -37 7 -56 10 -19 2 -48 7
-65 11 -16 3 -39 7 -50 9 -24 3 -189 32 -225 39 -14 3 -40 8 -59 11 -18 3 -43
8 -55 10 -11 3 -32 6 -46 8 -27 3 -201 33 -238 40 -32 7 -254 45 -327 57 -33
6 -71 12 -85 15 -14 3 -35 6 -48 8 -21 3 -51 31 -52 48 0 9 -99 56 -130 62
-14 3 -36 8 -50 11 -119 26 -168 27 -217 3 -65 -33 -122 -92 -135 -144 -12
-42 -19 -49 -117 -111 -57 -37 -153 -99 -212 -137 -319 -208 -314 -206 -350
-201 -64 8 -169 -30 -266 -96 -38 -27 -65 -26 -48 1 7 11 -10 47 -19 43 -29
-13 -79 17 -90 52 -4 14 1 24 15 34 19 11 24 10 43 -13 11 -14 37 -29 56 -34
31 -8 44 -5 105 28 84 46 159 68 200 61 24 -5 44 4 110 46 44 29 89 59 100 68
10 8 22 15 26 15 4 0 64 37 133 83 69 45 166 108 216 140 79 50 90 61 90 86 0
27 40 98 64 113 7 5 6 8 -4 9 -49 3 -77 12 -92 30 -23 27 -23 46 1 59 26 14
31 13 31 -5 0 -28 105 -50 151 -32 13 5 47 9 76 7 66 -2 93 21 93 81 0 22 4
38 8 35 4 -2 30 -7 57 -10z m358 -63 c4 -2 7 -21 7 -42 0 -43 -33 -81 -65 -75
-11 2 -35 6 -54 9 -43 6 -44 7 -23 31 9 10 17 33 17 49 0 17 1 34 3 38 4 8 98
0 115 -10z m265 -45 c18 -1 36 -6 42 -12 14 -18 6 -73 -15 -96 -20 -22 -26
-22 -117 -4 l-27 5 19 22 c13 13 20 35 20 58 0 34 2 37 23 33 12 -2 37 -5 55
-6z m332 -63 c25 -3 25 -76 0 -103 -12 -12 -25 -20 -29 -17 -5 2 -26 7 -47 10
-63 9 -67 12 -45 34 14 14 18 29 15 56 l-3 37 47 -7 c26 -4 54 -8 62 -10z
m-1518 -42 c7 -15 30 -37 51 -49 36 -20 37 -22 22 -38 -22 -21 -36 -20 -76 7
-47 32 -63 66 -42 89 22 24 30 23 45 -9z m2781 14 c7 -7 30 -32 51 -55 22 -23
37 -44 34 -47 -3 -4 -19 -8 -35 -10 -28 -3 -30 -1 -50 61 -21 65 -21 75 0 51z
m-974 -21 c11 11 31 -22 31 -52 0 -42 -30 -75 -62 -68 -13 2 -36 7 -53 10 -39
7 -39 8 -21 36 9 13 14 34 11 47 -7 35 0 39 47 31 24 -5 45 -6 47 -4z m338
-67 c16 -14 6 -81 -15 -97 -11 -9 -31 -11 -61 -7 -68 10 -75 14 -57 34 8 9 16
33 18 54 l2 38 51 -7 c27 -3 55 -10 62 -15z m-1627 -24 c47 -8 96 -24 110 -34
l25 -18 0 -932 c0 -924 0 -932 20 -936 20 -4 33 -6 160 -25 39 -6 81 -12 95
-15 27 -4 86 -13 141 -20 19 -3 45 -7 59 -10 14 -3 43 -8 65 -10 22 -3 51 -7
65 -10 14 -3 43 -7 65 -10 22 -2 49 -6 60 -9 21 -4 77 -12 210 -30 28 -4 57
-9 65 -11 8 -2 35 -7 60 -10 25 -3 86 -12 135 -20 50 -8 110 -17 135 -20 25
-3 56 -7 70 -10 27 -5 39 -7 165 -25 44 -7 89 -14 100 -16 11 -2 41 -7 68 -10
41 -5 47 -4 48 12 1 11 2 424 3 919 l1 900 35 -1 c93 -3 195 -16 201 -25 4 -6
7 -1064 7 -2351 l0 -2340 -112 -53 c-61 -29 -133 -63 -161 -75 -53 -24 -285
-110 -297 -110 -5 0 -8 251 -8 558 l0 558 34 16 c86 42 160 142 189 260 11 44
17 108 17 182 0 100 -2 117 -17 124 -18 9 -121 27 -135 24 -4 -1 -18 2 -32 7
-23 9 -24 14 -25 98 -1 48 -4 166 -5 260 -2 95 0 171 4 168 4 -2 43 -7 86 -10
43 -3 89 -8 101 -10 22 -3 23 -1 18 58 -2 34 -7 73 -10 87 -3 14 -7 34 -9 45
-23 108 -85 244 -161 350 -53 75 -180 196 -245 233 -74 44 -102 56 -184 85
-85 29 -100 31 -236 32 -112 0 -161 -4 -215 -19 -235 -64 -406 -231 -497 -486
-37 -105 -44 -166 -19 -179 22 -12 127 -27 241 -34 l25 -2 0 -278 0 -277 -30
-14 c-16 -8 -46 -21 -65 -29 l-36 -14 3 -169 c1 -93 2 -217 3 -275 2 -105 9
-137 28 -125 5 3 29 8 52 11 22 3 47 6 53 8 9 1 12 -161 12 -698 l0 -700 -25
1 c-106 5 -266 16 -284 20 -11 2 -41 6 -66 9 -66 8 -104 14 -205 33 l-90 17
-3 2698 -2 2697 27 0 c16 0 66 -7 113 -15z m-710 -18 c0 -17 28 -40 68 -56 39
-16 40 -24 6 -40 -22 -10 -32 -8 -67 11 -23 13 -47 34 -54 48 -11 22 -10 27 9
42 23 17 38 15 38 -5z m3292 -2 c-7 -38 -71 -70 -87 -44 -13 20 52 73 80 65 6
-2 9 -11 7 -21z m-643 -11 c3 -3 6 -20 7 -39 2 -37 -29 -80 -51 -71 -8 3 -31
8 -52 12 -51 9 -56 13 -38 30 8 9 15 31 15 50 l0 35 58 -7 c31 -3 59 -8 61
-10z m-2179 -2674 l0 -2650 -25 10 c-14 5 -37 12 -50 14 -14 3 -40 10 -58 17
l-33 12 -1 521 c-3 1227 -5 1305 -19 1317 -8 7 -17 9 -21 6 -3 -4 -13 -2 -22
2 -14 8 -16 29 -16 149 1 91 5 145 12 154 7 8 35 20 62 27 32 8 51 19 53 29 3
17 -6 112 -18 182 -3 19 -7 47 -9 62 -12 87 -62 231 -101 293 -61 97 -116 136
-194 137 -149 1 -252 -149 -294 -427 -4 -27 -10 -61 -12 -75 -2 -14 -7 -100
-10 -192 l-6 -167 26 -7 c14 -3 27 -14 27 -23 4 -55 -3 -297 -9 -302 -4 -4
-49 -28 -100 -54 -51 -27 -96 -53 -99 -58 -12 -20 -9 -212 4 -238 7 -15 10
-29 7 -32 -9 -9 17 -89 38 -117 22 -31 85 -69 125 -76 15 -3 30 -7 34 -10 8
-5 11 -874 3 -874 -6 0 -195 108 -218 126 -19 13 -19 59 -20 2165 l-1 2152 37
23 c45 29 103 40 114 23 4 -6 7 -393 7 -858 l0 -846 -31 -50 c-24 -38 -28 -51
-17 -53 8 -2 178 80 377 182 l363 185 0 928 c0 759 3 933 14 953 12 23 71 90
78 90 2 0 3 -1192 3 -2650z m-576 2517 c36 -17 37 -19 20 -32 -27 -21 -45 -18
-91 12 -50 32 -60 59 -31 83 21 17 22 16 43 -14 11 -17 38 -39 59 -49z m1315
27 c18 -3 43 -8 55 -10 24 -6 81 -15 111 -18 11 -2 36 -6 55 -9 43 -9 84 -16
130 -23 19 -3 71 -12 115 -20 44 -8 98 -17 120 -20 22 -4 60 -10 85 -15 25 -6
52 -10 60 -11 8 0 33 -4 55 -8 22 -5 57 -11 78 -14 68 -11 109 -18 131 -22 25
-5 39 -7 166 -29 52 -9 103 -17 113 -18 9 -1 18 -6 18 -12 4 -33 4 -1652 1
-1663 -5 -13 -38 -12 -122 2 -35 6 -78 13 -200 31 -121 19 -145 22 -220 35
-30 5 -75 12 -100 15 -25 3 -83 12 -130 20 -47 8 -105 17 -130 20 -25 3 -70
10 -100 15 -30 5 -71 12 -90 14 -44 6 -99 14 -170 26 -58 10 -131 21 -165 25
-100 13 -175 30 -176 39 -1 14 -1 1666 0 1687 1 14 16 13 139 -8 75 -13 152
-26 171 -29z m-1553 -92 c7 -18 26 -36 53 -49 l43 -21 -27 -18 c-25 -16 -28
-16 -63 4 -20 11 -44 32 -52 45 -13 23 -13 28 4 46 25 27 30 26 42 -7z m665
-9 c1 -22 1 -1674 0 -1688 -1 -6 -18 -18 -38 -27 -21 -10 -92 -47 -158 -83
-66 -35 -151 -81 -190 -100 -38 -20 -98 -51 -132 -70 -53 -29 -63 -31 -64 -17
0 9 -1 381 -1 826 0 666 2 811 13 821 8 8 42 31 76 52 149 92 353 219 413 259
74 49 80 51 81 27z m-821 -88 c0 -7 8 -19 18 -25 16 -9 15 -12 -7 -30 -19 -16
-27 -18 -38 -8 -28 22 -34 46 -17 62 19 20 44 21 44 1z m-337 -16 c33 -15 51
-53 32 -69 -16 -14 -69 10 -79 35 -16 44 0 55 47 34z m2702 -1887 c28 -7 64
-20 82 -28 17 -8 36 -14 43 -14 7 0 3 -12 -9 -29 -12 -16 -21 -32 -21 -36 0
-4 -9 -23 -20 -41 l-21 -33 -42 16 c-30 12 -78 17 -169 17 l-128 1 -14 35 c-8
19 -15 40 -15 45 -1 6 -8 20 -16 32 -12 17 -12 24 -2 30 39 24 251 28 332 5z
m-381 -84 c41 -94 41 -92 -8 -118 -24 -12 -68 -45 -98 -72 l-53 -49 -72 37
-72 37 30 38 c16 20 50 54 75 76 45 37 151 103 167 103 4 0 18 -24 31 -52z
m631 -33 c64 -45 156 -135 192 -188 15 -23 34 -48 41 -56 11 -12 8 -16 -20
-29 -18 -9 -49 -24 -69 -33 l-37 -18 -24 37 c-34 50 -117 131 -167 162 -22 14
-41 29 -41 33 0 14 60 127 68 127 5 0 30 -16 57 -35z m-255 -124 c76 -24 142
-65 198 -122 40 -41 108 -146 100 -154 -2 -2 -22 0 -44 6 -50 14 -141 6 -184
-16 -45 -23 -86 -67 -101 -109 -12 -33 -16 -36 -51 -34 -35 1 -39 4 -48 37
-13 50 -62 124 -98 150 -75 53 -199 61 -276 18 -26 -14 -46 -21 -46 -16 0 27
84 137 140 182 103 85 257 107 410 58z m-1790 -6 c34 -18 36 -25 14 -66 -12
-24 -19 -29 -37 -23 -12 3 -24 6 -27 6 -40 1 -63 -6 -92 -26 -31 -21 -36 -22
-45 -7 -23 37 73 131 135 131 13 0 36 -7 52 -15z m1133 -86 c23 -12 52 -28 64
-36 l22 -14 -24 -47 c-12 -26 -26 -63 -31 -82 -4 -19 -9 -38 -10 -42 -1 -5 -2
-15 -3 -24 0 -8 -5 -13 -9 -10 -5 3 -37 8 -73 12 -35 3 -66 8 -68 10 -6 5 17
127 30 162 6 15 10 28 9 30 -2 7 35 62 43 62 4 0 27 -10 50 -21z m-1038 -51
c11 -29 20 -56 21 -60 1 -5 2 -9 4 -10 2 -4 8 -28 12 -48 2 -8 -1 -17 -6 -20
-4 -3 -17 17 -28 44 -10 27 -28 62 -39 77 -16 23 -18 33 -9 49 16 30 24 25 45
-32z m-116 -28 c29 -20 74 -110 85 -167 5 -32 4 -33 -27 -33 -44 0 -85 -43
-101 -106 l-13 -49 -16 32 c-20 38 -61 62 -99 58 -24 -3 -26 -1 -18 20 5 12 7
25 4 27 -5 6 23 102 44 148 22 50 62 90 90 90 13 0 36 -9 51 -20z m-192 -25
c-4 -8 -11 -15 -17 -15 -7 0 -7 6 0 21 13 23 26 19 17 -6z m-1006 -39 c68 -14
169 -37 224 -51 55 -14 107 -28 115 -30 8 -2 40 -11 70 -20 30 -8 65 -18 77
-20 12 -3 34 -10 48 -15 14 -5 25 -7 25 -4 0 2 9 0 20 -6 19 -10 20 -24 20
-1005 0 -693 -3 -995 -10 -995 -9 0 -190 132 -227 165 -6 5 -35 30 -65 55
-120 101 -355 350 -456 485 -26 34 -119 164 -129 181 -227 359 -342 617 -442
984 -18 68 -51 216 -51 231 0 3 10 5 23 3 67 -9 213 -36 273 -50 38 -9 76 -17
84 -19 34 -8 195 -77 331 -144 80 -39 150 -71 157 -71 6 0 16 8 21 19 12 22
-4 36 -133 122 -117 78 -215 125 -306 147 l-75 19 51 17 c117 38 173 39 355 2z
m3570 -37 c28 -69 46 -139 54 -206 l5 -41 -52 5 c-67 7 -103 17 -104 29 -2 36
-20 109 -40 161 -17 47 -20 64 -11 70 30 19 103 51 112 49 6 -1 22 -31 36 -67z
m-2595 4 l-16 -28 6 30 c8 38 17 52 21 38 3 -7 -3 -24 -11 -40z m3414 14 c25
-3 77 -13 115 -22 88 -21 86 -20 110 -30 11 -4 76 -29 145 -55 105 -40 219
-72 338 -95 12 -2 71 -18 131 -35 146 -41 168 -43 181 -19 17 31 -28 63 -137
98 -52 17 -102 31 -109 31 -8 0 -14 4 -14 10 0 5 3 9 8 8 4 -1 32 4 62 11 96
22 257 30 408 21 l54 -4 -6 -40 c-3 -23 -15 -75 -26 -116 -11 -41 -23 -84 -25
-94 -5 -21 -33 -112 -42 -136 -3 -8 -7 -19 -9 -25 -9 -31 -59 -159 -96 -243
-184 -423 -471 -822 -808 -1122 -40 -36 -78 -70 -84 -75 -12 -11 -104 -85
-121 -97 -5 -4 -23 -18 -40 -31 -98 -76 -295 -201 -296 -190 0 5 -1 507 -1
1116 -1 938 1 1110 13 1118 8 4 39 11 69 14 30 4 62 7 70 9 15 2 30 1 110 -7z
m-1685 -28 c33 -23 65 -66 76 -105 5 -17 0 -25 -27 -38 -21 -9 -34 -23 -34
-34 0 -36 23 -132 31 -132 46 0 56 -15 57 -87 0 -37 1 -115 2 -173 2 -136 3
-129 -20 -127 -11 1 -20 4 -20 7 0 3 -12 5 -27 5 -16 1 -48 4 -73 8 -145 22
-202 29 -218 25 -16 -5 -17 11 -16 251 1 275 6 309 55 369 48 59 151 74 214
31z m573 -71 c45 -40 60 -62 77 -113 17 -49 20 -109 28 -473 l3 -123 -51 5
c-27 3 -61 8 -75 11 -14 3 -45 8 -70 11 -25 3 -52 7 -60 9 -8 1 -39 6 -67 10
l-53 7 0 192 0 192 32 9 c27 8 35 18 45 53 28 99 26 108 -24 115 -12 2 -25 6
-28 9 -8 8 19 61 39 77 53 44 160 49 204 9z m-1894 -58 c4 -30 9 -79 12 -107
4 -36 3 -53 -5 -53 -6 0 -11 17 -12 38 0 20 -2 44 -4 52 -1 8 -6 35 -10 60 -4
25 -8 52 -10 60 -1 8 0 19 3 24 8 15 20 -17 26 -74z m-77 -96 c18 -70 25 -454
8 -455 -5 0 -31 -1 -57 -2 -55 -2 -50 -21 -47 173 3 208 9 263 37 333 13 33
17 37 29 24 8 -7 21 -40 30 -73z m1638 21 c78 -11 105 -16 105 -20 0 -2 -4
-15 -9 -29 -11 -27 -4 -26 -146 -11 -67 8 -70 9 -79 48 l-7 28 48 -5 c27 -3
66 -8 88 -11z m-1853 -69 c7 -24 12 -128 14 -253 l2 -211 -31 -13 c-18 -7 -38
-19 -45 -26 -8 -7 -17 -11 -21 -9 -8 5 -6 316 3 416 8 87 35 163 53 149 7 -6
18 -30 25 -53z m1853 -250 c0 -172 -2 -189 -17 -192 -12 -1 -18 5 -19 19 0 12
-2 99 -4 193 l-4 171 22 -1 c22 -1 22 -2 22 -190z m-285 -201 c25 -3 68 -10
95 -15 28 -5 72 -12 98 -15 27 -4 59 -8 70 -11 12 -2 42 -6 67 -9 25 -3 56 -7
70 -10 14 -2 43 -6 65 -10 22 -3 51 -7 65 -10 29 -4 150 -22 200 -30 19 -3 82
-12 139 -20 57 -8 107 -17 110 -20 7 -8 9 -155 2 -159 -3 -2 -46 2 -96 10 -49
7 -112 16 -140 19 -27 3 -57 8 -65 10 -8 2 -37 7 -65 10 -27 3 -57 7 -65 10
-8 2 -40 6 -71 10 -31 3 -66 7 -76 9 -11 3 -44 7 -74 11 -30 3 -61 8 -69 10
-8 2 -37 7 -65 11 -27 3 -59 7 -70 9 -11 2 -45 6 -75 9 -30 4 -62 9 -70 11 -8
2 -40 7 -70 10 -30 4 -57 9 -59 11 -2 2 -4 32 -3 66 0 115 -5 106 55 96 28 -4
72 -11 97 -13z m-1275 -17 c4 -4 8 -38 8 -75 l1 -68 -71 -3 -72 -3 1 75 c0 61
4 76 17 78 28 6 109 3 116 -4z m1052 -55 c-1 -38 -6 -74 -10 -81 -9 -14 -60
-37 -103 -46 l-29 -7 0 76 0 75 60 24 c33 14 65 25 72 26 8 0 11 -20 10 -67z
m-1256 25 c4 -43 4 -121 -1 -127 -3 -4 -93 -51 -200 -105 -107 -54 -201 -103
-208 -109 -7 -5 -15 -7 -18 -4 -10 10 -9 119 1 132 5 7 60 38 120 70 193 101
260 137 270 146 13 13 35 11 36 -3z m1336 -195 c-16 -99 -78 -205 -145 -246
-76 -48 -73 -51 -70 79 l3 116 95 38 c117 47 122 48 117 13z m-1130 -92 c-1
-100 -2 -101 -76 -63 -41 22 -68 62 -76 115 l-6 37 79 0 80 0 -1 -89z m1639 8
c-10 -71 -54 -155 -111 -211 -26 -26 -93 -60 -98 -50 -3 4 -6 55 -6 113 l-1
107 102 40 c57 23 107 41 111 41 5 1 6 -18 3 -40z m-315 -4 c24 -3 44 -7 45
-8 2 -1 4 -59 5 -127 l2 -125 -29 1 c-16 1 -47 4 -69 8 -22 3 -60 9 -85 11
-111 13 -142 27 -105 47 42 24 112 99 135 145 24 49 38 65 51 57 4 -2 26 -6
50 -9z m-1430 -112 c42 -20 42 -25 -2 -47 -16 -8 -45 -24 -64 -36 l-35 -22 0
95 c0 51 3 97 6 100 4 4 18 -11 32 -32 14 -22 42 -48 63 -58z m-161 78 c3 -1
5 -38 5 -83 l0 -83 -28 2 c-41 3 -93 39 -111 77 -15 32 -21 77 -12 87 4 3 125
3 146 0z m2414 -57 c-19 -72 -48 -126 -93 -174 -32 -35 -79 -63 -106 -64 -6
-1 -11 44 -12 109 l-2 111 107 41 c59 23 110 39 113 37 4 -2 1 -29 -7 -60z
m-320 22 c27 -3 51 -7 52 -9 2 -2 5 -62 6 -135 l4 -131 -26 4 c-14 2 -72 11
-130 19 -58 9 -123 19 -144 23 l-39 6 37 19 c53 27 127 107 155 166 13 28 27
50 30 47 4 -2 29 -6 55 -9z m-2319 -90 c9 -3 13 -105 6 -149 -2 -11 -73 21
-98 45 -23 21 -39 77 -30 101 4 11 94 14 122 3z m492 -438 l-2 -431 -75 -40
c-146 -77 -322 -167 -326 -167 -2 0 -3 192 -2 426 l3 426 80 43 c44 24 132 73
195 108 63 36 118 66 122 66 4 1 6 -193 5 -431z m-372 372 c21 -13 45 -25 53
-26 8 -2 16 -5 18 -7 5 -5 -96 -65 -116 -69 -10 -2 -16 77 -11 128 1 7 6 5 56
-26z m1593 -95 c53 -9 108 -18 122 -20 14 -2 45 -7 70 -11 25 -4 59 -8 75 -10
17 -1 41 -5 55 -8 14 -3 43 -8 65 -11 22 -3 51 -7 64 -10 13 -2 49 -7 80 -11
31 -3 58 -8 61 -9 3 -2 29 -6 59 -10 79 -10 94 -13 101 -24 4 -8 5 -686 1
-923 -1 -40 0 -40 -101 -21 -19 3 -42 7 -50 9 -15 3 -78 12 -140 20 -19 3 -57
9 -85 14 -27 6 -67 12 -87 15 -102 14 -126 17 -228 35 -30 6 -74 13 -98 16
-24 3 -49 7 -55 8 -7 1 -17 4 -22 8 -7 4 -10 164 -9 470 1 255 2 469 3 476 1
15 1 15 119 -3z m-1219 -947 c-1 -95 -4 -176 -6 -180 -3 -7 -259 94 -334 132
-23 12 -37 25 -33 30 5 4 83 45 174 91 91 46 167 87 168 92 2 4 10 7 18 7 12
0 14 -29 13 -172z m1131 -83 c25 -4 56 -8 70 -10 14 -2 39 -6 55 -9 122 -20
286 -46 315 -50 19 -3 49 -7 65 -10 17 -2 64 -10 105 -16 41 -6 86 -13 100
-16 14 -2 48 -7 75 -10 65 -8 96 -20 75 -28 -20 -7 -207 -54 -245 -60 -16 -3
-41 -8 -55 -11 -31 -8 -54 -11 -109 -19 -23 -3 -55 -8 -70 -11 -83 -14 -234
-27 -351 -29 l-85 -1 -3 148 c-1 82 1 146 5 144 5 -3 29 -8 53 -12z"/>
<path d="M4609 5386 c-2 -2 -33 -7 -69 -11 -176 -19 -337 -117 -444 -269 -41
-59 -92 -163 -102 -209 -24 -108 -30 -156 -28 -214 8 -203 73 -359 202 -491
120 -122 264 -182 451 -187 330 -9 610 251 648 603 17 154 -3 261 -74 412 -90
189 -280 332 -473 355 -25 3 -59 8 -76 10 -17 3 -33 3 -35 1z m133 -87 c187
-63 340 -242 387 -454 37 -165 12 -355 -63 -495 -35 -64 -37 -67 -96 -130
-100 -105 -209 -154 -345 -153 -365 3 -632 369 -554 758 51 255 242 450 479
490 19 3 35 7 37 8 8 9 103 -6 155 -24z"/>
<path d="M4610 5205 c-12 -33 -24 -138 -21 -200 5 -127 3 -304 -3 -340 -12
-61 -9 -78 15 -98 32 -26 63 -15 132 49 32 30 74 61 94 69 52 22 118 103 99
122 -11 11 -108 -32 -139 -62 -46 -45 -107 -80 -108 -63 -1 7 -3 24 -5 38 -3
24 -4 179 -2 285 1 53 -8 151 -18 190 -8 34 -33 40 -44 10z"/>
<path d="M3001 5209 c-53 -16 -137 -108 -177 -195 -64 -137 -87 -256 -87 -449
0 -151 10 -236 42 -347 50 -176 145 -285 252 -290 87 -4 105 13 37 34 -25 7
-60 30 -86 55 -43 43 -99 145 -108 200 -3 15 -7 36 -10 45 -21 69 -27 141 -28
293 0 238 25 364 101 495 48 85 115 140 168 140 9 0 15 6 13 12 -6 16 -73 20
-117 7z"/>
<path d="M2999 5033 c-10 -89 -13 -168 -10 -343 0 -63 -2 -147 -5 -186 -6 -66
-5 -72 16 -87 22 -16 24 -15 64 41 22 31 48 63 57 69 40 29 78 123 50 123 -11
0 -67 -55 -100 -99 -13 -18 -26 -29 -30 -26 -3 4 -7 104 -8 223 -2 119 -4 228
-7 242 -2 14 -4 31 -5 38 -1 13 -20 17 -22 5z"/>
<path d="M4530 3216 c-64 -24 -104 -46 -97 -52 2 -3 17 -7 33 -10 86 -16 170
-83 209 -167 20 -42 23 -45 28 -25 19 74 127 144 227 147 25 1 25 2 -10 32
-104 92 -263 122 -390 75z m260 -53 l45 -20 -45 -20 c-25 -11 -55 -31 -68 -45
l-23 -25 -62 61 c-48 46 -59 62 -47 67 32 13 156 2 200 -18z"/>
<path d="M3009 1647 c-46 -24 -112 -59 -146 -76 l-63 -33 -1 -62 c-4 -318 2
-650 11 -661 13 -16 33 -8 180 72 145 80 131 51 132 258 0 99 -1 185 -2 190
-1 6 -2 15 -1 20 5 25 2 125 -3 134 -4 5 -2 12 3 15 5 4 6 19 2 34 -4 15 -4
43 -1 62 6 36 -6 90 -20 90 -4 0 -45 -20 -91 -43z m57 -346 l0 -309 -39 -21
c-21 -12 -40 -21 -42 -21 -1 0 -2 140 -2 311 l0 310 36 19 c20 11 38 19 41 20
3 0 5 -139 6 -309z m-139 -71 l0 -310 -30 -19 c-17 -11 -34 -18 -37 -16 -3 2
-6 142 -5 311 l0 307 30 18 c17 10 33 18 36 18 3 1 6 -138 6 -309z"/>
<path d="M4368 1499 c-17 -9 -18 -36 -18 -343 0 -364 -2 -350 60 -361 19 -3
46 -7 60 -10 14 -3 43 -7 65 -10 22 -3 49 -7 60 -9 11 -2 40 -7 65 -10 25 -4
83 -13 130 -21 47 -8 101 -17 120 -19 19 -3 53 -7 75 -11 73 -10 70 -24 68
336 -1 177 -4 332 -7 344 -5 18 -15 24 -52 30 -25 3 -56 8 -67 11 -41 8 -72
13 -122 20 -27 3 -59 8 -70 10 -11 2 -40 6 -65 9 -25 3 -56 8 -70 11 -48 9
-75 13 -110 18 -19 3 -51 7 -70 10 -19 3 -43 1 -52 -5z m118 -84 c22 -3 57 -8
79 -11 22 -3 56 -8 75 -12 l35 -8 2 -278 2 -277 -27 5 c-34 7 -76 14 -127 20
-55 8 -87 14 -93 20 -3 3 -5 110 -4 238 0 312 1 320 11 314 5 -3 26 -8 47 -11z
m399 -60 c17 -3 44 -7 60 -10 l30 -5 -1 -272 c-1 -150 -2 -276 -2 -279 -1 -4
-19 -3 -39 1 -21 5 -65 12 -98 15 -33 4 -65 11 -70 15 -7 6 -10 106 -9 277 1
147 2 270 3 272 1 3 67 -4 126 -14z"/>
</g>
</svg>
