<?xml version="1.0" encoding="UTF-8"?>
<svg version="1.1" viewBox="0 0 288 58" xmlns="http://www.w3.org/2000/svg">
<title>Atoms/1.Logo/Primary</title>
<g fill="none" fill-rule="evenodd">
<g transform="translate(0 .000147)" fill-rule="nonzero">
<path id="Path" d="m26.591 6.8695-1.9519-1.8498c0.16722-0.13519-0.066726-0.47195-0.066726-0.47195l-1.6239-1.6684c0.083608-0.92771-0.70343-1.0621-0.70343-1.0621v-0.9779c0-0.89371-0.85376-0.83867-0.85376-0.83867-0.7372 0-0.87065 0.82167-0.87065 0.82167v0.9949l-0.87065 0.9779-1.7743 2.1242c-0.80392 0.87671-0.33524 1.2135-0.33524 1.2135l-0.82161 0.96171c-9.6053 2.4334-16.718 11.187-16.718 21.615 0 12.311 9.9124 22.29 22.138 22.29 12.225 0 22.136-9.979 22.136-22.29-8.039e-4 -10.775-7.5922-19.765-17.683-21.84z"/>
<path id="Shape" d="m27.218 8.516-0.99686-1.0143c0.0056275-0.0089048 0.015274-0.01619 0.019294-0.025905 0.024118-0.054238 0.011255-0.119-0.032157-0.16352l-1.271-1.2912c0.0024117-0.0048572 0.0072353-0.0072857 0.009647-0.012952 0.02251-0.056667 0.0096471-0.11981-0.032157-0.16352l-0.88029-0.80305c0.044216-0.022667 0.031353-0.012952 0.067529-0.054238 0.039392-0.043714 0.048235-0.13519 0.019294-0.18538-0.060294-0.10119-1.8844-1.9979-1.8844-1.9979 0.036176-0.064762 0.065118-0.14248 0.068333-0.24286 0.0032157-0.14248-0.058686-0.26471-0.058686-0.26471l-0.39231-0.055048v-1.2475l-0.067529-0.042905c-0.014471-0.0089048-0.16722-0.1109-0.40035-0.1109-0.12943 0-0.28218 0.03319-0.43331 0.12871l-0.068333 0.042905v1.2629l-0.42045 0.374-0.020902 0.022667-2.2132 2.7686c-0.037784 0.046952-0.049843 0.10848-0.036176 0.16676 0.0040196 0.011333 0.010451 0.075286 0.051451 0.13519 0.032961 0.052619 0.069137 0.080952 0.18249 0.094714-0.091647 0.10038-0.17043 0.1959-0.22912 0.27929l-0.37061 0.43795-0.014471 0.013762v0.001619l-0.99445 1.1722c-0.024118 0.028333-0.031353 0.06719-0.011255 0.095524 0.034569 0.053429 0.080392 0.045333 0.099686 0.051l-0.58847 0.72533c-8.8343 2.4804-15.319 10.636-15.319 20.322 0 11.654 9.3834 21.1 20.957 21.101 11.574-8.095e-4 20.956-9.4471 20.956-21.101-8.039e-4 -9.8228-6.6701-18.067-15.695-20.419zm-2.788-2.6326 0.014471 0.15381 1.2694 1.3665 0.017686 0.17 1.1713 1.2143 0.0040196 0.14895 1.2533 1.2904 0.016882 0.15138 1.3249 1.3924 0.029745 0.13438 1.2276 1.3155 0.024118 0.16029 1.234 1.3098 0.0032157 0.13114 1.2059 1.3025c-0.19294 0.015381-0.3288 0.16757-0.3288 0.16757l-10.014-11.401c0.34327 0.19267 0.82643 0.255 0.82643 0.255l0.72031 0.73748zm2.7711 35.266-0.015274 5.6391-5.08-0.80143 0.013667-5.6084 5.0816 0.77067zm-3.2125-2.3201 1.2975-0.49624s-0.079588 1.4547-1.2847 1.8425l-0.012863-1.3462zm0.6761 1.4911c0.7581-0.27362 1.1166-0.87267 1.2847-1.3519l0.70022 0.097143v0.029143l0.027333 1.5316-2.0122-0.306zm-2.4278-2.741-0.0024118-1.0087 6.5881 0.98681 0.0072353 0.97143-6.593-0.94957zm5.0872-0.53833-2.1851-0.32624 8.039e-4 -2.2537 0.21786-0.012952c0.0072353-8.095e-4 0.011255-0.0064761 0.019294-0.0080952h0.0056274c0.068333 0 0.13104-0.046143 0.14873-0.11738l0.16963-0.66057c0.010451-0.042905 0.0024118-0.087428-0.021706-0.12548-0.025726-0.037238-0.064314-0.061524-0.10853-0.06719l-0.33363-0.044524c0.11014-0.38048 0.33845-0.69133 1.0097-0.69943 0.04502 0 0.094863 0.0032381 0.1439 0.0064762 0.91325 0.30519 0.86743 1.5187 0.86743 1.5187l0.065922 2.7904zm-0.86422-4.6588c-0.072353-0.0064762-0.1431-0.010524-0.21143-0.010524-0.87708-0.0080953-1.2236 0.51486-1.3667 1.0087l-0.43975-0.056667c-0.1029-0.49624-0.40276-1.2127-1.2911-1.3309-0.079588-0.0072857-0.15435-0.013762-0.22671-0.013762-0.46788 0-0.79267 0.16757-1.0202 0.40314 0.009647-0.024286 0.013667-0.05019 0.021706-0.074476 0.22269-0.50271 0.97033-1.8198 2.6433-1.6069 1.3168 0.16919 1.9961 1.0046 2.3724 1.8239-0.13908-0.070429-0.29584-0.12224-0.48155-0.14248zm-1.0805 1.3705-0.093255 0.36267-1.238-0.14571-0.03698-0.39586 1.3683 0.1789zm-0.59088 0.6881v2.2197l-0.22912-0.032381-0.050647-2.2213 0.27976 0.034zm2.4544-2.4326c-0.35212-0.561-0.83206-1.0313-1.3948-1.3381l0.4301-0.77795c0.70665 0.408 1.3064 1.0208 1.7405 1.7494l-0.77578 0.36671zm0.96631-0.015381c0.287 0.58043 0.47431 1.2183 0.52335 1.8862l-0.89155-0.12224c-0.046628-0.49381-0.18651-0.96819-0.40035-1.4005l0.76855-0.36348zm-2.7124-1.4887c-0.26449-0.10767-0.54024-0.18295-0.82724-0.21695-0.38829-0.046143-0.76292-0.01619-1.1102 0.075286l-0.37302-0.88238c0.46386-0.136 0.9639-0.18457 1.4897-0.1271 0.43894 0.05019 0.8618 0.17567 1.2565 0.36024l-0.43573 0.7909zm-2.2928-0.021857c-0.44939 0.18538-0.83929 0.48329-1.1384 0.86619l-0.83929-0.45414c0.39875-0.57881 0.95667-1.0208 1.6078-1.2888l0.3698 0.87671zm-1.349 1.1762c-0.20902 0.35457-0.3489 0.76095-0.40196 1.207l-0.89075-0.12467c0.053059-0.55938 0.21706-1.0726 0.46547-1.5251l0.82724 0.44281zm-0.030549 1.8651c0.079588-0.53348 0.27173-1.19 1.0982-1.19 0.057078 0 0.12139 0.0024285 0.18892 0.010524 0.024118 0.001619 0.045824 0.0080952 0.067529 0.011333 0.41884 0.18214 0.61098 0.56424 0.70182 0.89371l-0.037784-0.0048572c-0.035372-0.0056666-0.067529 0.0072858-0.096471 0.024286l-0.052255 0.012952-0.18329 0.13519c-0.035373 0.025095-0.052255 0.069619-0.04502 0.11252l0.1222 0.68729c0.009647 0.05019 0.049843 0.087429 0.099686 0.093095l0.27896 0.032381 0.052255 2.206-1.9728-0.29629c-0.028137-0.0040476-0.055471 0.0032381-0.081196 0.014571-0.0024117 8.095e-4 -0.0064314 0-0.0080392 8.095e-4l-0.13345 0.053429v-2.7969h8.039e-4zm0.013667 3.1604-8.039e-4 0.94067-0.81196 0.31571-0.0064314-0.92771 0.8192-0.32867zm0.49361 1.2289s-0.081196 1.4555-1.2847 1.8425l-0.012863-1.3462 1.2975-0.49624zm0.66163 0.64357 0.70825 0.097143v0.020238l0.028137 1.5041-1.7614-0.26876v-0.066381c0-0.01781-0.0056274-0.036429-0.010451-0.051 0.58525-0.30195 0.88512-0.81195 1.0355-1.2353zm-1.0258 7.8548 5.3718 0.84595v0.064762c-1.7051 0.50514-3.5051 0.78524-5.3718 0.78686v-1.6976zm4.9924-5.8164-0.012059-1.3454 1.2959-0.49705s-0.078784 1.4555-1.2839 1.8425zm0.72916 0.11414c1.0539-0.42257 1.2919-1.492 1.3385-1.8749 0.033765-0.029143 0.052255-0.072048 0.051451-0.11738l-0.0096471-1.2823c0-0.076095-0.055471-0.14005-0.13024-0.15219l-1.0596-0.15705-0.069137-2.9321c-0.0016078 0-0.0024117-0.041286-0.009647-0.10524l1.2766 0.11981-0.012863-0.11252c-0.032961-0.93176-0.30951-1.8182-0.75729-2.5832l-0.0024118-0.0080953-8.039e-4 0.0024286c-0.5121-0.87429-1.2485-1.5907-2.1143-2.0335 0 0-0.79588-0.39424-1.5098-0.46062-0.29182-0.026714-0.85698-0.01781-0.85698-0.01781-3.0461 0.15624-3.7728 2.9799-3.8419 3.1879-0.069941 0.21048-0.20822 0.68162-0.076373 0.81033 0.11898 0.119 1.3401 0.19348 1.5427 0.20562l0.057078 0.0072857c-0.016882 0.098762-0.028941 0.1959-0.029745 0.28657l-8.04e-4 2.9685-0.64394 0.25824c-0.057882 0.022667-0.096471 0.080952-0.095667 0.1449l0.0080392 1.2556c0 0.0080953 0.0040196 0.012952 0.0040196 0.020238-8.039e-4 0.0048572-0.0040196 0.010524-0.0024117 0.017 8.039e-4 0.0040476 0.0024117 0.0064762 0.0032156 0.0097143l-0.0016078 0.086619 0.032157 1.7502c0 0.017 0.0080392 0.031572 0.020098 0.042905 0.0048235 0.0048571 0.012059 0.0048571 0.01849 0.0080952 8.039e-4 8.095e-4 0 0.0032381 0.0024118 0.0048572 0.009647 0.0080952 0.024118 0.013762 0.037784 0.013762 0.0016078 0 0.0048235-0.0016191 0.0072353-0.0016191l0.47512-0.070428c0.099686-0.01781 0.18812-0.046952 0.27655-0.073667v8.1705c-1.3442-0.023476-2.6554-0.18538-3.9167-0.47519v-31.388c0.27816 0.027524 0.94139 0.102 1.2686 0.20238 0.1439 0.045333 0.23314 0.11252 0.29022 0.18538 0.020902 0.055048 0.024118 0.10281 0.025726 0.13276 0 0.01619 0.0040196 0.095524 0.0040196 0.095524v10.354l0.0040196 0.001619-0.0096471 0.29386 10.334 1.5697-0.0024118-0.19429v-10.493c0.025726-8.095e-4 0.049843-0.0032381 0.077176-0.0040476 0.34327-0.0048572 0.943 0.054238 1.3498 0.11657v0.0056667l-0.0072353-8.096e-4v27.296c-1.0572 0.57881-2.1778 1.0564-3.3451 1.4272v-6.5126h8.039e-4zm-8.1027-13.764v-9.979l9.2821 1.5964v9.8171l-9.2821-1.4345zm9.1559-8.9404-8.987-1.577c0-0.57071-1.5451-0.76257-2.1593-0.81519l0.0016078 0.0089047s-1.1609 0.50595-1.021 1.173l-3.7503 2.4496s-0.53863-0.37643-1.9889 0.7229l8.039e-4 -0.43067s0.012863-0.010524 0.031353-0.025095c-0.031353 0.010524-0.061098 0.018619-0.086824 0.020238-0.15275 0.0040476-0.29665-0.039667-0.29665-0.039667s0.0016079-0.0024286 0.0016079-0.0040477c-0.0080392-0.0032381-0.016078-0.001619-0.024118-0.0064761-0.16239-0.078524-0.19133-0.10848-0.26288-0.33676-0.0056275-0.01781-0.012059-0.042905-0.016882-0.064762l0.29584-0.1959c0.0064313 0.031571 0.013667 0.065571 0.02251 0.091476 0.049039 0.14814 0.15918 0.21857 0.25243 0.2639 0.11255 0.039667 0.3079 0.054238 0.40678 0.059095 0.42447-0.289 1.1721-0.71724 1.632-0.51162l3.7447-2.4253s-0.12622-0.40638 0.43653-0.88481c-0.021706 0.0048571-0.042608 0.0080952-0.062706 0.0072857-0.14953-0.0064762-0.492 0.037238-0.64153-0.25257-0.023314-0.046143-0.041804-0.11333-0.055471-0.16595l0.29022-0.19348c0.016882 0.059905 0.039392 0.136 0.065922 0.19186 0.078784 0.16676 0.52898 0.16838 0.73398 0.17648 0.065922-0.040476 0.13586-0.080952 0.21224-0.11981l0.0016078 0.0080952 0.016078-0.0080952s0.39794 0.025095 0.57078 0.043714c0.13425-0.080952 0.28539-0.204 0.28539-0.36024 0-0.12062-0.0040196-0.33676-0.0040196-0.33676l0.72755 0.12386s0.0088432 0.1959 0.012059 0.30114c0.0048235 0.22424-0.098882 0.28414-0.26851 0.39748 1.0202 0.25257 0.97837 0.67433 0.97837 0.67433l8.8544 1.5519c0.40196-0.19833 1.1882-0.1789 1.8804-0.1101 0.13506-0.070429 0.26288-0.1619 0.26288-0.34567 0-0.12224-0.0040196-0.33676-0.0040196-0.33676l0.7372 0.12143s0.012059 0.1959 0.014471 0.30114c0.0040196 0.19995-0.077176 0.26957-0.21706 0.36267 0.14712 0.023476 0.26771 0.044524 0.36016 0.060714l-0.0040196 0.48248c-2.7341-0.44767-2.9785-0.046952-2.9785-0.046952zm-15.328 27.829v-4.9608l2.3684-1.322-8.04e-4 5.0482-2.3675 1.2345zm2.3675-0.88319v2.1234c-0.77578-0.26876-1.5275-0.5869-2.2542-0.94795l2.2542-1.1754zm-3.7069-5.9281 0.0040196-0.83057 2.5235-1.3365v0.86862l-2.5275 1.2985zm0.91486 0.49138-0.0032157 0.92852c-0.7372-0.13681-0.78624-0.58286-0.80392-0.86295 0-0.025905 8.039e-4 -0.048572 0.0016078-0.069619l0.80553 0.0040476zm0.85376-7.2307c0.14229-0.31976 0.31755-0.52943 0.46547-0.54886 0.046628-0.011333 0.085216-0.015381 0.12059-0.015381 0.010451-8.095e-4 0.017686-8.095e-4 0.021706-8.095e-4 0.31112-0.012952 0.61018 0.52619 0.75327 1.1965 0.0096471 0.045333 0.017686 0.089857 0.027333 0.136-0.057882-0.031571-0.12622-0.05019-0.205-0.052619-0.041804 0-0.084412 0.0056667-0.12541 0.01619-0.37945 0.12548-0.46708 0.56586-0.54265 0.94957v0.0040476c-0.0024118-0.0048571-0.0024118-0.012952-0.0032157-0.018619-0.073157-0.27605-0.23957-0.56424-0.5748-0.56829-0.037784 0-0.074765 0.0040476-0.11255 0.011333-0.043412 0.012952-0.07798 0.029143-0.11416 0.047762 0.039392-0.2639 0.13024-0.75286 0.28941-1.1568zm-0.17445-0.816s0.2468-0.527 0.66886-0.65167c0.42447-0.12386 0.66324 0.22829 0.66324 0.22829l-0.19696 0.4169c-0.60214-0.31976-1.0049 0.20724-1.0049 0.20724l-0.13024-0.20076zm1.8169 1.0985c-0.15998-0.64762-0.45904-0.92448-0.45904-0.92448l0.15676-0.33271c0.22831 0.32867 0.4309 1.1851 0.4309 1.1851l-0.12863 0.072048zm0.19053 0.21371c0.07798 0.26229 0.1849 1.3665 0.1849 1.3665l-0.11818 0.041286c0.013667-0.35619-0.1849-1.3414-0.1849-1.3414l0.11818-0.066381zm-0.80714 5.4262c0-0.034 8.039e-4 -0.064762 0.0040196-0.089048l0.90763 0.0032381-0.0032157 1.0475c-0.83045-0.1449-0.89155-0.64681-0.90843-0.96171zm0.54667 1.1932-0.84653 0.47114 0.0040196-1.1212 0.084412-0.043714c0.11175 0.26957 0.33443 0.54481 0.7581 0.69376zm-0.56757-2.9394c-0.016078 0-0.030549 0.0048572-0.045824 0.0072857-0.021706-0.0048571-0.04502-0.0048571-0.066726-8.095e-4l0.016078-1.6644s0.016882-1.126 0.30871-1.4871c0.071549 0.018619 0.15596 0.12305 0.22108 0.34324 0.052255 0.17324 0.083608 0.38776 0.1021 0.59176 0.0064313 0.089857 0.0080392 0.15786 0.009647 0.19267 0 0.0089047 0.0056275 0.015381 0.0072353 0.024286v1.9922h-0.55229v8.095e-4zm-0.68253-1.5964v1.8943l-0.60375 0.32057 0.017686-1.9218s0.015274-1.054 0.28218-1.4499c0.07798 0.038857 0.14229 0.14086 0.19937 0.32705 0.068333 0.23881 0.090843 0.56019 0.10451 0.82976zm-0.93416-1.9396c0.048235-0.42824 0.30147-1.1511 0.30147-1.1511l0.088431 0.13681c-0.13586 0.1789-0.3899 1.0143-0.3899 1.0143zm1.0346 5.8771-0.0040196 1.0475c-0.82884-0.1441-0.88994-0.64762-0.90763-0.96171 0-0.03319 8.039e-4 -0.063143 0.0024118-0.088238l0.90924 0.0024286zm-0.97355 1.755 0.0040196-0.89695c0.15918 0.20805 0.41965 0.38533 0.80955 0.47114l-0.81357 0.45414v-0.028333zm1.6939-2.8876v-0.91476h0.81518v0.91476h-0.81518zm0.72112-1.2086v-1.7866l0.70665-0.23881c0.021706-0.0080952 0.035373-0.029952 0.032961-0.05181 0-0.0040476-8.039e-4 -0.0064762-0.0016078-0.010524 0.0016078-0.0048571 0.0024117-0.011333 0.0016078-0.01781-0.19937-2.8681-0.98561-3.6542-1.5379-3.8865-0.024922-0.0089048-0.3071-0.039667-0.39151-0.043714-0.089235 0-0.18249 0.013762-0.27494 0.040476-1.4792 0.493-1.4848 3.4453-1.5154 4.4985 0 0.11738 8.039e-4 0.2129 0.0032157 0.27686 0.0016078 0.032381 0.0016078 0.057476 0.0016078 0.076905v0.020238 0.0048571c0.0024118 0.063143 0.037784 0.11981 0.090843 0.14976 0.028137 0.017 0.05949 0.025095 0.089235 0.025095 0.030549 0 0.05949-0.0080953 0.08602-0.022667l0.038588-0.019429-0.020098 1.8935-1.1488 0.60795c-0.049843 0.025905-0.082804 0.077714-0.083608 0.13681l-0.0048235 1.1787c-8.04e-4 0.053429 0.027333 0.10362 0.072353 0.13195 0.0096471 0.0056666 0.020098 0.0056666 0.030549 0.0089047-0.0040196 0.041286-0.0080392 0.088238-0.0080392 0.14895-0.016882 0.36267 0.19616 1.0791 1.1898 1.1835v5.1251c-0.47994-0.25581-0.94782-0.53105-1.402-0.8241v-25.061s0.60133-0.46224 0.90361-0.26633v9.9434h-0.0040196l-0.31273 0.49705s-0.053059 0.039667 0.010451 0.097143c0.062706 0.057476 0.18008-0.030762 0.18008-0.030762l4.1547-2.1396s-0.029745-10.513-0.029745-10.627c0-0.3999 0.55069-0.85971 0.55069-0.85971v30.863c-0.32478-0.085-0.64314-0.18376-0.96069-0.28495l-0.034569-10.585c0-0.040476-0.016078-0.078524-0.04502-0.10929-0.028941-0.029143-0.068333-0.044524-0.10933-0.044524h-0.25806v0.001619zm-2.8234-6.9376 0.0032157-9.6641 3.3781-2.129v9.9871l-3.3813 1.806zm-4.5036 4.3318c-0.17525-0.19833-1.55-1.1609-2.1738-1.3228-0.24278-0.056667-0.21143-0.089857-0.79588-0.18457 0.30549-0.13762 0.71629-0.28495 1.1231-0.29952 0.023314 0 0.04502-8.47e-4 0.068333-8.47e-4 0.87547-0.0056292 3.1723 0.63228 4.6177 1.0597v11.662c-0.97837-0.67352-1.8924-1.4345-2.7285-2.2756-2.6674-2.686-4.5414-6.1645-5.2536-10.053 0.50647 0.092286 0.74684 0.11981 0.74684 0.11981l0.48798 0.073667c0.37061 0.078524 0.53059 0.13114 0.81678 0.19105 0.43251 0.089857 1.1392 0.40719 1.7389 0.70186 0.30147 0.14976 0.57641 0.28981 0.78624 0.39586 0.22912 0.10686 0.30147 0.17081 0.44376 0.19024 0.016882 0 0.047431 0 0.089235-0.029143 0.04502-0.026714 0.070745-0.092286 0.067529-0.13033-0.0016078-0.052619-0.016882-0.071238-0.034569-0.098762zm1.4213-1.6053c-1.3578-0.27443-2.3611-0.71724-3.2599-0.72129-0.077176 0-0.15435 0.0016191-0.22992 0.010524-0.58927 0.060714-1.4937 0.55776-1.6906 0.64033-0.20098-0.029143-0.77096-0.11738-1.4672-0.20805-0.15596-0.98924-0.24118-2.0011-0.24118-3.0349 0-5.2959 2.132-10.087 5.5784-13.558 1.6376-1.6474 3.5734-2.9871 5.7159-3.9505l-0.0096471 0.15138-1.1978 1.4126c-0.023314 0.026714-0.028137 0.064762-0.012059 0.095524 0.0080392 0.01619 0.025726 0.021048 0.041804 0.028333l-1.3273 1.602c-0.019294 0.022667-0.024922 0.081762 0.0072353 0.12143 0.032157 0.040476 0.052255 0.053429 0.052255 0.053429l-1.3819 1.6393c-0.02251 0.026714-0.027333 0.065571-0.011255 0.097143 0.012863 0.022667 0.035373 0.035619 0.061902 0.039667l-1.3015 1.5381c-0.082804 0.095524-0.074765 0.29224-0.074765 0.30681 0.0016078 0.17648 0.10129 0.35214 0.26449 0.48086 0.12622 0.10119 0.27414 0.15867 0.41804 0.16029 0.0024118 0 0.0064314-0.0024286 0.010451-0.0024286 0.047431 0.042095 0.12541 0.080143 0.2468 0.099572v0.66057h0.57882v0.44524h0.64716v12.242c-0.41965-0.11819-0.90441-0.24286-1.4181-0.34971zm-0.14953-13.747c0.11576 0.089048 0.17204 0.21371 0.17124 0.28981-8.0392e-4 0.034-0.0088431 0.057476-0.024118 0.076095-0.020902 0.026714-0.057078 0.046143-0.12059 0.046143-0.073961 8.095e-4 -0.17686-0.034-0.2661-0.10605-0.11416-0.088238-0.17124-0.21129-0.16963-0.28819 0-0.03481 0.0088431-0.057476 0.02251-0.075286 0.02251-0.028333 0.060294-0.047762 0.12139-0.048572h0.0040196c0.073961 8.095e-4 0.17284 0.03481 0.26127 0.10605zm20.108-2.6277c-0.55069-0.30681-1.1014-0.062333-1.1014-0.062333l-1.7976-5.6019 1.7308 2.0173 1.1681 3.6469zm-0.57963-2.9491 1.6529 1.9566 0.41965 1.2548c-0.50647-0.27686-1.0684-0.038048-1.0684-0.038048l-1.0041-3.1733zm-0.17043 3.4785 0.72353 0.11576s0.010451 0.19752 0.013667 0.30033c0.0040197 0.19267-0.069941 0.2631-0.19696 0.34971l-0.75167-0.13114c0.11094-0.075286 0.21384-0.17243 0.21384-0.29871 8.04e-4 -0.12224-0.0024117-0.33595-0.0024117-0.33595zm-0.78624-0.80629c-0.47914-0.27686-1.074-0.055048-1.074-0.055048l-2.5307-7.9074 1.7011 1.9493 1.9037 6.0131zm-0.99445 0.46143 0.71388 0.11819s0.010451 0.19752 0.012059 0.30114c0.0048235 0.20643-0.083608 0.27281-0.23073 0.37319l-0.72755-0.1271c0.12139-0.088238 0.23555-0.20481 0.23555-0.32867 0-0.12143-0.0032157-0.33676-0.0032157-0.33676zm-0.49924-0.71076c-0.50647-0.306-1.1223-0.076905-1.1223-0.076905l-3.3274-10.287 1.7501 1.9688 2.6996 8.3948zm-1.3329 0.39829 0.72514 0.11252s0.012059 0.1959 0.014471 0.30033c0.0048235 0.20724-0.084412 0.27362-0.23073 0.37319l-0.72433-0.1271c0.11737-0.068 0.21947-0.15867 0.21947-0.32219 0-0.12224-0.0040196-0.33676-0.0040196-0.33676zm-0.2042-0.70914c-0.66645-0.23881-1.0941-0.036428-1.0941-0.036428l-3.2245-10.002 0.20178-0.51162 0.10853-0.06719c0.28137 0.26957 0.71871 0.4169 0.71871 0.4169l3.2896 10.2zm-1.5226 0.3829 0.71469 0.12224s0.011255 0.19752 0.014471 0.30114c0.0040196 0.21371-0.088431 0.27929-0.24439 0.3821l-0.73076-0.1279c0.13024-0.069619 0.24922-0.1611 0.24922-0.34081 0-0.12062-0.0032157-0.33676-0.0032157-0.33676zm0.044216-0.57071c-0.56435-0.38129-1.238-0.13519-1.238-0.13519l-2.4327-7.603 0.64957-1.6603 3.0211 9.3986zm-5.4216-3.485 0.68253-1.7081 1.4237 4.62c-0.59169-0.40233-1.2405-0.13762-1.2405-0.13762l-0.86582-2.7742zm0.48235 2.6253c-0.60616-0.40881-1.2405-0.136-1.2405-0.136l-0.12461-0.37319 0.65198-1.5761 0.71308 2.0853zm1.3779 1.1309c0-0.12224-0.0032156-0.33838-0.0032156-0.33838l0.72192 0.10767s0.011255 0.1959 0.013667 0.30114c0.0048235 0.23314-0.10612 0.28738-0.28861 0.41205l-0.72112-0.12629c0.13908-0.073667 0.27735-0.16352 0.27735-0.35619zm0.67529-0.66948-1.6794-5.219 0.70986-1.7518 2.2124 7.106c-0.53139-0.3829-1.2429-0.13519-1.2429-0.13519zm1.0885 0.97629c0-0.12305-0.0040196-0.33757-0.0040196-0.33757l0.72273 0.11738s0.012059 0.1951 0.015274 0.30033c0.0048235 0.2291-0.10371 0.28738-0.28057 0.40638l-0.73076-0.1271c0.13184-0.081762 0.27735-0.20238 0.27735-0.35943zm-4.9481-1.649-0.16722-0.054238 3.7873-9.1735 0.15998-0.0024286-3.78 9.2302zm0.23394 0.49948c0 0.01619-0.0016079 0.029952-0.0056275 0.046952-0.020902 0.076095-0.11818 0.1441-0.2661 0.1441-0.049039 0-0.10049-0.0080952-0.15194-0.023476-0.18329-0.056667-0.28539-0.19995-0.28137-0.29224 0-0.01781 0.0016078-0.032381 0.0056274-0.043714 0.023314-0.080952 0.11818-0.14976 0.26771-0.15057 0.048235 0 0.098882 0.0080953 0.15114 0.025095 0.18169 0.055857 0.28539 0.19995 0.28057 0.29386zm-0.75649-0.47276c-0.69057 0.058286-0.83367 0.84352-0.83367 0.84352-0.42849-0.042905-0.72031 0.10848-0.72031 0.10848l3.8982-7.9131 1.1102-1.5373-3.4545 8.4984zm-0.37382 2.3776-0.30308 0.19995c-0.19053-0.090667-0.48316-0.20967-0.54104-0.39262-0.020902-0.063952-0.049039-0.1619-0.066726-0.221l0.28941-0.19348c0.021706 0.06719 0.055471 0.17162 0.079588 0.2469 0.048235 0.14976 0.37624 0.29224 0.54184 0.36024zm-1.0451 0.69052-0.3079 0.20319c-0.17767-0.093905-0.54827-0.21938-0.6142-0.42905-0.013667-0.040476-0.030549-0.096333-0.04502-0.14733l0.29022-0.19348c0.017686 0.058286 0.039392 0.12386 0.056274 0.17405 0.060294 0.18133 0.52175 0.3489 0.62063 0.39262zm-0.9012-1.1892c-0.66967 0.042905-0.9438 0.29305-0.9438 0.29305l2.3161-4.6094 2.3322-3.2041-3.7045 7.5205zm-0.098078 1.8506-0.30388 0.20238c-0.18651-0.093095-0.5338-0.21857-0.59812-0.42014-0.012863-0.045333-0.032961-0.10767-0.049843-0.1611l0.29022-0.19429c0.019294 0.061524 0.044216 0.13438 0.061098 0.18862 0.057078 0.17162 0.47271 0.3319 0.60053 0.38452zm-1.6754-0.527c-0.84573-0.021048-1.2003 0.32786-1.2003 0.32786l3.3379-4.5851-2.1376 4.2573zm0.63188 1.2167-0.30308 0.20076c-0.19053-0.091476-0.50165-0.21371-0.56194-0.40233-0.016882-0.053428-0.040196-0.13114-0.057882-0.19186l0.29102-0.19429c0.020902 0.06719 0.049039 0.15543 0.069137 0.21776 0.050647 0.15786 0.40518 0.30519 0.56275 0.36995zm-1.2453 0.38371-0.29906 0.20238c-0.1222-0.053429-0.13265-0.058286-0.22269-0.25662-0.016078-0.034-0.035372-0.080143-0.056274-0.12386l0.28459-0.18943c0.01849 0.038857 0.035373 0.078524 0.051451 0.1101 0.074765 0.15786 0.15194 0.22424 0.24198 0.25743zm19.687-3.0924 0.697 0.782c-0.077176-0.0024286-0.42929 0.08581-0.42929 0.08581l-0.26771-0.86781zm0.17204 16.914c0.2862-0.082571 0.63269-0.14652 1.0202-0.14652 0.10853 0 0.21867 0.0048571 0.33122 0.01619 1.2565 0.12062 2.4303 0.70833 2.6883 0.80062 0.52657 0.18943 1.226 0.32948 1.5379 0.3821 0.29102 0.049381 1.4093 0.42743 1.6915 0.43552 0.020902-8.095e-4 0.043412 0 0.080392-0.014571 0.033765-0.0056666 0.10692-0.073667 0.10371-0.15138 0-0.041286-0.014471-0.073667-0.034569-0.10281-0.15275-0.20238-0.42688-0.30195-0.96712-0.45576-0.21545-0.059905-0.21465-0.089857-0.62384-0.17971 0.33122-0.089857 0.73559-0.18538 1.1094-0.22262 0.33765-0.03481 0.66002-0.05181 0.96873-0.05181 0.39312 0 0.75729 0.026714 1.1014 0.076095-0.76212 3.7384-2.6055 7.0785-5.1861 9.6787-1.14 1.1463-2.4246 2.1444-3.8202 2.9718v-13.036h-8.039e-4zm8.5706-0.272c-0.76373 0-1.4181 0.090667-1.8482 0.13033-0.57641 0.057476-1.6086 0.42014-1.837 0.48895-0.40035-0.10929-2.3217-1.0759-3.6337-1.0783-0.05949 0-0.11737 0.001619-0.17847 0.0056667-0.30227 0.025095-0.87708 0.17-0.93657 0.17486-0.043412 0.0048571-0.088431 0.014571-0.13667 0.025905v-13.297l0.2042 0.024286 0.0080392-0.33757 0.21063-0.2121 0.0040196-0.41286c0.20098-0.102 0.20098-0.3651 0.20098-0.3651l0.48718-0.34729c0.0088432 0.0016191 0.01849 0.0032381 0.028137 0.0048572 0.043412 0.017 0.090039 0.023476 0.13425 0.023476h8.039e-4c0.0048235 0 0.010451 0.0024286 0.016078 0.0024286h0.0040197c0.15757-0.001619 0.32076-0.072857 0.47512-0.19348l-0.0032157-0.0040476v-8.095e-4l0.0040196 0.0048571c0.026529-0.022667 0.049843-0.047762 0.074765-0.069619 0.1632-0.1441 0.27816-0.30033 0.2862-0.4849 0-0.022667-0.0048235-0.048571-0.011255-0.072048 8.039e-4 -0.038048-0.0088431-0.076095-0.034569-0.10524l-1.1737-1.2426c0.0072353-0.0097143 0.01849-0.01619 0.023314-0.028333 0.02251-0.055048 0.0096471-0.12062-0.032157-0.16352l-1.2895-1.3114c0.012863-0.014571 0.028137-0.024286 0.034569-0.042095 0.024118-0.055048 0.010451-0.11981-0.031353-0.1619l-1.2388-1.2604c0.0024118-0.0064762 0.011255-0.0097143 0.012863-0.017 0.024118-0.056667 0.011255-0.12062-0.030549-0.1619l-0.22751-0.23152c2.1288 0.96171 4.0542 2.2974 5.6829 3.9359 3.4456 3.4704 5.576 8.262 5.576 13.558 0 1.1082-0.097274 2.1906-0.27575 3.2462-0.18571-0.011333-0.37302-0.024286-0.54908-0.024286zm-7.1059-15.711c0.14069-0.11333 0.29906-0.18376 0.35694-0.1101 0.058686 0.073667-0.0096471 0.22424-0.15114 0.34-0.14069 0.11333-0.30308 0.14733-0.36176 0.072857-0.057882-0.072857 0.014471-0.18862 0.15596-0.30276zm-11.663-15.306c0.061902 0.001619 0.11737 0.014571 0.15596 0.029143v1.0119c-0.047431-0.0032381-0.1021-0.0097143-0.15596-0.013762v-1.0273zm-0.15676 1.254h8.039e-4l0.80714 0.11495c-0.0016079 0.057476-0.028137 0.097143-0.061098 0.13438-0.010451 0.010524-0.020902 0.019429-0.031353 0.028333l-0.6568-0.088238c-0.049843-0.077714-0.058686-0.13114-0.058686-0.16595v-0.023476zm-0.11496 0.53914 0.75729 0.102 1.6794 1.7745c-0.13265-0.047762-0.29504-0.13357-0.43331-0.22262-0.21625-0.136-0.38588-0.272-0.38588-0.272l-0.12782-0.10119-0.074765 0.14571c-0.071549 0.13114-0.13908 0.15786-0.25243 0.1619-0.164 0.0040476-0.40678-0.11414-0.59571-0.24124-0.18651-0.12629-0.32478-0.25257-0.32478-0.25257l-0.11818-0.1101-0.084412 0.13681c-0.11737 0.18052-0.24439 0.21776-0.38267 0.22181-0.099686 0-0.20018-0.027524-0.27414-0.056667-0.0024117-8.0952e-4 -0.0056274-0.0024286-0.0080392-0.0032381l0.62545-1.2831zm-0.78624 0.43148 0.50004-0.36833-0.55551 1.1358s-0.22992 0.23881-0.21786-0.10767c0 0-1.3763 1.9291-1.402 1.3268l1.6754-1.9866zm-4.6885 6.6195 1.1705-1.4418 0.020902-0.13357 1.2573-1.543 0.02251-0.15219 1.6842-1.9825c0.10371-0.06719 0.17686-0.090667 0.20902-0.097952v0.0080952c8.039e-4 0.021048-0.0032157 0.042095-0.0072353 0.058286l-9.971 13.696-0.32076-0.31167 1.025-1.2685 0.02251-0.15057 1.1785-1.4693 0.021706-0.17729 1.2565-1.5656 0.0080392-0.15219 1.2179-1.5616 0.021706-0.13357 1.1794-1.5073 0.0032157-0.11414zm20.501 33.247c-3.6361 3.6607-8.6542 5.9225-14.2 5.9225-5.5471 0-10.564-2.2618-14.2-5.9225-3.6345-3.6599-5.8807-8.7121-5.8807-14.296s2.2462-10.637 5.8807-14.296c2.1376-2.1517 4.7584-3.8137 7.6799-4.8231l-0.73318 0.92043c-7.1645 2.8981-12.226 9.9499-12.226 18.199 0 8.4644 5.3236 15.673 12.782 18.425 2.0878 0.76905 4.3428 1.1884 6.6967 1.1884v0.001619c8.4042 0 15.566-5.3599 18.296-12.871 0.76453-2.1031 1.1818-4.3739 1.1818-6.7433 0-8.3543-5.1909-15.482-12.499-18.309l-0.27976-0.28576c0.012059-0.012952 0.024922-0.023476 0.032157-0.038857 0.02251-0.055857 0.010451-0.12143-0.031353-0.16433l-0.38669-0.39262c3.0043 1.0006 5.6974 2.6909 7.8873 4.8936 3.6337 3.6599 5.8807 8.7121 5.8807 14.296-8.039e-4 5.5849-2.2478 10.637-5.8815 14.296zm-20.678-3.0908c-0.046628-0.026714-0.10451-0.029143-0.15114-0.0040476l-1.5419 0.82329c-0.056275 0.029143-0.08602 0.086619-0.081196 0.1441l0.0056274 3.9893c0 0.055048 0.027333 0.10686 0.073961 0.13438 0.024118 0.013762 0.053059 0.021048 0.079588 0.021048 0.024922 0 0.049843-0.0064762 0.072353-0.01781l1.5403-0.82895c0.049039-0.027524 0.079588-0.080952 0.079588-0.13681l-0.0048236-3.9926c8.039e-4 -0.053429-0.027333-0.10281-0.072353-0.13195zm-1.0274 4.4629-0.43412 0.23395-0.0064314-3.651 0.44055-0.23233v3.6493zm0.30549-0.16514v-3.6469l0.48878-0.26067 0.0048236 3.6404-0.49361 0.26714zm11.152-22.472c-0.068333 0.0024286-0.13104 0.032381-0.20902 0.064762-0.11335 0.048572-0.27092 0.10281-0.37382 0.16676-0.10773 0.068-0.17204 0.16595-0.20339 0.22667-0.041804 0.048571-0.37061 0.24852-0.44537 0.30438-0.029745 0.022667-0.061902 0.029143-0.099686 0.03481 0-0.0056667 0.0024118-0.014572 0.0024118-0.021857v-0.0072857-0.010524l-8.04e-4 -0.012143c-0.023314-0.11738-0.064314-0.153-0.065922-0.22505v-0.019428-0.010524c0-0.12952-0.027333-0.76176-0.027333-1.0912 0-0.05181 0.0016079-0.097143 0.0016079-0.1279 8.039e-4 -0.013762 0.0032157-0.025095 0.0040196-0.031571 0.033765-0.080143 0.073157-0.20643 0.073961-0.35619 0-0.015381 0-0.029952-8.039e-4 -0.042905-0.011255-0.16514-0.098078-0.72533-0.11175-0.87671-0.0072353-0.080952-0.019294-0.16029-0.038588-0.22748-0.02251-0.05019-0.025726-0.11819-0.096471-0.15219 0.0032157 8.095e-4 -0.0048235 0.0040476-0.0048235 0.0040476l8.039e-4 -0.0056667c8.039e-4 8.096e-4 0.0032157 8.096e-4 0.0040196 0.0016191-0.0032157-0.0016191-0.0032157-8.095e-4 -0.0040196-0.0024286h-8.039e-4c-0.0088431-0.0024286-0.017686-0.0056667-0.027333-0.0080952v-0.0024286h-0.0024118v-8.095e-4s-0.0048235-8.096e-4 -0.024922 0.001619c-0.0056274 0.0024286-0.017686 0.0040476-0.033765 0.01781-0.068333 0.038048-0.065118 0.10524-0.082804 0.153-0.014471 0.065572-0.023314 0.1441-0.032157 0.22019-0.016078 0.16514-0.090843 0.71805-0.099686 0.87914 0 0.0089047-8.04e-4 0.021048-8.04e-4 0.03481 8.04e-4 0.15705 0.045824 0.289 0.080392 0.36671 0.0040196 0.030762 0.0064314 0.15219 0.0056275 0.289 0 0.32462-0.011255 0.79252-0.011255 0.93824 0 0.013762 0 0.022667 0.0016078 0.035619v0.0080953c8.039e-4 0.077714-0.040196 0.11333-0.062706 0.238 0-0.0024286-0.0024118 0.0089047-0.0024118 0.024286 0.0024118 0.041286 0.012059 0.087429 0.024118 0.13276-0.043412 0.059905-0.073157 0.1279-0.073157 0.20805 0 0.20319 0.16561 0.36914 0.369 0.36914 0.14631 0 0.27092-0.088238 0.32961-0.21614 0.038588-0.012143 0.073157-0.023476 0.11094-0.053429l-0.053059-0.056667 0.053863 0.055857c0.061098-0.072048 0.05949-0.11657 0.11175-0.14976 0.045824-0.030762 0.14229-0.1101 0.24118-0.18619 0.048235-0.038048 0.097275-0.073667 0.13265-0.10038 0.019294-0.013762 0.035373-0.025095 0.046628-0.031572 0.0056274-0.001619 0.0080392-0.003238 0.011255-0.0048571 0.068333-0.0089048 0.18088-0.036429 0.27896-0.11738 0.095667-0.079333 0.19214-0.20805 0.27735-0.30276 0.062706-0.076905 0.12541-0.12386 0.13586-0.22424 0-0.018619-0.0040196-0.039667-0.016078-0.057476-0.030549-0.037238-0.068333-0.042905-0.092451-0.042095zm-1.6086-3.3466h-0.0048236c-0.16239 8.095e-4 -0.32318 0.017-0.47994 0.038857-1.8932 0.17-3.37 1.891-3.3692 3.9796l-8.04e-4 8.095e-4c0 0.0056667 0 0.012143 8.04e-4 0.017 0.0080392 2.0789 1.48 3.7918 3.3692 3.961 0.15837 0.021857 0.31996 0.038048 0.48557 0.038048h0.0024117c2.0484 0 3.6876-1.8077 3.6908-4.016v-0.001619c-0.0024118-2.2092-1.644-4.016-3.694-4.0177zm0.53863 7.6306c-0.17445 0.032381-0.35292 0.05181-0.53622 0.05181l-0.0024117-0.001619c-1.8329-0.001619-3.3403-1.6263-3.3403-3.6607l-0.0016078-0.012952c0.0064314-2.0287 1.5114-3.6493 3.3427-3.6542h0.041c0.093255 0.001619 0.1841 0.0097143 0.27414 0.018619 1.5283 0.40395 2.657 1.8651 2.6586 3.6429-8.04e-4 1.7389-0.87788 3.1588-2.4359 3.6161zm-10.952-2.9151c-0.0024118-1.9744 0.68253-3.5174 1.5998-3.5902 0.032157-0.0032381 0.058686-0.031571 0.058686-0.066381 0-0.03319-0.024922-0.062333-0.057882-0.063952-0.019294-8.096e-4 -0.16882-0.05019-0.22671-0.052619v0.0016191c-8.039e-4 0-0.0024117 0-0.0024117-0.0016191-1.1054 0.01619-1.927 1.7065-1.9318 3.7594 0.0032157 2.4423 0.82643 3.7643 1.7662 3.7772 0.058686 0 0.11818-0.0064762 0.17686-0.017 0.023314-0.0040476 0.15516-0.013762 0.18731-0.017s0.058686-0.029952 0.058686-0.065572c8.039e-4 -0.032381-0.023314-0.062333-0.057078-0.065571-1.0387-0.10929-1.5749-1.6263-1.5717-3.5983zm1.9744-0.43229c-0.041 0.0024285-0.075569 0.030762-0.1222 0.061524-0.064314 0.045333-0.15355 0.095524-0.21465 0.15705-0.060294 0.063952-0.096471 0.15462-0.11496 0.2129-0.024118 0.046143-0.21384 0.23233-0.25565 0.28414-0.017686 0.021857-0.035373 0.026714-0.056274 0.034 0-0.0072857 0.0016078-0.012952 0.0016078-0.020238-0.0016078-0.0056666-0.0016078-0.0080952-0.0016078-0.0097143v-0.0072857-0.012952c-0.014471-0.1109-0.03698-0.14571-0.037784-0.21129v-0.018619-0.0097143c0-0.12467-0.016882-0.71967-0.016882-1.0313 0-0.049381 8.039e-4 -0.089857 0.0024118-0.12062-0.0016079-0.012952 8.039e-4 -0.023476 8.039e-4 -0.030762 0.01849-0.073667 0.041-0.1951 0.042608-0.33514 0-0.014572-8.039e-4 -0.028333-0.0016078-0.039667-0.0064314-0.15705-0.056274-0.68567-0.065118-0.82895-0.0040196-0.076095-0.012059-0.15138-0.020902-0.21614-0.014471-0.046952-0.016882-0.11171-0.057078-0.14329 0 8.096e-4 -0.0032156 0.0040477-0.0032156 0.0040477l8.039e-4 -0.0056667s8.039e-4 0 0.0024117 0.001619c-0.0024117-0.001619-0.0024117-0.001619-8.039e-4 -0.001619h-0.0024117c-0.0040197-0.0040476-0.0096471-0.0072857-0.015275-0.0097143v-0.0032381h-0.0016078-0.014471c-0.0024118 0.0040476-0.009647 0.0048571-0.019294 0.01781-0.037784 0.035619-0.03698 0.102-0.046628 0.1449-0.009647 0.062333-0.015274 0.136-0.01849 0.20805-0.009647 0.15624-0.051451 0.67595-0.057078 0.83057-8.039e-4 0.0064762-8.039e-4 0.018619-8.039e-4 0.032381 0 0.14814 0.025726 0.27362 0.046627 0.3481 0.0032157 0.027524 0.0056275 0.14005 0.0056275 0.272 0 0.30519-0.0064314 0.748-0.0064314 0.88643-8.039e-4 0.011333-8.039e-4 0.021048 8.039e-4 0.034v0.0064762c0.0016079 0.073667-0.02251 0.10767-0.035372 0.22343v0.024286c0 0.039667 0.0064314 0.082571 0.012059 0.12386-0.024118 0.057476-0.041804 0.12143-0.041804 0.1951 8.039e-4 0.19429 0.098078 0.35214 0.21384 0.35298 0.084412 0.0015963 0.15676-0.083404 0.18973-0.2024 0.020902-0.011333 0.042608-0.021048 0.062706-0.051l-0.031353-0.053429 0.031353 0.052619c0.036176-0.06719 0.035373-0.10929 0.065118-0.13843 0.025725-0.029952 0.081196-0.10605 0.13827-0.17648 0.028137-0.035619 0.056274-0.06881 0.076372-0.093905 0.011255-0.013762 0.020902-0.024286 0.027333-0.029143 0.0024118-0.0032381 0.0032157-0.0032381 0.0040197-0.0048572 0.040196-0.0080952 0.10531-0.035619 0.16239-0.10848 0.053059-0.075286 0.10853-0.19671 0.15757-0.28576 0.036176-0.072857 0.072353-0.11738 0.078784-0.21048-8.04e-4 -0.01781-0.0024118-0.038048-0.010451-0.055048-0.016882-0.03481-0.040196-0.042905-0.053059-0.042905zm6.9925 22.379 3.6201 0.57476c0.011255 0.001619 0.02251 0.0032381 0.034569 0.0032381 0.051451 0 0.10129-0.020238 0.1431-0.054238 0.047431-0.042905 0.075569-0.10443 0.074782-0.16838l-0.015291-3.6833c0.0064314-0.097952-0.053863-0.18862-0.14471-0.221-0.015275-0.0064762-0.032157-0.0097143-0.049039-0.011333l-3.5927-0.55695c-0.062706-0.0089048-0.12782 0.0097143-0.17526 0.051-0.048235 0.042905-0.075569 0.10281-0.075569 0.16676l-0.0056274 3.6825c8.039e-4 0.10524 0.07798 0.19914 0.18571 0.21695zm2.1473-3.3498 1.2726 0.19752 0.013667 3.251-1.2863-0.20562v-3.243zm-1.89-0.29224 1.4543 0.22424v3.2413l-1.4583-0.2299 0.0040197-3.2357zm-0.056275-10.09s1.2204-0.01781 1.6014 1.2888c0 0 0.22831-1.0402 1.5114-0.99167-8.04e-4 0-1.3088-1.4952-3.1128-0.2971zm1.6255 0.66786c-0.13747-0.19671-0.42769-0.56748-0.79829-0.73829 0.15194-0.046143 0.37061-0.095524 0.62545-0.095524 0.29825 0.0032381 0.64073 0.068 0.98159 0.28333-0.23716 0.052619-0.61018 0.18862-0.80875 0.55048z" fill="#333" fill-opacity=".85"/>
<g transform="translate(51.384 19.335)" fill="#333">
<polygon id="Path" points="24.522 1.8247 18.247 19.441 17.706 19.441 13.27 6.8664 8.6261 19.441 8.0834 19.441 1.7791 1.7016 0 1.458 0 0.48733 6.7867 0.48733 6.7867 1.458 4.2825 1.7016 8.8994 14.912 12.548 4.8604 11.402 1.7016 9.5626 1.458 9.5626 0.48733 16.497 0.48733 16.497 1.458 13.995 1.7016 13.995 2.0052 18.459 14.912 23.073 1.7931 20.662 1.4571 20.662 0.48652 26.302 0.48652 26.302 1.4571"/>
<polygon id="Path" points="35.043 19.198 35.043 18.347 37.214 18.104 37.214 12.88 30.337 12.88 30.337 18.104 32.509 18.347 32.509 19.198 25.993 19.198 25.993 18.347 28.166 18.104 28.166 7.1675 25.993 6.9255 25.993 6.0747 32.51 6.0747 32.51 6.9255 30.338 7.1675 30.338 11.787 37.215 11.787 37.215 7.1675 35.044 6.9255 35.044 6.0747 41.528 6.0747 41.528 6.9255 39.358 7.1675 39.358 18.104 41.528 18.347 41.528 19.198"/>
<polygon id="Path" points="45.151 19.198 45.151 18.347 47.324 18.104 47.324 7.1675 45.151 6.9255 45.151 6.0747 51.666 6.0747 51.666 6.9255 49.497 7.1675 49.497 18.104 51.666 18.347 51.666 19.198"/>
<polygon id="Path" points="65.815 9.7216 65.483 7.1683 61.834 7.1683 61.834 18.105 64.006 18.348 64.006 19.199 57.49 19.199 57.49 18.348 59.662 18.105 59.662 7.1683 55.982 7.1683 55.649 9.7216 54.685 9.7216 54.685 6.0755 66.78 6.0755 66.78 9.7216"/>
<polygon id="Path" points="81.462 19.198 81.462 18.347 83.634 18.104 83.031 8.9622 78.083 19.198 77.602 19.198 72.745 9.2043 72.203 17.984 74.373 18.347 74.373 19.198 68.763 19.198 68.763 18.347 70.935 17.984 71.658 7.1683 69.489 6.9263 69.489 6.0755 73.59 6.0755 78.356 16.009 83.151 6.0755 87.225 6.0755 87.225 6.9263 85.053 7.1084 85.807 18.105 87.98 18.348 87.98 19.199 81.462 19.199"/>
<path id="b" d="m97.936 19.198v-0.85081l2.2622-0.24286-1.2356-2.886h-5.2504l-1.2067 2.8552 2.263 0.27362v0.85081h-5.1885v-0.85081l1.6585-0.30276 5.1588-12.211h0.96551l5.2191 12.272 1.6279 0.24286v0.85081h-6.2738v-8.096e-4zm-1.5685-10.236h-0.061098l-2.1416 5.1623h4.3444l-2.1416-5.1623z"/>
<polygon id="Path" points="119.41 7.2914 119.41 19.319 118.72 19.319 109.37 9.082 109.37 17.984 111.51 18.347 111.51 19.198 105.96 19.198 105.96 18.347 108.1 17.984 108.1 7.7156 107.53 7.1076 105.96 6.9255 105.96 6.0747 109.52 6.0747 118.15 15.583 118.15 7.2914 116.01 6.9263 116.01 6.0755 121.56 6.0755 121.56 6.9263"/>
<path id="Path" d="m143.01 19.683c-5.3718 0-9.4115-3.795-9.4115-9.7191 0-5.9241 3.9191-9.9636 9.8038-9.9636 2.5026 0 4.01 0.42662 5.125 0.91071l0.39231-0.91071h0.96551l-0.24037 5.4983h-0.96551l-0.48396-2.3986c-1.4463-1.2151-2.8057-1.8846-5.3091-1.8846-3.6209 0-6.6356 3.1304-6.6356 8.2928 0 4.6167 2.5026 8.8092 6.9684 8.8092 2.4118 0 4.4955-1.003 6.0921-2.673l0.72514 0.97062c-1.9913 2.036-4.2817 3.0681-7.0263 3.0681z"/>
<path d="m158.6 19.683c-3.9834 0-7.089-2.7929-7.089-6.9247 0-4.1318 3.2285-7.1675 7.2088-7.1675 3.9818 0 7.089 2.7953 7.089 6.923 0 4.131-3.2269 7.1691-7.2088 7.1691zm0-12.999c-2.657 0-4.6161 2.1849-4.6161 5.8302 0 3.6453 2.0805 6.0763 4.7359 6.0763 2.657 0 4.6161-2.1873 4.6161-5.8318 0-3.6453-2.0822-6.0747-4.7359-6.0747z"/>
<polygon id="Path" points="167.46 19.198 167.46 18.347 169.63 18.104 169.63 7.1675 167.46 6.9255 167.46 6.0747 173.97 6.0747 173.97 6.9255 171.8 7.1675 171.8 18.104 176.92 18.104 177.38 15.341 178.4 15.341 178.4 19.198"/>
<polygon id="Path" points="180.9 19.198 180.9 18.347 183.07 18.104 183.07 7.1675 180.9 6.9255 180.9 6.0747 187.41 6.0747 187.41 6.9255 185.24 7.1675 185.24 18.104 190.37 18.104 190.82 15.341 191.84 15.341 191.84 19.198"/>
<polygon id="Path" points="193.78 19.198 193.78 18.347 195.96 18.104 195.96 7.1675 193.78 6.9255 193.78 6.0747 204.61 6.0747 204.61 9.507 203.65 9.507 203.32 7.1667 198.13 7.1667 198.13 11.786 201.69 11.786 201.93 10.328 202.83 10.328 202.83 14.334 201.93 14.334 201.69 12.879 198.13 12.879 198.13 18.103 203.5 18.103 203.89 15.642 204.91 15.642 204.91 19.196 193.78 19.196"/>
<path id="a" d="m220.7 14.824v3.4016c-0.99526 0.63871-2.9584 1.4571-5.58 1.4571-4.1032 0-7.2401-2.8252-7.2401-6.9562 0-4.131 2.8941-7.136 7.4218-7.136 2.0492 0 3.3162 0.45414 4.1908 0.72695l0.24037-0.72695h0.90602l-0.18088 4.1302h-0.90441l-0.33282-1.8222c-1.3265-0.88319-2.4729-1.2151-4.1627-1.2151-2.7759 0-4.7062 2.214-4.7062 5.8002 0 3.5562 1.8997 6.1062 4.9755 6.1062 1.5701 0 2.5356-0.33433 3.1996-0.85162v-2.9151l-2.3539-0.24367v-0.85243h5.4297v0.79171l-0.9028 0.30519z"/>
<polygon points="224.42 19.198 224.42 18.347 226.59 18.104 226.59 7.1675 224.42 6.9255 224.42 6.0747 235.24 6.0747 235.24 9.507 234.28 9.507 233.95 7.1667 228.76 7.1667 228.76 11.786 232.32 11.786 232.56 10.328 233.47 10.328 233.47 14.334 232.56 14.334 232.32 12.879 228.76 12.879 228.76 18.103 234.13 18.103 234.52 15.642 235.55 15.642 235.55 19.196 224.42 19.196"/>
</g>
</g>
</g>
</svg>
