<?xml version="1.0" encoding="UTF-8"?>
<svg version="1.1" viewBox="0 0 165 58" xmlns="http://www.w3.org/2000/svg">
<title>Atoms/1.Logo/Stacked</title>
<g fill="none" fill-rule="evenodd">
<g transform="translate(-0)" fill="#000">
<path d="m87.264 25.25c-0.196 0.043-0.503 0.155-0.667 0.451-0.113-0.162-0.352-0.466-0.657-0.604 0.124-0.039 0.305-0.079 0.515-0.079 0.246 2e-3 0.528 0.055 0.809 0.232m-2.008-0.096s1.008-0.016 1.321 1.055c0 0 0.189-0.851 1.247-0.812 0 0-1.078-1.224-2.568-0.243"/>
<path d="m85.303 33.418 1.199 0.184v2.656l-1.203-0.19 4e-3 -2.65zm1.559 0.239 1.05 0.161 0.011 2.663-1.061-0.167v-2.657zm-1.771 2.744 2.986 0.47c9e-3 1e-3 0.018 2e-3 0.028 2e-3 0.043 0 0.084-0.015 0.117-0.044 0.04-0.034 0.064-0.085 0.06303-0.137l-0.01303-3.017c5e-3 -0.08-0.044-0.155-0.119-0.182-0.013-5e-3 -0.026-7e-3 -0.04-9e-3l-2.962-0.455c-0.052-8e-3 -0.106 7e-3 -0.146 0.041s-0.062 0.085-0.062 0.137l-5e-3 3.016c0 0.088 0.064 0.164 0.153 0.178z"/>
<path d="m87.61 17.303c-0.056 2e-3 -0.107 0.027-0.172 0.054-0.093 0.039-0.223 0.084-0.308 0.137-0.089 0.055-0.142 0.135-0.167 0.186-0.036 0.039-0.307 0.203-0.369 0.249-0.024 0.019-0.051 0.023-0.081 0.029 0-6e-3 2e-3 -0.013 2e-3 -0.019v-7e-3 -7e-3l-1e-3 -0.011c-0.02-0.095-0.053-0.125-0.054-0.184v-0.015-9e-3c0-0.107-0.023-0.625-0.023-0.893 0-0.043 1e-3 -0.079 2e-3 -0.104 1e-3 -0.012 2e-3 -0.021 3e-3 -0.027 0.027-0.065 0.06-0.169 0.061-0.292 0-0.012 0-0.024-1e-3 -0.034-8e-3 -0.136-0.08-0.595-0.092-0.719-6e-3 -0.066-0.016-0.131-0.031-0.187-0.019-0.04-0.021-0.096-0.08-0.124 2e-3 1e-3 -4e-3 4e-3 -4e-3 4e-3l1e-3 -5e-3c1e-3 1e-3 2e-3 1e-3 3e-3 1e-3 -2e-3 -1e-3 -2e-3 0-3e-3 -2e-3h-1e-3c-7e-3 -2e-3 -0.014-5e-3 -0.023-7e-3v-1e-3h-2e-3v-1e-3c0-1e-3 -4e-3 -1e-3 -0.02 1e-3 -5e-3 2e-3 -0.015 3e-3 -0.029 0.015-0.056 0.031-0.053 0.086-0.068 0.126-0.012 0.053-0.02 0.118-0.027 0.18-0.013 0.135-0.075 0.588-0.081 0.72 0 7e-3 -1e-3 0.018-1e-3 0.029 1e-3 0.128 0.037 0.237 0.065 0.3 4e-3 0.026 7e-3 0.124 6e-3 0.237 0 0.266-0.01 0.649-0.01 0.769 0 0.01 0 0.018 2e-3 0.029 0 1e-3 -1e-3 3e-3 -1e-3 6e-3 2e-3 0.063-0.032 0.093-0.051 0.195 0-2e-3 -1e-3 7e-3 -1e-3 0.02 1e-3 0.035 9e-3 0.072 0.018 0.108-0.035 0.049-0.06 0.106-0.06 0.17 0 0.168 0.137 0.304 0.304 0.304 0.121 0 0.225-0.074 0.273-0.177 0.03-0.01 0.06-0.019 0.091-0.045 0.051-0.059 0.05-0.096 0.093-0.123 0.038-0.025 0.117-0.09 0.199-0.153 0.04-0.031 0.079-0.06 0.11-0.082 0.015-0.011 0.028-0.02 0.038-0.025 5e-3 -2e-3 7e-3 -3e-3 9e-3 -5e-3 0.056-7e-3 0.149-0.03 0.23-0.095 0.079-0.065 0.158-0.171 0.229-0.248 0.052-0.064 0.103-0.102 0.112-0.184 0-0.016-4e-3 -0.032-0.013-0.047-0.024-0.032-0.057-0.037-0.077-0.037"/>
<polygon points="59.541 48.903 61.061 48.777 61.061 48.185 58.21 48.185 54.852 55.091 51.517 48.185 48.645 48.185 48.645 48.777 50.165 48.945 49.658 56.464 48.138 56.717 48.138 57.308 52.065 57.308 52.065 56.717 50.545 56.464 50.925 50.361 54.325 57.308 54.663 57.308 58.125 50.192 58.548 56.548 57.027 56.717 57.027 57.308 61.59 57.308 61.59 56.717 60.069 56.548"/>
<polygon points="81.211 48.777 82.71 49.03 82.71 54.796 76.671 48.185 74.178 48.185 74.178 48.777 75.277 48.903 75.679 49.326 75.679 56.464 74.178 56.717 74.178 57.308 78.065 57.308 78.065 56.717 76.565 56.464 76.565 50.276 83.112 57.393 83.597 57.393 83.597 49.03 85.096 48.777 85.096 48.185 81.211 48.185"/>
<path d="m65.921 53.782 1.499-3.59h0.042l1.5 3.59h-3.041zm2.238-5.765h-0.676l-3.611 8.489-1.161 0.211v0.592h3.633v-0.592l-1.584-0.191 0.844-1.984h3.675l0.865 2.006-1.584 0.169v0.592h4.393v-0.592l-1.141-0.169-3.653-8.531z"/>
<polygon points="123.86 56.547 120.27 56.547 120.27 48.945 121.79 48.776 121.79 48.185 117.23 48.185 117.23 48.776 118.75 48.945 118.75 56.547 117.23 56.716 117.23 57.308 124.89 57.308 124.89 54.626 124.17 54.626"/>
<path d="m100.26 56.696c-3.126 0-4.878-2.914-4.878-6.124 0-3.59 2.111-5.765 4.646-5.765 1.751 0 2.702 0.465 3.715 1.31l0.339 1.668h0.676l0.168-3.823h-0.675l-0.275 0.634c-0.781-0.338-1.837-0.634-3.59-0.634-4.117 0-6.863 2.809-6.863 6.927s2.83 6.757 6.589 6.757c1.922 0 3.527-0.718 4.92-2.133l-0.506-0.675c-1.119 1.161-2.577 1.858-4.266 1.858"/>
<polygon points="164.18 54.837 163.9 56.547 160.14 56.547 160.14 52.916 162.63 52.916 162.8 53.928 163.44 53.928 163.44 51.142 162.8 51.142 162.63 52.155 160.14 52.155 160.14 48.945 163.77 48.945 164.01 50.572 164.68 50.572 164.68 48.185 157.1 48.185 157.1 48.776 158.62 48.945 158.62 56.547 157.1 56.716 157.1 57.308 164.89 57.308 164.89 54.837"/>
<path d="m151.34 54.097 1.647 0.17v2.027c-0.464 0.359-1.14 0.591-2.239 0.591-2.153 0-3.483-1.773-3.483-4.244 0-2.492 1.35-4.033 3.294-4.033 1.182 0 1.985 0.231 2.914 0.844l0.231 1.268h0.634l0.127-2.873h-0.633l-0.17 0.507c-0.611-0.19-1.498-0.507-2.934-0.507-3.169 0-5.195 2.091-5.195 4.962 0 2.872 2.196 4.836 5.068 4.836 1.837 0 3.209-0.569 3.906-1.013v-2.365l0.634-0.211v-0.55h-3.801v0.591z"/>
<polygon points="133.27 56.547 129.68 56.547 129.68 48.945 131.2 48.776 131.2 48.185 126.64 48.185 126.64 48.776 128.16 48.945 128.16 56.547 126.64 56.716 126.64 57.308 134.3 57.308 134.3 54.626 133.58 54.626"/>
<polygon points="142.46 56.547 138.7 56.547 138.7 52.916 141.19 52.916 141.36 53.928 141.99 53.928 141.99 51.142 141.36 51.142 141.19 52.155 138.7 52.155 138.7 48.945 142.33 48.945 142.56 50.572 143.24 50.572 143.24 48.185 135.66 48.185 135.66 48.776 137.18 48.945 137.18 56.547 135.66 56.716 135.66 57.308 143.45 57.308 143.45 54.837 142.73 54.837"/>
<path d="m111.11 56.885c-1.86 0-3.316-1.689-3.316-4.223s1.372-4.054 3.231-4.054c1.858 0 3.316 1.689 3.316 4.223s-1.373 4.054-3.231 4.054m0-9.038c-2.789 0-5.047 2.111-5.047 4.984 0 2.872 2.175 4.814 4.962 4.814s5.047-2.111 5.047-4.983c0-2.871-2.175-4.815-4.962-4.815"/>
<path d="m77.696 18.425h-1e-3c-1e-3 -1.618 0.564-2.881 1.32-2.941 0.027-3e-3 0.049-0.026 0.049-0.054s-0.021-0.052-0.048-0.054c-0.015 0-0.14-0.041-0.187-0.043v2e-3c-1e-3 0-2e-3 0-2e-3 -2e-3 -0.912 0.014-1.589 1.399-1.593 3.08 2e-3 2 0.682 3.083 1.457 3.094 0.048 0 0.097-5e-3 0.146-0.014 0.018-3e-3 0.128-0.01 0.154-0.013 0.027-2e-3 0.049-0.026 0.049-0.053 1e-3 -0.028-0.02-0.052-0.047-0.055-0.858-0.089-1.3-1.332-1.297-2.947"/>
<path d="m78.413 35.71v-2.988l0.403-0.213 5e-3 2.982-0.408 0.219zm-0.253 0.135-0.357 0.192-5e-3 -2.989 0.362-0.192v2.989zm0.848-3.654c-0.038-0.023-0.086-0.025-0.124-4e-3l-1.272 0.673c-0.046 0.024-0.07 0.071-0.067 0.119l5e-3 3.269c0 0.044 0.024 0.086 0.062 0.109 0.019 0.011 0.042 0.017 0.065 0.017 0.021 0 0.041-5e-3 0.059-0.015l1.271-0.679c0.041-0.023 0.066-0.065 0.066-0.112l-4e-3 -3.27c0-0.043-0.023-0.084-0.061-0.107z"/>
<path d="m79.324 18.071c-0.033 2e-3 -0.061 0.026-0.1 0.051-0.053 0.036-0.127 0.077-0.177 0.127-0.051 0.053-0.08 0.128-0.095 0.175-0.02 0.038-0.176 0.191-0.211 0.234-0.014 0.017-0.029 0.021-0.047 0.027 1e-3 -6e-3 2e-3 -0.011 2e-3 -0.017-1e-3 -4e-3 -1e-3 -6e-3 -1e-3 -8e-3v-6e-3l-1e-3 -0.01c-0.011-0.09-0.03-0.119-0.031-0.174v-0.015-8e-3c0-0.102-0.013-0.59-0.014-0.844 0-0.04 2e-3 -0.074 3e-3 -0.1-1e-3 -0.01 0-0.019 0-0.024 0.016-0.062 0.034-0.16 0.036-0.274 0-0.012-1e-3 -0.024-2e-3 -0.034-5e-3 -0.128-0.046-0.562-0.054-0.679-3e-3 -0.062-9e-3 -0.124-0.017-0.177-0.011-0.038-0.013-0.091-0.046-0.117 0 1e-3 -3e-3 3e-3 -3e-3 3e-3l1e-3 -4e-3s1e-3 0 2e-3 1e-3c-2e-3 -1e-3 -2e-3 -1e-3 -1e-3 -2e-3h-2e-3c-4e-3 -3e-3 -9e-3 -5e-3 -0.013-7e-3v-2e-3h-1e-3s-3e-3 -1e-3 -0.012 0c-2e-3 3e-3 -8e-3 4e-3 -0.016 0.014-0.032 0.031-0.031 0.084-0.039 0.119-7e-3 0.051-0.012 0.112-0.015 0.171-8e-3 0.127-0.043 0.554-0.047 0.68-1e-3 5e-3 -1e-3 0.016-1e-3 0.027 0 0.121 0.022 0.224 0.039 0.284 2e-3 0.024 4e-3 0.116 4e-3 0.224 0 0.25-5e-3 0.613-5e-3 0.725-1e-3 0.01-1e-3 0.018 1e-3 0.028v5e-3c0 0.061-0.02 0.089-0.03 0.184 0-1e-3 -1e-3 8e-3 -1e-3 0.019 1e-3 0.034 6e-3 0.068 0.011 0.103-0.02 0.046-0.035 0.099-0.035 0.16 1e-3 0.158 0.081 0.287 0.176 0.28801 0.07 9.893e-4 0.129-0.068011 0.157-0.16601 0.017-9e-3 0.035-0.018 0.052-0.041l-0.026-0.045 0.026 0.044c0.029-0.055 0.028-0.089 0.052-0.114 0.022-0.024 0.067-0.087 0.115-0.145 0.023-0.029 0.046-0.056 0.062-0.077 0.01-0.01 0.018-0.019 0.023-0.023 3e-3 -2e-3 3e-3 -2e-3 4e-3 -4e-3 0.033-7e-3 0.087-0.029 0.133-0.089 0.045-0.061 0.091-0.161 0.131-0.233 0.03-0.06 0.06-0.097 0.065-0.174-1e-3 -0.014-3e-3 -0.031-9e-3 -0.045-0.013-0.029-0.032-0.035-0.043-0.035"/>
<polygon points="38.282 50.72 38.958 50.72 39.191 48.945 41.767 48.945 41.767 56.548 40.246 56.717 40.246 57.308 44.808 57.308 44.808 56.717 43.287 56.548 43.287 48.945 45.842 48.945 46.074 50.72 46.75 50.72 46.75 48.185 38.282 48.185"/>
<path d="m86.729 20.814c-0.144 0.026-0.292 0.043-0.442 0.043l-3e-3 -1e-3c-1.512-2e-3 -2.755-1.334-2.756-3v-0.011c5e-3 -1.662 1.246-2.99 2.756-2.992h0.033l1e-3 -1e-3c0.076 1e-3 0.151 8e-3 0.226 0.015 1.261 0.331 2.191 1.529 2.192 2.985 9.99e-4 1.423-0.722 2.586-2.007 2.962m-0.445-6.251h-3e-3c-0.135 1e-3 -0.267 0.014-0.397 0.032-1.562 0.139-2.779 1.55-2.778 3.26h-1e-3c0 5e-3 0 9e-3 1e-3 0.013 6e-3 1.704 1.22 3.107 2.778 3.245 0.131 0.018 0.264 0.032 0.4 0.032h3e-3c1.689-2e-3 3.041-1.482 3.044-3.29v-2e-3c-2e-3 -1.809-1.356-3.288-3.047-3.29"/>
<path d="m72.641 11.302c1.763-1.762 3.924-3.123 6.333-3.95l-0.605 0.753c-5.908 2.374-10.083 8.151-10.084 14.908 1e-3 6.931 4.391 12.837 10.542 15.09 1.723 0.63 3.583 0.974 5.524 0.974v1e-3c6.932 0 12.838-4.39 15.09-10.542 0.631-1.722 0.975-3.583 0.975-5.523 0-6.843-4.28-12.682-10.308-14.997l-0.232-0.234c0.01-0.01 0.021-0.019 0.027-0.032 0.018-0.046 9e-3 -0.099-0.026-0.134l-0.319-0.322c2.478 0.82 4.699 2.204 6.504 4.008 2.998 2.998 4.851 7.136 4.851 11.711 0 4.574-1.853 8.711-4.851 11.71-2.998 2.998-7.137 4.851-11.711 4.851s-8.712-1.853-11.71-4.851c-2.998-2.999-4.852-7.136-4.852-11.71 0-4.575 1.853-8.713 4.852-11.711zm6.513-3.811 0.966-1.181 0.016-0.109 1.038-1.265 0.018-0.124 1.389-1.624c0.086-0.054 0.146-0.074 0.172-0.079v6e-3c1e-3 0.017-3e-3 0.035-5e-3 0.047l-8.223 11.218-0.265-0.255 0.846-1.04 0.018-0.123 0.972-1.203 0.019-0.145 1.036-1.282 6e-3 -0.125 1.003-1.279 0.02-0.11 0.972-1.235 2e-3 -0.092zm3.868-5.423 0.411-0.302-0.458 0.931s-0.19 0.195-0.179-0.089c0 0-1.135 1.58-1.156 1.087l1.382-1.627zm0.648-0.354 0.624 0.084 1.385 1.454c-0.109-0.039-0.243-0.11-0.357-0.182-0.178-0.112-0.318-0.223-0.318-0.223l-0.106-0.084-0.061 0.12c-0.059 0.107-0.115 0.129-0.208 0.133-0.136 3e-3 -0.336-0.094-0.491-0.198s-0.268-0.207-0.268-0.207l-0.097-0.089-0.071 0.111c-0.097 0.148-0.201 0.178-0.316 0.182-0.081 0-0.164-0.023-0.226-0.047-1e-3 -1e-3 -4e-3 -2e-3 -6e-3 -2e-3l0.516-1.052zm0.094-0.44h2e-3l0.665 0.094c-1e-3 0.047-0.022 0.08-0.05 0.11-8e-3 9e-3 -0.017 0.016-0.025 0.023l-0.543-0.072c-0.042-0.064-0.049-0.107-0.049-0.136v-0.019zm0.13-1.027c0.05 1e-3 0.096 0.012 0.128 0.023v0.829c-0.04-4e-3 -0.084-8e-3 -0.128-0.011v-0.841zm9.491 12.784c-0.048-0.06 0.012-0.154 0.128-0.248 0.117-0.093 0.247-0.151 0.295-0.09 0.048 0.06-8e-3 0.184-0.125 0.278-0.116 0.093-0.25 0.12-0.298 0.06zm5.988 12.62c-0.629 0-1.169 0.075-1.523 0.108-0.477 0.048-1.328 0.343-1.516 0.399-0.33-0.088-1.915-0.88-2.996-0.882-0.049 0-0.098 1e-3 -0.148 5e-3 -0.25 0.02-0.723 0.14-0.772 0.143-0.036 4e-3 -0.074 0.012-0.113 0.022v-10.892l0.169 0.019 6e-3 -0.277 0.173-0.173 4e-3 -0.338c0.166-0.083 0.166-0.299 0.166-0.299l0.402-0.285c8e-3 2e-3 0.015 3e-3 0.023 5e-3 0.036 0.013 0.075 0.019 0.11 0.019h2e-3c4e-3 0 8e-3 2e-3 0.012 2e-3h4e-3c0.131-2e-3 0.265-0.06 0.392-0.159l-2e-3 -3e-3 3e-3 3e-3c0.022-0.018 0.041-0.038 0.062-0.057 0.134-0.118 0.229-0.246 0.236-0.396 0-0.019-4e-3 -0.04-0.01-0.06 1e-3 -0.031-6e-3 -0.062-0.028-0.086l-0.969-1.017c7e-3 -9e-3 0.016-0.014 0.02-0.024 0.018-0.045 8e-3 -0.098-0.026-0.134l-1.064-1.073c0.011-0.012 0.023-0.021 0.028-0.035 0.02-0.046 9e-3 -0.099-0.025-0.133l-1.023-1.033c4e-3 -5e-3 0.01-8e-3 0.012-0.013 0.019-0.046 9e-3 -0.099-0.026-0.134l-0.187-0.189c1.756 0.787 3.344 1.881 4.687 3.224 2.842 2.842 4.599 6.767 4.599 11.105 0 0.906-0.081 1.794-0.228 2.658-0.154-9e-3 -0.308-0.02-0.454-0.02zm-7.068 0.223c0.236-0.067 0.522-0.12 0.841-0.12 0.089 0 0.18 5e-3 0.273 0.014 1.037 0.099 2.004 0.58 2.218 0.656 0.433 0.155 1.011 0.269 1.268 0.312 0.24 0.041 1.162 0.35 1.395 0.357 0.017-1e-3 0.035 0 0.066-0.012 0.029-5e-3 0.088-0.06 0.086-0.124-1e-3 -0.034-0.012-0.06-0.029-0.085-0.127-0.163-0.352-0.246-0.797-0.372-0.178-0.048-0.178-0.074-0.516-0.147 0.273-0.075 0.607-0.152 0.916-0.183 0.278-0.029 0.545-0.042 0.798-0.042 0.325 0 0.626 0.022 0.91 0.061-0.63 3.062-2.15 5.799-4.278 7.928-0.94 0.939-2 1.757-3.151 2.435v-10.678zm-0.142-13.854 0.575 0.641c-0.063-2e-3 -0.354 0.071-0.354 0.071l-0.221-0.712zm-16.237 2.534-0.246 0.165c-0.101-0.044-0.11-0.049-0.184-0.21-0.013-0.028-0.03-0.066-0.046-0.102l0.234-0.154c0.015 0.031 0.03 0.063 0.043 0.089 0.061 0.131 0.124 0.185 0.199 0.212zm1.027-0.315-0.25 0.164c-0.157-0.074-0.414-0.174-0.463-0.329-0.015-0.044-0.033-0.108-0.048-0.157l0.239-0.159c0.018 0.055 0.041 0.127 0.058 0.179 0.043 0.128 0.334 0.249 0.464 0.302zm-0.521-0.997c-0.697-0.017-0.99 0.27-0.99 0.27l2.753-3.756-1.763 3.486zm1.381 0.432-0.251 0.165c-0.153-0.076-0.44-0.178-0.493-0.343-0.011-0.037-0.027-0.088-0.04-0.132l0.239-0.159c0.017 0.051 0.036 0.11 0.051 0.154 0.046 0.141 0.389 0.271 0.494 0.315zm0.082-1.516c-0.553 0.035-0.78 0.241-0.78 0.241l1.911-3.776 1.923-2.624-3.054 6.159zm0.742 0.975-0.253 0.166c-0.148-0.076-0.453-0.18-0.507-0.351-0.011-0.033-0.025-0.079-0.037-0.12l0.239-0.159c0.016 0.048 0.033 0.101 0.047 0.142 0.049 0.148 0.431 0.286 0.511 0.322zm0.862-0.566-0.249 0.163c-0.158-0.073-0.399-0.171-0.448-0.321-0.016-0.052-0.04-0.132-0.054-0.181l0.238-0.158c0.017 0.054 0.046 0.142 0.066 0.201 0.041 0.124 0.311 0.239 0.447 0.296zm0.309-1.947c-0.57 0.048-0.687 0.69-0.687 0.69-0.353-0.034-0.594 0.089-0.594 0.089l3.214-6.481 0.917-1.258-2.85 6.96zm0.624 0.387c0 0.012-1e-3 0.024-5e-3 0.038-0.017 0.062-0.097 0.118-0.219 0.119-0.041 0-0.083-7e-3 -0.126-0.02-0.15-0.046-0.235-0.164-0.231-0.24 0-0.014 1e-3 -0.026 5e-3 -0.036 0.019-0.065 0.098-0.121 0.22-0.122 0.04 0 0.082 7e-3 0.125 0.02 0.15 0.046 0.235 0.164 0.231 0.241zm-0.193-0.41-0.137-0.044 3.122-7.513 0.132-3e-3 -3.117 7.56zm4.081 1.351c0-0.101-3e-3 -0.276-3e-3 -0.276l0.597 0.095s9e-3 0.161 0.01 0.246c6e-3 0.188-0.084 0.236-0.23 0.333l-0.603-0.104c0.11-0.066 0.229-0.165 0.229-0.294zm-0.897-0.8-1.386-4.274 0.586-1.435 1.823 5.821c-0.437-0.313-1.023-0.112-1.023-0.112zm-0.557 0.549c0-0.1-3e-3 -0.276-3e-3 -0.276l0.596 0.087s8e-3 0.161 0.011 0.247c4e-3 0.19-0.088 0.235-0.238 0.337l-0.596-0.104c0.115-0.059 0.23-0.133 0.23-0.291zm-1.137-0.925c-0.5-0.336-1.023-0.112-1.023-0.112l-0.104-0.307 0.538-1.291 0.589 1.71zm-0.398-2.152 0.562-1.399 1.175 3.784c-0.488-0.33-1.023-0.113-1.023-0.113l-0.714-2.272zm4.472 2.855c-0.466-0.313-1.021-0.112-1.021-0.112l-2.007-6.226 0.536-1.36 2.492 7.698zm-0.037 0.468 0.59 0.1s9e-3 0.161 0.012 0.247c4e-3 0.174-0.074 0.228-0.202 0.312l-0.603-0.105c0.107-0.057 0.206-0.131 0.206-0.278 0-0.1-3e-3 -0.276-3e-3 -0.276zm1.256-0.315c-0.55-0.195-0.903-0.029-0.903-0.029l-2.659-8.192 0.167-0.419 0.089-0.055c0.232 0.221 0.593 0.342 0.593 0.342l2.713 8.353zm0.168 0.581 0.599 0.093s9e-3 0.161 0.011 0.246c4e-3 0.169-0.069 0.224-0.19 0.305l-0.597-0.104c0.096-0.055 0.18-0.129 0.18-0.264 0-0.1-3e-3 -0.276-3e-3 -0.276zm1.1-0.325c-0.418-0.251-0.925-0.063-0.925-0.063l-2.745-8.426 1.443 1.612 2.227 6.877zm0.411 0.581 0.589 0.097s9e-3 0.161 0.01 0.247c5e-3 0.169-0.069 0.224-0.191 0.305l-0.599-0.104c0.1-0.072 0.194-0.167 0.194-0.269 0-0.099-3e-3 -0.276-3e-3 -0.276zm0.821-0.378c-0.395-0.227-0.887-0.045-0.887-0.045l-2.087-6.477 1.404 1.598 1.57 4.924zm0.648 0.66 0.597 0.096s9e-3 0.162 0.011 0.246c4e-3 0.158-0.057 0.215-0.162 0.287l-0.62-0.108c0.092-0.062 0.177-0.142 0.177-0.245 0-0.1-3e-3 -0.276-3e-3 -0.276zm0.141-2.848 1.363 1.602 0.347 1.028c-0.419-0.227-0.882-0.031-0.882-0.031l-0.828-2.599zm0.478 2.415c-0.454-0.251-0.908-0.05-0.908-0.05l-1.483-4.589 1.427 1.652 0.964 2.987zm-16.585 2.153c0.095 0.074 0.142 0.175 0.141 0.237-1e-3 0.028-7e-3 0.047-0.02 0.063-0.017 0.021-0.047 0.037-0.099 0.037-0.061 1e-3 -0.146-0.028-0.219-0.087-0.094-0.072-0.142-0.173-0.14-0.235 0-0.029 7e-3 -0.048 0.018-0.062 0.019-0.024 0.049-0.039 0.101-0.039h3e-3c0.06 0 0.142 0.027 0.215 0.086zm0.123 11.26c-1.12-0.225-1.947-0.589-2.688-0.592-0.064 0-0.127 2e-3 -0.191 9e-3 -0.485 0.049-1.231 0.457-1.393 0.525-0.166-0.025-0.636-0.097-1.21-0.171-0.129-0.81-0.198-1.639-0.198-2.485 0-4.338 1.757-8.263 4.6-11.105 1.35-1.35 2.947-2.45 4.714-3.238l-7e-3 0.126-0.989 1.157c-0.019 0.022-0.023 0.053-0.01 0.078 7e-3 0.013 0.022 0.017 0.034 0.023l-1.094 1.313c-0.016 0.018-0.021 0.066 5e-3 0.099 0.027 0.033 0.043 0.043 0.043 0.043l-1.139 1.343c-0.019 0.022-0.022 0.054-9e-3 0.079 0.01 0.02 0.03 0.03 0.051 0.034l-1.074 1.259c-0.067 0.079-0.061 0.24-0.061 0.251 2e-3 0.146 0.084 0.289 0.217 0.394 0.105 0.084 0.227 0.13 0.345 0.131 3e-3 0 6e-3 -1e-3 0.01-1e-3 0.038 0.035 0.102 0.066 0.203 0.081v0.541h0.477v0.364h0.534v10.028c-0.346-0.097-0.746-0.199-1.17-0.286zm-1.171 1.315c-0.145-0.163-1.279-0.951-1.794-1.085-0.2-0.046-0.175-0.072-0.656-0.149 0.252-0.114 0.591-0.233 0.926-0.246 0.019-1e-3 0.038-0.0020129 0.057-0.0020129 0.721-0.0029871 2.616 0.51901 3.808 0.86901v9.552c-0.807-0.552-1.561-1.175-2.25-1.864-2.2-2.199-3.745-5.049-4.334-8.234 0.419 0.076 0.617 0.099 0.617 0.099 1e-3 0 0.402 0.06 0.402 0.06 0.306 0.063 0.438 0.108 0.673 0.156 0.358 0.075 0.942 0.335 1.435 0.576 0.249 0.122 0.476 0.238 0.649 0.324 0.189 0.088 0.249 0.139 0.365 0.155 0.015 0 0.04 0 0.075-0.023 0.037-0.023 0.058-0.077 0.056-0.106-3e-3 -0.046-0.015-0.061-0.029-0.082zm3.713-3.549 3e-3 -7.916 2.786-1.745v8.181l-2.789 1.48zm2.329 5.682v-1.463l0.583-0.195c0.018-6e-3 0.03-0.024 0.027-0.043 0-3e-3 0-6e-3 -1e-3 -9e-3 1e-3 -4e-3 2e-3 -9e-3 1e-3 -0.014-0.164-2.35-0.813-2.993-1.268-3.184-0.02-7e-3 -0.254-0.032-0.323-0.035-0.074 0-0.15 0.011-0.227 0.033-1.22 0.403-1.224 2.822-1.25 3.684 0 0.096 2e-3 0.174 3e-3 0.226 1e-3 0.027 1e-3 0.048 2e-3 0.062v0.017 5e-3c2e-3 0.052 0.031 0.098 0.075 0.124 0.023 0.013 0.049 0.019 0.073 0.019 0.025 0 0.05-6e-3 0.071-0.018l0.032-0.017-0.016 1.55-0.948 0.499c-0.041 0.021-0.067 0.063-0.068 0.111l-4e-3 0.966c-1e-3 0.044 0.023 0.085 0.06 0.108 8e-3 5e-3 0.017 4e-3 0.025 7e-3 -3e-3 0.034-7e-3 0.073-7e-3 0.121-0.014 0.299 0.162 0.884 0.982 0.971v4.197c-0.395-0.209-0.782-0.433-1.156-0.674v-20.526s0.496-0.379 0.745-0.218v8.145h-3e-3l-0.259 0.407s-0.044 0.032 9e-3 0.08c0.052 0.048 0.148-0.025 0.148-0.025l3.428-1.753s-0.025-8.611-0.025-8.704c0-0.328 0.454-0.704 0.454-0.704v25.279c-0.268-0.07-0.531-0.15-0.792-0.233l-0.03-8.67c0-0.034-0.013-0.065-0.036-0.089-0.024-0.024-0.057-0.037-0.09-0.037h-0.215zm-0.594 0.991h0.671v-0.75h-0.671v0.75zm-1.398 2.364 3e-3 -0.735c0.132 0.171 0.346 0.316 0.667 0.386l-0.67 0.371v-0.022zm0.803-1.437-3e-3 0.858c-0.683-0.118-0.734-0.53-0.749-0.788 0-0.027 2e-3 -0.052 3e-3 -0.073l0.749 3e-3zm-0.853-4.815c0.04-0.35 0.249-0.94 0.249-0.94l0.073 0.11c-0.113 0.147-0.322 0.83-0.322 0.83zm0.771 1.59v1.552l-0.498 0.262 0.014-1.574s0.013-0.865 0.232-1.188c0.065 0.031 0.118 0.115 0.165 0.268 0.056 0.196 0.075 0.459 0.087 0.68zm0.562 1.307c-0.013 0-0.025 4e-3 -0.037 7e-3 -0.018-4e-3 -0.037-4e-3 -0.056-1e-3l0.013-1.363s0.014-0.923 0.255-1.219c0.059 0.016 0.129 0.102 0.183 0.281 0.043 0.143 0.069 0.318 0.085 0.486 4e-3 0.073 6e-3 0.13 7e-3 0.157 0 7e-3 5e-3 0.014 6e-3 0.021 0 5e-3 1e-3 0.01 1e-3 0.014v1.617h-0.457zm0.468 2.407-0.698 0.387 3e-3 -0.918 0.07-0.037c0.092 0.222 0.277 0.448 0.625 0.568zm-0.45-0.977c0-0.027 1e-3 -0.052 3e-3 -0.073l0.749 3e-3 -3e-3 0.858c-0.685-0.118-0.735-0.529-0.749-0.788zm0.666-4.444c0.064 0.216 0.152 1.119 0.152 1.119l-0.098 0.032c0.013-0.29-0.152-1.098-0.152-1.098l0.098-0.053zm-0.158-0.175c-0.133-0.53-0.378-0.757-0.378-0.757l0.129-0.273c0.188 0.27 0.355 0.97 0.355 0.97l-0.106 0.06zm-1.498-0.899s0.203-0.433 0.552-0.535c0.349-0.101 0.546 0.188 0.546 0.188l-0.162 0.34c-0.497-0.261-0.829 0.172-0.829 0.172l-0.107-0.165zm0.143 0.667c0.118-0.261 0.263-0.433 0.385-0.449 0.038-9e-3 0.069-0.012 0.098-0.012 9e-3 -1e-3 0.014-1e-3 0.019-1e-3 0.256-0.01 0.502 0.432 0.62 0.98 9e-3 0.036 0.015 0.075 0.023 0.112-0.048-0.026-0.105-0.042-0.169-0.044-0.034 0-0.069 4e-3 -0.103 0.014-0.313 0.103-0.385 0.462-0.448 0.777v3e-3c-2e-3 -5e-3 -2e-3 -0.011-3e-3 -0.015-0.061-0.227-0.199-0.463-0.474-0.466-0.031 0-0.062 3e-3 -0.093 9e-3 -0.035 0.01-0.065 0.024-0.094 0.039 0.034-0.215 0.108-0.615 0.239-0.947zm-0.703 5.922-3e-3 0.761c-0.608-0.11-0.649-0.476-0.663-0.708 0-0.02 1e-3 -0.038 2e-3 -0.055l0.664 2e-3zm-0.755-0.401 4e-3 -0.682 2.08-1.094v0.711l-2.084 1.065zm3.057 4.855v1.739c-0.639-0.219-1.259-0.479-1.859-0.776l1.859-0.963zm-1.952 0.724v-4.065l1.953-1.081-1e-3 4.135-1.952 1.011zm12.64-22.794-7.411-1.292c0-0.468-1.274-0.624-1.781-0.669l1e-3 8e-3s-0.957 0.415-0.842 0.961l-3.093 2.006s-0.444-0.307-1.64 0.593l1e-3 -0.353s0.01-9e-3 0.026-0.02c-0.026 8e-3 -0.051 0.015-0.072 0.016-0.126 3e-3 -0.245-0.032-0.245-0.032s1e-3 -2e-3 1e-3 -3e-3c-6e-3 -3e-3 -0.013-2e-3 -0.019-6e-3 -0.133-0.064-0.158-0.089-0.217-0.275-5e-3 -0.015-9e-3 -0.034-0.014-0.053l0.244-0.161c5e-3 0.027 0.011 0.054 0.019 0.076 0.04 0.121 0.132 0.179 0.208 0.216 0.093 0.033 0.254 0.044 0.335 0.048 0.35-0.237 0.968-0.587 1.346-0.419l3.089-1.986s-0.104-0.332 0.36-0.725c-0.018 4e-3 -0.036 7e-3 -0.052 6e-3 -0.123-5e-3 -0.406 0.031-0.528-0.207-0.02-0.038-0.036-0.092-0.046-0.136l0.239-0.158c0.014 0.049 0.033 0.111 0.055 0.157 0.065 0.136 0.436 0.138 0.604 0.145 0.055-0.033 0.113-0.066 0.176-0.099l2e-3 7e-3 0.013-7e-3s0.328 0.021 0.471 0.036c0.111-0.067 0.236-0.168 0.236-0.295 0-0.1-4e-3 -0.276-4e-3 -0.276l0.599 0.101s9e-3 0.161 0.011 0.247c4e-3 0.183-0.082 0.233-0.222 0.326 0.841 0.207 0.807 0.552 0.807 0.552l7.303 1.271c0.331-0.162 0.98-0.147 1.551-0.09 0.111-0.058 0.217-0.133 0.217-0.284 0-0.1-4e-3 -0.276-4e-3 -0.276l0.609 0.1s9e-3 0.161 0.011 0.247c3e-3 0.164-0.064 0.221-0.179 0.297 0.121 0.019 0.221 0.036 0.297 0.05l-4e-3 0.394c-2.255-0.367-2.458-0.038-2.458-0.038zm-7.55 7.322v-8.173l7.655 1.308v8.041l-7.655-1.176zm6.683 11.275c0.869-0.348 1.065-1.223 1.103-1.537 0.028-0.024 0.044-0.059 0.043-0.096l-8e-3 -1.05c0-0.062-0.046-0.115-0.107-0.124l-0.874-0.13-0.057-2.401c-1e-3 -1e-3 -2e-3 -0.034-7e-3 -0.087l1.052 0.1-0.01-0.094c-0.027-0.762-0.256-1.487-0.625-2.115l-2e-3 -5e-3h-1e-3c-0.423-0.715-1.03-1.302-1.744-1.664 0 0-0.656-0.324-1.246-0.378-0.239-0.022-0.706-0.015-0.706-0.015-2.513 0.128-3.112 2.441-3.169 2.612-0.058 0.172-0.172 0.557-0.064 0.663 0.099 0.098 1.106 0.159 1.273 0.168l0.047 6e-3c-0.014 0.081-0.023 0.161-0.024 0.236v2.43l-0.531 0.212c-0.048 0.019-0.08 0.066-0.08 0.118l8e-3 1.029c0 6e-3 3e-3 0.011 4e-3 0.016-1e-3 5e-3 -4e-3 9e-3 -3e-3 0.014 0 3e-3 3e-3 5e-3 3e-3 8e-3l-1e-3 0.072 0.026 1.433c0 0.015 6e-3 0.026 0.017 0.036 4e-3 3e-3 0.01 3e-3 0.015 5e-3 1e-3 2e-3 1e-3 3e-3 2e-3 5e-3 9e-3 6e-3 0.02 0.01 0.031 0.01 2e-3 0 4e-3 -1e-3 6e-3 -1e-3l0.392-0.057c0.082-0.016 0.156-0.038 0.229-0.06v6.692c-1.109-0.019-2.19-0.152-3.231-0.39v-25.71c0.229 0.023 0.777 0.084 1.046 0.166 0.119 0.037 0.192 0.093 0.24 0.152 0.017 0.045 0.02 0.085 0.021 0.108 0 0.014 3e-3 0.079 3e-3 0.079v8.48l3e-3 1e-3 -7e-3 0.242 8.523 1.286-2e-3 -0.161v-8.594c0.022 0 0.041-3e-3 0.064-3e-3 0.283-4e-3 0.777 0.044 1.113 0.094v5e-3h-6e-3v22.357c-0.873 0.474-1.796 0.865-2.759 1.169v-5.332zm-0.602-0.094-0.01-1.103 1.069-0.407s-0.065 1.192-1.059 1.51zm-4.117 4.763 4.43 0.694v0.053c-1.406 0.413-2.891 0.643-4.43 0.643v-1.39zm0.845-6.433 0.585 0.08v0.016l0.022 1.232-1.452-0.219v-0.055c0-0.015-5e-3 -0.029-9e-3 -0.043 0.484-0.247 0.731-0.665 0.854-1.011zm-0.545-0.528s-0.066 1.192-1.059 1.51l-0.011-1.103 1.07-0.407zm-0.408-1.006-1e-3 0.77-0.669 0.259-6e-3 -0.76 0.676-0.269zm-0.011-2.588c0.067-0.437 0.225-0.975 0.906-0.975 0.048 0 0.101 3e-3 0.156 9e-3 0.02 2e-3 0.037 6e-3 0.057 9e-3 0.344 0.148 0.503 0.461 0.577 0.733l-0.031-4e-3c-0.028-5e-3 -0.056 4e-3 -0.08 0.019l-0.043 9e-3 -0.151 0.112c-0.028 0.021-0.042 0.057-0.036 0.092l0.101 0.563c7e-3 0.04 0.04 0.072 0.081 0.076l0.231 0.027 0.042 1.805-1.626-0.241c-0.023-3e-3 -0.046 2e-3 -0.067 0.011h-7e-3l-0.11 0.045v-2.29zm0.025-1.527c-0.172 0.29-0.288 0.623-0.33 0.988l-0.735-0.102c0.043-0.458 0.178-0.879 0.383-1.249l0.682 0.363zm1.113-0.965c-0.37 0.152-0.692 0.396-0.938 0.709l-0.693-0.37c0.329-0.474 0.789-0.837 1.326-1.055l0.305 0.716zm1.891 0.019c-0.218-0.088-0.445-0.15-0.682-0.178-0.321-0.037-0.629-0.013-0.914 0.061l-0.309-0.723c0.382-0.111 0.796-0.151 1.229-0.103 0.362 0.04 0.71 0.143 1.036 0.294l-0.36 0.649zm2.238 1.219c0.237 0.474 0.39 0.997 0.431 1.544l-0.735-0.1c-0.038-0.405-0.153-0.794-0.33-1.147l0.634-0.297zm-0.798 0.012c-0.289-0.46-0.685-0.843-1.149-1.096l0.354-0.637c0.583 0.335 1.078 0.836 1.435 1.433l-0.64 0.3zm-2.023 1.993v1.819l-0.189-0.028-0.042-1.819 0.231 0.028zm0.487-0.564-0.077 0.298-1.021-0.12-0.031-0.323 1.129 0.145zm0.891-1.123c-0.06-5e-3 -0.119-7e-3 -0.175-7e-3 -0.723-7e-3 -1.01 0.42-1.127 0.825l-0.363-0.047c-0.085-0.407-0.333-0.993-1.065-1.089-0.066-6e-3 -0.128-0.01-0.188-0.01-0.386 0-0.653 0.137-0.84 0.329 6e-3 -0.02 0.01-0.041 0.017-0.061 0.184-0.411 0.8-1.489 2.18-1.315 1.086 0.137 1.646 0.822 1.956 1.492-0.113-0.057-0.243-0.1-0.395-0.117zm0.713 3.817-1.803-0.268 1e-3 -1.847 0.181-9e-3c5e-3 -1e-3 9e-3 -5e-3 0.015-7e-3h4e-3c0.057 0 0.108-0.039 0.123-0.094l0.14-0.543c9e-3 -0.035 3e-3 -0.073-0.018-0.103-0.02-0.03-0.052-0.05-0.088-0.054l-0.276-0.036c0.09-0.312 0.28-0.568 0.833-0.574 0.037 0 0.078 2e-3 0.119 5e-3 0.753 0.251 0.715 1.243 0.715 1.243l0.054 2.287zm-4.196 0.44-2e-3 -0.825 5.434 0.807 5e-3 0.797-5.437-0.779zm2.002 2.245c0.625-0.223 0.921-0.713 1.06-1.107l0.577 0.079v0.024l0.022 1.254-1.659-0.25zm-0.557-1.221 1.07-0.407s-0.066 1.192-1.06 1.51l-0.01-1.103zm2.649 1.901-0.012 4.618-4.191-0.656 0.012-4.594 4.191 0.632zm-2.285-28.886 0.011 0.126 1.046 1.119 0.015 0.139 0.967 0.996 3e-3 0.122 1.033 1.057 0.014 0.123 1.093 1.14 0.024 0.111 1.013 1.077 0.02 0.131 1.018 1.072 3e-3 0.108 0.994 1.066c-0.159 0.014-0.271 0.137-0.271 0.137l-8.258-9.337c0.282 0.158 0.681 0.209 0.681 0.209l0.594 0.604zm-2.041 36.165c9.546-1e-3 17.284-7.738 17.284-17.283 0-8.046-5.5-14.799-12.944-16.726l-0.823-0.831c6e-3 -7e-3 0.014-0.012 0.017-0.02 0.019-0.046 9e-3 -0.098-0.026-0.134l-1.048-1.059c2e-3 -4e-3 6e-3 -5e-3 8e-3 -9e-3 0.019-0.047 8e-3 -0.099-0.026-0.134l-0.727-0.658c0.036-0.019 0.026-0.012 0.056-0.045 0.032-0.036 0.04-0.11 0.015-0.152-0.049-0.083-1.553-1.637-1.553-1.637 0.03-0.051 0.054-0.116 0.056-0.198 3e-3 -0.116-0.048-0.217-0.048-0.217l-0.323-0.045v-1.022l-0.056-0.036c-0.012-7e-3 -0.137-0.089-0.33-0.09-0.107 0-0.233 0.027-0.358 0.106l-0.057 0.035v1.033l-0.347 0.307-0.018 0.019-1.825 2.267c-0.031 0.039-0.042 0.089-0.029 0.137 3e-3 9e-3 8e-3 0.061 0.042 0.111 0.027 0.043 0.057 0.066 0.151 0.078-0.076 0.081-0.142 0.16-0.19 0.229l-0.305 0.357-0.012 0.012v2e-3l-0.821 0.96c-0.019 0.022-0.025 0.055-9e-3 0.079 0.029 0.043 0.067 0.036 0.082 0.041l-0.486 0.594c-7.286 2.031-12.634 8.712-12.634 16.646 0 9.545 7.739 17.282 17.284 17.283z"/>
<polygon points="24.532 48.777 26.052 48.945 26.052 52.156 21.238 52.156 21.238 48.945 22.758 48.777 22.758 48.185 18.198 48.185 18.198 48.777 19.718 48.945 19.718 56.548 18.198 56.717 18.198 57.308 22.758 57.308 22.758 56.717 21.238 56.548 21.238 52.916 26.052 52.916 26.052 56.548 24.532 56.717 24.532 57.308 29.072 57.308 29.072 56.717 27.552 56.548 27.552 48.945 29.072 48.777 29.072 48.185 24.532 48.185"/>
<polygon points="31.608 48.777 33.129 48.945 33.129 56.548 31.608 56.717 31.608 57.308 36.169 57.308 36.169 56.717 34.649 56.548 34.649 48.945 36.169 48.777 36.169 48.185 31.608 48.185"/>
<polygon points="18.414 44.3 14.465 44.3 14.465 44.976 16.154 45.208 12.923 54.33 9.799 45.356 9.799 45.144 11.551 44.976 11.551 44.3 6.694 44.3 6.694 44.976 7.982 45.144 8.785 47.34 6.23 54.33 2.999 45.144 4.752 44.976 4.752 44.3 -3.5527e-15 44.3 -3.5527e-15 44.976 1.246 45.144 5.66 57.478 6.04 57.478 9.292 48.734 12.396 57.478 12.776 57.478 17.169 45.23 18.414 44.976"/>
</g>
</g>
</svg>
