<?xml version="1.0" encoding="UTF-8"?>
<svg version="1.1" viewBox="0 0 236 58" xmlns="http://www.w3.org/2000/svg">
<title>Atoms/1.Logo/Wordmark</title>
<g fill="none" fill-rule="evenodd">
<g transform="translate(.38426 19.335)" fill="#fff" fill-rule="nonzero">
<polygon id="Path" points="24.522 1.8247 18.247 19.441 17.706 19.441 13.27 6.8664 8.6261 19.441 8.0834 19.441 1.7791 1.7016 0 1.458 0 0.48733 6.7867 0.48733 6.7867 1.458 4.2825 1.7016 8.8994 14.912 12.548 4.8604 11.402 1.7016 9.5626 1.458 9.5626 0.48733 16.497 0.48733 16.497 1.458 13.995 1.7016 13.995 2.0052 18.459 14.912 23.073 1.7931 20.662 1.4571 20.662 0.48652 26.302 0.48652 26.302 1.4571"/>
<polygon id="Path" points="35.043 19.198 35.043 18.347 37.214 18.104 37.214 12.88 30.337 12.88 30.337 18.104 32.509 18.347 32.509 19.198 25.993 19.198 25.993 18.347 28.166 18.104 28.166 7.1675 25.993 6.9255 25.993 6.0747 32.51 6.0747 32.51 6.9255 30.338 7.1675 30.338 11.787 37.215 11.787 37.215 7.1675 35.044 6.9255 35.044 6.0747 41.528 6.0747 41.528 6.9255 39.358 7.1675 39.358 18.104 41.528 18.347 41.528 19.198"/>
<polygon id="Path" points="45.151 19.198 45.151 18.347 47.324 18.104 47.324 7.1675 45.151 6.9255 45.151 6.0747 51.666 6.0747 51.666 6.9255 49.497 7.1675 49.497 18.104 51.666 18.347 51.666 19.198"/>
<polygon id="Path" points="65.815 9.7216 65.483 7.1683 61.834 7.1683 61.834 18.105 64.006 18.348 64.006 19.199 57.49 19.199 57.49 18.348 59.662 18.105 59.662 7.1683 55.982 7.1683 55.649 9.7216 54.685 9.7216 54.685 6.0755 66.78 6.0755 66.78 9.7216"/>
<polygon id="Path" points="81.462 19.198 81.462 18.347 83.634 18.104 83.031 8.9622 78.083 19.198 77.602 19.198 72.745 9.2043 72.203 17.984 74.373 18.347 74.373 19.198 68.763 19.198 68.763 18.347 70.935 17.984 71.658 7.1683 69.489 6.9263 69.489 6.0755 73.59 6.0755 78.356 16.009 83.151 6.0755 87.225 6.0755 87.225 6.9263 85.053 7.1084 85.807 18.105 87.98 18.348 87.98 19.199 81.462 19.199"/>
<path id="a" d="m97.936 19.198v-0.85081l2.2622-0.24286-1.2356-2.886h-5.2504l-1.2067 2.8552 2.263 0.27362v0.85081h-5.1885v-0.85081l1.6585-0.30276 5.1588-12.211h0.96551l5.2191 12.272 1.6279 0.24286v0.85081h-6.2738v-8.096e-4zm-1.5685-10.236h-0.061098l-2.1416 5.1623h4.3444l-2.1416-5.1623z"/>
<polygon id="Path" points="119.41 7.2914 119.41 19.319 118.72 19.319 109.37 9.082 109.37 17.984 111.51 18.347 111.51 19.198 105.96 19.198 105.96 18.347 108.1 17.984 108.1 7.7156 107.53 7.1076 105.96 6.9255 105.96 6.0747 109.52 6.0747 118.15 15.583 118.15 7.2914 116.01 6.9263 116.01 6.0755 121.56 6.0755 121.56 6.9263"/>
<path id="Path" d="m143.01 19.683c-5.3718 0-9.4115-3.795-9.4115-9.7191 0-5.9241 3.9191-9.9636 9.8038-9.9636 2.5026 0 4.01 0.42662 5.125 0.91071l0.39231-0.91071h0.96551l-0.24037 5.4983h-0.96551l-0.48396-2.3986c-1.4463-1.2151-2.8057-1.8846-5.3091-1.8846-3.6209 0-6.6356 3.1304-6.6356 8.2928 0 4.6167 2.5026 8.8092 6.9684 8.8092 2.4118 0 4.4955-1.003 6.0921-2.673l0.72514 0.97062c-1.9913 2.036-4.2817 3.0681-7.0263 3.0681z"/>
<path d="m158.6 19.683c-3.9834 0-7.089-2.7929-7.089-6.9247 0-4.1318 3.2285-7.1675 7.2088-7.1675 3.9818 0 7.089 2.7953 7.089 6.923 0 4.131-3.2269 7.1691-7.2088 7.1691zm0-12.999c-2.657 0-4.6161 2.1849-4.6161 5.8302 0 3.6453 2.0805 6.0763 4.7359 6.0763 2.657 0 4.6161-2.1873 4.6161-5.8318 0-3.6453-2.0822-6.0747-4.7359-6.0747z"/>
<polygon id="Path" points="167.46 19.198 167.46 18.347 169.63 18.104 169.63 7.1675 167.46 6.9255 167.46 6.0747 173.97 6.0747 173.97 6.9255 171.8 7.1675 171.8 18.104 176.92 18.104 177.38 15.341 178.4 15.341 178.4 19.198"/>
<polygon id="Path" points="180.9 19.198 180.9 18.347 183.07 18.104 183.07 7.1675 180.9 6.9255 180.9 6.0747 187.41 6.0747 187.41 6.9255 185.24 7.1675 185.24 18.104 190.37 18.104 190.82 15.341 191.84 15.341 191.84 19.198"/>
<polygon id="Path" points="193.78 19.198 193.78 18.347 195.96 18.104 195.96 7.1675 193.78 6.9255 193.78 6.0747 204.61 6.0747 204.61 9.507 203.65 9.507 203.32 7.1667 198.13 7.1667 198.13 11.786 201.69 11.786 201.93 10.328 202.83 10.328 202.83 14.334 201.93 14.334 201.69 12.879 198.13 12.879 198.13 18.103 203.5 18.103 203.89 15.642 204.91 15.642 204.91 19.196 193.78 19.196"/>
<path id="b" d="m220.7 14.824v3.4016c-0.99526 0.63871-2.9584 1.4571-5.58 1.4571-4.1032 0-7.2401-2.8252-7.2401-6.9562 0-4.131 2.8941-7.136 7.4218-7.136 2.0492 0 3.3162 0.45414 4.1908 0.72695l0.24037-0.72695h0.90602l-0.18088 4.1302h-0.90441l-0.33282-1.8222c-1.3265-0.88319-2.4729-1.2151-4.1627-1.2151-2.7759 0-4.7062 2.214-4.7062 5.8002 0 3.5562 1.8997 6.1062 4.9755 6.1062 1.5701 0 2.5356-0.33433 3.1996-0.85162v-2.9151l-2.3539-0.24367v-0.85243h5.4297v0.79171l-0.9028 0.30519z"/>
<polygon points="224.42 19.198 224.42 18.347 226.59 18.104 226.59 7.1675 224.42 6.9255 224.42 6.0747 235.24 6.0747 235.24 9.507 234.28 9.507 233.95 7.1667 228.76 7.1667 228.76 11.786 232.32 11.786 232.56 10.328 233.47 10.328 233.47 14.334 232.56 14.334 232.32 12.879 228.76 12.879 228.76 18.103 234.13 18.103 234.52 15.642 235.55 15.642 235.55 19.196 224.42 19.196"/>
</g>
</g>
</svg>
