<?xml version="1.0" encoding="UTF-8"?>
<svg width="32px" height="24px" viewBox="0 0 32 24" version="1.1" xmlns="http://www.w3.org/2000/svg" xmlns:xlink="http://www.w3.org/1999/xlink">
    <title>Atoms/2.Icons/General/24px/Mail</title>
    <g id="Right-Column-Components" stroke="none" stroke-width="1" fill="none" fill-rule="evenodd">
        <g id="Right-Column-Components-Update" transform="translate(-935.000000, -3097.000000)" fill="#333333">
            <g id="Atoms/2.Icons/General/24px/Mail" transform="translate(935.000000, 3093.000000)">
                <path d="M5.06853818e-13,7.99999995 C5.06853818e-13,5.79086096 1.79086101,3.99999995 4,3.99999995 L28,3.99999995 C30.2091391,3.99999995 32,5.79086096 32,7.99999995 L32,24 C32,26.209139 30.2091391,28 28,28 L4,28 C1.79086101,28 5.06853818e-13,26.209139 5.06853818e-13,24 L5.06853818e-13,7.99999995 Z M4.00000001,5.99999996 C2.89543051,5.99999996 2.00000001,6.89543046 2.00000001,7.99999996 L2.00000001,8.43399997 L16,16.834 L30,8.43399997 L30,7.99999996 C30,6.89543046 29.1045696,5.99999996 28,5.99999996 L4.00000001,5.99999996 Z M30.0000001,10.766 L20.4840001,16.476 L30.0000001,22.228 L30.0000001,10.768 L30.0000001,10.766 Z M29.9320001,24.522 L18.5420001,17.64 L16.0000001,19.166 L13.4560001,17.64 L2.06800001,24.52 C2.30319419,25.3934831 3.0954068,26.0003541 4.00000002,26.0000005 L28.0000001,26.0000005 C28.9040239,26.0005977 29.6960501,25.3946896 29.9320001,24.522 L29.9320001,24.522 Z M2.00000001,22.228 L11.516,16.476 L2.00000001,10.766 L2.00000001,22.226 L2.00000001,22.228 Z" id="envelope"></path>
            </g>
        </g>
    </g>
</svg>