<?xml version="1.0" encoding="UTF-8"?>
<svg width="32px" height="33px" viewBox="0 0 32 33" version="1.1" xmlns="http://www.w3.org/2000/svg" xmlns:xlink="http://www.w3.org/1999/xlink">
    <title>Atoms/2.Icons/General/24px/Phone</title>
    <g id="Right-Column-Components" stroke="none" stroke-width="1" fill="none" fill-rule="evenodd">
        <g id="Right-Column-Components-Update" transform="translate(-935.000000, -3033.000000)" fill="#333333">
            <g id="Atoms/2.Icons/General/24px/Phone" transform="translate(935.000000, 3033.500000)">
                <path d="M7.3089419,2.65659806 C7.0701037,2.34936426 6.71077986,2.15955003 6.32237914,2.13544239 C5.93397843,2.11133476 5.55393988,2.25525754 5.27894189,2.53059806 L3.21094188,4.60059807 C2.24494188,5.56859807 1.88894188,6.93859808 2.31094188,8.14059808 C4.06242103,13.1157732 6.91153141,17.6327889 10.6469419,21.3565981 C14.3707942,25.0919548 18.8877968,27.941057 23.862942,29.6925982 C25.064942,30.1145982 26.434942,29.7585982 27.402942,28.7925982 L29.470942,26.7245982 C29.7462825,26.4496002 29.8902053,26.0695616 29.8660977,25.6811609 C29.84199,25.2927602 29.6521758,24.9334364 29.344942,24.6945981 L24.730942,21.1065981 C24.4021832,20.8516145 23.9745655,20.7616673 23.570942,20.8625981 L19.1909419,21.9565981 C18.001715,22.253828 16.7437356,21.9053594 15.8769419,21.0385981 L10.9649419,16.1245981 C10.0974639,15.2582119 9.74822085,14.0001778 10.0449419,12.8105981 L11.1409419,8.43059808 C11.2418727,8.02697453 11.1519255,7.59935687 10.8969419,7.27059808 L7.3089419,2.65659806 Z M3.76894188,1.02259805 C4.47693391,0.314380902 5.45503803,-0.0555868555 6.45450493,0.00678416519 C7.45397184,0.0691551859 8.37849143,0.55785482 8.9929419,1.34859805 L12.5809419,5.96059807 C13.2389419,6.80659807 13.4709419,7.90859808 13.2109419,8.94859808 L12.1169419,13.3285981 C12.0018925,13.7900334 12.1369793,14.2780153 12.4729419,14.6145981 L17.3869419,19.5285981 C17.723943,19.8652591 18.2128812,20.0004004 18.6749419,19.8845981 L23.052942,18.7905981 C24.09284,18.5305914 25.1945406,18.7628777 26.040942,19.4205981 L30.652942,23.0085981 C32.310942,24.2985981 32.462942,26.7485982 30.978942,28.2305982 L28.910942,30.2985982 C27.430942,31.7785982 25.218942,32.4285982 23.156942,31.7025982 C17.8793083,29.8456499 13.0874868,26.8242732 9.13694191,22.8625981 C5.17551935,18.9126295 2.15415828,14.1215165 0.296941869,8.84459808 C-0.427058134,6.78459807 0.222941868,4.57059807 1.70294187,3.09059806 L3.77094188,1.02259805 L3.76894188,1.02259805 Z" id="telephone"></path>
            </g>
        </g>
    </g>
</svg>