<svg width="1360" height="60" xmlns="http://www.w3.org/2000/svg"><path d="M0 29.043537c28.4302779-6.176533 54.1505462-12.088006 77.1608047-17.734418C100.171063 5.662707 113.903535 1.893 118.358219 0c20.85177 3.327218 37.880713 5.868407 51.086829 7.623566 13.206115 1.75516 32.598576 4.054561 58.17738 6.898202 25.887388 1.592341 45.669667 2.388512 59.346839 2.388512 13.677171 0 23.085133-.796171 28.223885-2.388512L375.237515 0c10.508681 2.830174 21.968073 5.371363 34.378175 7.623566 12.410101 2.252204 27.623343 4.551605 45.639726 6.898202l33.826257-6.898202c9.391261 3.079284 17.716472 5.378684 24.975633 6.898202 7.259161 1.519518 15.715676 3.248733 25.369543 5.187643l19.254371 1.355281c14.096228 2.613097 23.608555 3.919645 28.536981 3.919645 4.928426 0 12.398335-1.306548 22.409729-3.919645l47.215957-6.542924L706.832214 0c18.868562 3.142364 34.585748 5.683553 47.151558 7.623566 12.56581 1.940014 31.733629 4.239415 57.503456 6.898202l49.903961 5.187643c7.332665.341256 13.243764.341256 17.733296 0 4.489533-.341256 10.85347-1.2743 19.091812-2.799131 16.448739-5.051529 26.593312-8.1471 30.433717-9.286714 9.757291-2.895408 11.621896-4.114771 17.768668-2.899391 5.641181 1.115411 11.033075 4.581809 17.465891 6.584944 3.143198.97877 8.285657 2.049653 15.427377 3.212649l21.39615-6.898202c4.28708 2.59424 10.03791 4.89364 17.25249 6.898202 7.21458 2.004562 15.96307 3.733776 26.24545 5.187643 4.5545.903521 8.17496 1.355281 10.86137 1.355281 2.68641 0 5.54138-.45176 8.5649-1.355281l22.81981-5.187643L1147.77201 0c14.04358 2.513668 33.01479 5.054857 56.91363 7.623566 23.89884 2.56871 49.96366 4.86811 78.19447 6.898202 6.67361.029523 12.83886-.499093 18.49576-1.585848 5.6569-1.086754 11.46076-2.857539 17.41156-5.312354L1360 14.521768V60H0V29.043537Z" fill="#FFF" fill-rule="evenodd"/></svg>